<?xml version="1.0" encoding="UTF-8" standalone="no"?>
<!DOCTYPE svg PUBLIC "-//W3C//DTD SVG 1.1//EN"
 "http://www.w3.org/Graphics/SVG/1.1/DTD/svg11.dtd">
<!-- Generated by graphviz version 14.1.1 (20251213.1925)
 -->
<!-- Pages: 1 -->
<svg width="3556pt" height="1279pt"
 viewBox="0.00 0.00 3556.00 1279.00" xmlns="http://www.w3.org/2000/svg" xmlns:xlink="http://www.w3.org/1999/xlink">
<g id="graph0" class="graph" transform="scale(1 1) rotate(0) translate(4 1275)">
<polygon fill="white" stroke="none" points="-4,4 -4,-1275 3552.38,-1275 3552.38,4 -4,4"/>
<text xml:space="preserve" text-anchor="middle" x="1774.19" y="-7.2" font-family="Times,serif" font-size="14.00">char_trivial</text>
<g id="clust1" class="cluster">
<title>cluster_2</title>
<polygon fill="palegreen" stroke="palegreen" points="2690.38,-828.75 2690.38,-1197 3020.38,-1197 3020.38,-828.75 2690.38,-828.75"/>
<text xml:space="preserve" text-anchor="middle" x="2855.38" y="-1179.7" font-family="Times,serif" font-size="14.00">main</text>
</g>
<g id="clust2" class="cluster">
<title>cluster_4</title>
<polygon fill="lightgray" stroke="lightgray" points="1609.38,-801.5 1609.38,-1246.5 2444.38,-1246.5 2444.38,-801.5 1609.38,-801.5"/>
<text xml:space="preserve" text-anchor="middle" x="2026.88" y="-1229.2" font-family="Times,serif" font-size="14.00">std::rt::lang_start::&lt;()&gt;</text>
</g>
<g id="clust3" class="cluster">
<title>cluster_6</title>
<polygon fill="lightgray" stroke="lightgray" points="1609.38,-123.5 1609.38,-767 2223.38,-767 2223.38,-123.5 1609.38,-123.5"/>
<text xml:space="preserve" text-anchor="middle" x="1916.38" y="-749.7" font-family="Times,serif" font-size="14.00">std::rt::lang_start::&lt;()&gt;</text>
<text xml:space="preserve" text-anchor="middle" x="1916.38" y="-733.2" font-family="Times,serif" font-size="14.00">::{closure#0}</text>
</g>
<g id="clust4" class="cluster">
<title>cluster_8</title>
<polygon fill="lightgray" stroke="lightgray" points="2772.38,-32.5 2772.38,-535.5 3004.38,-535.5 3004.38,-32.5 2772.38,-32.5"/>
<text xml:space="preserve" text-anchor="middle" x="2888.38" y="-518.2" font-family="Times,serif" font-size="14.00">std::sys::backtrace::__ru</text>
<text xml:space="preserve" text-anchor="middle" x="2888.38" y="-501.7" font-family="Times,serif" font-size="14.00">st_begin_short_backtrace:</text>
<text xml:space="preserve" text-anchor="middle" x="2888.38" y="-485.2" font-family="Times,serif" font-size="14.00">:&lt;fn(), </text>
<text xml:space="preserve" text-anchor="middle" x="2888.38" y="-468.7" font-family="Times,serif" font-size="14.00">()&gt;</text>
</g>
<g id="clust5" class="cluster">
<title>cluster_10</title>
<polygon fill="lightgray" stroke="lightgray" points="532.38,-828.75 532.38,-1263 1044.38,-1263 1044.38,-828.75 532.38,-828.75"/>
<text xml:space="preserve" text-anchor="middle" x="788.38" y="-1245.7" font-family="Times,serif" font-size="14.00">&lt;{closure@std::rt::lang_s</text>
<text xml:space="preserve" text-anchor="middle" x="788.38" y="-1229.2" font-family="Times,serif" font-size="14.00">tart&lt;()&gt;::{closure#0}} </text>
<text xml:space="preserve" text-anchor="middle" x="788.38" y="-1212.7" font-family="Times,serif" font-size="14.00">as </text>
<text xml:space="preserve" text-anchor="middle" x="788.38" y="-1196.2" font-family="Times,serif" font-size="14.00">std::ops::FnOnce&lt;()&gt;&gt;::ca</text>
<text xml:space="preserve" text-anchor="middle" x="788.38" y="-1179.7" font-family="Times,serif" font-size="14.00">ll_once</text>
</g>
<g id="clust6" class="cluster">
<title>cluster_12</title>
<polygon fill="lightgray" stroke="lightgray" points="3095.38,-32.5 3095.38,-337 3345.38,-337 3345.38,-32.5 3095.38,-32.5"/>
<text xml:space="preserve" text-anchor="middle" x="3220.38" y="-319.7" font-family="Times,serif" font-size="14.00">&lt;fn() </text>
<text xml:space="preserve" text-anchor="middle" x="3220.38" y="-303.2" font-family="Times,serif" font-size="14.00">as </text>
<text xml:space="preserve" text-anchor="middle" x="3220.38" y="-286.7" font-family="Times,serif" font-size="14.00">std::ops::FnOnce&lt;()&gt;&gt;::ca</text>
<text xml:space="preserve" text-anchor="middle" x="3220.38" y="-270.2" font-family="Times,serif" font-size="14.00">ll_once</text>
</g>
<g id="clust7" class="cluster">
<title>cluster_14</title>
<polygon fill="lightgray" stroke="lightgray" points="1052.38,-390.5 1052.38,-998.5 1601.38,-998.5 1601.38,-390.5 1052.38,-390.5"/>
<text xml:space="preserve" text-anchor="middle" x="1326.88" y="-981.2" font-family="Times,serif" font-size="14.00">&lt;{closure@std::rt::lang_s</text>
<text xml:space="preserve" text-anchor="middle" x="1326.88" y="-964.7" font-family="Times,serif" font-size="14.00">tart&lt;()&gt;::{closure#0}} </text>
<text xml:space="preserve" text-anchor="middle" x="1326.88" y="-948.2" font-family="Times,serif" font-size="14.00">as </text>
<text xml:space="preserve" text-anchor="middle" x="1326.88" y="-931.7" font-family="Times,serif" font-size="14.00">std::ops::FnOnce&lt;()&gt;&gt;::ca</text>
<text xml:space="preserve" text-anchor="middle" x="1326.88" y="-915.2" font-family="Times,serif" font-size="14.00">ll_once</text>
</g>
<g id="clust8" class="cluster">
<title>cluster_16</title>
<polygon fill="lightgray" stroke="lightgray" points="3028.38,-1090.75 3028.38,-1221.75 3540.38,-1221.75 3540.38,-1090.75 3028.38,-1090.75"/>
<text xml:space="preserve" text-anchor="middle" x="3284.38" y="-1204.45" font-family="Times,serif" font-size="14.00">std::ptr::drop_in_place::</text>
<text xml:space="preserve" text-anchor="middle" x="3284.38" y="-1187.95" font-family="Times,serif" font-size="14.00">&lt;{closure@std::rt::lang_s</text>
<text xml:space="preserve" text-anchor="middle" x="3284.38" y="-1171.45" font-family="Times,serif" font-size="14.00">tart&lt;()&gt;::{closure#0}}&gt;</text>
</g>
<g id="clust9" class="cluster">
<title>cluster_18</title>
<polygon fill="lightgray" stroke="lightgray" points="2231.38,-181.25 2231.38,-328.75 2764.38,-328.75 2764.38,-181.25 2231.38,-181.25"/>
<text xml:space="preserve" text-anchor="middle" x="2497.88" y="-311.45" font-family="Times,serif" font-size="14.00">&lt;() </text>
<text xml:space="preserve" text-anchor="middle" x="2497.88" y="-294.95" font-family="Times,serif" font-size="14.00">as </text>
<text xml:space="preserve" text-anchor="middle" x="2497.88" y="-278.45" font-family="Times,serif" font-size="14.00">std::process::Termination</text>
<text xml:space="preserve" text-anchor="middle" x="2497.88" y="-261.95" font-family="Times,serif" font-size="14.00">&gt;::report</text>
</g>
<!-- node_0 -->
<g id="node1" class="node">
<title>node_0</title>
<polygon fill="lightyellow" stroke="lightyellow" points="130.75,-1148 0,-1148 0,-1107 130.75,-1107 130.75,-1148"/>
<text xml:space="preserve" text-anchor="start" x="8" y="-1130.7" font-family="Times,serif" font-size="14.00">ALLOCS</text>
<text xml:space="preserve" text-anchor="start" x="8" y="-1114.2" font-family="Times,serif" font-size="14.00">alloc1: Str (26 bytes)</text>
</g>
<!-- node_1 -->
<g id="node2" class="node">
<title>node_1</title>
<polygon fill="lavender" stroke="lavender" points="522.25,-1181 148.5,-1181 148.5,-1074 522.25,-1074 522.25,-1181"/>
<text xml:space="preserve" text-anchor="start" x="156.5" y="-1163.7" font-family="Times,serif" font-size="14.00">TYPES</text>
<text xml:space="preserve" text-anchor="start" x="156.5" y="-1147.2" font-family="Times,serif" font-size="14.00">() (0 bytes)</text>
<text xml:space="preserve" text-anchor="start" x="156.5" y="-1130.7" font-family="Times,serif" font-size="14.00">std::panic::Location&lt;&#39;_&gt; (24 bytes)</text>
<text xml:space="preserve" text-anchor="start" x="156.5" y="-1114.2" font-family="Times,serif" font-size="14.00">std::process::ExitCode (1 bytes)</text>
<text xml:space="preserve" text-anchor="start" x="156.5" y="-1097.7" font-family="Times,serif" font-size="14.00">std::result::Result&lt;isize, !&gt; (8 bytes)</text>
<text xml:space="preserve" text-anchor="start" x="156.5" y="-1081.2" font-family="Times,serif" font-size="14.00">std::sys::pal::unix::process::process_common::ExitCode (1 bytes)</text>
</g>
<!-- X3c6542d96320ad67_0 -->
<g id="node3" class="node">
<title>X3c6542d96320ad67_0</title>
<polygon fill="none" stroke="red" points="3084.5,-79 3012.25,-79 3012.25,-38 3084.5,-38 3084.5,-79"/>
<text xml:space="preserve" text-anchor="middle" x="3048.38" y="-61.7" font-family="Times,serif" font-size="14.00">Intr: </text>
<text xml:space="preserve" text-anchor="middle" x="3048.38" y="-45.2" font-family="Times,serif" font-size="14.00">black_box</text>
</g>
<!-- X8b0ac2e54b9a91_0 -->
<g id="node4" class="node">
<title>X8b0ac2e54b9a91_0</title>
<polygon fill="none" stroke="red" points="1354.62,-1145.5 1298.12,-1145.5 1298.12,-1109.5 1354.62,-1109.5 1354.62,-1145.5"/>
<text xml:space="preserve" text-anchor="middle" x="1326.38" y="-1122.45" font-family="Times,serif" font-size="14.00">NoOp: </text>
</g>
<!-- X5eb86185c1cf8f06_0 -->
<g id="node5" class="node">
<title>X5eb86185c1cf8f06_0</title>
<polygon fill="none" stroke="red" points="2620.12,-883.5 2452.62,-883.5 2452.62,-826 2620.12,-826 2620.12,-883.5"/>
<text xml:space="preserve" text-anchor="middle" x="2536.38" y="-866.2" font-family="Times,serif" font-size="14.00">_ZN3std2rt19lang_start_in</text>
<text xml:space="preserve" text-anchor="middle" x="2536.38" y="-849.7" font-family="Times,serif" font-size="14.00">ternal17h035df9ff6960926a</text>
<text xml:space="preserve" text-anchor="middle" x="2536.38" y="-833.2" font-family="Times,serif" font-size="14.00">E</text>
</g>
<!-- X210a8e5fe9313c81_0 -->
<g id="node6" class="node">
<title>X210a8e5fe9313c81_0</title>
<polygon fill="none" stroke="red" points="3056.12,-668.5 2882.62,-668.5 2882.62,-627.5 3056.12,-627.5 3056.12,-668.5"/>
<text xml:space="preserve" text-anchor="middle" x="2969.38" y="-651.2" font-family="Times,serif" font-size="14.00">_ZN4core9panicking5panic1</text>
<text xml:space="preserve" text-anchor="middle" x="2969.38" y="-634.7" font-family="Times,serif" font-size="14.00">7h37379bf3ce79a0d7E</text>
</g>
<!-- node_3 -->
<g id="node7" class="node">
<title>node_3</title>
<polygon fill="#7ccd7c" stroke="#7ccd7c" points="2842.5,-1164.5 2698.25,-1164.5 2698.25,-1090.5 2842.5,-1090.5 2842.5,-1164.5"/>
<text xml:space="preserve" text-anchor="start" x="2706.25" y="-1147.2" font-family="Times,serif" font-size="14.00">LOCALS</text>
<text xml:space="preserve" text-anchor="start" x="2706.25" y="-1130.7" font-family="Times,serif" font-size="14.00">0 = () (0 bytes, align 1)</text>
<text xml:space="preserve" text-anchor="start" x="2706.25" y="-1114.2" font-family="Times,serif" font-size="14.00">1 = Char</text>
<text xml:space="preserve" text-anchor="start" x="2706.25" y="-1097.7" font-family="Times,serif" font-size="14.00">2 = ()</text>
</g>
<!-- X4e58a5f02abb8a08_0 -->
<g id="node8" class="node">
<title>X4e58a5f02abb8a08_0</title>
<polygon fill="none" stroke="black" points="3012.25,-1148 2860.5,-1148 2860.5,-1107 3012.25,-1107 3012.25,-1148"/>
<text xml:space="preserve" text-anchor="start" x="2868.5" y="-1130.7" font-family="Times,serif" font-size="14.00">1 &lt;&#45; Use(const 97_Char)</text>
<text xml:space="preserve" text-anchor="start" x="2868.5" y="-1114.2" font-family="Times,serif" font-size="14.00">SwitchInt mv(1)</text>
</g>
<!-- X4e58a5f02abb8a08_1 -->
<g id="node9" class="node">
<title>X4e58a5f02abb8a08_1</title>
<polygon fill="none" stroke="black" points="2924.38,-872.75 2870.38,-872.75 2870.38,-836.75 2924.38,-836.75 2924.38,-872.75"/>
<text xml:space="preserve" text-anchor="start" x="2878.38" y="-849.7" font-family="Times,serif" font-size="14.00">Return</text>
</g>
<!-- X4e58a5f02abb8a08_0&#45;&gt;X4e58a5f02abb8a08_1 -->
<g id="edge1" class="edge">
<title>X4e58a5f02abb8a08_0&#45;&gt;X4e58a5f02abb8a08_1</title>
<path fill="none" stroke="black" d="M2933.51,-1106.59C2926.69,-1059.25 2909.48,-939.78 2901.53,-884.56"/>
<polygon fill="black" stroke="black" points="2904.99,-884.09 2900.1,-874.69 2898.06,-885.09 2904.99,-884.09"/>
<text xml:space="preserve" text-anchor="middle" x="2927.12" y="-1009.7" font-family="Times,serif" font-size="14.00">97</text>
</g>
<!-- X4e58a5f02abb8a08_2 -->
<g id="node10" class="node">
<title>X4e58a5f02abb8a08_2</title>
<polygon fill="none" stroke="black" points="2996.38,-872.75 2942.38,-872.75 2942.38,-836.75 2996.38,-836.75 2996.38,-872.75"/>
<text xml:space="preserve" text-anchor="start" x="2950.38" y="-849.7" font-family="Times,serif" font-size="14.00">Call</text>
</g>
<!-- X4e58a5f02abb8a08_0&#45;&gt;X4e58a5f02abb8a08_2 -->
<g id="edge2" class="edge">
<title>X4e58a5f02abb8a08_0&#45;&gt;X4e58a5f02abb8a08_2</title>
<path fill="none" stroke="black" d="M2938.8,-1106.59C2944.57,-1059.25 2959.13,-939.78 2965.86,-884.56"/>
<polygon fill="black" stroke="black" points="2969.33,-885.05 2967.07,-874.7 2962.38,-884.2 2969.33,-885.05"/>
<text xml:space="preserve" text-anchor="middle" x="2964.77" y="-1009.7" font-family="Times,serif" font-size="14.00">other</text>
</g>
<!-- X4e58a5f02abb8a08_2&#45;&gt;X210a8e5fe9313c81_0 -->
<g id="edge3" class="edge">
<title>X4e58a5f02abb8a08_2&#45;&gt;X210a8e5fe9313c81_0</title>
<path fill="none" stroke="black" d="M2969.38,-836.29C2969.38,-801.64 2969.38,-723.76 2969.38,-680.13"/>
<polygon fill="black" stroke="black" points="2972.88,-680.31 2969.38,-670.31 2965.88,-680.31 2972.88,-680.31"/>
<text xml:space="preserve" text-anchor="middle" x="3006.5" y="-778.2" font-family="Times,serif" font-size="14.00">const [alloc0]</text>
</g>
<!-- node_5 -->
<g id="node11" class="node">
<title>node_5</title>
<polygon fill="#7ccd7c" stroke="#7ccd7c" points="2179.75,-1214 1617,-1214 1617,-1041 2179.75,-1041 2179.75,-1214"/>
<text xml:space="preserve" text-anchor="start" x="1625" y="-1196.7" font-family="Times,serif" font-size="14.00">LOCALS</text>
<text xml:space="preserve" text-anchor="start" x="1625" y="-1180.2" font-family="Times,serif" font-size="14.00">0 = Int(Isize)</text>
<text xml:space="preserve" text-anchor="start" x="1625" y="-1163.7" font-family="Times,serif" font-size="14.00">1 = fn()</text>
<text xml:space="preserve" text-anchor="start" x="1625" y="-1147.2" font-family="Times,serif" font-size="14.00">2 = Int(Isize)</text>
<text xml:space="preserve" text-anchor="start" x="1625" y="-1130.7" font-family="Times,serif" font-size="14.00">3 = *const *const u8 (8 bytes, align 8)</text>
<text xml:space="preserve" text-anchor="start" x="1625" y="-1114.2" font-family="Times,serif" font-size="14.00">4 = Uint(U8)</text>
<text xml:space="preserve" text-anchor="start" x="1625" y="-1097.7" font-family="Times,serif" font-size="14.00">5 = std::result::Result&lt;isize, !&gt; (8 bytes, align 8)</text>
<text xml:space="preserve" text-anchor="start" x="1625" y="-1081.2" font-family="Times,serif" font-size="14.00">6 = &amp;dyn std::ops::Fn() &#45;&gt; i32 + std::marker::Sync + std::panic::RefUnwindSafe (16 bytes, align 8)</text>
<text xml:space="preserve" text-anchor="start" x="1625" y="-1064.7" font-family="Times,serif" font-size="14.00">7 = &amp;{closure@std::rt::lang_start&lt;()&gt;::{closure#0}} (8 bytes, align 8)</text>
<text xml:space="preserve" text-anchor="start" x="1625" y="-1048.2" font-family="Times,serif" font-size="14.00">8 = {closure@std::rt::lang_start&lt;()&gt;::{closure#0}}</text>
</g>
<!-- Xd271dae06cb02d56_0 -->
<g id="node12" class="node">
<title>Xd271dae06cb02d56_0</title>
<polygon fill="none" stroke="black" points="2436.75,-1189.25 2198,-1189.25 2198,-1065.75 2436.75,-1065.75 2436.75,-1189.25"/>
<text xml:space="preserve" text-anchor="start" x="2206" y="-1171.95" font-family="Times,serif" font-size="14.00">Storage Live _5</text>
<text xml:space="preserve" text-anchor="start" x="2206" y="-1155.45" font-family="Times,serif" font-size="14.00">Storage Live _6</text>
<text xml:space="preserve" text-anchor="start" x="2206" y="-1138.95" font-family="Times,serif" font-size="14.00">Storage Live _8</text>
<text xml:space="preserve" text-anchor="start" x="2206" y="-1122.45" font-family="Times,serif" font-size="14.00">8 &lt;&#45; Closure (cp(1))</text>
<text xml:space="preserve" text-anchor="start" x="2206" y="-1105.95" font-family="Times,serif" font-size="14.00">7 &lt;&#45; &amp; 8</text>
<text xml:space="preserve" text-anchor="start" x="2206" y="-1089.45" font-family="Times,serif" font-size="14.00">6 &lt;&#45; Cast&#45;PointerCoercion(Unsize) cp(7)</text>
<text xml:space="preserve" text-anchor="start" x="2206" y="-1072.95" font-family="Times,serif" font-size="14.00">Call</text>
</g>
<!-- Xd271dae06cb02d56_0&#45;&gt;X5eb86185c1cf8f06_0 -->
<g id="edge5" class="edge">
<title>Xd271dae06cb02d56_0&#45;&gt;X5eb86185c1cf8f06_0</title>
<path fill="none" stroke="black" d="M2386.27,-1065.31C2407.32,-1045.05 2429.8,-1021.72 2448.38,-998.5 2474.89,-965.35 2499.75,-923.65 2516.24,-893.9"/>
<polygon fill="black" stroke="black" points="2519.25,-895.69 2520.98,-885.24 2513.11,-892.33 2519.25,-895.69"/>
<text xml:space="preserve" text-anchor="middle" x="2512.05" y="-1009.7" font-family="Times,serif" font-size="14.00">mv(6),mv(2),mv(3),mv(4)</text>
</g>
<!-- Xd271dae06cb02d56_1 -->
<g id="node13" class="node">
<title>Xd271dae06cb02d56_1</title>
<polygon fill="none" stroke="black" points="2411.25,-900 2223.5,-900 2223.5,-809.5 2411.25,-809.5 2411.25,-900"/>
<text xml:space="preserve" text-anchor="start" x="2231.5" y="-882.7" font-family="Times,serif" font-size="14.00">Storage Dead _6</text>
<text xml:space="preserve" text-anchor="start" x="2231.5" y="-866.2" font-family="Times,serif" font-size="14.00">0 &lt;&#45; Use(cp((5 as variant 0).0))</text>
<text xml:space="preserve" text-anchor="start" x="2231.5" y="-849.7" font-family="Times,serif" font-size="14.00">Storage Dead _8</text>
<text xml:space="preserve" text-anchor="start" x="2231.5" y="-833.2" font-family="Times,serif" font-size="14.00">Storage Dead _5</text>
<text xml:space="preserve" text-anchor="start" x="2231.5" y="-816.7" font-family="Times,serif" font-size="14.00">Return</text>
</g>
<!-- Xd271dae06cb02d56_0&#45;&gt;Xd271dae06cb02d56_1 -->
<g id="edge4" class="edge">
<title>Xd271dae06cb02d56_0&#45;&gt;Xd271dae06cb02d56_1</title>
<path fill="none" stroke="black" d="M2317.38,-1065.4C2317.38,-1019.2 2317.38,-956.29 2317.38,-911.46"/>
<polygon fill="black" stroke="black" points="2320.88,-911.7 2317.38,-901.7 2313.88,-911.7 2320.88,-911.7"/>
<text xml:space="preserve" text-anchor="middle" x="2320.75" y="-1009.7" font-family="Times,serif" font-size="14.00">5</text>
</g>
<!-- node_7 -->
<g id="node14" class="node">
<title>node_7</title>
<polygon fill="#7ccd7c" stroke="#7ccd7c" points="2069.62,-718 1617.12,-718 1617.12,-578 2069.62,-578 2069.62,-718"/>
<text xml:space="preserve" text-anchor="start" x="1625.12" y="-700.7" font-family="Times,serif" font-size="14.00">LOCALS</text>
<text xml:space="preserve" text-anchor="start" x="1625.12" y="-684.2" font-family="Times,serif" font-size="14.00">0 = Int(I32)</text>
<text xml:space="preserve" text-anchor="start" x="1625.12" y="-667.7" font-family="Times,serif" font-size="14.00">1 = &amp;{closure@std::rt::lang_start&lt;()&gt;::{closure#0}} (8 bytes, align 8)</text>
<text xml:space="preserve" text-anchor="start" x="1625.12" y="-651.2" font-family="Times,serif" font-size="14.00">2 = std::process::ExitCode (1 bytes, align 1)</text>
<text xml:space="preserve" text-anchor="start" x="1625.12" y="-634.7" font-family="Times,serif" font-size="14.00">3 = () (0 bytes, align 1)</text>
<text xml:space="preserve" text-anchor="start" x="1625.12" y="-618.2" font-family="Times,serif" font-size="14.00">4 = fn()</text>
<text xml:space="preserve" text-anchor="start" x="1625.12" y="-601.7" font-family="Times,serif" font-size="14.00">5 = &amp;std::sys::pal::unix::process::process_common::ExitCode (8 bytes, align 8)</text>
<text xml:space="preserve" text-anchor="start" x="1625.12" y="-585.2" font-family="Times,serif" font-size="14.00">6 = Uint(U8)</text>
</g>
<!-- Xd6bdb8f9f916c377_0 -->
<g id="node15" class="node">
<title>Xd6bdb8f9f916c377_0</title>
<polygon fill="none" stroke="black" points="2215.25,-693.25 2087.5,-693.25 2087.5,-602.75 2215.25,-602.75 2215.25,-693.25"/>
<text xml:space="preserve" text-anchor="start" x="2095.5" y="-675.95" font-family="Times,serif" font-size="14.00">Storage Live _2</text>
<text xml:space="preserve" text-anchor="start" x="2095.5" y="-659.45" font-family="Times,serif" font-size="14.00">Storage Live _3</text>
<text xml:space="preserve" text-anchor="start" x="2095.5" y="-642.95" font-family="Times,serif" font-size="14.00">Storage Live _4</text>
<text xml:space="preserve" text-anchor="start" x="2095.5" y="-626.45" font-family="Times,serif" font-size="14.00">4 &lt;&#45; Use(cp((*1).0))</text>
<text xml:space="preserve" text-anchor="start" x="2095.5" y="-609.95" font-family="Times,serif" font-size="14.00">Call</text>
</g>
<!-- Xd6bdb8f9f916c377_1 -->
<g id="node16" class="node">
<title>Xd6bdb8f9f916c377_1</title>
<polygon fill="none" stroke="black" points="2204.75,-437 2098,-437 2098,-396 2204.75,-396 2204.75,-437"/>
<text xml:space="preserve" text-anchor="start" x="2106" y="-419.7" font-family="Times,serif" font-size="14.00">Storage Dead _4</text>
<text xml:space="preserve" text-anchor="start" x="2106" y="-403.2" font-family="Times,serif" font-size="14.00">Call</text>
</g>
<!-- Xd6bdb8f9f916c377_0&#45;&gt;Xd6bdb8f9f916c377_1 -->
<g id="edge6" class="edge">
<title>Xd6bdb8f9f916c377_0&#45;&gt;Xd6bdb8f9f916c377_1</title>
<path fill="none" stroke="black" d="M2151.38,-602.48C2151.38,-557.23 2151.38,-488.32 2151.38,-448.63"/>
<polygon fill="black" stroke="black" points="2154.88,-448.82 2151.38,-438.82 2147.88,-448.82 2154.88,-448.82"/>
<text xml:space="preserve" text-anchor="middle" x="2154.75" y="-546.7" font-family="Times,serif" font-size="14.00">3</text>
</g>
<!-- X76360b8370fbfec8_0 -->
<g id="node18" class="node">
<title>X76360b8370fbfec8_0</title>
<polygon fill="none" stroke="black" points="2834.38,-434.5 2780.38,-434.5 2780.38,-398.5 2834.38,-398.5 2834.38,-434.5"/>
<text xml:space="preserve" text-anchor="start" x="2788.38" y="-411.45" font-family="Times,serif" font-size="14.00">Call</text>
</g>
<!-- Xd6bdb8f9f916c377_0&#45;&gt;X76360b8370fbfec8_0 -->
<g id="edge8" class="edge">
<title>Xd6bdb8f9f916c377_0&#45;&gt;X76360b8370fbfec8_0</title>
<path fill="none" stroke="black" d="M2215.47,-624.58C2350.61,-577.3 2661.2,-468.64 2769.38,-430.79"/>
<polygon fill="black" stroke="black" points="2770.38,-434.15 2778.66,-427.55 2768.07,-427.54 2770.38,-434.15"/>
<text xml:space="preserve" text-anchor="middle" x="2456.97" y="-546.7" font-family="Times,serif" font-size="14.00">mv(4)</text>
</g>
<!-- Xd6bdb8f9f916c377_2 -->
<g id="node17" class="node">
<title>Xd6bdb8f9f916c377_2</title>
<polygon fill="none" stroke="black" points="2215.38,-304.5 2061.38,-304.5 2061.38,-131.5 2215.38,-131.5 2215.38,-304.5"/>
<text xml:space="preserve" text-anchor="start" x="2069.38" y="-287.2" font-family="Times,serif" font-size="14.00">Storage Dead _3</text>
<text xml:space="preserve" text-anchor="start" x="2069.38" y="-270.7" font-family="Times,serif" font-size="14.00">Storage Live _5</text>
<text xml:space="preserve" text-anchor="start" x="2069.38" y="-254.2" font-family="Times,serif" font-size="14.00">5 &lt;&#45; &amp; 2.0</text>
<text xml:space="preserve" text-anchor="start" x="2069.38" y="-237.7" font-family="Times,serif" font-size="14.00">Storage Live _6</text>
<text xml:space="preserve" text-anchor="start" x="2069.38" y="-221.2" font-family="Times,serif" font-size="14.00">6 &lt;&#45; Use(cp(2.0.0))</text>
<text xml:space="preserve" text-anchor="start" x="2069.38" y="-204.7" font-family="Times,serif" font-size="14.00">0 &lt;&#45; Cast&#45;IntToInt mv(6)</text>
<text xml:space="preserve" text-anchor="start" x="2069.38" y="-188.2" font-family="Times,serif" font-size="14.00">Storage Dead _6</text>
<text xml:space="preserve" text-anchor="start" x="2069.38" y="-171.7" font-family="Times,serif" font-size="14.00">Storage Dead _5</text>
<text xml:space="preserve" text-anchor="start" x="2069.38" y="-155.2" font-family="Times,serif" font-size="14.00">Storage Dead _2</text>
<text xml:space="preserve" text-anchor="start" x="2069.38" y="-138.7" font-family="Times,serif" font-size="14.00">Return</text>
</g>
<!-- Xd6bdb8f9f916c377_1&#45;&gt;Xd6bdb8f9f916c377_2 -->
<g id="edge7" class="edge">
<title>Xd6bdb8f9f916c377_1&#45;&gt;Xd6bdb8f9f916c377_2</title>
<path fill="none" stroke="black" d="M2150.06,-395.58C2148.8,-376.54 2146.8,-346.38 2144.81,-316.33"/>
<polygon fill="black" stroke="black" points="2148.31,-316.1 2144.15,-306.35 2141.32,-316.56 2148.31,-316.1"/>
<text xml:space="preserve" text-anchor="middle" x="2150.91" y="-348.2" font-family="Times,serif" font-size="14.00">2</text>
</g>
<!-- Xb01730a897bc8066_0 -->
<g id="node19" class="node">
<title>Xb01730a897bc8066_0</title>
<polygon fill="none" stroke="black" points="2480.88,-238.5 2239.88,-238.5 2239.88,-197.5 2480.88,-197.5 2480.88,-238.5"/>
<text xml:space="preserve" text-anchor="start" x="2247.88" y="-221.2" font-family="Times,serif" font-size="14.00">0 &lt;&#45; Use(const 0_std::process::ExitCode)</text>
<text xml:space="preserve" text-anchor="start" x="2247.88" y="-204.7" font-family="Times,serif" font-size="14.00">Return</text>
</g>
<!-- Xd6bdb8f9f916c377_1&#45;&gt;Xb01730a897bc8066_0 -->
<g id="edge9" class="edge">
<title>Xd6bdb8f9f916c377_1&#45;&gt;Xb01730a897bc8066_0</title>
<path fill="none" stroke="black" d="M2172.57,-395.58C2210.04,-360.34 2288.08,-286.97 2330.82,-246.78"/>
<polygon fill="black" stroke="black" points="2333.14,-249.41 2338.03,-240.01 2328.34,-244.31 2333.14,-249.41"/>
<text xml:space="preserve" text-anchor="middle" x="2241.82" y="-348.2" font-family="Times,serif" font-size="14.00">mv(3)</text>
</g>
<!-- X76360b8370fbfec8_1 -->
<g id="node21" class="node">
<title>X76360b8370fbfec8_1</title>
<polygon fill="none" stroke="black" points="2914.38,-236 2860.38,-236 2860.38,-200 2914.38,-200 2914.38,-236"/>
<text xml:space="preserve" text-anchor="start" x="2868.38" y="-212.95" font-family="Times,serif" font-size="14.00">Call</text>
</g>
<!-- X76360b8370fbfec8_0&#45;&gt;X76360b8370fbfec8_1 -->
<g id="edge10" class="edge">
<title>X76360b8370fbfec8_0&#45;&gt;X76360b8370fbfec8_1</title>
<path fill="none" stroke="black" d="M2814.47,-398.06C2828.35,-363.98 2859.18,-288.26 2875.96,-247.05"/>
<polygon fill="black" stroke="black" points="2879.19,-248.38 2879.72,-237.8 2872.71,-245.74 2879.19,-248.38"/>
<text xml:space="preserve" text-anchor="middle" x="2838.91" y="-348.2" font-family="Times,serif" font-size="14.00">0</text>
</g>
<!-- Xea018b0379393ed5_0 -->
<g id="node23" class="node">
<title>Xea018b0379393ed5_0</title>
<polygon fill="none" stroke="black" points="3157.38,-236 3103.38,-236 3103.38,-200 3157.38,-200 3157.38,-236"/>
<text xml:space="preserve" text-anchor="start" x="3111.38" y="-212.95" font-family="Times,serif" font-size="14.00">Call</text>
</g>
<!-- X76360b8370fbfec8_0&#45;&gt;Xea018b0379393ed5_0 -->
<g id="edge12" class="edge">
<title>X76360b8370fbfec8_0&#45;&gt;Xea018b0379393ed5_0</title>
<path fill="none" stroke="black" d="M2821.25,-398.06C2827.38,-391.38 2835.08,-384.23 2843.38,-379.5 2909.14,-341.96 2942.3,-374 3008.38,-337 3050.23,-313.56 3088.19,-272.21 3110.28,-245.21"/>
<polygon fill="black" stroke="black" points="3112.95,-247.48 3116.47,-237.49 3107.48,-243.11 3112.95,-247.48"/>
<text xml:space="preserve" text-anchor="middle" x="3028.85" y="-348.2" font-family="Times,serif" font-size="14.00">mv(1),const ()</text>
</g>
<!-- node_9 -->
<g id="node20" class="node">
<title>node_9</title>
<polygon fill="#7ccd7c" stroke="#7ccd7c" points="2996.5,-453.5 2852.25,-453.5 2852.25,-379.5 2996.5,-379.5 2996.5,-453.5"/>
<text xml:space="preserve" text-anchor="start" x="2860.25" y="-436.2" font-family="Times,serif" font-size="14.00">LOCALS</text>
<text xml:space="preserve" text-anchor="start" x="2860.25" y="-419.7" font-family="Times,serif" font-size="14.00">0 = () (0 bytes, align 1)</text>
<text xml:space="preserve" text-anchor="start" x="2860.25" y="-403.2" font-family="Times,serif" font-size="14.00">1 = fn()</text>
<text xml:space="preserve" text-anchor="start" x="2860.25" y="-386.7" font-family="Times,serif" font-size="14.00">2 = () (0 bytes, align 1)</text>
</g>
<!-- X76360b8370fbfec8_1&#45;&gt;X3c6542d96320ad67_0 -->
<g id="edge13" class="edge">
<title>X76360b8370fbfec8_1&#45;&gt;X3c6542d96320ad67_0</title>
<path fill="none" stroke="black" d="M2905.22,-199.54C2933.07,-172.3 2987.11,-119.44 3020.24,-87.03"/>
<polygon fill="black" stroke="black" points="3022.4,-89.81 3027.1,-80.31 3017.5,-84.8 3022.4,-89.81"/>
<text xml:space="preserve" text-anchor="middle" x="3030.09" y="-100.2" font-family="Times,serif" font-size="14.00">const ()</text>
</g>
<!-- X76360b8370fbfec8_2 -->
<g id="node22" class="node">
<title>X76360b8370fbfec8_2</title>
<polygon fill="none" stroke="black" points="2914.38,-76.5 2860.38,-76.5 2860.38,-40.5 2914.38,-40.5 2914.38,-76.5"/>
<text xml:space="preserve" text-anchor="start" x="2868.38" y="-53.45" font-family="Times,serif" font-size="14.00">Return</text>
</g>
<!-- X76360b8370fbfec8_1&#45;&gt;X76360b8370fbfec8_2 -->
<g id="edge11" class="edge">
<title>X76360b8370fbfec8_1&#45;&gt;X76360b8370fbfec8_2</title>
<path fill="none" stroke="black" d="M2887.38,-199.54C2887.38,-172.56 2887.38,-120.44 2887.38,-87.95"/>
<polygon fill="black" stroke="black" points="2890.88,-88.07 2887.38,-78.07 2883.88,-88.07 2890.88,-88.07"/>
<text xml:space="preserve" text-anchor="middle" x="2890.75" y="-100.2" font-family="Times,serif" font-size="14.00">2</text>
</g>
<!-- Xea018b0379393ed5_0&#45;&gt;Xea018b0379393ed5_0 -->
<g id="edge17" class="edge">
<title>Xea018b0379393ed5_0&#45;&gt;Xea018b0379393ed5_0:1</title>
<path fill="none" stroke="black" d="M3147.93,-236.41C3161.52,-243.3 3175.38,-237.16 3175.38,-218 3175.38,-204.08 3168.06,-197.03 3158.85,-196.86"/>
<polygon fill="black" stroke="black" points="3158.25,-193.4 3149.4,-199.22 3159.95,-200.2 3158.25,-193.4"/>
</g>
<!-- Xea018b0379393ed5_1 -->
<g id="node29" class="node">
<title>Xea018b0379393ed5_1</title>
<polygon fill="none" stroke="black" points="3157.38,-76.5 3103.38,-76.5 3103.38,-40.5 3157.38,-40.5 3157.38,-76.5"/>
<text xml:space="preserve" text-anchor="start" x="3111.38" y="-53.45" font-family="Times,serif" font-size="14.00">Return</text>
</g>
<!-- Xea018b0379393ed5_0&#45;&gt;Xea018b0379393ed5_1 -->
<g id="edge16" class="edge">
<title>Xea018b0379393ed5_0&#45;&gt;Xea018b0379393ed5_1</title>
<path fill="none" stroke="black" d="M3130.38,-199.54C3130.38,-172.56 3130.38,-120.44 3130.38,-87.95"/>
<polygon fill="black" stroke="black" points="3133.88,-88.07 3130.38,-78.07 3126.88,-88.07 3133.88,-88.07"/>
<text xml:space="preserve" text-anchor="middle" x="3133.75" y="-100.2" font-family="Times,serif" font-size="14.00">0</text>
</g>
<!-- node_11 -->
<g id="node24" class="node">
<title>node_11</title>
<polygon fill="#7ccd7c" stroke="#7ccd7c" points="964.38,-1164.5 540.38,-1164.5 540.38,-1090.5 964.38,-1090.5 964.38,-1164.5"/>
<text xml:space="preserve" text-anchor="start" x="548.38" y="-1147.2" font-family="Times,serif" font-size="14.00">LOCALS</text>
<text xml:space="preserve" text-anchor="start" x="548.38" y="-1130.7" font-family="Times,serif" font-size="14.00">0 = Int(I32)</text>
<text xml:space="preserve" text-anchor="start" x="548.38" y="-1114.2" font-family="Times,serif" font-size="14.00">1 = *mut {closure@std::rt::lang_start&lt;()&gt;::{closure#0}} (8 bytes, align 8)</text>
<text xml:space="preserve" text-anchor="start" x="548.38" y="-1097.7" font-family="Times,serif" font-size="14.00">2 = () (0 bytes, align 1)</text>
</g>
<!-- X30ffccddb31b242d_0 -->
<g id="node25" class="node">
<title>X30ffccddb31b242d_0</title>
<polygon fill="none" stroke="black" points="1036.38,-1145.5 982.38,-1145.5 982.38,-1109.5 1036.38,-1109.5 1036.38,-1145.5"/>
<text xml:space="preserve" text-anchor="start" x="990.38" y="-1122.45" font-family="Times,serif" font-size="14.00">Call</text>
</g>
<!-- X30ffccddb31b242d_1 -->
<g id="node26" class="node">
<title>X30ffccddb31b242d_1</title>
<polygon fill="none" stroke="black" points="1036.38,-872.75 982.38,-872.75 982.38,-836.75 1036.38,-836.75 1036.38,-872.75"/>
<text xml:space="preserve" text-anchor="start" x="990.38" y="-849.7" font-family="Times,serif" font-size="14.00">Return</text>
</g>
<!-- X30ffccddb31b242d_0&#45;&gt;X30ffccddb31b242d_1 -->
<g id="edge14" class="edge">
<title>X30ffccddb31b242d_0&#45;&gt;X30ffccddb31b242d_1</title>
<path fill="none" stroke="black" d="M1009.38,-1109.15C1009.38,-1063.59 1009.38,-940.21 1009.38,-884.15"/>
<polygon fill="black" stroke="black" points="1012.88,-884.47 1009.38,-874.47 1005.88,-884.47 1012.88,-884.47"/>
<text xml:space="preserve" text-anchor="middle" x="1012.75" y="-1009.7" font-family="Times,serif" font-size="14.00">0</text>
</g>
<!-- X2eeb0b8cf8e3b702_0 -->
<g id="node27" class="node">
<title>X2eeb0b8cf8e3b702_0</title>
<polygon fill="none" stroke="black" points="1146.62,-875.25 1060.12,-875.25 1060.12,-834.25 1146.62,-834.25 1146.62,-875.25"/>
<text xml:space="preserve" text-anchor="start" x="1068.12" y="-857.95" font-family="Times,serif" font-size="14.00">3 &lt;&#45; &amp;mut 1</text>
<text xml:space="preserve" text-anchor="start" x="1068.12" y="-841.45" font-family="Times,serif" font-size="14.00">Call</text>
</g>
<!-- X30ffccddb31b242d_0&#45;&gt;X2eeb0b8cf8e3b702_0 -->
<g id="edge15" class="edge">
<title>X30ffccddb31b242d_0&#45;&gt;X2eeb0b8cf8e3b702_0</title>
<path fill="none" stroke="black" d="M1015.4,-1109.15C1031.02,-1064.16 1072.98,-943.3 1092.77,-886.3"/>
<polygon fill="black" stroke="black" points="1096.06,-887.5 1096.03,-876.9 1089.45,-885.2 1096.06,-887.5"/>
<text xml:space="preserve" text-anchor="middle" x="1094.25" y="-1009.7" font-family="Times,serif" font-size="14.00">mv((*1)),mv(2)</text>
</g>
<!-- X2eeb0b8cf8e3b702_0&#45;&gt;Xd6bdb8f9f916c377_0 -->
<g id="edge22" class="edge">
<title>X2eeb0b8cf8e3b702_0&#45;&gt;Xd6bdb8f9f916c377_0</title>
<path fill="none" stroke="black" d="M1117.4,-833.88C1126.91,-822.15 1140.6,-808.32 1156.38,-801.5 1250.48,-760.84 1989.77,-818.57 2078.38,-767 2102.41,-753.01 2119.61,-727.65 2131.25,-704.02"/>
<polygon fill="black" stroke="black" points="2134.38,-705.6 2135.42,-695.05 2128.03,-702.64 2134.38,-705.6"/>
<text xml:space="preserve" text-anchor="middle" x="2091.3" y="-778.2" font-family="Times,serif" font-size="14.00">mv(3),mv(2)</text>
</g>
<!-- X2eeb0b8cf8e3b702_3 -->
<g id="node31" class="node">
<title>X2eeb0b8cf8e3b702_3</title>
<polygon fill="none" stroke="black" points="1124.5,-666 1070.25,-666 1070.25,-630 1124.5,-630 1124.5,-666"/>
<text xml:space="preserve" text-anchor="start" x="1078.25" y="-642.95" font-family="Times,serif" font-size="14.00">Drop 1</text>
</g>
<!-- X2eeb0b8cf8e3b702_0&#45;&gt;X2eeb0b8cf8e3b702_3 -->
<g id="edge18" class="edge">
<title>X2eeb0b8cf8e3b702_0&#45;&gt;X2eeb0b8cf8e3b702_3</title>
<path fill="none" stroke="black" d="M1102.71,-833.85C1102.31,-821.63 1101.8,-805.66 1101.38,-791.5 1100.18,-751.89 1098.92,-706.08 1098.14,-677.32"/>
<polygon fill="black" stroke="black" points="1101.64,-677.52 1097.87,-667.62 1094.65,-677.71 1101.64,-677.52"/>
<text xml:space="preserve" text-anchor="middle" x="1123.88" y="-778.2" font-family="Times,serif" font-size="14.00">Cleanup</text>
</g>
<!-- X2eeb0b8cf8e3b702_1 -->
<g id="node32" class="node">
<title>X2eeb0b8cf8e3b702_1</title>
<polygon fill="none" stroke="black" points="1197.5,-666 1143.25,-666 1143.25,-630 1197.5,-630 1197.5,-666"/>
<text xml:space="preserve" text-anchor="start" x="1151.25" y="-642.95" font-family="Times,serif" font-size="14.00">Drop 1</text>
</g>
<!-- X2eeb0b8cf8e3b702_0&#45;&gt;X2eeb0b8cf8e3b702_1 -->
<g id="edge19" class="edge">
<title>X2eeb0b8cf8e3b702_0&#45;&gt;X2eeb0b8cf8e3b702_1</title>
<path fill="none" stroke="black" d="M1120.56,-833.76C1129.64,-822.15 1140.15,-806.83 1146.38,-791.5 1161.64,-753.91 1167.19,-706.94 1169.22,-677.45"/>
<polygon fill="black" stroke="black" points="1172.69,-678.02 1169.78,-667.84 1165.7,-677.62 1172.69,-678.02"/>
<text xml:space="preserve" text-anchor="middle" x="1155.09" y="-778.2" font-family="Times,serif" font-size="14.00">0</text>
</g>
<!-- node_13 -->
<g id="node28" class="node">
<title>node_13</title>
<polygon fill="#7ccd7c" stroke="#7ccd7c" points="3337.5,-255 3193.25,-255 3193.25,-181 3337.5,-181 3337.5,-255"/>
<text xml:space="preserve" text-anchor="start" x="3201.25" y="-237.7" font-family="Times,serif" font-size="14.00">LOCALS</text>
<text xml:space="preserve" text-anchor="start" x="3201.25" y="-221.2" font-family="Times,serif" font-size="14.00">0 = () (0 bytes, align 1)</text>
<text xml:space="preserve" text-anchor="start" x="3201.25" y="-204.7" font-family="Times,serif" font-size="14.00">1 = fn()</text>
<text xml:space="preserve" text-anchor="start" x="3201.25" y="-188.2" font-family="Times,serif" font-size="14.00">2 = () (0 bytes, align 1)</text>
</g>
<!-- node_15 -->
<g id="node30" class="node">
<title>node_15</title>
<polygon fill="#7ccd7c" stroke="#7ccd7c" points="1593.62,-900 1165.12,-900 1165.12,-809.5 1593.62,-809.5 1593.62,-900"/>
<text xml:space="preserve" text-anchor="start" x="1173.12" y="-882.7" font-family="Times,serif" font-size="14.00">LOCALS</text>
<text xml:space="preserve" text-anchor="start" x="1173.12" y="-866.2" font-family="Times,serif" font-size="14.00">0 = Int(I32)</text>
<text xml:space="preserve" text-anchor="start" x="1173.12" y="-849.7" font-family="Times,serif" font-size="14.00">1 = {closure@std::rt::lang_start&lt;()&gt;::{closure#0}}</text>
<text xml:space="preserve" text-anchor="start" x="1173.12" y="-833.2" font-family="Times,serif" font-size="14.00">2 = () (0 bytes, align 1)</text>
<text xml:space="preserve" text-anchor="start" x="1173.12" y="-816.7" font-family="Times,serif" font-size="14.00">3 = &amp;mut {closure@std::rt::lang_start&lt;()&gt;::{closure#0}} (8 bytes, align 8)</text>
</g>
<!-- X2eeb0b8cf8e3b702_4 -->
<g id="node34" class="node">
<title>X2eeb0b8cf8e3b702_4</title>
<polygon fill="none" stroke="black" points="1126.5,-434.5 1066.25,-434.5 1066.25,-398.5 1126.5,-398.5 1126.5,-434.5"/>
<text xml:space="preserve" text-anchor="start" x="1074.25" y="-411.45" font-family="Times,serif" font-size="14.00">Resume</text>
</g>
<!-- X2eeb0b8cf8e3b702_3&#45;&gt;X2eeb0b8cf8e3b702_4 -->
<g id="edge21" class="edge">
<title>X2eeb0b8cf8e3b702_3&#45;&gt;X2eeb0b8cf8e3b702_4</title>
<path fill="none" stroke="black" d="M1097.3,-629.75C1097.13,-590.62 1096.71,-494.8 1096.5,-446.43"/>
<polygon fill="black" stroke="black" points="1100,-446.45 1096.46,-436.46 1093,-446.48 1100,-446.45"/>
</g>
<!-- X2eeb0b8cf8e3b702_2 -->
<g id="node33" class="node">
<title>X2eeb0b8cf8e3b702_2</title>
<polygon fill="none" stroke="black" points="1198.38,-434.5 1144.38,-434.5 1144.38,-398.5 1198.38,-398.5 1198.38,-434.5"/>
<text xml:space="preserve" text-anchor="start" x="1152.38" y="-411.45" font-family="Times,serif" font-size="14.00">Return</text>
</g>
<!-- X2eeb0b8cf8e3b702_1&#45;&gt;X2eeb0b8cf8e3b702_2 -->
<g id="edge20" class="edge">
<title>X2eeb0b8cf8e3b702_1&#45;&gt;X2eeb0b8cf8e3b702_2</title>
<path fill="none" stroke="black" d="M1170.45,-629.75C1170.62,-590.62 1171.04,-494.8 1171.25,-446.43"/>
<polygon fill="black" stroke="black" points="1174.75,-446.48 1171.29,-436.46 1167.75,-446.45 1174.75,-446.48"/>
</g>
<!-- node_17 -->
<g id="node35" class="node">
<title>node_17</title>
<polygon fill="#7ccd7c" stroke="#7ccd7c" points="3460.38,-1156.25 3036.38,-1156.25 3036.38,-1098.75 3460.38,-1098.75 3460.38,-1156.25"/>
<text xml:space="preserve" text-anchor="start" x="3044.38" y="-1138.95" font-family="Times,serif" font-size="14.00">LOCALS</text>
<text xml:space="preserve" text-anchor="start" x="3044.38" y="-1122.45" font-family="Times,serif" font-size="14.00">0 = () (0 bytes, align 1)</text>
<text xml:space="preserve" text-anchor="start" x="3044.38" y="-1105.95" font-family="Times,serif" font-size="14.00">1 = *mut {closure@std::rt::lang_start&lt;()&gt;::{closure#0}} (8 bytes, align 8)</text>
</g>
<!-- Xd700609f4cf459d5_0 -->
<g id="node36" class="node">
<title>Xd700609f4cf459d5_0</title>
<polygon fill="none" stroke="black" points="3532.38,-1145.5 3478.38,-1145.5 3478.38,-1109.5 3532.38,-1109.5 3532.38,-1145.5"/>
<text xml:space="preserve" text-anchor="start" x="3486.38" y="-1122.45" font-family="Times,serif" font-size="14.00">Return</text>
</g>
<!-- node_19 -->
<g id="node37" class="node">
<title>node_19</title>
<polygon fill="#7ccd7c" stroke="#7ccd7c" points="2756.12,-246.75 2498.62,-246.75 2498.62,-189.25 2756.12,-189.25 2756.12,-246.75"/>
<text xml:space="preserve" text-anchor="start" x="2506.62" y="-229.45" font-family="Times,serif" font-size="14.00">LOCALS</text>
<text xml:space="preserve" text-anchor="start" x="2506.62" y="-212.95" font-family="Times,serif" font-size="14.00">0 = std::process::ExitCode (1 bytes, align 1)</text>
<text xml:space="preserve" text-anchor="start" x="2506.62" y="-196.45" font-family="Times,serif" font-size="14.00">1 = () (0 bytes, align 1)</text>
</g>
</g>
</svg>
