<?xml version="1.0" encoding="UTF-8" standalone="no"?>
<!DOCTYPE svg PUBLIC "-//W3C//DTD SVG 1.1//EN"
 "http://www.w3.org/Graphics/SVG/1.1/DTD/svg11.dtd">
<!-- Generated by graphviz version 14.1.1 (20251213.1925)
 -->
<!-- Pages: 1 -->
<svg width="5072pt" height="1279pt"
 viewBox="0.00 0.00 5072.00 1279.00" xmlns="http://www.w3.org/2000/svg" xmlns:xlink="http://www.w3.org/1999/xlink">
<g id="graph0" class="graph" transform="scale(1 1) rotate(0) translate(4 1275)">
<polygon fill="white" stroke="none" points="-4,4 -4,-1275 5068.38,-1275 5068.38,4 -4,4"/>
<text xml:space="preserve" text-anchor="middle" x="2532.19" y="-7.2" font-family="Times,serif" font-size="14.00">closure_no_args</text>
<g id="clust1" class="cluster">
<title>cluster_2</title>
<polygon fill="palegreen" stroke="palegreen" points="532.38,-622 532.38,-1213.5 1321.38,-1213.5 1321.38,-622 532.38,-622"/>
<text xml:space="preserve" text-anchor="middle" x="926.88" y="-1196.2" font-family="Times,serif" font-size="14.00">main</text>
</g>
<g id="clust2" class="cluster">
<title>cluster_4</title>
<polygon fill="lightgray" stroke="lightgray" points="1329.38,-818 1329.38,-916 2235.38,-916 2235.38,-818 1329.38,-818"/>
<text xml:space="preserve" text-anchor="middle" x="1782.38" y="-898.7" font-family="Times,serif" font-size="14.00">main::{closure#0}</text>
</g>
<g id="clust3" class="cluster">
<title>cluster_6</title>
<polygon fill="lightgray" stroke="lightgray" points="3510.38,-801.5 3510.38,-1246.5 4345.38,-1246.5 4345.38,-801.5 3510.38,-801.5"/>
<text xml:space="preserve" text-anchor="middle" x="3927.88" y="-1229.2" font-family="Times,serif" font-size="14.00">std::rt::lang_start::&lt;()&gt;</text>
</g>
<g id="clust4" class="cluster">
<title>cluster_8</title>
<polygon fill="lightgray" stroke="lightgray" points="3320.38,-123.5 3320.38,-767 3934.38,-767 3934.38,-123.5 3320.38,-123.5"/>
<text xml:space="preserve" text-anchor="middle" x="3627.38" y="-749.7" font-family="Times,serif" font-size="14.00">std::rt::lang_start::&lt;()&gt;</text>
<text xml:space="preserve" text-anchor="middle" x="3627.38" y="-733.2" font-family="Times,serif" font-size="14.00">::{closure#0}</text>
</g>
<g id="clust5" class="cluster">
<title>cluster_10</title>
<polygon fill="lightgray" stroke="lightgray" points="4483.38,-32.5 4483.38,-535.5 4715.38,-535.5 4715.38,-32.5 4483.38,-32.5"/>
<text xml:space="preserve" text-anchor="middle" x="4599.38" y="-518.2" font-family="Times,serif" font-size="14.00">std::sys::backtrace::__ru</text>
<text xml:space="preserve" text-anchor="middle" x="4599.38" y="-501.7" font-family="Times,serif" font-size="14.00">st_begin_short_backtrace:</text>
<text xml:space="preserve" text-anchor="middle" x="4599.38" y="-485.2" font-family="Times,serif" font-size="14.00">:&lt;fn(), </text>
<text xml:space="preserve" text-anchor="middle" x="4599.38" y="-468.7" font-family="Times,serif" font-size="14.00">()&gt;</text>
</g>
<g id="clust6" class="cluster">
<title>cluster_12</title>
<polygon fill="lightgray" stroke="lightgray" points="2243.38,-828.75 2243.38,-1263 2755.38,-1263 2755.38,-828.75 2243.38,-828.75"/>
<text xml:space="preserve" text-anchor="middle" x="2499.38" y="-1245.7" font-family="Times,serif" font-size="14.00">&lt;{closure@std::rt::lang_s</text>
<text xml:space="preserve" text-anchor="middle" x="2499.38" y="-1229.2" font-family="Times,serif" font-size="14.00">tart&lt;()&gt;::{closure#0}} </text>
<text xml:space="preserve" text-anchor="middle" x="2499.38" y="-1212.7" font-family="Times,serif" font-size="14.00">as </text>
<text xml:space="preserve" text-anchor="middle" x="2499.38" y="-1196.2" font-family="Times,serif" font-size="14.00">std::ops::FnOnce&lt;()&gt;&gt;::ca</text>
<text xml:space="preserve" text-anchor="middle" x="2499.38" y="-1179.7" font-family="Times,serif" font-size="14.00">ll_once</text>
</g>
<g id="clust7" class="cluster">
<title>cluster_14</title>
<polygon fill="lightgray" stroke="lightgray" points="4806.38,-32.5 4806.38,-337 5056.38,-337 5056.38,-32.5 4806.38,-32.5"/>
<text xml:space="preserve" text-anchor="middle" x="4931.38" y="-319.7" font-family="Times,serif" font-size="14.00">&lt;fn() </text>
<text xml:space="preserve" text-anchor="middle" x="4931.38" y="-303.2" font-family="Times,serif" font-size="14.00">as </text>
<text xml:space="preserve" text-anchor="middle" x="4931.38" y="-286.7" font-family="Times,serif" font-size="14.00">std::ops::FnOnce&lt;()&gt;&gt;::ca</text>
<text xml:space="preserve" text-anchor="middle" x="4931.38" y="-270.2" font-family="Times,serif" font-size="14.00">ll_once</text>
</g>
<g id="clust8" class="cluster">
<title>cluster_16</title>
<polygon fill="lightgray" stroke="lightgray" points="2763.38,-390.5 2763.38,-998.5 3312.38,-998.5 3312.38,-390.5 2763.38,-390.5"/>
<text xml:space="preserve" text-anchor="middle" x="3037.88" y="-981.2" font-family="Times,serif" font-size="14.00">&lt;{closure@std::rt::lang_s</text>
<text xml:space="preserve" text-anchor="middle" x="3037.88" y="-964.7" font-family="Times,serif" font-size="14.00">tart&lt;()&gt;::{closure#0}} </text>
<text xml:space="preserve" text-anchor="middle" x="3037.88" y="-948.2" font-family="Times,serif" font-size="14.00">as </text>
<text xml:space="preserve" text-anchor="middle" x="3037.88" y="-931.7" font-family="Times,serif" font-size="14.00">std::ops::FnOnce&lt;()&gt;&gt;::ca</text>
<text xml:space="preserve" text-anchor="middle" x="3037.88" y="-915.2" font-family="Times,serif" font-size="14.00">ll_once</text>
</g>
<g id="clust9" class="cluster">
<title>cluster_18</title>
<polygon fill="lightgray" stroke="lightgray" points="4448.38,-1090.75 4448.38,-1221.75 4960.38,-1221.75 4960.38,-1090.75 4448.38,-1090.75"/>
<text xml:space="preserve" text-anchor="middle" x="4704.38" y="-1204.45" font-family="Times,serif" font-size="14.00">std::ptr::drop_in_place::</text>
<text xml:space="preserve" text-anchor="middle" x="4704.38" y="-1187.95" font-family="Times,serif" font-size="14.00">&lt;{closure@std::rt::lang_s</text>
<text xml:space="preserve" text-anchor="middle" x="4704.38" y="-1171.45" font-family="Times,serif" font-size="14.00">tart&lt;()&gt;::{closure#0}}&gt;</text>
</g>
<g id="clust10" class="cluster">
<title>cluster_20</title>
<polygon fill="lightgray" stroke="lightgray" points="3942.38,-181.25 3942.38,-328.75 4475.38,-328.75 4475.38,-181.25 3942.38,-181.25"/>
<text xml:space="preserve" text-anchor="middle" x="4208.88" y="-311.45" font-family="Times,serif" font-size="14.00">&lt;() </text>
<text xml:space="preserve" text-anchor="middle" x="4208.88" y="-294.95" font-family="Times,serif" font-size="14.00">as </text>
<text xml:space="preserve" text-anchor="middle" x="4208.88" y="-278.45" font-family="Times,serif" font-size="14.00">std::process::Termination</text>
<text xml:space="preserve" text-anchor="middle" x="4208.88" y="-261.95" font-family="Times,serif" font-size="14.00">&gt;::report</text>
</g>
<!-- node_0 -->
<g id="node1" class="node">
<title>node_0</title>
<polygon fill="lightyellow" stroke="lightyellow" points="130.75,-1148 0,-1148 0,-1107 130.75,-1107 130.75,-1148"/>
<text xml:space="preserve" text-anchor="start" x="8" y="-1130.7" font-family="Times,serif" font-size="14.00">ALLOCS</text>
<text xml:space="preserve" text-anchor="start" x="8" y="-1114.2" font-family="Times,serif" font-size="14.00">alloc1: Str (29 bytes)</text>
</g>
<!-- node_1 -->
<g id="node2" class="node">
<title>node_1</title>
<polygon fill="lavender" stroke="lavender" points="522.25,-1181 148.5,-1181 148.5,-1074 522.25,-1074 522.25,-1181"/>
<text xml:space="preserve" text-anchor="start" x="156.5" y="-1163.7" font-family="Times,serif" font-size="14.00">TYPES</text>
<text xml:space="preserve" text-anchor="start" x="156.5" y="-1147.2" font-family="Times,serif" font-size="14.00">() (0 bytes)</text>
<text xml:space="preserve" text-anchor="start" x="156.5" y="-1130.7" font-family="Times,serif" font-size="14.00">std::panic::Location&lt;&#39;_&gt; (24 bytes)</text>
<text xml:space="preserve" text-anchor="start" x="156.5" y="-1114.2" font-family="Times,serif" font-size="14.00">std::process::ExitCode (1 bytes)</text>
<text xml:space="preserve" text-anchor="start" x="156.5" y="-1097.7" font-family="Times,serif" font-size="14.00">std::result::Result&lt;isize, !&gt; (8 bytes)</text>
<text xml:space="preserve" text-anchor="start" x="156.5" y="-1081.2" font-family="Times,serif" font-size="14.00">std::sys::pal::unix::process::process_common::ExitCode (1 bytes)</text>
</g>
<!-- X210a8e5fe9313c81_0 -->
<g id="node3" class="node">
<title>X210a8e5fe9313c81_0</title>
<polygon fill="none" stroke="red" points="1366.12,-437 1192.62,-437 1192.62,-396 1366.12,-396 1366.12,-437"/>
<text xml:space="preserve" text-anchor="middle" x="1279.38" y="-419.7" font-family="Times,serif" font-size="14.00">_ZN4core9panicking5panic1</text>
<text xml:space="preserve" text-anchor="middle" x="1279.38" y="-403.2" font-family="Times,serif" font-size="14.00">7h37379bf3ce79a0d7E</text>
</g>
<!-- X3c6542d96320ad67_0 -->
<g id="node4" class="node">
<title>X3c6542d96320ad67_0</title>
<polygon fill="none" stroke="red" points="4795.5,-79 4723.25,-79 4723.25,-38 4795.5,-38 4795.5,-79"/>
<text xml:space="preserve" text-anchor="middle" x="4759.38" y="-61.7" font-family="Times,serif" font-size="14.00">Intr: </text>
<text xml:space="preserve" text-anchor="middle" x="4759.38" y="-45.2" font-family="Times,serif" font-size="14.00">black_box</text>
</g>
<!-- X8b0ac2e54b9a91_0 -->
<g id="node5" class="node">
<title>X8b0ac2e54b9a91_0</title>
<polygon fill="none" stroke="red" points="3065.62,-1145.5 3009.12,-1145.5 3009.12,-1109.5 3065.62,-1109.5 3065.62,-1145.5"/>
<text xml:space="preserve" text-anchor="middle" x="3037.38" y="-1122.45" font-family="Times,serif" font-size="14.00">NoOp: </text>
</g>
<!-- X5eb86185c1cf8f06_0 -->
<g id="node6" class="node">
<title>X5eb86185c1cf8f06_0</title>
<polygon fill="none" stroke="red" points="4521.12,-883.5 4353.62,-883.5 4353.62,-826 4521.12,-826 4521.12,-883.5"/>
<text xml:space="preserve" text-anchor="middle" x="4437.38" y="-866.2" font-family="Times,serif" font-size="14.00">_ZN3std2rt19lang_start_in</text>
<text xml:space="preserve" text-anchor="middle" x="4437.38" y="-849.7" font-family="Times,serif" font-size="14.00">ternal17h035df9ff6960926a</text>
<text xml:space="preserve" text-anchor="middle" x="4437.38" y="-833.2" font-family="Times,serif" font-size="14.00">E</text>
</g>
<!-- node_3 -->
<g id="node7" class="node">
<title>node_3</title>
<polygon fill="#7ccd7c" stroke="#7ccd7c" points="1230.5,-1181 540.25,-1181 540.25,-1074 1230.5,-1074 1230.5,-1181"/>
<text xml:space="preserve" text-anchor="start" x="548.25" y="-1163.7" font-family="Times,serif" font-size="14.00">LOCALS</text>
<text xml:space="preserve" text-anchor="start" x="548.25" y="-1147.2" font-family="Times,serif" font-size="14.00">0 = () (0 bytes, align 1)</text>
<text xml:space="preserve" text-anchor="start" x="548.25" y="-1130.7" font-family="Times,serif" font-size="14.00">1 = {closure@/Users/amal/oss/stable&#45;mir&#45;json/tests/integration/programs/closure&#45;no&#45;args.rs:2:15: 2:24}</text>
<text xml:space="preserve" text-anchor="start" x="548.25" y="-1114.2" font-family="Times,serif" font-size="14.00">2 = Uint(U32)</text>
<text xml:space="preserve" text-anchor="start" x="548.25" y="-1097.7" font-family="Times,serif" font-size="14.00">3 = &amp;{closure@/Users/amal/oss/stable&#45;mir&#45;json/tests/integration/programs/closure&#45;no&#45;args.rs:2:15: 2:24} (8 bytes, align 8)</text>
<text xml:space="preserve" text-anchor="start" x="548.25" y="-1081.2" font-family="Times,serif" font-size="14.00">4 = ()</text>
</g>
<!-- Xc435702c8e9d0c03_0 -->
<g id="node8" class="node">
<title>Xc435702c8e9d0c03_0</title>
<polygon fill="none" stroke="black" points="1313.75,-1148 1249,-1148 1249,-1107 1313.75,-1107 1313.75,-1148"/>
<text xml:space="preserve" text-anchor="start" x="1257" y="-1130.7" font-family="Times,serif" font-size="14.00">3 &lt;&#45; &amp; 1</text>
<text xml:space="preserve" text-anchor="start" x="1257" y="-1114.2" font-family="Times,serif" font-size="14.00">Call</text>
</g>
<!-- Xc435702c8e9d0c03_1 -->
<g id="node9" class="node">
<title>Xc435702c8e9d0c03_1</title>
<polygon fill="none" stroke="black" points="1313.38,-872.75 1207.38,-872.75 1207.38,-836.75 1313.38,-836.75 1313.38,-872.75"/>
<text xml:space="preserve" text-anchor="start" x="1215.38" y="-849.7" font-family="Times,serif" font-size="14.00">SwitchInt mv(2)</text>
</g>
<!-- Xc435702c8e9d0c03_0&#45;&gt;Xc435702c8e9d0c03_1 -->
<g id="edge1" class="edge">
<title>Xc435702c8e9d0c03_0&#45;&gt;Xc435702c8e9d0c03_1</title>
<path fill="none" stroke="black" d="M1279.83,-1106.59C1276.16,-1059.25 1266.89,-939.78 1262.61,-884.56"/>
<polygon fill="black" stroke="black" points="1266.11,-884.4 1261.84,-874.7 1259.13,-884.94 1266.11,-884.4"/>
<text xml:space="preserve" text-anchor="middle" x="1276.13" y="-1009.7" font-family="Times,serif" font-size="14.00">2</text>
</g>
<!-- X8ca2ef7dfc4b8804_0 -->
<g id="node12" class="node">
<title>X8ca2ef7dfc4b8804_0</title>
<polygon fill="none" stroke="black" points="1519.25,-875.25 1337.5,-875.25 1337.5,-834.25 1519.25,-834.25 1519.25,-875.25"/>
<text xml:space="preserve" text-anchor="start" x="1345.5" y="-857.95" font-family="Times,serif" font-size="14.00">0 &lt;&#45; Use(const 42_Uint(U32))</text>
<text xml:space="preserve" text-anchor="start" x="1345.5" y="-841.45" font-family="Times,serif" font-size="14.00">Return</text>
</g>
<!-- Xc435702c8e9d0c03_0&#45;&gt;X8ca2ef7dfc4b8804_0 -->
<g id="edge4" class="edge">
<title>Xc435702c8e9d0c03_0&#45;&gt;X8ca2ef7dfc4b8804_0</title>
<path fill="none" stroke="black" d="M1292.18,-1106.59C1317.72,-1059.55 1381.91,-941.32 1412.15,-885.64"/>
<polygon fill="black" stroke="black" points="1415.13,-887.48 1416.83,-877.02 1408.98,-884.14 1415.13,-887.48"/>
<text xml:space="preserve" text-anchor="middle" x="1385.45" y="-1009.7" font-family="Times,serif" font-size="14.00">mv(3),const ()</text>
</g>
<!-- Xc435702c8e9d0c03_2 -->
<g id="node10" class="node">
<title>Xc435702c8e9d0c03_2</title>
<polygon fill="none" stroke="black" points="1234.38,-666 1180.38,-666 1180.38,-630 1234.38,-630 1234.38,-666"/>
<text xml:space="preserve" text-anchor="start" x="1188.38" y="-642.95" font-family="Times,serif" font-size="14.00">Return</text>
</g>
<!-- Xc435702c8e9d0c03_1&#45;&gt;Xc435702c8e9d0c03_2 -->
<g id="edge2" class="edge">
<title>Xc435702c8e9d0c03_1&#45;&gt;Xc435702c8e9d0c03_2</title>
<path fill="none" stroke="black" d="M1255.86,-836.29C1246.7,-800.93 1225.9,-720.56 1214.75,-677.5"/>
<polygon fill="black" stroke="black" points="1218.16,-676.68 1212.26,-667.88 1211.38,-678.44 1218.16,-676.68"/>
<text xml:space="preserve" text-anchor="middle" x="1249.98" y="-778.2" font-family="Times,serif" font-size="14.00">42</text>
</g>
<!-- Xc435702c8e9d0c03_3 -->
<g id="node11" class="node">
<title>Xc435702c8e9d0c03_3</title>
<polygon fill="none" stroke="black" points="1306.38,-666 1252.38,-666 1252.38,-630 1306.38,-630 1306.38,-666"/>
<text xml:space="preserve" text-anchor="start" x="1260.38" y="-642.95" font-family="Times,serif" font-size="14.00">Call</text>
</g>
<!-- Xc435702c8e9d0c03_1&#45;&gt;Xc435702c8e9d0c03_3 -->
<g id="edge3" class="edge">
<title>Xc435702c8e9d0c03_1&#45;&gt;Xc435702c8e9d0c03_3</title>
<path fill="none" stroke="black" d="M1261.99,-836.29C1265.27,-801.01 1272.7,-720.91 1276.7,-677.78"/>
<polygon fill="black" stroke="black" points="1280.18,-678.2 1277.62,-667.92 1273.21,-677.55 1280.18,-678.2"/>
<text xml:space="preserve" text-anchor="middle" x="1281.49" y="-778.2" font-family="Times,serif" font-size="14.00">other</text>
</g>
<!-- Xc435702c8e9d0c03_3&#45;&gt;X210a8e5fe9313c81_0 -->
<g id="edge5" class="edge">
<title>Xc435702c8e9d0c03_3&#45;&gt;X210a8e5fe9313c81_0</title>
<path fill="none" stroke="black" d="M1279.38,-629.75C1279.38,-591.21 1279.38,-497.68 1279.38,-448.65"/>
<polygon fill="black" stroke="black" points="1282.88,-448.72 1279.38,-438.72 1275.88,-448.72 1282.88,-448.72"/>
<text xml:space="preserve" text-anchor="middle" x="1316.5" y="-546.7" font-family="Times,serif" font-size="14.00">const [alloc0]</text>
</g>
<!-- node_5 -->
<g id="node13" class="node">
<title>node_5</title>
<polygon fill="#7ccd7c" stroke="#7ccd7c" points="2227.5,-883.5 1537.25,-883.5 1537.25,-826 2227.5,-826 2227.5,-883.5"/>
<text xml:space="preserve" text-anchor="start" x="1545.25" y="-866.2" font-family="Times,serif" font-size="14.00">LOCALS</text>
<text xml:space="preserve" text-anchor="start" x="1545.25" y="-849.7" font-family="Times,serif" font-size="14.00">0 = Uint(U32)</text>
<text xml:space="preserve" text-anchor="start" x="1545.25" y="-833.2" font-family="Times,serif" font-size="14.00">1 = &amp;{closure@/Users/amal/oss/stable&#45;mir&#45;json/tests/integration/programs/closure&#45;no&#45;args.rs:2:15: 2:24} (8 bytes, align 8)</text>
</g>
<!-- node_7 -->
<g id="node14" class="node">
<title>node_7</title>
<polygon fill="#7ccd7c" stroke="#7ccd7c" points="4080.75,-1214 3518,-1214 3518,-1041 4080.75,-1041 4080.75,-1214"/>
<text xml:space="preserve" text-anchor="start" x="3526" y="-1196.7" font-family="Times,serif" font-size="14.00">LOCALS</text>
<text xml:space="preserve" text-anchor="start" x="3526" y="-1180.2" font-family="Times,serif" font-size="14.00">0 = Int(Isize)</text>
<text xml:space="preserve" text-anchor="start" x="3526" y="-1163.7" font-family="Times,serif" font-size="14.00">1 = fn()</text>
<text xml:space="preserve" text-anchor="start" x="3526" y="-1147.2" font-family="Times,serif" font-size="14.00">2 = Int(Isize)</text>
<text xml:space="preserve" text-anchor="start" x="3526" y="-1130.7" font-family="Times,serif" font-size="14.00">3 = *const *const u8 (8 bytes, align 8)</text>
<text xml:space="preserve" text-anchor="start" x="3526" y="-1114.2" font-family="Times,serif" font-size="14.00">4 = Uint(U8)</text>
<text xml:space="preserve" text-anchor="start" x="3526" y="-1097.7" font-family="Times,serif" font-size="14.00">5 = std::result::Result&lt;isize, !&gt; (8 bytes, align 8)</text>
<text xml:space="preserve" text-anchor="start" x="3526" y="-1081.2" font-family="Times,serif" font-size="14.00">6 = &amp;dyn std::ops::Fn() &#45;&gt; i32 + std::marker::Sync + std::panic::RefUnwindSafe (16 bytes, align 8)</text>
<text xml:space="preserve" text-anchor="start" x="3526" y="-1064.7" font-family="Times,serif" font-size="14.00">7 = &amp;{closure@std::rt::lang_start&lt;()&gt;::{closure#0}} (8 bytes, align 8)</text>
<text xml:space="preserve" text-anchor="start" x="3526" y="-1048.2" font-family="Times,serif" font-size="14.00">8 = {closure@std::rt::lang_start&lt;()&gt;::{closure#0}}</text>
</g>
<!-- X93b204fddd235411_0 -->
<g id="node15" class="node">
<title>X93b204fddd235411_0</title>
<polygon fill="none" stroke="black" points="4337.75,-1189.25 4099,-1189.25 4099,-1065.75 4337.75,-1065.75 4337.75,-1189.25"/>
<text xml:space="preserve" text-anchor="start" x="4107" y="-1171.95" font-family="Times,serif" font-size="14.00">Storage Live _5</text>
<text xml:space="preserve" text-anchor="start" x="4107" y="-1155.45" font-family="Times,serif" font-size="14.00">Storage Live _6</text>
<text xml:space="preserve" text-anchor="start" x="4107" y="-1138.95" font-family="Times,serif" font-size="14.00">Storage Live _8</text>
<text xml:space="preserve" text-anchor="start" x="4107" y="-1122.45" font-family="Times,serif" font-size="14.00">8 &lt;&#45; Closure (cp(1))</text>
<text xml:space="preserve" text-anchor="start" x="4107" y="-1105.95" font-family="Times,serif" font-size="14.00">7 &lt;&#45; &amp; 8</text>
<text xml:space="preserve" text-anchor="start" x="4107" y="-1089.45" font-family="Times,serif" font-size="14.00">6 &lt;&#45; Cast&#45;PointerCoercion(Unsize) cp(7)</text>
<text xml:space="preserve" text-anchor="start" x="4107" y="-1072.95" font-family="Times,serif" font-size="14.00">Call</text>
</g>
<!-- X93b204fddd235411_0&#45;&gt;X5eb86185c1cf8f06_0 -->
<g id="edge7" class="edge">
<title>X93b204fddd235411_0&#45;&gt;X5eb86185c1cf8f06_0</title>
<path fill="none" stroke="black" d="M4287.27,-1065.31C4308.32,-1045.05 4330.8,-1021.72 4349.38,-998.5 4375.89,-965.35 4400.75,-923.65 4417.24,-893.9"/>
<polygon fill="black" stroke="black" points="4420.25,-895.69 4421.98,-885.24 4414.11,-892.33 4420.25,-895.69"/>
<text xml:space="preserve" text-anchor="middle" x="4413.05" y="-1009.7" font-family="Times,serif" font-size="14.00">mv(6),mv(2),mv(3),mv(4)</text>
</g>
<!-- X93b204fddd235411_1 -->
<g id="node16" class="node">
<title>X93b204fddd235411_1</title>
<polygon fill="none" stroke="black" points="4312.25,-900 4124.5,-900 4124.5,-809.5 4312.25,-809.5 4312.25,-900"/>
<text xml:space="preserve" text-anchor="start" x="4132.5" y="-882.7" font-family="Times,serif" font-size="14.00">Storage Dead _6</text>
<text xml:space="preserve" text-anchor="start" x="4132.5" y="-866.2" font-family="Times,serif" font-size="14.00">0 &lt;&#45; Use(cp((5 as variant 0).0))</text>
<text xml:space="preserve" text-anchor="start" x="4132.5" y="-849.7" font-family="Times,serif" font-size="14.00">Storage Dead _8</text>
<text xml:space="preserve" text-anchor="start" x="4132.5" y="-833.2" font-family="Times,serif" font-size="14.00">Storage Dead _5</text>
<text xml:space="preserve" text-anchor="start" x="4132.5" y="-816.7" font-family="Times,serif" font-size="14.00">Return</text>
</g>
<!-- X93b204fddd235411_0&#45;&gt;X93b204fddd235411_1 -->
<g id="edge6" class="edge">
<title>X93b204fddd235411_0&#45;&gt;X93b204fddd235411_1</title>
<path fill="none" stroke="black" d="M4218.38,-1065.4C4218.38,-1019.2 4218.38,-956.29 4218.38,-911.46"/>
<polygon fill="black" stroke="black" points="4221.88,-911.7 4218.38,-901.7 4214.88,-911.7 4221.88,-911.7"/>
<text xml:space="preserve" text-anchor="middle" x="4221.75" y="-1009.7" font-family="Times,serif" font-size="14.00">5</text>
</g>
<!-- node_9 -->
<g id="node17" class="node">
<title>node_9</title>
<polygon fill="#7ccd7c" stroke="#7ccd7c" points="3780.62,-718 3328.12,-718 3328.12,-578 3780.62,-578 3780.62,-718"/>
<text xml:space="preserve" text-anchor="start" x="3336.12" y="-700.7" font-family="Times,serif" font-size="14.00">LOCALS</text>
<text xml:space="preserve" text-anchor="start" x="3336.12" y="-684.2" font-family="Times,serif" font-size="14.00">0 = Int(I32)</text>
<text xml:space="preserve" text-anchor="start" x="3336.12" y="-667.7" font-family="Times,serif" font-size="14.00">1 = &amp;{closure@std::rt::lang_start&lt;()&gt;::{closure#0}} (8 bytes, align 8)</text>
<text xml:space="preserve" text-anchor="start" x="3336.12" y="-651.2" font-family="Times,serif" font-size="14.00">2 = std::process::ExitCode (1 bytes, align 1)</text>
<text xml:space="preserve" text-anchor="start" x="3336.12" y="-634.7" font-family="Times,serif" font-size="14.00">3 = () (0 bytes, align 1)</text>
<text xml:space="preserve" text-anchor="start" x="3336.12" y="-618.2" font-family="Times,serif" font-size="14.00">4 = fn()</text>
<text xml:space="preserve" text-anchor="start" x="3336.12" y="-601.7" font-family="Times,serif" font-size="14.00">5 = &amp;std::sys::pal::unix::process::process_common::ExitCode (8 bytes, align 8)</text>
<text xml:space="preserve" text-anchor="start" x="3336.12" y="-585.2" font-family="Times,serif" font-size="14.00">6 = Uint(U8)</text>
</g>
<!-- X4384a98b97b3ee2f_0 -->
<g id="node18" class="node">
<title>X4384a98b97b3ee2f_0</title>
<polygon fill="none" stroke="black" points="3926.25,-693.25 3798.5,-693.25 3798.5,-602.75 3926.25,-602.75 3926.25,-693.25"/>
<text xml:space="preserve" text-anchor="start" x="3806.5" y="-675.95" font-family="Times,serif" font-size="14.00">Storage Live _2</text>
<text xml:space="preserve" text-anchor="start" x="3806.5" y="-659.45" font-family="Times,serif" font-size="14.00">Storage Live _3</text>
<text xml:space="preserve" text-anchor="start" x="3806.5" y="-642.95" font-family="Times,serif" font-size="14.00">Storage Live _4</text>
<text xml:space="preserve" text-anchor="start" x="3806.5" y="-626.45" font-family="Times,serif" font-size="14.00">4 &lt;&#45; Use(cp((*1).0))</text>
<text xml:space="preserve" text-anchor="start" x="3806.5" y="-609.95" font-family="Times,serif" font-size="14.00">Call</text>
</g>
<!-- X4384a98b97b3ee2f_1 -->
<g id="node19" class="node">
<title>X4384a98b97b3ee2f_1</title>
<polygon fill="none" stroke="black" points="3915.75,-437 3809,-437 3809,-396 3915.75,-396 3915.75,-437"/>
<text xml:space="preserve" text-anchor="start" x="3817" y="-419.7" font-family="Times,serif" font-size="14.00">Storage Dead _4</text>
<text xml:space="preserve" text-anchor="start" x="3817" y="-403.2" font-family="Times,serif" font-size="14.00">Call</text>
</g>
<!-- X4384a98b97b3ee2f_0&#45;&gt;X4384a98b97b3ee2f_1 -->
<g id="edge8" class="edge">
<title>X4384a98b97b3ee2f_0&#45;&gt;X4384a98b97b3ee2f_1</title>
<path fill="none" stroke="black" d="M3862.38,-602.48C3862.38,-557.23 3862.38,-488.32 3862.38,-448.63"/>
<polygon fill="black" stroke="black" points="3865.88,-448.82 3862.38,-438.82 3858.88,-448.82 3865.88,-448.82"/>
<text xml:space="preserve" text-anchor="middle" x="3865.75" y="-546.7" font-family="Times,serif" font-size="14.00">3</text>
</g>
<!-- X3ab271b460318fb6_0 -->
<g id="node21" class="node">
<title>X3ab271b460318fb6_0</title>
<polygon fill="none" stroke="black" points="4545.38,-434.5 4491.38,-434.5 4491.38,-398.5 4545.38,-398.5 4545.38,-434.5"/>
<text xml:space="preserve" text-anchor="start" x="4499.38" y="-411.45" font-family="Times,serif" font-size="14.00">Call</text>
</g>
<!-- X4384a98b97b3ee2f_0&#45;&gt;X3ab271b460318fb6_0 -->
<g id="edge10" class="edge">
<title>X4384a98b97b3ee2f_0&#45;&gt;X3ab271b460318fb6_0</title>
<path fill="none" stroke="black" d="M3926.47,-624.58C4061.61,-577.3 4372.2,-468.64 4480.38,-430.79"/>
<polygon fill="black" stroke="black" points="4481.38,-434.15 4489.66,-427.55 4479.07,-427.54 4481.38,-434.15"/>
<text xml:space="preserve" text-anchor="middle" x="4167.97" y="-546.7" font-family="Times,serif" font-size="14.00">mv(4)</text>
</g>
<!-- X4384a98b97b3ee2f_2 -->
<g id="node20" class="node">
<title>X4384a98b97b3ee2f_2</title>
<polygon fill="none" stroke="black" points="3926.38,-304.5 3772.38,-304.5 3772.38,-131.5 3926.38,-131.5 3926.38,-304.5"/>
<text xml:space="preserve" text-anchor="start" x="3780.38" y="-287.2" font-family="Times,serif" font-size="14.00">Storage Dead _3</text>
<text xml:space="preserve" text-anchor="start" x="3780.38" y="-270.7" font-family="Times,serif" font-size="14.00">Storage Live _5</text>
<text xml:space="preserve" text-anchor="start" x="3780.38" y="-254.2" font-family="Times,serif" font-size="14.00">5 &lt;&#45; &amp; 2.0</text>
<text xml:space="preserve" text-anchor="start" x="3780.38" y="-237.7" font-family="Times,serif" font-size="14.00">Storage Live _6</text>
<text xml:space="preserve" text-anchor="start" x="3780.38" y="-221.2" font-family="Times,serif" font-size="14.00">6 &lt;&#45; Use(cp(2.0.0))</text>
<text xml:space="preserve" text-anchor="start" x="3780.38" y="-204.7" font-family="Times,serif" font-size="14.00">0 &lt;&#45; Cast&#45;IntToInt mv(6)</text>
<text xml:space="preserve" text-anchor="start" x="3780.38" y="-188.2" font-family="Times,serif" font-size="14.00">Storage Dead _6</text>
<text xml:space="preserve" text-anchor="start" x="3780.38" y="-171.7" font-family="Times,serif" font-size="14.00">Storage Dead _5</text>
<text xml:space="preserve" text-anchor="start" x="3780.38" y="-155.2" font-family="Times,serif" font-size="14.00">Storage Dead _2</text>
<text xml:space="preserve" text-anchor="start" x="3780.38" y="-138.7" font-family="Times,serif" font-size="14.00">Return</text>
</g>
<!-- X4384a98b97b3ee2f_1&#45;&gt;X4384a98b97b3ee2f_2 -->
<g id="edge9" class="edge">
<title>X4384a98b97b3ee2f_1&#45;&gt;X4384a98b97b3ee2f_2</title>
<path fill="none" stroke="black" d="M3861.06,-395.58C3859.8,-376.54 3857.8,-346.38 3855.81,-316.33"/>
<polygon fill="black" stroke="black" points="3859.31,-316.1 3855.15,-306.35 3852.32,-316.56 3859.31,-316.1"/>
<text xml:space="preserve" text-anchor="middle" x="3861.91" y="-348.2" font-family="Times,serif" font-size="14.00">2</text>
</g>
<!-- X4b9cb9dcd71a0525_0 -->
<g id="node22" class="node">
<title>X4b9cb9dcd71a0525_0</title>
<polygon fill="none" stroke="black" points="4191.88,-238.5 3950.88,-238.5 3950.88,-197.5 4191.88,-197.5 4191.88,-238.5"/>
<text xml:space="preserve" text-anchor="start" x="3958.88" y="-221.2" font-family="Times,serif" font-size="14.00">0 &lt;&#45; Use(const 0_std::process::ExitCode)</text>
<text xml:space="preserve" text-anchor="start" x="3958.88" y="-204.7" font-family="Times,serif" font-size="14.00">Return</text>
</g>
<!-- X4384a98b97b3ee2f_1&#45;&gt;X4b9cb9dcd71a0525_0 -->
<g id="edge11" class="edge">
<title>X4384a98b97b3ee2f_1&#45;&gt;X4b9cb9dcd71a0525_0</title>
<path fill="none" stroke="black" d="M3883.57,-395.58C3921.04,-360.34 3999.08,-286.97 4041.82,-246.78"/>
<polygon fill="black" stroke="black" points="4044.14,-249.41 4049.03,-240.01 4039.34,-244.31 4044.14,-249.41"/>
<text xml:space="preserve" text-anchor="middle" x="3952.82" y="-348.2" font-family="Times,serif" font-size="14.00">mv(3)</text>
</g>
<!-- X3ab271b460318fb6_1 -->
<g id="node24" class="node">
<title>X3ab271b460318fb6_1</title>
<polygon fill="none" stroke="black" points="4625.38,-236 4571.38,-236 4571.38,-200 4625.38,-200 4625.38,-236"/>
<text xml:space="preserve" text-anchor="start" x="4579.38" y="-212.95" font-family="Times,serif" font-size="14.00">Call</text>
</g>
<!-- X3ab271b460318fb6_0&#45;&gt;X3ab271b460318fb6_1 -->
<g id="edge12" class="edge">
<title>X3ab271b460318fb6_0&#45;&gt;X3ab271b460318fb6_1</title>
<path fill="none" stroke="black" d="M4525.47,-398.06C4539.35,-363.98 4570.18,-288.26 4586.96,-247.05"/>
<polygon fill="black" stroke="black" points="4590.19,-248.38 4590.72,-237.8 4583.71,-245.74 4590.19,-248.38"/>
<text xml:space="preserve" text-anchor="middle" x="4549.91" y="-348.2" font-family="Times,serif" font-size="14.00">0</text>
</g>
<!-- Xc79310fc52609f1c_0 -->
<g id="node26" class="node">
<title>Xc79310fc52609f1c_0</title>
<polygon fill="none" stroke="black" points="4868.38,-236 4814.38,-236 4814.38,-200 4868.38,-200 4868.38,-236"/>
<text xml:space="preserve" text-anchor="start" x="4822.38" y="-212.95" font-family="Times,serif" font-size="14.00">Call</text>
</g>
<!-- X3ab271b460318fb6_0&#45;&gt;Xc79310fc52609f1c_0 -->
<g id="edge14" class="edge">
<title>X3ab271b460318fb6_0&#45;&gt;Xc79310fc52609f1c_0</title>
<path fill="none" stroke="black" d="M4532.25,-398.06C4538.38,-391.38 4546.08,-384.23 4554.38,-379.5 4620.14,-341.96 4653.3,-374 4719.38,-337 4761.23,-313.56 4799.19,-272.21 4821.28,-245.21"/>
<polygon fill="black" stroke="black" points="4823.95,-247.48 4827.47,-237.49 4818.48,-243.11 4823.95,-247.48"/>
<text xml:space="preserve" text-anchor="middle" x="4739.85" y="-348.2" font-family="Times,serif" font-size="14.00">mv(1),const ()</text>
</g>
<!-- node_11 -->
<g id="node23" class="node">
<title>node_11</title>
<polygon fill="#7ccd7c" stroke="#7ccd7c" points="4707.5,-453.5 4563.25,-453.5 4563.25,-379.5 4707.5,-379.5 4707.5,-453.5"/>
<text xml:space="preserve" text-anchor="start" x="4571.25" y="-436.2" font-family="Times,serif" font-size="14.00">LOCALS</text>
<text xml:space="preserve" text-anchor="start" x="4571.25" y="-419.7" font-family="Times,serif" font-size="14.00">0 = () (0 bytes, align 1)</text>
<text xml:space="preserve" text-anchor="start" x="4571.25" y="-403.2" font-family="Times,serif" font-size="14.00">1 = fn()</text>
<text xml:space="preserve" text-anchor="start" x="4571.25" y="-386.7" font-family="Times,serif" font-size="14.00">2 = () (0 bytes, align 1)</text>
</g>
<!-- X3ab271b460318fb6_1&#45;&gt;X3c6542d96320ad67_0 -->
<g id="edge15" class="edge">
<title>X3ab271b460318fb6_1&#45;&gt;X3c6542d96320ad67_0</title>
<path fill="none" stroke="black" d="M4616.22,-199.54C4644.07,-172.3 4698.11,-119.44 4731.24,-87.03"/>
<polygon fill="black" stroke="black" points="4733.4,-89.81 4738.1,-80.31 4728.5,-84.8 4733.4,-89.81"/>
<text xml:space="preserve" text-anchor="middle" x="4741.09" y="-100.2" font-family="Times,serif" font-size="14.00">const ()</text>
</g>
<!-- X3ab271b460318fb6_2 -->
<g id="node25" class="node">
<title>X3ab271b460318fb6_2</title>
<polygon fill="none" stroke="black" points="4625.38,-76.5 4571.38,-76.5 4571.38,-40.5 4625.38,-40.5 4625.38,-76.5"/>
<text xml:space="preserve" text-anchor="start" x="4579.38" y="-53.45" font-family="Times,serif" font-size="14.00">Return</text>
</g>
<!-- X3ab271b460318fb6_1&#45;&gt;X3ab271b460318fb6_2 -->
<g id="edge13" class="edge">
<title>X3ab271b460318fb6_1&#45;&gt;X3ab271b460318fb6_2</title>
<path fill="none" stroke="black" d="M4598.38,-199.54C4598.38,-172.56 4598.38,-120.44 4598.38,-87.95"/>
<polygon fill="black" stroke="black" points="4601.88,-88.07 4598.38,-78.07 4594.88,-88.07 4601.88,-88.07"/>
<text xml:space="preserve" text-anchor="middle" x="4601.75" y="-100.2" font-family="Times,serif" font-size="14.00">2</text>
</g>
<!-- Xc79310fc52609f1c_0&#45;&gt;Xc79310fc52609f1c_0 -->
<g id="edge19" class="edge">
<title>Xc79310fc52609f1c_0&#45;&gt;Xc79310fc52609f1c_0:1</title>
<path fill="none" stroke="black" d="M4858.93,-236.41C4872.52,-243.3 4886.38,-237.16 4886.38,-218 4886.38,-204.08 4879.06,-197.03 4869.85,-196.86"/>
<polygon fill="black" stroke="black" points="4869.25,-193.4 4860.4,-199.22 4870.95,-200.2 4869.25,-193.4"/>
</g>
<!-- Xc79310fc52609f1c_1 -->
<g id="node32" class="node">
<title>Xc79310fc52609f1c_1</title>
<polygon fill="none" stroke="black" points="4868.38,-76.5 4814.38,-76.5 4814.38,-40.5 4868.38,-40.5 4868.38,-76.5"/>
<text xml:space="preserve" text-anchor="start" x="4822.38" y="-53.45" font-family="Times,serif" font-size="14.00">Return</text>
</g>
<!-- Xc79310fc52609f1c_0&#45;&gt;Xc79310fc52609f1c_1 -->
<g id="edge18" class="edge">
<title>Xc79310fc52609f1c_0&#45;&gt;Xc79310fc52609f1c_1</title>
<path fill="none" stroke="black" d="M4841.38,-199.54C4841.38,-172.56 4841.38,-120.44 4841.38,-87.95"/>
<polygon fill="black" stroke="black" points="4844.88,-88.07 4841.38,-78.07 4837.88,-88.07 4844.88,-88.07"/>
<text xml:space="preserve" text-anchor="middle" x="4844.75" y="-100.2" font-family="Times,serif" font-size="14.00">0</text>
</g>
<!-- node_13 -->
<g id="node27" class="node">
<title>node_13</title>
<polygon fill="#7ccd7c" stroke="#7ccd7c" points="2675.38,-1164.5 2251.38,-1164.5 2251.38,-1090.5 2675.38,-1090.5 2675.38,-1164.5"/>
<text xml:space="preserve" text-anchor="start" x="2259.38" y="-1147.2" font-family="Times,serif" font-size="14.00">LOCALS</text>
<text xml:space="preserve" text-anchor="start" x="2259.38" y="-1130.7" font-family="Times,serif" font-size="14.00">0 = Int(I32)</text>
<text xml:space="preserve" text-anchor="start" x="2259.38" y="-1114.2" font-family="Times,serif" font-size="14.00">1 = *mut {closure@std::rt::lang_start&lt;()&gt;::{closure#0}} (8 bytes, align 8)</text>
<text xml:space="preserve" text-anchor="start" x="2259.38" y="-1097.7" font-family="Times,serif" font-size="14.00">2 = () (0 bytes, align 1)</text>
</g>
<!-- X14701bfa78d795b5_0 -->
<g id="node28" class="node">
<title>X14701bfa78d795b5_0</title>
<polygon fill="none" stroke="black" points="2747.38,-1145.5 2693.38,-1145.5 2693.38,-1109.5 2747.38,-1109.5 2747.38,-1145.5"/>
<text xml:space="preserve" text-anchor="start" x="2701.38" y="-1122.45" font-family="Times,serif" font-size="14.00">Call</text>
</g>
<!-- X14701bfa78d795b5_1 -->
<g id="node29" class="node">
<title>X14701bfa78d795b5_1</title>
<polygon fill="none" stroke="black" points="2747.38,-872.75 2693.38,-872.75 2693.38,-836.75 2747.38,-836.75 2747.38,-872.75"/>
<text xml:space="preserve" text-anchor="start" x="2701.38" y="-849.7" font-family="Times,serif" font-size="14.00">Return</text>
</g>
<!-- X14701bfa78d795b5_0&#45;&gt;X14701bfa78d795b5_1 -->
<g id="edge16" class="edge">
<title>X14701bfa78d795b5_0&#45;&gt;X14701bfa78d795b5_1</title>
<path fill="none" stroke="black" d="M2720.38,-1109.15C2720.38,-1063.59 2720.38,-940.21 2720.38,-884.15"/>
<polygon fill="black" stroke="black" points="2723.88,-884.47 2720.38,-874.47 2716.88,-884.47 2723.88,-884.47"/>
<text xml:space="preserve" text-anchor="middle" x="2723.75" y="-1009.7" font-family="Times,serif" font-size="14.00">0</text>
</g>
<!-- X60b00dbc7fb17a97_0 -->
<g id="node30" class="node">
<title>X60b00dbc7fb17a97_0</title>
<polygon fill="none" stroke="black" points="2857.62,-875.25 2771.12,-875.25 2771.12,-834.25 2857.62,-834.25 2857.62,-875.25"/>
<text xml:space="preserve" text-anchor="start" x="2779.12" y="-857.95" font-family="Times,serif" font-size="14.00">3 &lt;&#45; &amp;mut 1</text>
<text xml:space="preserve" text-anchor="start" x="2779.12" y="-841.45" font-family="Times,serif" font-size="14.00">Call</text>
</g>
<!-- X14701bfa78d795b5_0&#45;&gt;X60b00dbc7fb17a97_0 -->
<g id="edge17" class="edge">
<title>X14701bfa78d795b5_0&#45;&gt;X60b00dbc7fb17a97_0</title>
<path fill="none" stroke="black" d="M2726.4,-1109.15C2742.02,-1064.16 2783.98,-943.3 2803.77,-886.3"/>
<polygon fill="black" stroke="black" points="2807.06,-887.5 2807.03,-876.9 2800.45,-885.2 2807.06,-887.5"/>
<text xml:space="preserve" text-anchor="middle" x="2805.25" y="-1009.7" font-family="Times,serif" font-size="14.00">mv((*1)),mv(2)</text>
</g>
<!-- X60b00dbc7fb17a97_0&#45;&gt;X4384a98b97b3ee2f_0 -->
<g id="edge24" class="edge">
<title>X60b00dbc7fb17a97_0&#45;&gt;X4384a98b97b3ee2f_0</title>
<path fill="none" stroke="black" d="M2828.4,-833.88C2837.91,-822.15 2851.6,-808.32 2867.38,-801.5 2961.48,-760.84 3700.77,-818.57 3789.38,-767 3813.41,-753.01 3830.61,-727.65 3842.25,-704.02"/>
<polygon fill="black" stroke="black" points="3845.38,-705.6 3846.42,-695.05 3839.03,-702.64 3845.38,-705.6"/>
<text xml:space="preserve" text-anchor="middle" x="3802.3" y="-778.2" font-family="Times,serif" font-size="14.00">mv(3),mv(2)</text>
</g>
<!-- X60b00dbc7fb17a97_3 -->
<g id="node34" class="node">
<title>X60b00dbc7fb17a97_3</title>
<polygon fill="none" stroke="black" points="2835.5,-666 2781.25,-666 2781.25,-630 2835.5,-630 2835.5,-666"/>
<text xml:space="preserve" text-anchor="start" x="2789.25" y="-642.95" font-family="Times,serif" font-size="14.00">Drop 1</text>
</g>
<!-- X60b00dbc7fb17a97_0&#45;&gt;X60b00dbc7fb17a97_3 -->
<g id="edge20" class="edge">
<title>X60b00dbc7fb17a97_0&#45;&gt;X60b00dbc7fb17a97_3</title>
<path fill="none" stroke="black" d="M2813.71,-833.85C2813.31,-821.63 2812.8,-805.66 2812.38,-791.5 2811.18,-751.89 2809.92,-706.08 2809.14,-677.32"/>
<polygon fill="black" stroke="black" points="2812.64,-677.52 2808.87,-667.62 2805.65,-677.71 2812.64,-677.52"/>
<text xml:space="preserve" text-anchor="middle" x="2834.88" y="-778.2" font-family="Times,serif" font-size="14.00">Cleanup</text>
</g>
<!-- X60b00dbc7fb17a97_1 -->
<g id="node35" class="node">
<title>X60b00dbc7fb17a97_1</title>
<polygon fill="none" stroke="black" points="2908.5,-666 2854.25,-666 2854.25,-630 2908.5,-630 2908.5,-666"/>
<text xml:space="preserve" text-anchor="start" x="2862.25" y="-642.95" font-family="Times,serif" font-size="14.00">Drop 1</text>
</g>
<!-- X60b00dbc7fb17a97_0&#45;&gt;X60b00dbc7fb17a97_1 -->
<g id="edge21" class="edge">
<title>X60b00dbc7fb17a97_0&#45;&gt;X60b00dbc7fb17a97_1</title>
<path fill="none" stroke="black" d="M2831.56,-833.76C2840.64,-822.15 2851.15,-806.83 2857.38,-791.5 2872.64,-753.91 2878.19,-706.94 2880.22,-677.45"/>
<polygon fill="black" stroke="black" points="2883.69,-678.02 2880.78,-667.84 2876.7,-677.62 2883.69,-678.02"/>
<text xml:space="preserve" text-anchor="middle" x="2866.09" y="-778.2" font-family="Times,serif" font-size="14.00">0</text>
</g>
<!-- node_15 -->
<g id="node31" class="node">
<title>node_15</title>
<polygon fill="#7ccd7c" stroke="#7ccd7c" points="5048.5,-255 4904.25,-255 4904.25,-181 5048.5,-181 5048.5,-255"/>
<text xml:space="preserve" text-anchor="start" x="4912.25" y="-237.7" font-family="Times,serif" font-size="14.00">LOCALS</text>
<text xml:space="preserve" text-anchor="start" x="4912.25" y="-221.2" font-family="Times,serif" font-size="14.00">0 = () (0 bytes, align 1)</text>
<text xml:space="preserve" text-anchor="start" x="4912.25" y="-204.7" font-family="Times,serif" font-size="14.00">1 = fn()</text>
<text xml:space="preserve" text-anchor="start" x="4912.25" y="-188.2" font-family="Times,serif" font-size="14.00">2 = () (0 bytes, align 1)</text>
</g>
<!-- node_17 -->
<g id="node33" class="node">
<title>node_17</title>
<polygon fill="#7ccd7c" stroke="#7ccd7c" points="3304.62,-900 2876.12,-900 2876.12,-809.5 3304.62,-809.5 3304.62,-900"/>
<text xml:space="preserve" text-anchor="start" x="2884.12" y="-882.7" font-family="Times,serif" font-size="14.00">LOCALS</text>
<text xml:space="preserve" text-anchor="start" x="2884.12" y="-866.2" font-family="Times,serif" font-size="14.00">0 = Int(I32)</text>
<text xml:space="preserve" text-anchor="start" x="2884.12" y="-849.7" font-family="Times,serif" font-size="14.00">1 = {closure@std::rt::lang_start&lt;()&gt;::{closure#0}}</text>
<text xml:space="preserve" text-anchor="start" x="2884.12" y="-833.2" font-family="Times,serif" font-size="14.00">2 = () (0 bytes, align 1)</text>
<text xml:space="preserve" text-anchor="start" x="2884.12" y="-816.7" font-family="Times,serif" font-size="14.00">3 = &amp;mut {closure@std::rt::lang_start&lt;()&gt;::{closure#0}} (8 bytes, align 8)</text>
</g>
<!-- X60b00dbc7fb17a97_4 -->
<g id="node37" class="node">
<title>X60b00dbc7fb17a97_4</title>
<polygon fill="none" stroke="black" points="2837.5,-434.5 2777.25,-434.5 2777.25,-398.5 2837.5,-398.5 2837.5,-434.5"/>
<text xml:space="preserve" text-anchor="start" x="2785.25" y="-411.45" font-family="Times,serif" font-size="14.00">Resume</text>
</g>
<!-- X60b00dbc7fb17a97_3&#45;&gt;X60b00dbc7fb17a97_4 -->
<g id="edge23" class="edge">
<title>X60b00dbc7fb17a97_3&#45;&gt;X60b00dbc7fb17a97_4</title>
<path fill="none" stroke="black" d="M2808.3,-629.75C2808.13,-590.62 2807.71,-494.8 2807.5,-446.43"/>
<polygon fill="black" stroke="black" points="2811,-446.45 2807.46,-436.46 2804,-446.48 2811,-446.45"/>
</g>
<!-- X60b00dbc7fb17a97_2 -->
<g id="node36" class="node">
<title>X60b00dbc7fb17a97_2</title>
<polygon fill="none" stroke="black" points="2909.38,-434.5 2855.38,-434.5 2855.38,-398.5 2909.38,-398.5 2909.38,-434.5"/>
<text xml:space="preserve" text-anchor="start" x="2863.38" y="-411.45" font-family="Times,serif" font-size="14.00">Return</text>
</g>
<!-- X60b00dbc7fb17a97_1&#45;&gt;X60b00dbc7fb17a97_2 -->
<g id="edge22" class="edge">
<title>X60b00dbc7fb17a97_1&#45;&gt;X60b00dbc7fb17a97_2</title>
<path fill="none" stroke="black" d="M2881.45,-629.75C2881.62,-590.62 2882.04,-494.8 2882.25,-446.43"/>
<polygon fill="black" stroke="black" points="2885.75,-446.48 2882.29,-436.46 2878.75,-446.45 2885.75,-446.48"/>
</g>
<!-- node_19 -->
<g id="node38" class="node">
<title>node_19</title>
<polygon fill="#7ccd7c" stroke="#7ccd7c" points="4880.38,-1156.25 4456.38,-1156.25 4456.38,-1098.75 4880.38,-1098.75 4880.38,-1156.25"/>
<text xml:space="preserve" text-anchor="start" x="4464.38" y="-1138.95" font-family="Times,serif" font-size="14.00">LOCALS</text>
<text xml:space="preserve" text-anchor="start" x="4464.38" y="-1122.45" font-family="Times,serif" font-size="14.00">0 = () (0 bytes, align 1)</text>
<text xml:space="preserve" text-anchor="start" x="4464.38" y="-1105.95" font-family="Times,serif" font-size="14.00">1 = *mut {closure@std::rt::lang_start&lt;()&gt;::{closure#0}} (8 bytes, align 8)</text>
</g>
<!-- Xfe2e01c3995741c8_0 -->
<g id="node39" class="node">
<title>Xfe2e01c3995741c8_0</title>
<polygon fill="none" stroke="black" points="4952.38,-1145.5 4898.38,-1145.5 4898.38,-1109.5 4952.38,-1109.5 4952.38,-1145.5"/>
<text xml:space="preserve" text-anchor="start" x="4906.38" y="-1122.45" font-family="Times,serif" font-size="14.00">Return</text>
</g>
<!-- node_21 -->
<g id="node40" class="node">
<title>node_21</title>
<polygon fill="#7ccd7c" stroke="#7ccd7c" points="4467.12,-246.75 4209.62,-246.75 4209.62,-189.25 4467.12,-189.25 4467.12,-246.75"/>
<text xml:space="preserve" text-anchor="start" x="4217.62" y="-229.45" font-family="Times,serif" font-size="14.00">LOCALS</text>
<text xml:space="preserve" text-anchor="start" x="4217.62" y="-212.95" font-family="Times,serif" font-size="14.00">0 = std::process::ExitCode (1 bytes, align 1)</text>
<text xml:space="preserve" text-anchor="start" x="4217.62" y="-196.45" font-family="Times,serif" font-size="14.00">1 = () (0 bytes, align 1)</text>
</g>
</g>
</svg>
