<?xml version="1.0" encoding="UTF-8" standalone="no"?>
<!DOCTYPE svg PUBLIC "-//W3C//DTD SVG 1.1//EN"
 "http://www.w3.org/Graphics/SVG/1.1/DTD/svg11.dtd">
<!-- Generated by graphviz version 14.1.1 (20251213.1925)
 -->
<!-- Pages: 1 -->
<svg width="5092pt" height="1279pt"
 viewBox="0.00 0.00 5092.00 1279.00" xmlns="http://www.w3.org/2000/svg" xmlns:xlink="http://www.w3.org/1999/xlink">
<g id="graph0" class="graph" transform="scale(1 1) rotate(0) translate(4 1275)">
<polygon fill="white" stroke="none" points="-4,4 -4,-1275 5088.38,-1275 5088.38,4 -4,4"/>
<text xml:space="preserve" text-anchor="middle" x="2542.19" y="-7.2" font-family="Times,serif" font-size="14.00">const_arithm_simple</text>
<g id="clust1" class="cluster">
<title>cluster_2</title>
<polygon fill="palegreen" stroke="palegreen" points="532.38,-622 532.38,-1213.5 900.38,-1213.5 900.38,-622 532.38,-622"/>
<text xml:space="preserve" text-anchor="middle" x="716.38" y="-1196.2" font-family="Times,serif" font-size="14.00">main</text>
</g>
<g id="clust2" class="cluster">
<title>cluster_4</title>
<polygon fill="palegreen" stroke="palegreen" points="908.38,-809.75 908.38,-924.25 1174.38,-924.25 1174.38,-809.75 908.38,-809.75"/>
<text xml:space="preserve" text-anchor="middle" x="1041.38" y="-906.95" font-family="Times,serif" font-size="14.00">test</text>
</g>
<g id="clust3" class="cluster">
<title>cluster_6</title>
<polygon fill="lightgray" stroke="lightgray" points="1182.38,-801.5 1182.38,-1246.5 2017.38,-1246.5 2017.38,-801.5 1182.38,-801.5"/>
<text xml:space="preserve" text-anchor="middle" x="1599.88" y="-1229.2" font-family="Times,serif" font-size="14.00">std::rt::lang_start::&lt;()&gt;</text>
</g>
<g id="clust4" class="cluster">
<title>cluster_8</title>
<polygon fill="lightgray" stroke="lightgray" points="3340.38,-123.5 3340.38,-767 3954.38,-767 3954.38,-123.5 3340.38,-123.5"/>
<text xml:space="preserve" text-anchor="middle" x="3647.38" y="-749.7" font-family="Times,serif" font-size="14.00">std::rt::lang_start::&lt;()&gt;</text>
<text xml:space="preserve" text-anchor="middle" x="3647.38" y="-733.2" font-family="Times,serif" font-size="14.00">::{closure#0}</text>
</g>
<g id="clust5" class="cluster">
<title>cluster_10</title>
<polygon fill="lightgray" stroke="lightgray" points="4503.38,-32.5 4503.38,-535.5 4735.38,-535.5 4735.38,-32.5 4503.38,-32.5"/>
<text xml:space="preserve" text-anchor="middle" x="4619.38" y="-518.2" font-family="Times,serif" font-size="14.00">std::sys::backtrace::__ru</text>
<text xml:space="preserve" text-anchor="middle" x="4619.38" y="-501.7" font-family="Times,serif" font-size="14.00">st_begin_short_backtrace:</text>
<text xml:space="preserve" text-anchor="middle" x="4619.38" y="-485.2" font-family="Times,serif" font-size="14.00">:&lt;fn(), </text>
<text xml:space="preserve" text-anchor="middle" x="4619.38" y="-468.7" font-family="Times,serif" font-size="14.00">()&gt;</text>
</g>
<g id="clust6" class="cluster">
<title>cluster_12</title>
<polygon fill="lightgray" stroke="lightgray" points="2263.38,-828.75 2263.38,-1263 2775.38,-1263 2775.38,-828.75 2263.38,-828.75"/>
<text xml:space="preserve" text-anchor="middle" x="2519.38" y="-1245.7" font-family="Times,serif" font-size="14.00">&lt;{closure@std::rt::lang_s</text>
<text xml:space="preserve" text-anchor="middle" x="2519.38" y="-1229.2" font-family="Times,serif" font-size="14.00">tart&lt;()&gt;::{closure#0}} </text>
<text xml:space="preserve" text-anchor="middle" x="2519.38" y="-1212.7" font-family="Times,serif" font-size="14.00">as </text>
<text xml:space="preserve" text-anchor="middle" x="2519.38" y="-1196.2" font-family="Times,serif" font-size="14.00">std::ops::FnOnce&lt;()&gt;&gt;::ca</text>
<text xml:space="preserve" text-anchor="middle" x="2519.38" y="-1179.7" font-family="Times,serif" font-size="14.00">ll_once</text>
</g>
<g id="clust7" class="cluster">
<title>cluster_14</title>
<polygon fill="lightgray" stroke="lightgray" points="4826.38,-32.5 4826.38,-337 5076.38,-337 5076.38,-32.5 4826.38,-32.5"/>
<text xml:space="preserve" text-anchor="middle" x="4951.38" y="-319.7" font-family="Times,serif" font-size="14.00">&lt;fn() </text>
<text xml:space="preserve" text-anchor="middle" x="4951.38" y="-303.2" font-family="Times,serif" font-size="14.00">as </text>
<text xml:space="preserve" text-anchor="middle" x="4951.38" y="-286.7" font-family="Times,serif" font-size="14.00">std::ops::FnOnce&lt;()&gt;&gt;::ca</text>
<text xml:space="preserve" text-anchor="middle" x="4951.38" y="-270.2" font-family="Times,serif" font-size="14.00">ll_once</text>
</g>
<g id="clust8" class="cluster">
<title>cluster_16</title>
<polygon fill="lightgray" stroke="lightgray" points="2783.38,-390.5 2783.38,-998.5 3332.38,-998.5 3332.38,-390.5 2783.38,-390.5"/>
<text xml:space="preserve" text-anchor="middle" x="3057.88" y="-981.2" font-family="Times,serif" font-size="14.00">&lt;{closure@std::rt::lang_s</text>
<text xml:space="preserve" text-anchor="middle" x="3057.88" y="-964.7" font-family="Times,serif" font-size="14.00">tart&lt;()&gt;::{closure#0}} </text>
<text xml:space="preserve" text-anchor="middle" x="3057.88" y="-948.2" font-family="Times,serif" font-size="14.00">as </text>
<text xml:space="preserve" text-anchor="middle" x="3057.88" y="-931.7" font-family="Times,serif" font-size="14.00">std::ops::FnOnce&lt;()&gt;&gt;::ca</text>
<text xml:space="preserve" text-anchor="middle" x="3057.88" y="-915.2" font-family="Times,serif" font-size="14.00">ll_once</text>
</g>
<g id="clust9" class="cluster">
<title>cluster_18</title>
<polygon fill="lightgray" stroke="lightgray" points="3673.38,-1090.75 3673.38,-1221.75 4185.38,-1221.75 4185.38,-1090.75 3673.38,-1090.75"/>
<text xml:space="preserve" text-anchor="middle" x="3929.38" y="-1204.45" font-family="Times,serif" font-size="14.00">std::ptr::drop_in_place::</text>
<text xml:space="preserve" text-anchor="middle" x="3929.38" y="-1187.95" font-family="Times,serif" font-size="14.00">&lt;{closure@std::rt::lang_s</text>
<text xml:space="preserve" text-anchor="middle" x="3929.38" y="-1171.45" font-family="Times,serif" font-size="14.00">tart&lt;()&gt;::{closure#0}}&gt;</text>
</g>
<g id="clust10" class="cluster">
<title>cluster_20</title>
<polygon fill="lightgray" stroke="lightgray" points="3962.38,-181.25 3962.38,-328.75 4495.38,-328.75 4495.38,-181.25 3962.38,-181.25"/>
<text xml:space="preserve" text-anchor="middle" x="4228.88" y="-311.45" font-family="Times,serif" font-size="14.00">&lt;() </text>
<text xml:space="preserve" text-anchor="middle" x="4228.88" y="-294.95" font-family="Times,serif" font-size="14.00">as </text>
<text xml:space="preserve" text-anchor="middle" x="4228.88" y="-278.45" font-family="Times,serif" font-size="14.00">std::process::Termination</text>
<text xml:space="preserve" text-anchor="middle" x="4228.88" y="-261.95" font-family="Times,serif" font-size="14.00">&gt;::report</text>
</g>
<!-- node_0 -->
<g id="node1" class="node">
<title>node_0</title>
<polygon fill="lightyellow" stroke="lightyellow" points="130.75,-1148 0,-1148 0,-1107 130.75,-1107 130.75,-1148"/>
<text xml:space="preserve" text-anchor="start" x="8" y="-1130.7" font-family="Times,serif" font-size="14.00">ALLOCS</text>
<text xml:space="preserve" text-anchor="start" x="8" y="-1114.2" font-family="Times,serif" font-size="14.00">alloc1: Str (19 bytes)</text>
</g>
<!-- node_1 -->
<g id="node2" class="node">
<title>node_1</title>
<polygon fill="lavender" stroke="lavender" points="522.25,-1181 148.5,-1181 148.5,-1074 522.25,-1074 522.25,-1181"/>
<text xml:space="preserve" text-anchor="start" x="156.5" y="-1163.7" font-family="Times,serif" font-size="14.00">TYPES</text>
<text xml:space="preserve" text-anchor="start" x="156.5" y="-1147.2" font-family="Times,serif" font-size="14.00">() (0 bytes)</text>
<text xml:space="preserve" text-anchor="start" x="156.5" y="-1130.7" font-family="Times,serif" font-size="14.00">std::panic::Location&lt;&#39;_&gt; (24 bytes)</text>
<text xml:space="preserve" text-anchor="start" x="156.5" y="-1114.2" font-family="Times,serif" font-size="14.00">std::process::ExitCode (1 bytes)</text>
<text xml:space="preserve" text-anchor="start" x="156.5" y="-1097.7" font-family="Times,serif" font-size="14.00">std::result::Result&lt;isize, !&gt; (8 bytes)</text>
<text xml:space="preserve" text-anchor="start" x="156.5" y="-1081.2" font-family="Times,serif" font-size="14.00">std::sys::pal::unix::process::process_common::ExitCode (1 bytes)</text>
</g>
<!-- X210a8e5fe9313c81_0 -->
<g id="node3" class="node">
<title>X210a8e5fe9313c81_0</title>
<polygon fill="none" stroke="red" points="856.12,-437 682.62,-437 682.62,-396 856.12,-396 856.12,-437"/>
<text xml:space="preserve" text-anchor="middle" x="769.38" y="-419.7" font-family="Times,serif" font-size="14.00">_ZN4core9panicking5panic1</text>
<text xml:space="preserve" text-anchor="middle" x="769.38" y="-403.2" font-family="Times,serif" font-size="14.00">7h37379bf3ce79a0d7E</text>
</g>
<!-- X8b0ac2e54b9a91_0 -->
<g id="node4" class="node">
<title>X8b0ac2e54b9a91_0</title>
<polygon fill="none" stroke="red" points="1068.62,-1145.5 1012.12,-1145.5 1012.12,-1109.5 1068.62,-1109.5 1068.62,-1145.5"/>
<text xml:space="preserve" text-anchor="middle" x="1040.38" y="-1122.45" font-family="Times,serif" font-size="14.00">NoOp: </text>
</g>
<!-- X5eb86185c1cf8f06_0 -->
<g id="node5" class="node">
<title>X5eb86185c1cf8f06_0</title>
<polygon fill="none" stroke="red" points="2193.12,-883.5 2025.62,-883.5 2025.62,-826 2193.12,-826 2193.12,-883.5"/>
<text xml:space="preserve" text-anchor="middle" x="2109.38" y="-866.2" font-family="Times,serif" font-size="14.00">_ZN3std2rt19lang_start_in</text>
<text xml:space="preserve" text-anchor="middle" x="2109.38" y="-849.7" font-family="Times,serif" font-size="14.00">ternal17h035df9ff6960926a</text>
<text xml:space="preserve" text-anchor="middle" x="2109.38" y="-833.2" font-family="Times,serif" font-size="14.00">E</text>
</g>
<!-- X3c6542d96320ad67_0 -->
<g id="node6" class="node">
<title>X3c6542d96320ad67_0</title>
<polygon fill="none" stroke="red" points="4815.5,-79 4743.25,-79 4743.25,-38 4815.5,-38 4815.5,-79"/>
<text xml:space="preserve" text-anchor="middle" x="4779.38" y="-61.7" font-family="Times,serif" font-size="14.00">Intr: </text>
<text xml:space="preserve" text-anchor="middle" x="4779.38" y="-45.2" font-family="Times,serif" font-size="14.00">black_box</text>
</g>
<!-- node_3 -->
<g id="node7" class="node">
<title>node_3</title>
<polygon fill="#7ccd7c" stroke="#7ccd7c" points="684.5,-1181 540.25,-1181 540.25,-1074 684.5,-1074 684.5,-1181"/>
<text xml:space="preserve" text-anchor="start" x="548.25" y="-1163.7" font-family="Times,serif" font-size="14.00">LOCALS</text>
<text xml:space="preserve" text-anchor="start" x="548.25" y="-1147.2" font-family="Times,serif" font-size="14.00">0 = () (0 bytes, align 1)</text>
<text xml:space="preserve" text-anchor="start" x="548.25" y="-1130.7" font-family="Times,serif" font-size="14.00">1 = Bool</text>
<text xml:space="preserve" text-anchor="start" x="548.25" y="-1114.2" font-family="Times,serif" font-size="14.00">2 = Uint(Usize)</text>
<text xml:space="preserve" text-anchor="start" x="548.25" y="-1097.7" font-family="Times,serif" font-size="14.00">3 = Uint(Usize)</text>
<text xml:space="preserve" text-anchor="start" x="548.25" y="-1081.2" font-family="Times,serif" font-size="14.00">4 = ()</text>
</g>
<!-- Xfdfccde6c678d333_0 -->
<g id="node8" class="node">
<title>Xfdfccde6c678d333_0</title>
<polygon fill="none" stroke="black" points="892,-1156.25 702.75,-1156.25 702.75,-1098.75 892,-1098.75 892,-1156.25"/>
<text xml:space="preserve" text-anchor="start" x="710.75" y="-1138.95" font-family="Times,serif" font-size="14.00">2 &lt;&#45; Use(const 42_Uint(Usize))</text>
<text xml:space="preserve" text-anchor="start" x="710.75" y="-1122.45" font-family="Times,serif" font-size="14.00">3 &lt;&#45; Use(const 0_Uint(Usize))</text>
<text xml:space="preserve" text-anchor="start" x="710.75" y="-1105.95" font-family="Times,serif" font-size="14.00">Call</text>
</g>
<!-- Xfdfccde6c678d333_1 -->
<g id="node9" class="node">
<title>Xfdfccde6c678d333_1</title>
<polygon fill="none" stroke="black" points="847.75,-872.75 747,-872.75 747,-836.75 847.75,-836.75 847.75,-872.75"/>
<text xml:space="preserve" text-anchor="start" x="755" y="-849.7" font-family="Times,serif" font-size="14.00">SwitchInt cp(1)</text>
</g>
<!-- Xfdfccde6c678d333_0&#45;&gt;Xfdfccde6c678d333_1 -->
<g id="edge1" class="edge">
<title>Xfdfccde6c678d333_0&#45;&gt;Xfdfccde6c678d333_1</title>
<path fill="none" stroke="black" d="M797.38,-1098.29C797.38,-1046.51 797.38,-936.81 797.38,-884.57"/>
<polygon fill="black" stroke="black" points="800.88,-884.69 797.38,-874.69 793.88,-884.69 800.88,-884.69"/>
<text xml:space="preserve" text-anchor="middle" x="800.75" y="-1009.7" font-family="Times,serif" font-size="14.00">1</text>
</g>
<!-- X23a1b3ae20028c2d_0 -->
<g id="node12" class="node">
<title>X23a1b3ae20028c2d_0</title>
<polygon fill="none" stroke="black" points="1046.38,-875.25 916.38,-875.25 916.38,-834.25 1046.38,-834.25 1046.38,-875.25"/>
<text xml:space="preserve" text-anchor="start" x="924.38" y="-857.95" font-family="Times,serif" font-size="14.00">0 &lt;&#45; Gt(cp(1), cp(2))</text>
<text xml:space="preserve" text-anchor="start" x="924.38" y="-841.45" font-family="Times,serif" font-size="14.00">Return</text>
</g>
<!-- Xfdfccde6c678d333_0&#45;&gt;X23a1b3ae20028c2d_0 -->
<g id="edge4" class="edge">
<title>Xfdfccde6c678d333_0&#45;&gt;X23a1b3ae20028c2d_0</title>
<path fill="none" stroke="black" d="M823.78,-1098.33C846.59,-1073.24 879.68,-1034.95 904.38,-998.5 929.55,-961.34 953.23,-915.1 967.52,-885.5"/>
<polygon fill="black" stroke="black" points="970.54,-887.3 971.69,-876.77 964.22,-884.28 970.54,-887.3"/>
<text xml:space="preserve" text-anchor="middle" x="932.28" y="-1009.7" font-family="Times,serif" font-size="14.00">mv(2),mv(3)</text>
</g>
<!-- Xfdfccde6c678d333_2 -->
<g id="node10" class="node">
<title>Xfdfccde6c678d333_2</title>
<polygon fill="none" stroke="black" points="796.38,-666 742.38,-666 742.38,-630 796.38,-630 796.38,-666"/>
<text xml:space="preserve" text-anchor="start" x="750.38" y="-642.95" font-family="Times,serif" font-size="14.00">Call</text>
</g>
<!-- Xfdfccde6c678d333_1&#45;&gt;Xfdfccde6c678d333_2 -->
<g id="edge2" class="edge">
<title>Xfdfccde6c678d333_1&#45;&gt;Xfdfccde6c678d333_2</title>
<path fill="none" stroke="black" d="M794.99,-836.29C790.16,-801.01 779.21,-720.91 773.31,-677.78"/>
<polygon fill="black" stroke="black" points="776.78,-677.35 771.96,-667.91 769.85,-678.29 776.78,-677.35"/>
<text xml:space="preserve" text-anchor="middle" x="791.69" y="-778.2" font-family="Times,serif" font-size="14.00">0</text>
</g>
<!-- Xfdfccde6c678d333_3 -->
<g id="node11" class="node">
<title>Xfdfccde6c678d333_3</title>
<polygon fill="none" stroke="black" points="868.38,-666 814.38,-666 814.38,-630 868.38,-630 868.38,-666"/>
<text xml:space="preserve" text-anchor="start" x="822.38" y="-642.95" font-family="Times,serif" font-size="14.00">Return</text>
</g>
<!-- Xfdfccde6c678d333_1&#45;&gt;Xfdfccde6c678d333_3 -->
<g id="edge3" class="edge">
<title>Xfdfccde6c678d333_1&#45;&gt;Xfdfccde6c678d333_3</title>
<path fill="none" stroke="black" d="M801.13,-836.29C808.72,-800.93 826,-720.56 835.25,-677.5"/>
<polygon fill="black" stroke="black" points="838.64,-678.4 837.32,-667.89 831.79,-676.93 838.64,-678.4"/>
<text xml:space="preserve" text-anchor="middle" x="828.02" y="-778.2" font-family="Times,serif" font-size="14.00">other</text>
</g>
<!-- Xfdfccde6c678d333_2&#45;&gt;X210a8e5fe9313c81_0 -->
<g id="edge5" class="edge">
<title>Xfdfccde6c678d333_2&#45;&gt;X210a8e5fe9313c81_0</title>
<path fill="none" stroke="black" d="M769.38,-629.75C769.38,-591.21 769.38,-497.68 769.38,-448.65"/>
<polygon fill="black" stroke="black" points="772.88,-448.72 769.38,-438.72 765.88,-448.72 772.88,-448.72"/>
<text xml:space="preserve" text-anchor="middle" x="806.5" y="-546.7" font-family="Times,serif" font-size="14.00">const [alloc0]</text>
</g>
<!-- node_5 -->
<g id="node13" class="node">
<title>node_5</title>
<polygon fill="#7ccd7c" stroke="#7ccd7c" points="1166.5,-891.75 1064.25,-891.75 1064.25,-817.75 1166.5,-817.75 1166.5,-891.75"/>
<text xml:space="preserve" text-anchor="start" x="1072.25" y="-874.45" font-family="Times,serif" font-size="14.00">LOCALS</text>
<text xml:space="preserve" text-anchor="start" x="1072.25" y="-857.95" font-family="Times,serif" font-size="14.00">0 = Bool</text>
<text xml:space="preserve" text-anchor="start" x="1072.25" y="-841.45" font-family="Times,serif" font-size="14.00">1 = Uint(Usize)</text>
<text xml:space="preserve" text-anchor="start" x="1072.25" y="-824.95" font-family="Times,serif" font-size="14.00">2 = Uint(Usize)</text>
</g>
<!-- node_7 -->
<g id="node14" class="node">
<title>node_7</title>
<polygon fill="#7ccd7c" stroke="#7ccd7c" points="1752.75,-1214 1190,-1214 1190,-1041 1752.75,-1041 1752.75,-1214"/>
<text xml:space="preserve" text-anchor="start" x="1198" y="-1196.7" font-family="Times,serif" font-size="14.00">LOCALS</text>
<text xml:space="preserve" text-anchor="start" x="1198" y="-1180.2" font-family="Times,serif" font-size="14.00">0 = Int(Isize)</text>
<text xml:space="preserve" text-anchor="start" x="1198" y="-1163.7" font-family="Times,serif" font-size="14.00">1 = fn()</text>
<text xml:space="preserve" text-anchor="start" x="1198" y="-1147.2" font-family="Times,serif" font-size="14.00">2 = Int(Isize)</text>
<text xml:space="preserve" text-anchor="start" x="1198" y="-1130.7" font-family="Times,serif" font-size="14.00">3 = *const *const u8 (8 bytes, align 8)</text>
<text xml:space="preserve" text-anchor="start" x="1198" y="-1114.2" font-family="Times,serif" font-size="14.00">4 = Uint(U8)</text>
<text xml:space="preserve" text-anchor="start" x="1198" y="-1097.7" font-family="Times,serif" font-size="14.00">5 = std::result::Result&lt;isize, !&gt; (8 bytes, align 8)</text>
<text xml:space="preserve" text-anchor="start" x="1198" y="-1081.2" font-family="Times,serif" font-size="14.00">6 = &amp;dyn std::ops::Fn() &#45;&gt; i32 + std::marker::Sync + std::panic::RefUnwindSafe (16 bytes, align 8)</text>
<text xml:space="preserve" text-anchor="start" x="1198" y="-1064.7" font-family="Times,serif" font-size="14.00">7 = &amp;{closure@std::rt::lang_start&lt;()&gt;::{closure#0}} (8 bytes, align 8)</text>
<text xml:space="preserve" text-anchor="start" x="1198" y="-1048.2" font-family="Times,serif" font-size="14.00">8 = {closure@std::rt::lang_start&lt;()&gt;::{closure#0}}</text>
</g>
<!-- X45d174be2195ac8e_0 -->
<g id="node15" class="node">
<title>X45d174be2195ac8e_0</title>
<polygon fill="none" stroke="black" points="2009.75,-1189.25 1771,-1189.25 1771,-1065.75 2009.75,-1065.75 2009.75,-1189.25"/>
<text xml:space="preserve" text-anchor="start" x="1779" y="-1171.95" font-family="Times,serif" font-size="14.00">Storage Live _5</text>
<text xml:space="preserve" text-anchor="start" x="1779" y="-1155.45" font-family="Times,serif" font-size="14.00">Storage Live _6</text>
<text xml:space="preserve" text-anchor="start" x="1779" y="-1138.95" font-family="Times,serif" font-size="14.00">Storage Live _8</text>
<text xml:space="preserve" text-anchor="start" x="1779" y="-1122.45" font-family="Times,serif" font-size="14.00">8 &lt;&#45; Closure (cp(1))</text>
<text xml:space="preserve" text-anchor="start" x="1779" y="-1105.95" font-family="Times,serif" font-size="14.00">7 &lt;&#45; &amp; 8</text>
<text xml:space="preserve" text-anchor="start" x="1779" y="-1089.45" font-family="Times,serif" font-size="14.00">6 &lt;&#45; Cast&#45;PointerCoercion(Unsize) cp(7)</text>
<text xml:space="preserve" text-anchor="start" x="1779" y="-1072.95" font-family="Times,serif" font-size="14.00">Call</text>
</g>
<!-- X45d174be2195ac8e_0&#45;&gt;X5eb86185c1cf8f06_0 -->
<g id="edge7" class="edge">
<title>X45d174be2195ac8e_0&#45;&gt;X5eb86185c1cf8f06_0</title>
<path fill="none" stroke="black" d="M1959.27,-1065.31C1980.32,-1045.05 2002.8,-1021.72 2021.38,-998.5 2047.89,-965.35 2072.75,-923.65 2089.24,-893.9"/>
<polygon fill="black" stroke="black" points="2092.25,-895.69 2093.98,-885.24 2086.11,-892.33 2092.25,-895.69"/>
<text xml:space="preserve" text-anchor="middle" x="2085.05" y="-1009.7" font-family="Times,serif" font-size="14.00">mv(6),mv(2),mv(3),mv(4)</text>
</g>
<!-- X45d174be2195ac8e_1 -->
<g id="node16" class="node">
<title>X45d174be2195ac8e_1</title>
<polygon fill="none" stroke="black" points="1984.25,-900 1796.5,-900 1796.5,-809.5 1984.25,-809.5 1984.25,-900"/>
<text xml:space="preserve" text-anchor="start" x="1804.5" y="-882.7" font-family="Times,serif" font-size="14.00">Storage Dead _6</text>
<text xml:space="preserve" text-anchor="start" x="1804.5" y="-866.2" font-family="Times,serif" font-size="14.00">0 &lt;&#45; Use(cp((5 as variant 0).0))</text>
<text xml:space="preserve" text-anchor="start" x="1804.5" y="-849.7" font-family="Times,serif" font-size="14.00">Storage Dead _8</text>
<text xml:space="preserve" text-anchor="start" x="1804.5" y="-833.2" font-family="Times,serif" font-size="14.00">Storage Dead _5</text>
<text xml:space="preserve" text-anchor="start" x="1804.5" y="-816.7" font-family="Times,serif" font-size="14.00">Return</text>
</g>
<!-- X45d174be2195ac8e_0&#45;&gt;X45d174be2195ac8e_1 -->
<g id="edge6" class="edge">
<title>X45d174be2195ac8e_0&#45;&gt;X45d174be2195ac8e_1</title>
<path fill="none" stroke="black" d="M1890.38,-1065.4C1890.38,-1019.2 1890.38,-956.29 1890.38,-911.46"/>
<polygon fill="black" stroke="black" points="1893.88,-911.7 1890.38,-901.7 1886.88,-911.7 1893.88,-911.7"/>
<text xml:space="preserve" text-anchor="middle" x="1893.75" y="-1009.7" font-family="Times,serif" font-size="14.00">5</text>
</g>
<!-- node_9 -->
<g id="node17" class="node">
<title>node_9</title>
<polygon fill="#7ccd7c" stroke="#7ccd7c" points="3800.62,-718 3348.12,-718 3348.12,-578 3800.62,-578 3800.62,-718"/>
<text xml:space="preserve" text-anchor="start" x="3356.12" y="-700.7" font-family="Times,serif" font-size="14.00">LOCALS</text>
<text xml:space="preserve" text-anchor="start" x="3356.12" y="-684.2" font-family="Times,serif" font-size="14.00">0 = Int(I32)</text>
<text xml:space="preserve" text-anchor="start" x="3356.12" y="-667.7" font-family="Times,serif" font-size="14.00">1 = &amp;{closure@std::rt::lang_start&lt;()&gt;::{closure#0}} (8 bytes, align 8)</text>
<text xml:space="preserve" text-anchor="start" x="3356.12" y="-651.2" font-family="Times,serif" font-size="14.00">2 = std::process::ExitCode (1 bytes, align 1)</text>
<text xml:space="preserve" text-anchor="start" x="3356.12" y="-634.7" font-family="Times,serif" font-size="14.00">3 = () (0 bytes, align 1)</text>
<text xml:space="preserve" text-anchor="start" x="3356.12" y="-618.2" font-family="Times,serif" font-size="14.00">4 = fn()</text>
<text xml:space="preserve" text-anchor="start" x="3356.12" y="-601.7" font-family="Times,serif" font-size="14.00">5 = &amp;std::sys::pal::unix::process::process_common::ExitCode (8 bytes, align 8)</text>
<text xml:space="preserve" text-anchor="start" x="3356.12" y="-585.2" font-family="Times,serif" font-size="14.00">6 = Uint(U8)</text>
</g>
<!-- Xdedd0e9dc183ec1f_0 -->
<g id="node18" class="node">
<title>Xdedd0e9dc183ec1f_0</title>
<polygon fill="none" stroke="black" points="3946.25,-693.25 3818.5,-693.25 3818.5,-602.75 3946.25,-602.75 3946.25,-693.25"/>
<text xml:space="preserve" text-anchor="start" x="3826.5" y="-675.95" font-family="Times,serif" font-size="14.00">Storage Live _2</text>
<text xml:space="preserve" text-anchor="start" x="3826.5" y="-659.45" font-family="Times,serif" font-size="14.00">Storage Live _3</text>
<text xml:space="preserve" text-anchor="start" x="3826.5" y="-642.95" font-family="Times,serif" font-size="14.00">Storage Live _4</text>
<text xml:space="preserve" text-anchor="start" x="3826.5" y="-626.45" font-family="Times,serif" font-size="14.00">4 &lt;&#45; Use(cp((*1).0))</text>
<text xml:space="preserve" text-anchor="start" x="3826.5" y="-609.95" font-family="Times,serif" font-size="14.00">Call</text>
</g>
<!-- Xdedd0e9dc183ec1f_1 -->
<g id="node19" class="node">
<title>Xdedd0e9dc183ec1f_1</title>
<polygon fill="none" stroke="black" points="3935.75,-437 3829,-437 3829,-396 3935.75,-396 3935.75,-437"/>
<text xml:space="preserve" text-anchor="start" x="3837" y="-419.7" font-family="Times,serif" font-size="14.00">Storage Dead _4</text>
<text xml:space="preserve" text-anchor="start" x="3837" y="-403.2" font-family="Times,serif" font-size="14.00">Call</text>
</g>
<!-- Xdedd0e9dc183ec1f_0&#45;&gt;Xdedd0e9dc183ec1f_1 -->
<g id="edge8" class="edge">
<title>Xdedd0e9dc183ec1f_0&#45;&gt;Xdedd0e9dc183ec1f_1</title>
<path fill="none" stroke="black" d="M3882.38,-602.48C3882.38,-557.23 3882.38,-488.32 3882.38,-448.63"/>
<polygon fill="black" stroke="black" points="3885.88,-448.82 3882.38,-438.82 3878.88,-448.82 3885.88,-448.82"/>
<text xml:space="preserve" text-anchor="middle" x="3885.75" y="-546.7" font-family="Times,serif" font-size="14.00">3</text>
</g>
<!-- X4a925e79a41058c4_0 -->
<g id="node21" class="node">
<title>X4a925e79a41058c4_0</title>
<polygon fill="none" stroke="black" points="4565.38,-434.5 4511.38,-434.5 4511.38,-398.5 4565.38,-398.5 4565.38,-434.5"/>
<text xml:space="preserve" text-anchor="start" x="4519.38" y="-411.45" font-family="Times,serif" font-size="14.00">Call</text>
</g>
<!-- Xdedd0e9dc183ec1f_0&#45;&gt;X4a925e79a41058c4_0 -->
<g id="edge10" class="edge">
<title>Xdedd0e9dc183ec1f_0&#45;&gt;X4a925e79a41058c4_0</title>
<path fill="none" stroke="black" d="M3946.47,-624.58C4081.61,-577.3 4392.2,-468.64 4500.38,-430.79"/>
<polygon fill="black" stroke="black" points="4501.38,-434.15 4509.66,-427.55 4499.07,-427.54 4501.38,-434.15"/>
<text xml:space="preserve" text-anchor="middle" x="4187.97" y="-546.7" font-family="Times,serif" font-size="14.00">mv(4)</text>
</g>
<!-- Xdedd0e9dc183ec1f_2 -->
<g id="node20" class="node">
<title>Xdedd0e9dc183ec1f_2</title>
<polygon fill="none" stroke="black" points="3946.38,-304.5 3792.38,-304.5 3792.38,-131.5 3946.38,-131.5 3946.38,-304.5"/>
<text xml:space="preserve" text-anchor="start" x="3800.38" y="-287.2" font-family="Times,serif" font-size="14.00">Storage Dead _3</text>
<text xml:space="preserve" text-anchor="start" x="3800.38" y="-270.7" font-family="Times,serif" font-size="14.00">Storage Live _5</text>
<text xml:space="preserve" text-anchor="start" x="3800.38" y="-254.2" font-family="Times,serif" font-size="14.00">5 &lt;&#45; &amp; 2.0</text>
<text xml:space="preserve" text-anchor="start" x="3800.38" y="-237.7" font-family="Times,serif" font-size="14.00">Storage Live _6</text>
<text xml:space="preserve" text-anchor="start" x="3800.38" y="-221.2" font-family="Times,serif" font-size="14.00">6 &lt;&#45; Use(cp(2.0.0))</text>
<text xml:space="preserve" text-anchor="start" x="3800.38" y="-204.7" font-family="Times,serif" font-size="14.00">0 &lt;&#45; Cast&#45;IntToInt mv(6)</text>
<text xml:space="preserve" text-anchor="start" x="3800.38" y="-188.2" font-family="Times,serif" font-size="14.00">Storage Dead _6</text>
<text xml:space="preserve" text-anchor="start" x="3800.38" y="-171.7" font-family="Times,serif" font-size="14.00">Storage Dead _5</text>
<text xml:space="preserve" text-anchor="start" x="3800.38" y="-155.2" font-family="Times,serif" font-size="14.00">Storage Dead _2</text>
<text xml:space="preserve" text-anchor="start" x="3800.38" y="-138.7" font-family="Times,serif" font-size="14.00">Return</text>
</g>
<!-- Xdedd0e9dc183ec1f_1&#45;&gt;Xdedd0e9dc183ec1f_2 -->
<g id="edge9" class="edge">
<title>Xdedd0e9dc183ec1f_1&#45;&gt;Xdedd0e9dc183ec1f_2</title>
<path fill="none" stroke="black" d="M3881.06,-395.58C3879.8,-376.54 3877.8,-346.38 3875.81,-316.33"/>
<polygon fill="black" stroke="black" points="3879.31,-316.1 3875.15,-306.35 3872.32,-316.56 3879.31,-316.1"/>
<text xml:space="preserve" text-anchor="middle" x="3881.91" y="-348.2" font-family="Times,serif" font-size="14.00">2</text>
</g>
<!-- X8852de0e0f3cc65e_0 -->
<g id="node22" class="node">
<title>X8852de0e0f3cc65e_0</title>
<polygon fill="none" stroke="black" points="4211.88,-238.5 3970.88,-238.5 3970.88,-197.5 4211.88,-197.5 4211.88,-238.5"/>
<text xml:space="preserve" text-anchor="start" x="3978.88" y="-221.2" font-family="Times,serif" font-size="14.00">0 &lt;&#45; Use(const 0_std::process::ExitCode)</text>
<text xml:space="preserve" text-anchor="start" x="3978.88" y="-204.7" font-family="Times,serif" font-size="14.00">Return</text>
</g>
<!-- Xdedd0e9dc183ec1f_1&#45;&gt;X8852de0e0f3cc65e_0 -->
<g id="edge11" class="edge">
<title>Xdedd0e9dc183ec1f_1&#45;&gt;X8852de0e0f3cc65e_0</title>
<path fill="none" stroke="black" d="M3903.57,-395.58C3941.04,-360.34 4019.08,-286.97 4061.82,-246.78"/>
<polygon fill="black" stroke="black" points="4064.14,-249.41 4069.03,-240.01 4059.34,-244.31 4064.14,-249.41"/>
<text xml:space="preserve" text-anchor="middle" x="3972.82" y="-348.2" font-family="Times,serif" font-size="14.00">mv(3)</text>
</g>
<!-- X4a925e79a41058c4_1 -->
<g id="node24" class="node">
<title>X4a925e79a41058c4_1</title>
<polygon fill="none" stroke="black" points="4645.38,-236 4591.38,-236 4591.38,-200 4645.38,-200 4645.38,-236"/>
<text xml:space="preserve" text-anchor="start" x="4599.38" y="-212.95" font-family="Times,serif" font-size="14.00">Call</text>
</g>
<!-- X4a925e79a41058c4_0&#45;&gt;X4a925e79a41058c4_1 -->
<g id="edge12" class="edge">
<title>X4a925e79a41058c4_0&#45;&gt;X4a925e79a41058c4_1</title>
<path fill="none" stroke="black" d="M4545.47,-398.06C4559.35,-363.98 4590.18,-288.26 4606.96,-247.05"/>
<polygon fill="black" stroke="black" points="4610.19,-248.38 4610.72,-237.8 4603.71,-245.74 4610.19,-248.38"/>
<text xml:space="preserve" text-anchor="middle" x="4569.91" y="-348.2" font-family="Times,serif" font-size="14.00">0</text>
</g>
<!-- Xd4236c18a1d62246_0 -->
<g id="node26" class="node">
<title>Xd4236c18a1d62246_0</title>
<polygon fill="none" stroke="black" points="4888.38,-236 4834.38,-236 4834.38,-200 4888.38,-200 4888.38,-236"/>
<text xml:space="preserve" text-anchor="start" x="4842.38" y="-212.95" font-family="Times,serif" font-size="14.00">Call</text>
</g>
<!-- X4a925e79a41058c4_0&#45;&gt;Xd4236c18a1d62246_0 -->
<g id="edge14" class="edge">
<title>X4a925e79a41058c4_0&#45;&gt;Xd4236c18a1d62246_0</title>
<path fill="none" stroke="black" d="M4552.25,-398.06C4558.38,-391.38 4566.08,-384.23 4574.38,-379.5 4640.14,-341.96 4673.3,-374 4739.38,-337 4781.23,-313.56 4819.19,-272.21 4841.28,-245.21"/>
<polygon fill="black" stroke="black" points="4843.95,-247.48 4847.47,-237.49 4838.48,-243.11 4843.95,-247.48"/>
<text xml:space="preserve" text-anchor="middle" x="4759.85" y="-348.2" font-family="Times,serif" font-size="14.00">mv(1),const ()</text>
</g>
<!-- node_11 -->
<g id="node23" class="node">
<title>node_11</title>
<polygon fill="#7ccd7c" stroke="#7ccd7c" points="4727.5,-453.5 4583.25,-453.5 4583.25,-379.5 4727.5,-379.5 4727.5,-453.5"/>
<text xml:space="preserve" text-anchor="start" x="4591.25" y="-436.2" font-family="Times,serif" font-size="14.00">LOCALS</text>
<text xml:space="preserve" text-anchor="start" x="4591.25" y="-419.7" font-family="Times,serif" font-size="14.00">0 = () (0 bytes, align 1)</text>
<text xml:space="preserve" text-anchor="start" x="4591.25" y="-403.2" font-family="Times,serif" font-size="14.00">1 = fn()</text>
<text xml:space="preserve" text-anchor="start" x="4591.25" y="-386.7" font-family="Times,serif" font-size="14.00">2 = () (0 bytes, align 1)</text>
</g>
<!-- X4a925e79a41058c4_1&#45;&gt;X3c6542d96320ad67_0 -->
<g id="edge15" class="edge">
<title>X4a925e79a41058c4_1&#45;&gt;X3c6542d96320ad67_0</title>
<path fill="none" stroke="black" d="M4636.22,-199.54C4664.07,-172.3 4718.11,-119.44 4751.24,-87.03"/>
<polygon fill="black" stroke="black" points="4753.4,-89.81 4758.1,-80.31 4748.5,-84.8 4753.4,-89.81"/>
<text xml:space="preserve" text-anchor="middle" x="4761.09" y="-100.2" font-family="Times,serif" font-size="14.00">const ()</text>
</g>
<!-- X4a925e79a41058c4_2 -->
<g id="node25" class="node">
<title>X4a925e79a41058c4_2</title>
<polygon fill="none" stroke="black" points="4645.38,-76.5 4591.38,-76.5 4591.38,-40.5 4645.38,-40.5 4645.38,-76.5"/>
<text xml:space="preserve" text-anchor="start" x="4599.38" y="-53.45" font-family="Times,serif" font-size="14.00">Return</text>
</g>
<!-- X4a925e79a41058c4_1&#45;&gt;X4a925e79a41058c4_2 -->
<g id="edge13" class="edge">
<title>X4a925e79a41058c4_1&#45;&gt;X4a925e79a41058c4_2</title>
<path fill="none" stroke="black" d="M4618.38,-199.54C4618.38,-172.56 4618.38,-120.44 4618.38,-87.95"/>
<polygon fill="black" stroke="black" points="4621.88,-88.07 4618.38,-78.07 4614.88,-88.07 4621.88,-88.07"/>
<text xml:space="preserve" text-anchor="middle" x="4621.75" y="-100.2" font-family="Times,serif" font-size="14.00">2</text>
</g>
<!-- Xd4236c18a1d62246_0&#45;&gt;Xd4236c18a1d62246_0 -->
<g id="edge19" class="edge">
<title>Xd4236c18a1d62246_0&#45;&gt;Xd4236c18a1d62246_0:1</title>
<path fill="none" stroke="black" d="M4878.93,-236.41C4892.52,-243.3 4906.38,-237.16 4906.38,-218 4906.38,-204.08 4899.06,-197.03 4889.85,-196.86"/>
<polygon fill="black" stroke="black" points="4889.25,-193.4 4880.4,-199.22 4890.95,-200.2 4889.25,-193.4"/>
</g>
<!-- Xd4236c18a1d62246_1 -->
<g id="node32" class="node">
<title>Xd4236c18a1d62246_1</title>
<polygon fill="none" stroke="black" points="4888.38,-76.5 4834.38,-76.5 4834.38,-40.5 4888.38,-40.5 4888.38,-76.5"/>
<text xml:space="preserve" text-anchor="start" x="4842.38" y="-53.45" font-family="Times,serif" font-size="14.00">Return</text>
</g>
<!-- Xd4236c18a1d62246_0&#45;&gt;Xd4236c18a1d62246_1 -->
<g id="edge18" class="edge">
<title>Xd4236c18a1d62246_0&#45;&gt;Xd4236c18a1d62246_1</title>
<path fill="none" stroke="black" d="M4861.38,-199.54C4861.38,-172.56 4861.38,-120.44 4861.38,-87.95"/>
<polygon fill="black" stroke="black" points="4864.88,-88.07 4861.38,-78.07 4857.88,-88.07 4864.88,-88.07"/>
<text xml:space="preserve" text-anchor="middle" x="4864.75" y="-100.2" font-family="Times,serif" font-size="14.00">0</text>
</g>
<!-- node_13 -->
<g id="node27" class="node">
<title>node_13</title>
<polygon fill="#7ccd7c" stroke="#7ccd7c" points="2695.38,-1164.5 2271.38,-1164.5 2271.38,-1090.5 2695.38,-1090.5 2695.38,-1164.5"/>
<text xml:space="preserve" text-anchor="start" x="2279.38" y="-1147.2" font-family="Times,serif" font-size="14.00">LOCALS</text>
<text xml:space="preserve" text-anchor="start" x="2279.38" y="-1130.7" font-family="Times,serif" font-size="14.00">0 = Int(I32)</text>
<text xml:space="preserve" text-anchor="start" x="2279.38" y="-1114.2" font-family="Times,serif" font-size="14.00">1 = *mut {closure@std::rt::lang_start&lt;()&gt;::{closure#0}} (8 bytes, align 8)</text>
<text xml:space="preserve" text-anchor="start" x="2279.38" y="-1097.7" font-family="Times,serif" font-size="14.00">2 = () (0 bytes, align 1)</text>
</g>
<!-- X473254f4136b91c2_0 -->
<g id="node28" class="node">
<title>X473254f4136b91c2_0</title>
<polygon fill="none" stroke="black" points="2767.38,-1145.5 2713.38,-1145.5 2713.38,-1109.5 2767.38,-1109.5 2767.38,-1145.5"/>
<text xml:space="preserve" text-anchor="start" x="2721.38" y="-1122.45" font-family="Times,serif" font-size="14.00">Call</text>
</g>
<!-- X473254f4136b91c2_1 -->
<g id="node29" class="node">
<title>X473254f4136b91c2_1</title>
<polygon fill="none" stroke="black" points="2767.38,-872.75 2713.38,-872.75 2713.38,-836.75 2767.38,-836.75 2767.38,-872.75"/>
<text xml:space="preserve" text-anchor="start" x="2721.38" y="-849.7" font-family="Times,serif" font-size="14.00">Return</text>
</g>
<!-- X473254f4136b91c2_0&#45;&gt;X473254f4136b91c2_1 -->
<g id="edge16" class="edge">
<title>X473254f4136b91c2_0&#45;&gt;X473254f4136b91c2_1</title>
<path fill="none" stroke="black" d="M2740.38,-1109.15C2740.38,-1063.59 2740.38,-940.21 2740.38,-884.15"/>
<polygon fill="black" stroke="black" points="2743.88,-884.47 2740.38,-874.47 2736.88,-884.47 2743.88,-884.47"/>
<text xml:space="preserve" text-anchor="middle" x="2743.75" y="-1009.7" font-family="Times,serif" font-size="14.00">0</text>
</g>
<!-- X56b311e8ff35086c_0 -->
<g id="node30" class="node">
<title>X56b311e8ff35086c_0</title>
<polygon fill="none" stroke="black" points="2877.62,-875.25 2791.12,-875.25 2791.12,-834.25 2877.62,-834.25 2877.62,-875.25"/>
<text xml:space="preserve" text-anchor="start" x="2799.12" y="-857.95" font-family="Times,serif" font-size="14.00">3 &lt;&#45; &amp;mut 1</text>
<text xml:space="preserve" text-anchor="start" x="2799.12" y="-841.45" font-family="Times,serif" font-size="14.00">Call</text>
</g>
<!-- X473254f4136b91c2_0&#45;&gt;X56b311e8ff35086c_0 -->
<g id="edge17" class="edge">
<title>X473254f4136b91c2_0&#45;&gt;X56b311e8ff35086c_0</title>
<path fill="none" stroke="black" d="M2746.4,-1109.15C2762.02,-1064.16 2803.98,-943.3 2823.77,-886.3"/>
<polygon fill="black" stroke="black" points="2827.06,-887.5 2827.03,-876.9 2820.45,-885.2 2827.06,-887.5"/>
<text xml:space="preserve" text-anchor="middle" x="2825.25" y="-1009.7" font-family="Times,serif" font-size="14.00">mv((*1)),mv(2)</text>
</g>
<!-- X56b311e8ff35086c_0&#45;&gt;Xdedd0e9dc183ec1f_0 -->
<g id="edge24" class="edge">
<title>X56b311e8ff35086c_0&#45;&gt;Xdedd0e9dc183ec1f_0</title>
<path fill="none" stroke="black" d="M2848.4,-833.88C2857.91,-822.15 2871.6,-808.32 2887.38,-801.5 2981.48,-760.84 3720.77,-818.57 3809.38,-767 3833.41,-753.01 3850.61,-727.65 3862.25,-704.02"/>
<polygon fill="black" stroke="black" points="3865.38,-705.6 3866.42,-695.05 3859.03,-702.64 3865.38,-705.6"/>
<text xml:space="preserve" text-anchor="middle" x="3822.3" y="-778.2" font-family="Times,serif" font-size="14.00">mv(3),mv(2)</text>
</g>
<!-- X56b311e8ff35086c_3 -->
<g id="node34" class="node">
<title>X56b311e8ff35086c_3</title>
<polygon fill="none" stroke="black" points="2855.5,-666 2801.25,-666 2801.25,-630 2855.5,-630 2855.5,-666"/>
<text xml:space="preserve" text-anchor="start" x="2809.25" y="-642.95" font-family="Times,serif" font-size="14.00">Drop 1</text>
</g>
<!-- X56b311e8ff35086c_0&#45;&gt;X56b311e8ff35086c_3 -->
<g id="edge20" class="edge">
<title>X56b311e8ff35086c_0&#45;&gt;X56b311e8ff35086c_3</title>
<path fill="none" stroke="black" d="M2833.71,-833.85C2833.31,-821.63 2832.8,-805.66 2832.38,-791.5 2831.18,-751.89 2829.92,-706.08 2829.14,-677.32"/>
<polygon fill="black" stroke="black" points="2832.64,-677.52 2828.87,-667.62 2825.65,-677.71 2832.64,-677.52"/>
<text xml:space="preserve" text-anchor="middle" x="2854.88" y="-778.2" font-family="Times,serif" font-size="14.00">Cleanup</text>
</g>
<!-- X56b311e8ff35086c_1 -->
<g id="node35" class="node">
<title>X56b311e8ff35086c_1</title>
<polygon fill="none" stroke="black" points="2928.5,-666 2874.25,-666 2874.25,-630 2928.5,-630 2928.5,-666"/>
<text xml:space="preserve" text-anchor="start" x="2882.25" y="-642.95" font-family="Times,serif" font-size="14.00">Drop 1</text>
</g>
<!-- X56b311e8ff35086c_0&#45;&gt;X56b311e8ff35086c_1 -->
<g id="edge21" class="edge">
<title>X56b311e8ff35086c_0&#45;&gt;X56b311e8ff35086c_1</title>
<path fill="none" stroke="black" d="M2851.56,-833.76C2860.64,-822.15 2871.15,-806.83 2877.38,-791.5 2892.64,-753.91 2898.19,-706.94 2900.22,-677.45"/>
<polygon fill="black" stroke="black" points="2903.69,-678.02 2900.78,-667.84 2896.7,-677.62 2903.69,-678.02"/>
<text xml:space="preserve" text-anchor="middle" x="2886.09" y="-778.2" font-family="Times,serif" font-size="14.00">0</text>
</g>
<!-- node_15 -->
<g id="node31" class="node">
<title>node_15</title>
<polygon fill="#7ccd7c" stroke="#7ccd7c" points="5068.5,-255 4924.25,-255 4924.25,-181 5068.5,-181 5068.5,-255"/>
<text xml:space="preserve" text-anchor="start" x="4932.25" y="-237.7" font-family="Times,serif" font-size="14.00">LOCALS</text>
<text xml:space="preserve" text-anchor="start" x="4932.25" y="-221.2" font-family="Times,serif" font-size="14.00">0 = () (0 bytes, align 1)</text>
<text xml:space="preserve" text-anchor="start" x="4932.25" y="-204.7" font-family="Times,serif" font-size="14.00">1 = fn()</text>
<text xml:space="preserve" text-anchor="start" x="4932.25" y="-188.2" font-family="Times,serif" font-size="14.00">2 = () (0 bytes, align 1)</text>
</g>
<!-- node_17 -->
<g id="node33" class="node">
<title>node_17</title>
<polygon fill="#7ccd7c" stroke="#7ccd7c" points="3324.62,-900 2896.12,-900 2896.12,-809.5 3324.62,-809.5 3324.62,-900"/>
<text xml:space="preserve" text-anchor="start" x="2904.12" y="-882.7" font-family="Times,serif" font-size="14.00">LOCALS</text>
<text xml:space="preserve" text-anchor="start" x="2904.12" y="-866.2" font-family="Times,serif" font-size="14.00">0 = Int(I32)</text>
<text xml:space="preserve" text-anchor="start" x="2904.12" y="-849.7" font-family="Times,serif" font-size="14.00">1 = {closure@std::rt::lang_start&lt;()&gt;::{closure#0}}</text>
<text xml:space="preserve" text-anchor="start" x="2904.12" y="-833.2" font-family="Times,serif" font-size="14.00">2 = () (0 bytes, align 1)</text>
<text xml:space="preserve" text-anchor="start" x="2904.12" y="-816.7" font-family="Times,serif" font-size="14.00">3 = &amp;mut {closure@std::rt::lang_start&lt;()&gt;::{closure#0}} (8 bytes, align 8)</text>
</g>
<!-- X56b311e8ff35086c_4 -->
<g id="node37" class="node">
<title>X56b311e8ff35086c_4</title>
<polygon fill="none" stroke="black" points="2857.5,-434.5 2797.25,-434.5 2797.25,-398.5 2857.5,-398.5 2857.5,-434.5"/>
<text xml:space="preserve" text-anchor="start" x="2805.25" y="-411.45" font-family="Times,serif" font-size="14.00">Resume</text>
</g>
<!-- X56b311e8ff35086c_3&#45;&gt;X56b311e8ff35086c_4 -->
<g id="edge23" class="edge">
<title>X56b311e8ff35086c_3&#45;&gt;X56b311e8ff35086c_4</title>
<path fill="none" stroke="black" d="M2828.3,-629.75C2828.13,-590.62 2827.71,-494.8 2827.5,-446.43"/>
<polygon fill="black" stroke="black" points="2831,-446.45 2827.46,-436.46 2824,-446.48 2831,-446.45"/>
</g>
<!-- X56b311e8ff35086c_2 -->
<g id="node36" class="node">
<title>X56b311e8ff35086c_2</title>
<polygon fill="none" stroke="black" points="2929.38,-434.5 2875.38,-434.5 2875.38,-398.5 2929.38,-398.5 2929.38,-434.5"/>
<text xml:space="preserve" text-anchor="start" x="2883.38" y="-411.45" font-family="Times,serif" font-size="14.00">Return</text>
</g>
<!-- X56b311e8ff35086c_1&#45;&gt;X56b311e8ff35086c_2 -->
<g id="edge22" class="edge">
<title>X56b311e8ff35086c_1&#45;&gt;X56b311e8ff35086c_2</title>
<path fill="none" stroke="black" d="M2901.45,-629.75C2901.62,-590.62 2902.04,-494.8 2902.25,-446.43"/>
<polygon fill="black" stroke="black" points="2905.75,-446.48 2902.29,-436.46 2898.75,-446.45 2905.75,-446.48"/>
</g>
<!-- node_19 -->
<g id="node38" class="node">
<title>node_19</title>
<polygon fill="#7ccd7c" stroke="#7ccd7c" points="4105.38,-1156.25 3681.38,-1156.25 3681.38,-1098.75 4105.38,-1098.75 4105.38,-1156.25"/>
<text xml:space="preserve" text-anchor="start" x="3689.38" y="-1138.95" font-family="Times,serif" font-size="14.00">LOCALS</text>
<text xml:space="preserve" text-anchor="start" x="3689.38" y="-1122.45" font-family="Times,serif" font-size="14.00">0 = () (0 bytes, align 1)</text>
<text xml:space="preserve" text-anchor="start" x="3689.38" y="-1105.95" font-family="Times,serif" font-size="14.00">1 = *mut {closure@std::rt::lang_start&lt;()&gt;::{closure#0}} (8 bytes, align 8)</text>
</g>
<!-- X1ac429227fdc1c93_0 -->
<g id="node39" class="node">
<title>X1ac429227fdc1c93_0</title>
<polygon fill="none" stroke="black" points="4177.38,-1145.5 4123.38,-1145.5 4123.38,-1109.5 4177.38,-1109.5 4177.38,-1145.5"/>
<text xml:space="preserve" text-anchor="start" x="4131.38" y="-1122.45" font-family="Times,serif" font-size="14.00">Return</text>
</g>
<!-- node_21 -->
<g id="node40" class="node">
<title>node_21</title>
<polygon fill="#7ccd7c" stroke="#7ccd7c" points="4487.12,-246.75 4229.62,-246.75 4229.62,-189.25 4487.12,-189.25 4487.12,-246.75"/>
<text xml:space="preserve" text-anchor="start" x="4237.62" y="-229.45" font-family="Times,serif" font-size="14.00">LOCALS</text>
<text xml:space="preserve" text-anchor="start" x="4237.62" y="-212.95" font-family="Times,serif" font-size="14.00">0 = std::process::ExitCode (1 bytes, align 1)</text>
<text xml:space="preserve" text-anchor="start" x="4237.62" y="-196.45" font-family="Times,serif" font-size="14.00">1 = () (0 bytes, align 1)</text>
</g>
</g>
</svg>
