<?xml version="1.0" encoding="UTF-8" standalone="no"?>
<!DOCTYPE svg PUBLIC "-//W3C//DTD SVG 1.1//EN"
 "http://www.w3.org/Graphics/SVG/1.1/DTD/svg11.dtd">
<!-- Generated by graphviz version 14.1.1 (20251213.1925)
 -->
<!-- Pages: 1 -->
<svg width="4885pt" height="1279pt"
 viewBox="0.00 0.00 4885.00 1279.00" xmlns="http://www.w3.org/2000/svg" xmlns:xlink="http://www.w3.org/1999/xlink">
<g id="graph0" class="graph" transform="scale(1 1) rotate(0) translate(4 1275)">
<polygon fill="white" stroke="none" points="-4,4 -4,-1275 4881.38,-1275 4881.38,4 -4,4"/>
<text xml:space="preserve" text-anchor="middle" x="2438.69" y="-7.2" font-family="Times,serif" font-size="14.00">div</text>
<g id="clust1" class="cluster">
<title>cluster_2</title>
<polygon fill="palegreen" stroke="palegreen" points="532.38,-390.5 532.38,-1230 967.38,-1230 967.38,-390.5 532.38,-390.5"/>
<text xml:space="preserve" text-anchor="middle" x="749.88" y="-1212.7" font-family="Times,serif" font-size="14.00">main</text>
</g>
<g id="clust2" class="cluster">
<title>cluster_4</title>
<polygon fill="lightgray" stroke="lightgray" points="975.38,-801.5 975.38,-1246.5 1810.38,-1246.5 1810.38,-801.5 975.38,-801.5"/>
<text xml:space="preserve" text-anchor="middle" x="1392.88" y="-1229.2" font-family="Times,serif" font-size="14.00">std::rt::lang_start::&lt;()&gt;</text>
</g>
<g id="clust3" class="cluster">
<title>cluster_6</title>
<polygon fill="lightgray" stroke="lightgray" points="3133.38,-123.5 3133.38,-767 3747.38,-767 3747.38,-123.5 3133.38,-123.5"/>
<text xml:space="preserve" text-anchor="middle" x="3440.38" y="-749.7" font-family="Times,serif" font-size="14.00">std::rt::lang_start::&lt;()&gt;</text>
<text xml:space="preserve" text-anchor="middle" x="3440.38" y="-733.2" font-family="Times,serif" font-size="14.00">::{closure#0}</text>
</g>
<g id="clust4" class="cluster">
<title>cluster_8</title>
<polygon fill="lightgray" stroke="lightgray" points="4296.38,-32.5 4296.38,-535.5 4528.38,-535.5 4528.38,-32.5 4296.38,-32.5"/>
<text xml:space="preserve" text-anchor="middle" x="4412.38" y="-518.2" font-family="Times,serif" font-size="14.00">std::sys::backtrace::__ru</text>
<text xml:space="preserve" text-anchor="middle" x="4412.38" y="-501.7" font-family="Times,serif" font-size="14.00">st_begin_short_backtrace:</text>
<text xml:space="preserve" text-anchor="middle" x="4412.38" y="-485.2" font-family="Times,serif" font-size="14.00">:&lt;fn(), </text>
<text xml:space="preserve" text-anchor="middle" x="4412.38" y="-468.7" font-family="Times,serif" font-size="14.00">()&gt;</text>
</g>
<g id="clust5" class="cluster">
<title>cluster_10</title>
<polygon fill="lightgray" stroke="lightgray" points="2056.38,-828.75 2056.38,-1263 2568.38,-1263 2568.38,-828.75 2056.38,-828.75"/>
<text xml:space="preserve" text-anchor="middle" x="2312.38" y="-1245.7" font-family="Times,serif" font-size="14.00">&lt;{closure@std::rt::lang_s</text>
<text xml:space="preserve" text-anchor="middle" x="2312.38" y="-1229.2" font-family="Times,serif" font-size="14.00">tart&lt;()&gt;::{closure#0}} </text>
<text xml:space="preserve" text-anchor="middle" x="2312.38" y="-1212.7" font-family="Times,serif" font-size="14.00">as </text>
<text xml:space="preserve" text-anchor="middle" x="2312.38" y="-1196.2" font-family="Times,serif" font-size="14.00">std::ops::FnOnce&lt;()&gt;&gt;::ca</text>
<text xml:space="preserve" text-anchor="middle" x="2312.38" y="-1179.7" font-family="Times,serif" font-size="14.00">ll_once</text>
</g>
<g id="clust6" class="cluster">
<title>cluster_12</title>
<polygon fill="lightgray" stroke="lightgray" points="2576.38,-390.5 2576.38,-998.5 3125.38,-998.5 3125.38,-390.5 2576.38,-390.5"/>
<text xml:space="preserve" text-anchor="middle" x="2850.88" y="-981.2" font-family="Times,serif" font-size="14.00">&lt;{closure@std::rt::lang_s</text>
<text xml:space="preserve" text-anchor="middle" x="2850.88" y="-964.7" font-family="Times,serif" font-size="14.00">tart&lt;()&gt;::{closure#0}} </text>
<text xml:space="preserve" text-anchor="middle" x="2850.88" y="-948.2" font-family="Times,serif" font-size="14.00">as </text>
<text xml:space="preserve" text-anchor="middle" x="2850.88" y="-931.7" font-family="Times,serif" font-size="14.00">std::ops::FnOnce&lt;()&gt;&gt;::ca</text>
<text xml:space="preserve" text-anchor="middle" x="2850.88" y="-915.2" font-family="Times,serif" font-size="14.00">ll_once</text>
</g>
<g id="clust7" class="cluster">
<title>cluster_14</title>
<polygon fill="lightgray" stroke="lightgray" points="4619.38,-32.5 4619.38,-337 4869.38,-337 4869.38,-32.5 4619.38,-32.5"/>
<text xml:space="preserve" text-anchor="middle" x="4744.38" y="-319.7" font-family="Times,serif" font-size="14.00">&lt;fn() </text>
<text xml:space="preserve" text-anchor="middle" x="4744.38" y="-303.2" font-family="Times,serif" font-size="14.00">as </text>
<text xml:space="preserve" text-anchor="middle" x="4744.38" y="-286.7" font-family="Times,serif" font-size="14.00">std::ops::FnOnce&lt;()&gt;&gt;::ca</text>
<text xml:space="preserve" text-anchor="middle" x="4744.38" y="-270.2" font-family="Times,serif" font-size="14.00">ll_once</text>
</g>
<g id="clust8" class="cluster">
<title>cluster_16</title>
<polygon fill="lightgray" stroke="lightgray" points="3466.38,-1090.75 3466.38,-1221.75 3978.38,-1221.75 3978.38,-1090.75 3466.38,-1090.75"/>
<text xml:space="preserve" text-anchor="middle" x="3722.38" y="-1204.45" font-family="Times,serif" font-size="14.00">std::ptr::drop_in_place::</text>
<text xml:space="preserve" text-anchor="middle" x="3722.38" y="-1187.95" font-family="Times,serif" font-size="14.00">&lt;{closure@std::rt::lang_s</text>
<text xml:space="preserve" text-anchor="middle" x="3722.38" y="-1171.45" font-family="Times,serif" font-size="14.00">tart&lt;()&gt;::{closure#0}}&gt;</text>
</g>
<g id="clust9" class="cluster">
<title>cluster_18</title>
<polygon fill="lightgray" stroke="lightgray" points="3755.38,-181.25 3755.38,-328.75 4288.38,-328.75 4288.38,-181.25 3755.38,-181.25"/>
<text xml:space="preserve" text-anchor="middle" x="4021.88" y="-311.45" font-family="Times,serif" font-size="14.00">&lt;() </text>
<text xml:space="preserve" text-anchor="middle" x="4021.88" y="-294.95" font-family="Times,serif" font-size="14.00">as </text>
<text xml:space="preserve" text-anchor="middle" x="4021.88" y="-278.45" font-family="Times,serif" font-size="14.00">std::process::Termination</text>
<text xml:space="preserve" text-anchor="middle" x="4021.88" y="-261.95" font-family="Times,serif" font-size="14.00">&gt;::report</text>
</g>
<!-- node_0 -->
<g id="node1" class="node">
<title>node_0</title>
<polygon fill="lightyellow" stroke="lightyellow" points="130.75,-1148 0,-1148 0,-1107 130.75,-1107 130.75,-1148"/>
<text xml:space="preserve" text-anchor="start" x="8" y="-1130.7" font-family="Times,serif" font-size="14.00">ALLOCS</text>
<text xml:space="preserve" text-anchor="start" x="8" y="-1114.2" font-family="Times,serif" font-size="14.00">alloc1: Str (32 bytes)</text>
</g>
<!-- node_1 -->
<g id="node2" class="node">
<title>node_1</title>
<polygon fill="lavender" stroke="lavender" points="522.25,-1181 148.5,-1181 148.5,-1074 522.25,-1074 522.25,-1181"/>
<text xml:space="preserve" text-anchor="start" x="156.5" y="-1163.7" font-family="Times,serif" font-size="14.00">TYPES</text>
<text xml:space="preserve" text-anchor="start" x="156.5" y="-1147.2" font-family="Times,serif" font-size="14.00">() (0 bytes)</text>
<text xml:space="preserve" text-anchor="start" x="156.5" y="-1130.7" font-family="Times,serif" font-size="14.00">std::panic::Location&lt;&#39;_&gt; (24 bytes)</text>
<text xml:space="preserve" text-anchor="start" x="156.5" y="-1114.2" font-family="Times,serif" font-size="14.00">std::process::ExitCode (1 bytes)</text>
<text xml:space="preserve" text-anchor="start" x="156.5" y="-1097.7" font-family="Times,serif" font-size="14.00">std::result::Result&lt;isize, !&gt; (8 bytes)</text>
<text xml:space="preserve" text-anchor="start" x="156.5" y="-1081.2" font-family="Times,serif" font-size="14.00">std::sys::pal::unix::process::process_common::ExitCode (1 bytes)</text>
</g>
<!-- X210a8e5fe9313c81_0 -->
<g id="node3" class="node">
<title>X210a8e5fe9313c81_0</title>
<polygon fill="none" stroke="red" points="928.12,-238.5 754.62,-238.5 754.62,-197.5 928.12,-197.5 928.12,-238.5"/>
<text xml:space="preserve" text-anchor="middle" x="841.38" y="-221.2" font-family="Times,serif" font-size="14.00">_ZN4core9panicking5panic1</text>
<text xml:space="preserve" text-anchor="middle" x="841.38" y="-204.7" font-family="Times,serif" font-size="14.00">7h37379bf3ce79a0d7E</text>
</g>
<!-- X5eb86185c1cf8f06_0 -->
<g id="node4" class="node">
<title>X5eb86185c1cf8f06_0</title>
<polygon fill="none" stroke="red" points="1986.12,-883.5 1818.62,-883.5 1818.62,-826 1986.12,-826 1986.12,-883.5"/>
<text xml:space="preserve" text-anchor="middle" x="1902.38" y="-866.2" font-family="Times,serif" font-size="14.00">_ZN3std2rt19lang_start_in</text>
<text xml:space="preserve" text-anchor="middle" x="1902.38" y="-849.7" font-family="Times,serif" font-size="14.00">ternal17h035df9ff6960926a</text>
<text xml:space="preserve" text-anchor="middle" x="1902.38" y="-833.2" font-family="Times,serif" font-size="14.00">E</text>
</g>
<!-- X8b0ac2e54b9a91_0 -->
<g id="node5" class="node">
<title>X8b0ac2e54b9a91_0</title>
<polygon fill="none" stroke="red" points="1961.62,-1145.5 1905.12,-1145.5 1905.12,-1109.5 1961.62,-1109.5 1961.62,-1145.5"/>
<text xml:space="preserve" text-anchor="middle" x="1933.38" y="-1122.45" font-family="Times,serif" font-size="14.00">NoOp: </text>
</g>
<!-- X3c6542d96320ad67_0 -->
<g id="node6" class="node">
<title>X3c6542d96320ad67_0</title>
<polygon fill="none" stroke="red" points="4608.5,-79 4536.25,-79 4536.25,-38 4608.5,-38 4608.5,-79"/>
<text xml:space="preserve" text-anchor="middle" x="4572.38" y="-61.7" font-family="Times,serif" font-size="14.00">Intr: </text>
<text xml:space="preserve" text-anchor="middle" x="4572.38" y="-45.2" font-family="Times,serif" font-size="14.00">black_box</text>
</g>
<!-- node_3 -->
<g id="node7" class="node">
<title>node_3</title>
<polygon fill="#7ccd7c" stroke="#7ccd7c" points="684.5,-1197.5 540.25,-1197.5 540.25,-1057.5 684.5,-1057.5 684.5,-1197.5"/>
<text xml:space="preserve" text-anchor="start" x="548.25" y="-1180.2" font-family="Times,serif" font-size="14.00">LOCALS</text>
<text xml:space="preserve" text-anchor="start" x="548.25" y="-1163.7" font-family="Times,serif" font-size="14.00">0 = () (0 bytes, align 1)</text>
<text xml:space="preserve" text-anchor="start" x="548.25" y="-1147.2" font-family="Times,serif" font-size="14.00">1 = Int(I32)</text>
<text xml:space="preserve" text-anchor="start" x="548.25" y="-1130.7" font-family="Times,serif" font-size="14.00">2 = Bool</text>
<text xml:space="preserve" text-anchor="start" x="548.25" y="-1114.2" font-family="Times,serif" font-size="14.00">3 = Bool</text>
<text xml:space="preserve" text-anchor="start" x="548.25" y="-1097.7" font-family="Times,serif" font-size="14.00">4 = Bool</text>
<text xml:space="preserve" text-anchor="start" x="548.25" y="-1081.2" font-family="Times,serif" font-size="14.00">5 = Bool</text>
<text xml:space="preserve" text-anchor="start" x="548.25" y="-1064.7" font-family="Times,serif" font-size="14.00">6 = ()</text>
</g>
<!-- X2b29fbf0dc4ddc3c_0 -->
<g id="node8" class="node">
<title>X2b29fbf0dc4ddc3c_0</title>
<polygon fill="none" stroke="black" points="959.75,-1148 703,-1148 703,-1107 959.75,-1107 959.75,-1148"/>
<text xml:space="preserve" text-anchor="start" x="711" y="-1130.7" font-family="Times,serif" font-size="14.00">2 &lt;&#45; Eq(const 10_Int(I32), const 0_Int(I32))</text>
<text xml:space="preserve" text-anchor="start" x="711" y="-1114.2" font-family="Times,serif" font-size="14.00">Assert mv(2) == false</text>
</g>
<!-- X2b29fbf0dc4ddc3c_1 -->
<g id="node9" class="node">
<title>X2b29fbf0dc4ddc3c_1</title>
<polygon fill="none" stroke="black" points="959.5,-891.75 635.25,-891.75 635.25,-817.75 959.5,-817.75 959.5,-891.75"/>
<text xml:space="preserve" text-anchor="start" x="643.25" y="-874.45" font-family="Times,serif" font-size="14.00">3 &lt;&#45; Eq(const 10_Int(I32), const 4294967295_Int(I32))</text>
<text xml:space="preserve" text-anchor="start" x="643.25" y="-857.95" font-family="Times,serif" font-size="14.00">4 &lt;&#45; Eq(const 420_Int(I32), const 2147483648_Int(I32))</text>
<text xml:space="preserve" text-anchor="start" x="643.25" y="-841.45" font-family="Times,serif" font-size="14.00">5 &lt;&#45; BitAnd(mv(3), mv(4))</text>
<text xml:space="preserve" text-anchor="start" x="643.25" y="-824.95" font-family="Times,serif" font-size="14.00">Assert mv(5) == false</text>
</g>
<!-- X2b29fbf0dc4ddc3c_0&#45;&gt;X2b29fbf0dc4ddc3c_1 -->
<g id="edge1" class="edge">
<title>X2b29fbf0dc4ddc3c_0&#45;&gt;X2b29fbf0dc4ddc3c_1</title>
<path fill="none" stroke="black" d="M828.87,-1106.59C823.53,-1064.03 810.86,-963.17 803.32,-903.11"/>
<polygon fill="black" stroke="black" points="806.84,-903.02 802.12,-893.54 799.89,-903.9 806.84,-903.02"/>
</g>
<!-- X2b29fbf0dc4ddc3c_2 -->
<g id="node10" class="node">
<title>X2b29fbf0dc4ddc3c_2</title>
<polygon fill="none" stroke="black" points="935.12,-668.5 659.62,-668.5 659.62,-627.5 935.12,-627.5 935.12,-668.5"/>
<text xml:space="preserve" text-anchor="start" x="667.62" y="-651.2" font-family="Times,serif" font-size="14.00">1 &lt;&#45; Div(const 420_Int(I32), const 10_Int(I32))</text>
<text xml:space="preserve" text-anchor="start" x="667.62" y="-634.7" font-family="Times,serif" font-size="14.00">SwitchInt mv(1)</text>
</g>
<!-- X2b29fbf0dc4ddc3c_1&#45;&gt;X2b29fbf0dc4ddc3c_2 -->
<g id="edge2" class="edge">
<title>X2b29fbf0dc4ddc3c_1&#45;&gt;X2b29fbf0dc4ddc3c_2</title>
<path fill="none" stroke="black" d="M797.38,-817.62C797.38,-778.56 797.38,-716.97 797.38,-680.03"/>
<polygon fill="black" stroke="black" points="800.88,-680.47 797.38,-670.47 793.88,-680.47 800.88,-680.47"/>
</g>
<!-- X2b29fbf0dc4ddc3c_3 -->
<g id="node11" class="node">
<title>X2b29fbf0dc4ddc3c_3</title>
<polygon fill="none" stroke="black" points="796.38,-434.5 742.38,-434.5 742.38,-398.5 796.38,-398.5 796.38,-434.5"/>
<text xml:space="preserve" text-anchor="start" x="750.38" y="-411.45" font-family="Times,serif" font-size="14.00">Return</text>
</g>
<!-- X2b29fbf0dc4ddc3c_2&#45;&gt;X2b29fbf0dc4ddc3c_3 -->
<g id="edge3" class="edge">
<title>X2b29fbf0dc4ddc3c_2&#45;&gt;X2b29fbf0dc4ddc3c_3</title>
<path fill="none" stroke="black" d="M794.94,-627.03C789.96,-586.2 778.59,-493.04 772.84,-445.92"/>
<polygon fill="black" stroke="black" points="776.34,-445.73 771.66,-436.23 769.4,-446.58 776.34,-445.73"/>
<text xml:space="preserve" text-anchor="middle" x="793.46" y="-546.7" font-family="Times,serif" font-size="14.00">42</text>
</g>
<!-- X2b29fbf0dc4ddc3c_4 -->
<g id="node12" class="node">
<title>X2b29fbf0dc4ddc3c_4</title>
<polygon fill="none" stroke="black" points="868.38,-434.5 814.38,-434.5 814.38,-398.5 868.38,-398.5 868.38,-434.5"/>
<text xml:space="preserve" text-anchor="start" x="822.38" y="-411.45" font-family="Times,serif" font-size="14.00">Call</text>
</g>
<!-- X2b29fbf0dc4ddc3c_2&#45;&gt;X2b29fbf0dc4ddc3c_4 -->
<g id="edge4" class="edge">
<title>X2b29fbf0dc4ddc3c_2&#45;&gt;X2b29fbf0dc4ddc3c_4</title>
<path fill="none" stroke="black" d="M801.2,-627.03C809.03,-586.2 826.89,-493.04 835.93,-445.92"/>
<polygon fill="black" stroke="black" points="839.34,-446.69 837.79,-436.21 832.47,-445.37 839.34,-446.69"/>
<text xml:space="preserve" text-anchor="middle" x="830.62" y="-546.7" font-family="Times,serif" font-size="14.00">other</text>
</g>
<!-- X2b29fbf0dc4ddc3c_4&#45;&gt;X210a8e5fe9313c81_0 -->
<g id="edge5" class="edge">
<title>X2b29fbf0dc4ddc3c_4&#45;&gt;X210a8e5fe9313c81_0</title>
<path fill="none" stroke="black" d="M841.38,-398.06C841.38,-364.81 841.38,-291.92 841.38,-250.11"/>
<polygon fill="black" stroke="black" points="844.88,-250.22 841.38,-240.22 837.88,-250.22 844.88,-250.22"/>
<text xml:space="preserve" text-anchor="middle" x="878.5" y="-348.2" font-family="Times,serif" font-size="14.00">const [alloc0]</text>
</g>
<!-- node_5 -->
<g id="node13" class="node">
<title>node_5</title>
<polygon fill="#7ccd7c" stroke="#7ccd7c" points="1545.75,-1214 983,-1214 983,-1041 1545.75,-1041 1545.75,-1214"/>
<text xml:space="preserve" text-anchor="start" x="991" y="-1196.7" font-family="Times,serif" font-size="14.00">LOCALS</text>
<text xml:space="preserve" text-anchor="start" x="991" y="-1180.2" font-family="Times,serif" font-size="14.00">0 = Int(Isize)</text>
<text xml:space="preserve" text-anchor="start" x="991" y="-1163.7" font-family="Times,serif" font-size="14.00">1 = fn()</text>
<text xml:space="preserve" text-anchor="start" x="991" y="-1147.2" font-family="Times,serif" font-size="14.00">2 = Int(Isize)</text>
<text xml:space="preserve" text-anchor="start" x="991" y="-1130.7" font-family="Times,serif" font-size="14.00">3 = *const *const u8 (8 bytes, align 8)</text>
<text xml:space="preserve" text-anchor="start" x="991" y="-1114.2" font-family="Times,serif" font-size="14.00">4 = Uint(U8)</text>
<text xml:space="preserve" text-anchor="start" x="991" y="-1097.7" font-family="Times,serif" font-size="14.00">5 = std::result::Result&lt;isize, !&gt; (8 bytes, align 8)</text>
<text xml:space="preserve" text-anchor="start" x="991" y="-1081.2" font-family="Times,serif" font-size="14.00">6 = &amp;dyn std::ops::Fn() &#45;&gt; i32 + std::marker::Sync + std::panic::RefUnwindSafe (16 bytes, align 8)</text>
<text xml:space="preserve" text-anchor="start" x="991" y="-1064.7" font-family="Times,serif" font-size="14.00">7 = &amp;{closure@std::rt::lang_start&lt;()&gt;::{closure#0}} (8 bytes, align 8)</text>
<text xml:space="preserve" text-anchor="start" x="991" y="-1048.2" font-family="Times,serif" font-size="14.00">8 = {closure@std::rt::lang_start&lt;()&gt;::{closure#0}}</text>
</g>
<!-- X2a5dcaaed24efd7_0 -->
<g id="node14" class="node">
<title>X2a5dcaaed24efd7_0</title>
<polygon fill="none" stroke="black" points="1802.75,-1189.25 1564,-1189.25 1564,-1065.75 1802.75,-1065.75 1802.75,-1189.25"/>
<text xml:space="preserve" text-anchor="start" x="1572" y="-1171.95" font-family="Times,serif" font-size="14.00">Storage Live _5</text>
<text xml:space="preserve" text-anchor="start" x="1572" y="-1155.45" font-family="Times,serif" font-size="14.00">Storage Live _6</text>
<text xml:space="preserve" text-anchor="start" x="1572" y="-1138.95" font-family="Times,serif" font-size="14.00">Storage Live _8</text>
<text xml:space="preserve" text-anchor="start" x="1572" y="-1122.45" font-family="Times,serif" font-size="14.00">8 &lt;&#45; Closure (cp(1))</text>
<text xml:space="preserve" text-anchor="start" x="1572" y="-1105.95" font-family="Times,serif" font-size="14.00">7 &lt;&#45; &amp; 8</text>
<text xml:space="preserve" text-anchor="start" x="1572" y="-1089.45" font-family="Times,serif" font-size="14.00">6 &lt;&#45; Cast&#45;PointerCoercion(Unsize) cp(7)</text>
<text xml:space="preserve" text-anchor="start" x="1572" y="-1072.95" font-family="Times,serif" font-size="14.00">Call</text>
</g>
<!-- X2a5dcaaed24efd7_0&#45;&gt;X5eb86185c1cf8f06_0 -->
<g id="edge7" class="edge">
<title>X2a5dcaaed24efd7_0&#45;&gt;X5eb86185c1cf8f06_0</title>
<path fill="none" stroke="black" d="M1752.27,-1065.31C1773.32,-1045.05 1795.8,-1021.72 1814.38,-998.5 1840.89,-965.35 1865.75,-923.65 1882.24,-893.9"/>
<polygon fill="black" stroke="black" points="1885.25,-895.69 1886.98,-885.24 1879.11,-892.33 1885.25,-895.69"/>
<text xml:space="preserve" text-anchor="middle" x="1878.05" y="-1009.7" font-family="Times,serif" font-size="14.00">mv(6),mv(2),mv(3),mv(4)</text>
</g>
<!-- X2a5dcaaed24efd7_1 -->
<g id="node15" class="node">
<title>X2a5dcaaed24efd7_1</title>
<polygon fill="none" stroke="black" points="1777.25,-900 1589.5,-900 1589.5,-809.5 1777.25,-809.5 1777.25,-900"/>
<text xml:space="preserve" text-anchor="start" x="1597.5" y="-882.7" font-family="Times,serif" font-size="14.00">Storage Dead _6</text>
<text xml:space="preserve" text-anchor="start" x="1597.5" y="-866.2" font-family="Times,serif" font-size="14.00">0 &lt;&#45; Use(cp((5 as variant 0).0))</text>
<text xml:space="preserve" text-anchor="start" x="1597.5" y="-849.7" font-family="Times,serif" font-size="14.00">Storage Dead _8</text>
<text xml:space="preserve" text-anchor="start" x="1597.5" y="-833.2" font-family="Times,serif" font-size="14.00">Storage Dead _5</text>
<text xml:space="preserve" text-anchor="start" x="1597.5" y="-816.7" font-family="Times,serif" font-size="14.00">Return</text>
</g>
<!-- X2a5dcaaed24efd7_0&#45;&gt;X2a5dcaaed24efd7_1 -->
<g id="edge6" class="edge">
<title>X2a5dcaaed24efd7_0&#45;&gt;X2a5dcaaed24efd7_1</title>
<path fill="none" stroke="black" d="M1683.38,-1065.4C1683.38,-1019.2 1683.38,-956.29 1683.38,-911.46"/>
<polygon fill="black" stroke="black" points="1686.88,-911.7 1683.38,-901.7 1679.88,-911.7 1686.88,-911.7"/>
<text xml:space="preserve" text-anchor="middle" x="1686.75" y="-1009.7" font-family="Times,serif" font-size="14.00">5</text>
</g>
<!-- node_7 -->
<g id="node16" class="node">
<title>node_7</title>
<polygon fill="#7ccd7c" stroke="#7ccd7c" points="3593.62,-718 3141.12,-718 3141.12,-578 3593.62,-578 3593.62,-718"/>
<text xml:space="preserve" text-anchor="start" x="3149.12" y="-700.7" font-family="Times,serif" font-size="14.00">LOCALS</text>
<text xml:space="preserve" text-anchor="start" x="3149.12" y="-684.2" font-family="Times,serif" font-size="14.00">0 = Int(I32)</text>
<text xml:space="preserve" text-anchor="start" x="3149.12" y="-667.7" font-family="Times,serif" font-size="14.00">1 = &amp;{closure@std::rt::lang_start&lt;()&gt;::{closure#0}} (8 bytes, align 8)</text>
<text xml:space="preserve" text-anchor="start" x="3149.12" y="-651.2" font-family="Times,serif" font-size="14.00">2 = std::process::ExitCode (1 bytes, align 1)</text>
<text xml:space="preserve" text-anchor="start" x="3149.12" y="-634.7" font-family="Times,serif" font-size="14.00">3 = () (0 bytes, align 1)</text>
<text xml:space="preserve" text-anchor="start" x="3149.12" y="-618.2" font-family="Times,serif" font-size="14.00">4 = fn()</text>
<text xml:space="preserve" text-anchor="start" x="3149.12" y="-601.7" font-family="Times,serif" font-size="14.00">5 = &amp;std::sys::pal::unix::process::process_common::ExitCode (8 bytes, align 8)</text>
<text xml:space="preserve" text-anchor="start" x="3149.12" y="-585.2" font-family="Times,serif" font-size="14.00">6 = Uint(U8)</text>
</g>
<!-- X5d02c033a0e1d8da_0 -->
<g id="node17" class="node">
<title>X5d02c033a0e1d8da_0</title>
<polygon fill="none" stroke="black" points="3739.25,-693.25 3611.5,-693.25 3611.5,-602.75 3739.25,-602.75 3739.25,-693.25"/>
<text xml:space="preserve" text-anchor="start" x="3619.5" y="-675.95" font-family="Times,serif" font-size="14.00">Storage Live _2</text>
<text xml:space="preserve" text-anchor="start" x="3619.5" y="-659.45" font-family="Times,serif" font-size="14.00">Storage Live _3</text>
<text xml:space="preserve" text-anchor="start" x="3619.5" y="-642.95" font-family="Times,serif" font-size="14.00">Storage Live _4</text>
<text xml:space="preserve" text-anchor="start" x="3619.5" y="-626.45" font-family="Times,serif" font-size="14.00">4 &lt;&#45; Use(cp((*1).0))</text>
<text xml:space="preserve" text-anchor="start" x="3619.5" y="-609.95" font-family="Times,serif" font-size="14.00">Call</text>
</g>
<!-- X5d02c033a0e1d8da_1 -->
<g id="node18" class="node">
<title>X5d02c033a0e1d8da_1</title>
<polygon fill="none" stroke="black" points="3728.75,-437 3622,-437 3622,-396 3728.75,-396 3728.75,-437"/>
<text xml:space="preserve" text-anchor="start" x="3630" y="-419.7" font-family="Times,serif" font-size="14.00">Storage Dead _4</text>
<text xml:space="preserve" text-anchor="start" x="3630" y="-403.2" font-family="Times,serif" font-size="14.00">Call</text>
</g>
<!-- X5d02c033a0e1d8da_0&#45;&gt;X5d02c033a0e1d8da_1 -->
<g id="edge8" class="edge">
<title>X5d02c033a0e1d8da_0&#45;&gt;X5d02c033a0e1d8da_1</title>
<path fill="none" stroke="black" d="M3675.38,-602.48C3675.38,-557.23 3675.38,-488.32 3675.38,-448.63"/>
<polygon fill="black" stroke="black" points="3678.88,-448.82 3675.38,-438.82 3671.88,-448.82 3678.88,-448.82"/>
<text xml:space="preserve" text-anchor="middle" x="3678.75" y="-546.7" font-family="Times,serif" font-size="14.00">3</text>
</g>
<!-- X930fb4cd603095ba_0 -->
<g id="node20" class="node">
<title>X930fb4cd603095ba_0</title>
<polygon fill="none" stroke="black" points="4358.38,-434.5 4304.38,-434.5 4304.38,-398.5 4358.38,-398.5 4358.38,-434.5"/>
<text xml:space="preserve" text-anchor="start" x="4312.38" y="-411.45" font-family="Times,serif" font-size="14.00">Call</text>
</g>
<!-- X5d02c033a0e1d8da_0&#45;&gt;X930fb4cd603095ba_0 -->
<g id="edge10" class="edge">
<title>X5d02c033a0e1d8da_0&#45;&gt;X930fb4cd603095ba_0</title>
<path fill="none" stroke="black" d="M3739.47,-624.58C3874.61,-577.3 4185.2,-468.64 4293.38,-430.79"/>
<polygon fill="black" stroke="black" points="4294.38,-434.15 4302.66,-427.55 4292.07,-427.54 4294.38,-434.15"/>
<text xml:space="preserve" text-anchor="middle" x="3980.97" y="-546.7" font-family="Times,serif" font-size="14.00">mv(4)</text>
</g>
<!-- X5d02c033a0e1d8da_2 -->
<g id="node19" class="node">
<title>X5d02c033a0e1d8da_2</title>
<polygon fill="none" stroke="black" points="3739.38,-304.5 3585.38,-304.5 3585.38,-131.5 3739.38,-131.5 3739.38,-304.5"/>
<text xml:space="preserve" text-anchor="start" x="3593.38" y="-287.2" font-family="Times,serif" font-size="14.00">Storage Dead _3</text>
<text xml:space="preserve" text-anchor="start" x="3593.38" y="-270.7" font-family="Times,serif" font-size="14.00">Storage Live _5</text>
<text xml:space="preserve" text-anchor="start" x="3593.38" y="-254.2" font-family="Times,serif" font-size="14.00">5 &lt;&#45; &amp; 2.0</text>
<text xml:space="preserve" text-anchor="start" x="3593.38" y="-237.7" font-family="Times,serif" font-size="14.00">Storage Live _6</text>
<text xml:space="preserve" text-anchor="start" x="3593.38" y="-221.2" font-family="Times,serif" font-size="14.00">6 &lt;&#45; Use(cp(2.0.0))</text>
<text xml:space="preserve" text-anchor="start" x="3593.38" y="-204.7" font-family="Times,serif" font-size="14.00">0 &lt;&#45; Cast&#45;IntToInt mv(6)</text>
<text xml:space="preserve" text-anchor="start" x="3593.38" y="-188.2" font-family="Times,serif" font-size="14.00">Storage Dead _6</text>
<text xml:space="preserve" text-anchor="start" x="3593.38" y="-171.7" font-family="Times,serif" font-size="14.00">Storage Dead _5</text>
<text xml:space="preserve" text-anchor="start" x="3593.38" y="-155.2" font-family="Times,serif" font-size="14.00">Storage Dead _2</text>
<text xml:space="preserve" text-anchor="start" x="3593.38" y="-138.7" font-family="Times,serif" font-size="14.00">Return</text>
</g>
<!-- X5d02c033a0e1d8da_1&#45;&gt;X5d02c033a0e1d8da_2 -->
<g id="edge9" class="edge">
<title>X5d02c033a0e1d8da_1&#45;&gt;X5d02c033a0e1d8da_2</title>
<path fill="none" stroke="black" d="M3674.06,-395.58C3672.8,-376.54 3670.8,-346.38 3668.81,-316.33"/>
<polygon fill="black" stroke="black" points="3672.31,-316.1 3668.15,-306.35 3665.32,-316.56 3672.31,-316.1"/>
<text xml:space="preserve" text-anchor="middle" x="3674.91" y="-348.2" font-family="Times,serif" font-size="14.00">2</text>
</g>
<!-- X5e1c138e35e4c91d_0 -->
<g id="node21" class="node">
<title>X5e1c138e35e4c91d_0</title>
<polygon fill="none" stroke="black" points="4004.88,-238.5 3763.88,-238.5 3763.88,-197.5 4004.88,-197.5 4004.88,-238.5"/>
<text xml:space="preserve" text-anchor="start" x="3771.88" y="-221.2" font-family="Times,serif" font-size="14.00">0 &lt;&#45; Use(const 0_std::process::ExitCode)</text>
<text xml:space="preserve" text-anchor="start" x="3771.88" y="-204.7" font-family="Times,serif" font-size="14.00">Return</text>
</g>
<!-- X5d02c033a0e1d8da_1&#45;&gt;X5e1c138e35e4c91d_0 -->
<g id="edge11" class="edge">
<title>X5d02c033a0e1d8da_1&#45;&gt;X5e1c138e35e4c91d_0</title>
<path fill="none" stroke="black" d="M3696.57,-395.58C3734.04,-360.34 3812.08,-286.97 3854.82,-246.78"/>
<polygon fill="black" stroke="black" points="3857.14,-249.41 3862.03,-240.01 3852.34,-244.31 3857.14,-249.41"/>
<text xml:space="preserve" text-anchor="middle" x="3765.82" y="-348.2" font-family="Times,serif" font-size="14.00">mv(3)</text>
</g>
<!-- X930fb4cd603095ba_1 -->
<g id="node23" class="node">
<title>X930fb4cd603095ba_1</title>
<polygon fill="none" stroke="black" points="4438.38,-236 4384.38,-236 4384.38,-200 4438.38,-200 4438.38,-236"/>
<text xml:space="preserve" text-anchor="start" x="4392.38" y="-212.95" font-family="Times,serif" font-size="14.00">Call</text>
</g>
<!-- X930fb4cd603095ba_0&#45;&gt;X930fb4cd603095ba_1 -->
<g id="edge12" class="edge">
<title>X930fb4cd603095ba_0&#45;&gt;X930fb4cd603095ba_1</title>
<path fill="none" stroke="black" d="M4338.47,-398.06C4352.35,-363.98 4383.18,-288.26 4399.96,-247.05"/>
<polygon fill="black" stroke="black" points="4403.19,-248.38 4403.72,-237.8 4396.71,-245.74 4403.19,-248.38"/>
<text xml:space="preserve" text-anchor="middle" x="4362.91" y="-348.2" font-family="Times,serif" font-size="14.00">0</text>
</g>
<!-- Xfcb4719e31f979d3_0 -->
<g id="node25" class="node">
<title>Xfcb4719e31f979d3_0</title>
<polygon fill="none" stroke="black" points="4681.38,-236 4627.38,-236 4627.38,-200 4681.38,-200 4681.38,-236"/>
<text xml:space="preserve" text-anchor="start" x="4635.38" y="-212.95" font-family="Times,serif" font-size="14.00">Call</text>
</g>
<!-- X930fb4cd603095ba_0&#45;&gt;Xfcb4719e31f979d3_0 -->
<g id="edge14" class="edge">
<title>X930fb4cd603095ba_0&#45;&gt;Xfcb4719e31f979d3_0</title>
<path fill="none" stroke="black" d="M4345.25,-398.06C4351.38,-391.38 4359.08,-384.23 4367.38,-379.5 4433.14,-341.96 4466.3,-374 4532.38,-337 4574.23,-313.56 4612.19,-272.21 4634.28,-245.21"/>
<polygon fill="black" stroke="black" points="4636.95,-247.48 4640.47,-237.49 4631.48,-243.11 4636.95,-247.48"/>
<text xml:space="preserve" text-anchor="middle" x="4552.85" y="-348.2" font-family="Times,serif" font-size="14.00">mv(1),const ()</text>
</g>
<!-- node_9 -->
<g id="node22" class="node">
<title>node_9</title>
<polygon fill="#7ccd7c" stroke="#7ccd7c" points="4520.5,-453.5 4376.25,-453.5 4376.25,-379.5 4520.5,-379.5 4520.5,-453.5"/>
<text xml:space="preserve" text-anchor="start" x="4384.25" y="-436.2" font-family="Times,serif" font-size="14.00">LOCALS</text>
<text xml:space="preserve" text-anchor="start" x="4384.25" y="-419.7" font-family="Times,serif" font-size="14.00">0 = () (0 bytes, align 1)</text>
<text xml:space="preserve" text-anchor="start" x="4384.25" y="-403.2" font-family="Times,serif" font-size="14.00">1 = fn()</text>
<text xml:space="preserve" text-anchor="start" x="4384.25" y="-386.7" font-family="Times,serif" font-size="14.00">2 = () (0 bytes, align 1)</text>
</g>
<!-- X930fb4cd603095ba_1&#45;&gt;X3c6542d96320ad67_0 -->
<g id="edge15" class="edge">
<title>X930fb4cd603095ba_1&#45;&gt;X3c6542d96320ad67_0</title>
<path fill="none" stroke="black" d="M4429.22,-199.54C4457.07,-172.3 4511.11,-119.44 4544.24,-87.03"/>
<polygon fill="black" stroke="black" points="4546.4,-89.81 4551.1,-80.31 4541.5,-84.8 4546.4,-89.81"/>
<text xml:space="preserve" text-anchor="middle" x="4554.09" y="-100.2" font-family="Times,serif" font-size="14.00">const ()</text>
</g>
<!-- X930fb4cd603095ba_2 -->
<g id="node24" class="node">
<title>X930fb4cd603095ba_2</title>
<polygon fill="none" stroke="black" points="4438.38,-76.5 4384.38,-76.5 4384.38,-40.5 4438.38,-40.5 4438.38,-76.5"/>
<text xml:space="preserve" text-anchor="start" x="4392.38" y="-53.45" font-family="Times,serif" font-size="14.00">Return</text>
</g>
<!-- X930fb4cd603095ba_1&#45;&gt;X930fb4cd603095ba_2 -->
<g id="edge13" class="edge">
<title>X930fb4cd603095ba_1&#45;&gt;X930fb4cd603095ba_2</title>
<path fill="none" stroke="black" d="M4411.38,-199.54C4411.38,-172.56 4411.38,-120.44 4411.38,-87.95"/>
<polygon fill="black" stroke="black" points="4414.88,-88.07 4411.38,-78.07 4407.88,-88.07 4414.88,-88.07"/>
<text xml:space="preserve" text-anchor="middle" x="4414.75" y="-100.2" font-family="Times,serif" font-size="14.00">2</text>
</g>
<!-- Xfcb4719e31f979d3_0&#45;&gt;Xfcb4719e31f979d3_0 -->
<g id="edge24" class="edge">
<title>Xfcb4719e31f979d3_0&#45;&gt;Xfcb4719e31f979d3_0:1</title>
<path fill="none" stroke="black" d="M4671.93,-236.41C4685.52,-243.3 4699.38,-237.16 4699.38,-218 4699.38,-204.08 4692.06,-197.03 4682.85,-196.86"/>
<polygon fill="black" stroke="black" points="4682.25,-193.4 4673.4,-199.22 4683.95,-200.2 4682.25,-193.4"/>
</g>
<!-- Xfcb4719e31f979d3_1 -->
<g id="node36" class="node">
<title>Xfcb4719e31f979d3_1</title>
<polygon fill="none" stroke="black" points="4681.38,-76.5 4627.38,-76.5 4627.38,-40.5 4681.38,-40.5 4681.38,-76.5"/>
<text xml:space="preserve" text-anchor="start" x="4635.38" y="-53.45" font-family="Times,serif" font-size="14.00">Return</text>
</g>
<!-- Xfcb4719e31f979d3_0&#45;&gt;Xfcb4719e31f979d3_1 -->
<g id="edge23" class="edge">
<title>Xfcb4719e31f979d3_0&#45;&gt;Xfcb4719e31f979d3_1</title>
<path fill="none" stroke="black" d="M4654.38,-199.54C4654.38,-172.56 4654.38,-120.44 4654.38,-87.95"/>
<polygon fill="black" stroke="black" points="4657.88,-88.07 4654.38,-78.07 4650.88,-88.07 4657.88,-88.07"/>
<text xml:space="preserve" text-anchor="middle" x="4657.75" y="-100.2" font-family="Times,serif" font-size="14.00">0</text>
</g>
<!-- node_11 -->
<g id="node26" class="node">
<title>node_11</title>
<polygon fill="#7ccd7c" stroke="#7ccd7c" points="2488.38,-1164.5 2064.38,-1164.5 2064.38,-1090.5 2488.38,-1090.5 2488.38,-1164.5"/>
<text xml:space="preserve" text-anchor="start" x="2072.38" y="-1147.2" font-family="Times,serif" font-size="14.00">LOCALS</text>
<text xml:space="preserve" text-anchor="start" x="2072.38" y="-1130.7" font-family="Times,serif" font-size="14.00">0 = Int(I32)</text>
<text xml:space="preserve" text-anchor="start" x="2072.38" y="-1114.2" font-family="Times,serif" font-size="14.00">1 = *mut {closure@std::rt::lang_start&lt;()&gt;::{closure#0}} (8 bytes, align 8)</text>
<text xml:space="preserve" text-anchor="start" x="2072.38" y="-1097.7" font-family="Times,serif" font-size="14.00">2 = () (0 bytes, align 1)</text>
</g>
<!-- X12dd358368033723_0 -->
<g id="node27" class="node">
<title>X12dd358368033723_0</title>
<polygon fill="none" stroke="black" points="2560.38,-1145.5 2506.38,-1145.5 2506.38,-1109.5 2560.38,-1109.5 2560.38,-1145.5"/>
<text xml:space="preserve" text-anchor="start" x="2514.38" y="-1122.45" font-family="Times,serif" font-size="14.00">Call</text>
</g>
<!-- X12dd358368033723_1 -->
<g id="node28" class="node">
<title>X12dd358368033723_1</title>
<polygon fill="none" stroke="black" points="2560.38,-872.75 2506.38,-872.75 2506.38,-836.75 2560.38,-836.75 2560.38,-872.75"/>
<text xml:space="preserve" text-anchor="start" x="2514.38" y="-849.7" font-family="Times,serif" font-size="14.00">Return</text>
</g>
<!-- X12dd358368033723_0&#45;&gt;X12dd358368033723_1 -->
<g id="edge16" class="edge">
<title>X12dd358368033723_0&#45;&gt;X12dd358368033723_1</title>
<path fill="none" stroke="black" d="M2533.38,-1109.15C2533.38,-1063.59 2533.38,-940.21 2533.38,-884.15"/>
<polygon fill="black" stroke="black" points="2536.88,-884.47 2533.38,-874.47 2529.88,-884.47 2536.88,-884.47"/>
<text xml:space="preserve" text-anchor="middle" x="2536.75" y="-1009.7" font-family="Times,serif" font-size="14.00">0</text>
</g>
<!-- X9bb4beb63ef478de_0 -->
<g id="node29" class="node">
<title>X9bb4beb63ef478de_0</title>
<polygon fill="none" stroke="black" points="2670.62,-875.25 2584.12,-875.25 2584.12,-834.25 2670.62,-834.25 2670.62,-875.25"/>
<text xml:space="preserve" text-anchor="start" x="2592.12" y="-857.95" font-family="Times,serif" font-size="14.00">3 &lt;&#45; &amp;mut 1</text>
<text xml:space="preserve" text-anchor="start" x="2592.12" y="-841.45" font-family="Times,serif" font-size="14.00">Call</text>
</g>
<!-- X12dd358368033723_0&#45;&gt;X9bb4beb63ef478de_0 -->
<g id="edge17" class="edge">
<title>X12dd358368033723_0&#45;&gt;X9bb4beb63ef478de_0</title>
<path fill="none" stroke="black" d="M2539.4,-1109.15C2555.02,-1064.16 2596.98,-943.3 2616.77,-886.3"/>
<polygon fill="black" stroke="black" points="2620.06,-887.5 2620.03,-876.9 2613.45,-885.2 2620.06,-887.5"/>
<text xml:space="preserve" text-anchor="middle" x="2618.25" y="-1009.7" font-family="Times,serif" font-size="14.00">mv((*1)),mv(2)</text>
</g>
<!-- X9bb4beb63ef478de_0&#45;&gt;X5d02c033a0e1d8da_0 -->
<g id="edge22" class="edge">
<title>X9bb4beb63ef478de_0&#45;&gt;X5d02c033a0e1d8da_0</title>
<path fill="none" stroke="black" d="M2641.4,-833.88C2650.91,-822.15 2664.6,-808.32 2680.38,-801.5 2774.48,-760.84 3513.77,-818.57 3602.38,-767 3626.41,-753.01 3643.61,-727.65 3655.25,-704.02"/>
<polygon fill="black" stroke="black" points="3658.38,-705.6 3659.42,-695.05 3652.03,-702.64 3658.38,-705.6"/>
<text xml:space="preserve" text-anchor="middle" x="3615.3" y="-778.2" font-family="Times,serif" font-size="14.00">mv(3),mv(2)</text>
</g>
<!-- X9bb4beb63ef478de_3 -->
<g id="node31" class="node">
<title>X9bb4beb63ef478de_3</title>
<polygon fill="none" stroke="black" points="2648.5,-666 2594.25,-666 2594.25,-630 2648.5,-630 2648.5,-666"/>
<text xml:space="preserve" text-anchor="start" x="2602.25" y="-642.95" font-family="Times,serif" font-size="14.00">Drop 1</text>
</g>
<!-- X9bb4beb63ef478de_0&#45;&gt;X9bb4beb63ef478de_3 -->
<g id="edge18" class="edge">
<title>X9bb4beb63ef478de_0&#45;&gt;X9bb4beb63ef478de_3</title>
<path fill="none" stroke="black" d="M2626.71,-833.85C2626.31,-821.63 2625.8,-805.66 2625.38,-791.5 2624.18,-751.89 2622.92,-706.08 2622.14,-677.32"/>
<polygon fill="black" stroke="black" points="2625.64,-677.52 2621.87,-667.62 2618.65,-677.71 2625.64,-677.52"/>
<text xml:space="preserve" text-anchor="middle" x="2647.88" y="-778.2" font-family="Times,serif" font-size="14.00">Cleanup</text>
</g>
<!-- X9bb4beb63ef478de_1 -->
<g id="node32" class="node">
<title>X9bb4beb63ef478de_1</title>
<polygon fill="none" stroke="black" points="2721.5,-666 2667.25,-666 2667.25,-630 2721.5,-630 2721.5,-666"/>
<text xml:space="preserve" text-anchor="start" x="2675.25" y="-642.95" font-family="Times,serif" font-size="14.00">Drop 1</text>
</g>
<!-- X9bb4beb63ef478de_0&#45;&gt;X9bb4beb63ef478de_1 -->
<g id="edge19" class="edge">
<title>X9bb4beb63ef478de_0&#45;&gt;X9bb4beb63ef478de_1</title>
<path fill="none" stroke="black" d="M2644.56,-833.76C2653.64,-822.15 2664.15,-806.83 2670.38,-791.5 2685.64,-753.91 2691.19,-706.94 2693.22,-677.45"/>
<polygon fill="black" stroke="black" points="2696.69,-678.02 2693.78,-667.84 2689.7,-677.62 2696.69,-678.02"/>
<text xml:space="preserve" text-anchor="middle" x="2679.09" y="-778.2" font-family="Times,serif" font-size="14.00">0</text>
</g>
<!-- node_13 -->
<g id="node30" class="node">
<title>node_13</title>
<polygon fill="#7ccd7c" stroke="#7ccd7c" points="3117.62,-900 2689.12,-900 2689.12,-809.5 3117.62,-809.5 3117.62,-900"/>
<text xml:space="preserve" text-anchor="start" x="2697.12" y="-882.7" font-family="Times,serif" font-size="14.00">LOCALS</text>
<text xml:space="preserve" text-anchor="start" x="2697.12" y="-866.2" font-family="Times,serif" font-size="14.00">0 = Int(I32)</text>
<text xml:space="preserve" text-anchor="start" x="2697.12" y="-849.7" font-family="Times,serif" font-size="14.00">1 = {closure@std::rt::lang_start&lt;()&gt;::{closure#0}}</text>
<text xml:space="preserve" text-anchor="start" x="2697.12" y="-833.2" font-family="Times,serif" font-size="14.00">2 = () (0 bytes, align 1)</text>
<text xml:space="preserve" text-anchor="start" x="2697.12" y="-816.7" font-family="Times,serif" font-size="14.00">3 = &amp;mut {closure@std::rt::lang_start&lt;()&gt;::{closure#0}} (8 bytes, align 8)</text>
</g>
<!-- X9bb4beb63ef478de_4 -->
<g id="node34" class="node">
<title>X9bb4beb63ef478de_4</title>
<polygon fill="none" stroke="black" points="2650.5,-434.5 2590.25,-434.5 2590.25,-398.5 2650.5,-398.5 2650.5,-434.5"/>
<text xml:space="preserve" text-anchor="start" x="2598.25" y="-411.45" font-family="Times,serif" font-size="14.00">Resume</text>
</g>
<!-- X9bb4beb63ef478de_3&#45;&gt;X9bb4beb63ef478de_4 -->
<g id="edge21" class="edge">
<title>X9bb4beb63ef478de_3&#45;&gt;X9bb4beb63ef478de_4</title>
<path fill="none" stroke="black" d="M2621.3,-629.75C2621.13,-590.62 2620.71,-494.8 2620.5,-446.43"/>
<polygon fill="black" stroke="black" points="2624,-446.45 2620.46,-436.46 2617,-446.48 2624,-446.45"/>
</g>
<!-- X9bb4beb63ef478de_2 -->
<g id="node33" class="node">
<title>X9bb4beb63ef478de_2</title>
<polygon fill="none" stroke="black" points="2722.38,-434.5 2668.38,-434.5 2668.38,-398.5 2722.38,-398.5 2722.38,-434.5"/>
<text xml:space="preserve" text-anchor="start" x="2676.38" y="-411.45" font-family="Times,serif" font-size="14.00">Return</text>
</g>
<!-- X9bb4beb63ef478de_1&#45;&gt;X9bb4beb63ef478de_2 -->
<g id="edge20" class="edge">
<title>X9bb4beb63ef478de_1&#45;&gt;X9bb4beb63ef478de_2</title>
<path fill="none" stroke="black" d="M2694.45,-629.75C2694.62,-590.62 2695.04,-494.8 2695.25,-446.43"/>
<polygon fill="black" stroke="black" points="2698.75,-446.48 2695.29,-436.46 2691.75,-446.45 2698.75,-446.48"/>
</g>
<!-- node_15 -->
<g id="node35" class="node">
<title>node_15</title>
<polygon fill="#7ccd7c" stroke="#7ccd7c" points="4861.5,-255 4717.25,-255 4717.25,-181 4861.5,-181 4861.5,-255"/>
<text xml:space="preserve" text-anchor="start" x="4725.25" y="-237.7" font-family="Times,serif" font-size="14.00">LOCALS</text>
<text xml:space="preserve" text-anchor="start" x="4725.25" y="-221.2" font-family="Times,serif" font-size="14.00">0 = () (0 bytes, align 1)</text>
<text xml:space="preserve" text-anchor="start" x="4725.25" y="-204.7" font-family="Times,serif" font-size="14.00">1 = fn()</text>
<text xml:space="preserve" text-anchor="start" x="4725.25" y="-188.2" font-family="Times,serif" font-size="14.00">2 = () (0 bytes, align 1)</text>
</g>
<!-- node_17 -->
<g id="node37" class="node">
<title>node_17</title>
<polygon fill="#7ccd7c" stroke="#7ccd7c" points="3898.38,-1156.25 3474.38,-1156.25 3474.38,-1098.75 3898.38,-1098.75 3898.38,-1156.25"/>
<text xml:space="preserve" text-anchor="start" x="3482.38" y="-1138.95" font-family="Times,serif" font-size="14.00">LOCALS</text>
<text xml:space="preserve" text-anchor="start" x="3482.38" y="-1122.45" font-family="Times,serif" font-size="14.00">0 = () (0 bytes, align 1)</text>
<text xml:space="preserve" text-anchor="start" x="3482.38" y="-1105.95" font-family="Times,serif" font-size="14.00">1 = *mut {closure@std::rt::lang_start&lt;()&gt;::{closure#0}} (8 bytes, align 8)</text>
</g>
<!-- Xac973d251e1aa6ec_0 -->
<g id="node38" class="node">
<title>Xac973d251e1aa6ec_0</title>
<polygon fill="none" stroke="black" points="3970.38,-1145.5 3916.38,-1145.5 3916.38,-1109.5 3970.38,-1109.5 3970.38,-1145.5"/>
<text xml:space="preserve" text-anchor="start" x="3924.38" y="-1122.45" font-family="Times,serif" font-size="14.00">Return</text>
</g>
<!-- node_19 -->
<g id="node39" class="node">
<title>node_19</title>
<polygon fill="#7ccd7c" stroke="#7ccd7c" points="4280.12,-246.75 4022.62,-246.75 4022.62,-189.25 4280.12,-189.25 4280.12,-246.75"/>
<text xml:space="preserve" text-anchor="start" x="4030.62" y="-229.45" font-family="Times,serif" font-size="14.00">LOCALS</text>
<text xml:space="preserve" text-anchor="start" x="4030.62" y="-212.95" font-family="Times,serif" font-size="14.00">0 = std::process::ExitCode (1 bytes, align 1)</text>
<text xml:space="preserve" text-anchor="start" x="4030.62" y="-196.45" font-family="Times,serif" font-size="14.00">1 = () (0 bytes, align 1)</text>
</g>
</g>
</svg>
