<?xml version="1.0" encoding="UTF-8" standalone="no"?>
<!DOCTYPE svg PUBLIC "-//W3C//DTD SVG 1.1//EN"
 "http://www.w3.org/Graphics/SVG/1.1/DTD/svg11.dtd">
<!-- Generated by graphviz version 14.1.1 (20251213.1925)
 -->
<!-- Pages: 1 -->
<svg width="4940pt" height="1296pt"
 viewBox="0.00 0.00 4940.00 1296.00" xmlns="http://www.w3.org/2000/svg" xmlns:xlink="http://www.w3.org/1999/xlink">
<g id="graph0" class="graph" transform="scale(1 1) rotate(0) translate(4 1291.5)">
<polygon fill="white" stroke="none" points="-4,4 -4,-1291.5 4936.38,-1291.5 4936.38,4 -4,4"/>
<text xml:space="preserve" text-anchor="middle" x="2466.19" y="-7.2" font-family="Times,serif" font-size="14.00">float</text>
<g id="clust1" class="cluster">
<title>cluster_2</title>
<polygon fill="lightgray" stroke="lightgray" points="532.38,-801.5 532.38,-1263 1367.38,-1263 1367.38,-801.5 532.38,-801.5"/>
<text xml:space="preserve" text-anchor="middle" x="949.88" y="-1245.7" font-family="Times,serif" font-size="14.00">std::rt::lang_start::&lt;()&gt;</text>
</g>
<g id="clust2" class="cluster">
<title>cluster_4</title>
<polygon fill="lightgray" stroke="lightgray" points="2690.38,-123.5 2690.38,-767 3304.38,-767 3304.38,-123.5 2690.38,-123.5"/>
<text xml:space="preserve" text-anchor="middle" x="2997.38" y="-749.7" font-family="Times,serif" font-size="14.00">std::rt::lang_start::&lt;()&gt;</text>
<text xml:space="preserve" text-anchor="middle" x="2997.38" y="-733.2" font-family="Times,serif" font-size="14.00">::{closure#0}</text>
</g>
<g id="clust3" class="cluster">
<title>cluster_6</title>
<polygon fill="lightgray" stroke="lightgray" points="3853.38,-32.5 3853.38,-535.5 4085.38,-535.5 4085.38,-32.5 3853.38,-32.5"/>
<text xml:space="preserve" text-anchor="middle" x="3969.38" y="-518.2" font-family="Times,serif" font-size="14.00">std::sys::backtrace::__ru</text>
<text xml:space="preserve" text-anchor="middle" x="3969.38" y="-501.7" font-family="Times,serif" font-size="14.00">st_begin_short_backtrace:</text>
<text xml:space="preserve" text-anchor="middle" x="3969.38" y="-485.2" font-family="Times,serif" font-size="14.00">:&lt;fn(), </text>
<text xml:space="preserve" text-anchor="middle" x="3969.38" y="-468.7" font-family="Times,serif" font-size="14.00">()&gt;</text>
</g>
<g id="clust4" class="cluster">
<title>cluster_8</title>
<polygon fill="lightgray" stroke="lightgray" points="1613.38,-828.75 1613.38,-1279.5 2125.38,-1279.5 2125.38,-828.75 1613.38,-828.75"/>
<text xml:space="preserve" text-anchor="middle" x="1869.38" y="-1262.2" font-family="Times,serif" font-size="14.00">&lt;{closure@std::rt::lang_s</text>
<text xml:space="preserve" text-anchor="middle" x="1869.38" y="-1245.7" font-family="Times,serif" font-size="14.00">tart&lt;()&gt;::{closure#0}} </text>
<text xml:space="preserve" text-anchor="middle" x="1869.38" y="-1229.2" font-family="Times,serif" font-size="14.00">as </text>
<text xml:space="preserve" text-anchor="middle" x="1869.38" y="-1212.7" font-family="Times,serif" font-size="14.00">std::ops::FnOnce&lt;()&gt;&gt;::ca</text>
<text xml:space="preserve" text-anchor="middle" x="1869.38" y="-1196.2" font-family="Times,serif" font-size="14.00">ll_once</text>
</g>
<g id="clust5" class="cluster">
<title>cluster_10</title>
<polygon fill="lightgray" stroke="lightgray" points="4176.38,-32.5 4176.38,-337 4426.38,-337 4426.38,-32.5 4176.38,-32.5"/>
<text xml:space="preserve" text-anchor="middle" x="4301.38" y="-319.7" font-family="Times,serif" font-size="14.00">&lt;fn() </text>
<text xml:space="preserve" text-anchor="middle" x="4301.38" y="-303.2" font-family="Times,serif" font-size="14.00">as </text>
<text xml:space="preserve" text-anchor="middle" x="4301.38" y="-286.7" font-family="Times,serif" font-size="14.00">std::ops::FnOnce&lt;()&gt;&gt;::ca</text>
<text xml:space="preserve" text-anchor="middle" x="4301.38" y="-270.2" font-family="Times,serif" font-size="14.00">ll_once</text>
</g>
<g id="clust6" class="cluster">
<title>cluster_12</title>
<polygon fill="lightgray" stroke="lightgray" points="2133.38,-390.5 2133.38,-998.5 2682.38,-998.5 2682.38,-390.5 2133.38,-390.5"/>
<text xml:space="preserve" text-anchor="middle" x="2407.88" y="-981.2" font-family="Times,serif" font-size="14.00">&lt;{closure@std::rt::lang_s</text>
<text xml:space="preserve" text-anchor="middle" x="2407.88" y="-964.7" font-family="Times,serif" font-size="14.00">tart&lt;()&gt;::{closure#0}} </text>
<text xml:space="preserve" text-anchor="middle" x="2407.88" y="-948.2" font-family="Times,serif" font-size="14.00">as </text>
<text xml:space="preserve" text-anchor="middle" x="2407.88" y="-931.7" font-family="Times,serif" font-size="14.00">std::ops::FnOnce&lt;()&gt;&gt;::ca</text>
<text xml:space="preserve" text-anchor="middle" x="2407.88" y="-915.2" font-family="Times,serif" font-size="14.00">ll_once</text>
</g>
<g id="clust7" class="cluster">
<title>cluster_14</title>
<polygon fill="lightgray" stroke="lightgray" points="4412.38,-1107.25 4412.38,-1238.25 4924.38,-1238.25 4924.38,-1107.25 4412.38,-1107.25"/>
<text xml:space="preserve" text-anchor="middle" x="4668.38" y="-1220.95" font-family="Times,serif" font-size="14.00">std::ptr::drop_in_place::</text>
<text xml:space="preserve" text-anchor="middle" x="4668.38" y="-1204.45" font-family="Times,serif" font-size="14.00">&lt;{closure@std::rt::lang_s</text>
<text xml:space="preserve" text-anchor="middle" x="4668.38" y="-1187.95" font-family="Times,serif" font-size="14.00">tart&lt;()&gt;::{closure#0}}&gt;</text>
</g>
<g id="clust8" class="cluster">
<title>cluster_16</title>
<polygon fill="lightgray" stroke="lightgray" points="3312.38,-181.25 3312.38,-328.75 3845.38,-328.75 3845.38,-181.25 3312.38,-181.25"/>
<text xml:space="preserve" text-anchor="middle" x="3578.88" y="-311.45" font-family="Times,serif" font-size="14.00">&lt;() </text>
<text xml:space="preserve" text-anchor="middle" x="3578.88" y="-294.95" font-family="Times,serif" font-size="14.00">as </text>
<text xml:space="preserve" text-anchor="middle" x="3578.88" y="-278.45" font-family="Times,serif" font-size="14.00">std::process::Termination</text>
<text xml:space="preserve" text-anchor="middle" x="3578.88" y="-261.95" font-family="Times,serif" font-size="14.00">&gt;::report</text>
</g>
<g id="clust9" class="cluster">
<title>cluster_18</title>
<polygon fill="palegreen" stroke="palegreen" points="3885.38,-622 3885.38,-1279.5 4335.38,-1279.5 4335.38,-622 3885.38,-622"/>
<text xml:space="preserve" text-anchor="middle" x="4110.38" y="-1262.2" font-family="Times,serif" font-size="14.00">main</text>
</g>
<!-- node_0 -->
<g id="node1" class="node">
<title>node_0</title>
<polygon fill="lightyellow" stroke="lightyellow" points="130.75,-1172.75 0,-1172.75 0,-1115.25 130.75,-1115.25 130.75,-1172.75"/>
<text xml:space="preserve" text-anchor="start" x="8" y="-1155.45" font-family="Times,serif" font-size="14.00">ALLOCS</text>
<text xml:space="preserve" text-anchor="start" x="8" y="-1138.95" font-family="Times,serif" font-size="14.00">alloc2: Str (30 bytes)</text>
<text xml:space="preserve" text-anchor="start" x="8" y="-1122.45" font-family="Times,serif" font-size="14.00">alloc3: Str (30 bytes)</text>
</g>
<!-- node_1 -->
<g id="node2" class="node">
<title>node_1</title>
<polygon fill="lavender" stroke="lavender" points="522.25,-1197.5 148.5,-1197.5 148.5,-1090.5 522.25,-1090.5 522.25,-1197.5"/>
<text xml:space="preserve" text-anchor="start" x="156.5" y="-1180.2" font-family="Times,serif" font-size="14.00">TYPES</text>
<text xml:space="preserve" text-anchor="start" x="156.5" y="-1163.7" font-family="Times,serif" font-size="14.00">() (0 bytes)</text>
<text xml:space="preserve" text-anchor="start" x="156.5" y="-1147.2" font-family="Times,serif" font-size="14.00">std::panic::Location&lt;&#39;_&gt; (24 bytes)</text>
<text xml:space="preserve" text-anchor="start" x="156.5" y="-1130.7" font-family="Times,serif" font-size="14.00">std::process::ExitCode (1 bytes)</text>
<text xml:space="preserve" text-anchor="start" x="156.5" y="-1114.2" font-family="Times,serif" font-size="14.00">std::result::Result&lt;isize, !&gt; (8 bytes)</text>
<text xml:space="preserve" text-anchor="start" x="156.5" y="-1097.7" font-family="Times,serif" font-size="14.00">std::sys::pal::unix::process::process_common::ExitCode (1 bytes)</text>
</g>
<!-- X5eb86185c1cf8f06_0 -->
<g id="node3" class="node">
<title>X5eb86185c1cf8f06_0</title>
<polygon fill="none" stroke="red" points="1543.12,-883.5 1375.62,-883.5 1375.62,-826 1543.12,-826 1543.12,-883.5"/>
<text xml:space="preserve" text-anchor="middle" x="1459.38" y="-866.2" font-family="Times,serif" font-size="14.00">_ZN3std2rt19lang_start_in</text>
<text xml:space="preserve" text-anchor="middle" x="1459.38" y="-849.7" font-family="Times,serif" font-size="14.00">ternal17h035df9ff6960926a</text>
<text xml:space="preserve" text-anchor="middle" x="1459.38" y="-833.2" font-family="Times,serif" font-size="14.00">E</text>
</g>
<!-- X3c6542d96320ad67_0 -->
<g id="node4" class="node">
<title>X3c6542d96320ad67_0</title>
<polygon fill="none" stroke="red" points="4165.5,-79 4093.25,-79 4093.25,-38 4165.5,-38 4165.5,-79"/>
<text xml:space="preserve" text-anchor="middle" x="4129.38" y="-61.7" font-family="Times,serif" font-size="14.00">Intr: </text>
<text xml:space="preserve" text-anchor="middle" x="4129.38" y="-45.2" font-family="Times,serif" font-size="14.00">black_box</text>
</g>
<!-- X210a8e5fe9313c81_0 -->
<g id="node5" class="node">
<title>X210a8e5fe9313c81_0</title>
<polygon fill="none" stroke="red" points="4269.12,-437 4095.62,-437 4095.62,-396 4269.12,-396 4269.12,-437"/>
<text xml:space="preserve" text-anchor="middle" x="4182.38" y="-419.7" font-family="Times,serif" font-size="14.00">_ZN4core9panicking5panic1</text>
<text xml:space="preserve" text-anchor="middle" x="4182.38" y="-403.2" font-family="Times,serif" font-size="14.00">7h37379bf3ce79a0d7E</text>
</g>
<!-- X8b0ac2e54b9a91_0 -->
<g id="node6" class="node">
<title>X8b0ac2e54b9a91_0</title>
<polygon fill="none" stroke="red" points="4402.62,-1162 4346.12,-1162 4346.12,-1126 4402.62,-1126 4402.62,-1162"/>
<text xml:space="preserve" text-anchor="middle" x="4374.38" y="-1138.95" font-family="Times,serif" font-size="14.00">NoOp: </text>
</g>
<!-- node_3 -->
<g id="node7" class="node">
<title>node_3</title>
<polygon fill="#7ccd7c" stroke="#7ccd7c" points="1102.75,-1230.5 540,-1230.5 540,-1057.5 1102.75,-1057.5 1102.75,-1230.5"/>
<text xml:space="preserve" text-anchor="start" x="548" y="-1213.2" font-family="Times,serif" font-size="14.00">LOCALS</text>
<text xml:space="preserve" text-anchor="start" x="548" y="-1196.7" font-family="Times,serif" font-size="14.00">0 = Int(Isize)</text>
<text xml:space="preserve" text-anchor="start" x="548" y="-1180.2" font-family="Times,serif" font-size="14.00">1 = fn()</text>
<text xml:space="preserve" text-anchor="start" x="548" y="-1163.7" font-family="Times,serif" font-size="14.00">2 = Int(Isize)</text>
<text xml:space="preserve" text-anchor="start" x="548" y="-1147.2" font-family="Times,serif" font-size="14.00">3 = *const *const u8 (8 bytes, align 8)</text>
<text xml:space="preserve" text-anchor="start" x="548" y="-1130.7" font-family="Times,serif" font-size="14.00">4 = Uint(U8)</text>
<text xml:space="preserve" text-anchor="start" x="548" y="-1114.2" font-family="Times,serif" font-size="14.00">5 = std::result::Result&lt;isize, !&gt; (8 bytes, align 8)</text>
<text xml:space="preserve" text-anchor="start" x="548" y="-1097.7" font-family="Times,serif" font-size="14.00">6 = &amp;dyn std::ops::Fn() &#45;&gt; i32 + std::marker::Sync + std::panic::RefUnwindSafe (16 bytes, align 8)</text>
<text xml:space="preserve" text-anchor="start" x="548" y="-1081.2" font-family="Times,serif" font-size="14.00">7 = &amp;{closure@std::rt::lang_start&lt;()&gt;::{closure#0}} (8 bytes, align 8)</text>
<text xml:space="preserve" text-anchor="start" x="548" y="-1064.7" font-family="Times,serif" font-size="14.00">8 = {closure@std::rt::lang_start&lt;()&gt;::{closure#0}}</text>
</g>
<!-- Xf5f150ee2e41d262_0 -->
<g id="node8" class="node">
<title>Xf5f150ee2e41d262_0</title>
<polygon fill="none" stroke="black" points="1359.75,-1205.75 1121,-1205.75 1121,-1082.25 1359.75,-1082.25 1359.75,-1205.75"/>
<text xml:space="preserve" text-anchor="start" x="1129" y="-1188.45" font-family="Times,serif" font-size="14.00">Storage Live _5</text>
<text xml:space="preserve" text-anchor="start" x="1129" y="-1171.95" font-family="Times,serif" font-size="14.00">Storage Live _6</text>
<text xml:space="preserve" text-anchor="start" x="1129" y="-1155.45" font-family="Times,serif" font-size="14.00">Storage Live _8</text>
<text xml:space="preserve" text-anchor="start" x="1129" y="-1138.95" font-family="Times,serif" font-size="14.00">8 &lt;&#45; Closure (cp(1))</text>
<text xml:space="preserve" text-anchor="start" x="1129" y="-1122.45" font-family="Times,serif" font-size="14.00">7 &lt;&#45; &amp; 8</text>
<text xml:space="preserve" text-anchor="start" x="1129" y="-1105.95" font-family="Times,serif" font-size="14.00">6 &lt;&#45; Cast&#45;PointerCoercion(Unsize) cp(7)</text>
<text xml:space="preserve" text-anchor="start" x="1129" y="-1089.45" font-family="Times,serif" font-size="14.00">Call</text>
</g>
<!-- Xf5f150ee2e41d262_0&#45;&gt;X5eb86185c1cf8f06_0 -->
<g id="edge2" class="edge">
<title>Xf5f150ee2e41d262_0&#45;&gt;X5eb86185c1cf8f06_0</title>
<path fill="none" stroke="black" d="M1300.39,-1081.86C1323.65,-1056.9 1349.81,-1027.19 1371.38,-998.5 1396.8,-964.67 1421.72,-923.23 1438.52,-893.73"/>
<polygon fill="black" stroke="black" points="1441.5,-895.58 1443.36,-885.15 1435.4,-892.14 1441.5,-895.58"/>
<text xml:space="preserve" text-anchor="middle" x="1438.13" y="-1009.7" font-family="Times,serif" font-size="14.00">mv(6),mv(2),mv(3),mv(4)</text>
</g>
<!-- Xf5f150ee2e41d262_1 -->
<g id="node9" class="node">
<title>Xf5f150ee2e41d262_1</title>
<polygon fill="none" stroke="black" points="1334.25,-900 1146.5,-900 1146.5,-809.5 1334.25,-809.5 1334.25,-900"/>
<text xml:space="preserve" text-anchor="start" x="1154.5" y="-882.7" font-family="Times,serif" font-size="14.00">Storage Dead _6</text>
<text xml:space="preserve" text-anchor="start" x="1154.5" y="-866.2" font-family="Times,serif" font-size="14.00">0 &lt;&#45; Use(cp((5 as variant 0).0))</text>
<text xml:space="preserve" text-anchor="start" x="1154.5" y="-849.7" font-family="Times,serif" font-size="14.00">Storage Dead _8</text>
<text xml:space="preserve" text-anchor="start" x="1154.5" y="-833.2" font-family="Times,serif" font-size="14.00">Storage Dead _5</text>
<text xml:space="preserve" text-anchor="start" x="1154.5" y="-816.7" font-family="Times,serif" font-size="14.00">Return</text>
</g>
<!-- Xf5f150ee2e41d262_0&#45;&gt;Xf5f150ee2e41d262_1 -->
<g id="edge1" class="edge">
<title>Xf5f150ee2e41d262_0&#45;&gt;Xf5f150ee2e41d262_1</title>
<path fill="none" stroke="black" d="M1240.38,-1082.08C1240.38,-1031.62 1240.38,-960.48 1240.38,-911.5"/>
<polygon fill="black" stroke="black" points="1243.88,-911.68 1240.38,-901.68 1236.88,-911.68 1243.88,-911.68"/>
<text xml:space="preserve" text-anchor="middle" x="1243.75" y="-1009.7" font-family="Times,serif" font-size="14.00">5</text>
</g>
<!-- node_5 -->
<g id="node10" class="node">
<title>node_5</title>
<polygon fill="#7ccd7c" stroke="#7ccd7c" points="3150.62,-718 2698.12,-718 2698.12,-578 3150.62,-578 3150.62,-718"/>
<text xml:space="preserve" text-anchor="start" x="2706.12" y="-700.7" font-family="Times,serif" font-size="14.00">LOCALS</text>
<text xml:space="preserve" text-anchor="start" x="2706.12" y="-684.2" font-family="Times,serif" font-size="14.00">0 = Int(I32)</text>
<text xml:space="preserve" text-anchor="start" x="2706.12" y="-667.7" font-family="Times,serif" font-size="14.00">1 = &amp;{closure@std::rt::lang_start&lt;()&gt;::{closure#0}} (8 bytes, align 8)</text>
<text xml:space="preserve" text-anchor="start" x="2706.12" y="-651.2" font-family="Times,serif" font-size="14.00">2 = std::process::ExitCode (1 bytes, align 1)</text>
<text xml:space="preserve" text-anchor="start" x="2706.12" y="-634.7" font-family="Times,serif" font-size="14.00">3 = () (0 bytes, align 1)</text>
<text xml:space="preserve" text-anchor="start" x="2706.12" y="-618.2" font-family="Times,serif" font-size="14.00">4 = fn()</text>
<text xml:space="preserve" text-anchor="start" x="2706.12" y="-601.7" font-family="Times,serif" font-size="14.00">5 = &amp;std::sys::pal::unix::process::process_common::ExitCode (8 bytes, align 8)</text>
<text xml:space="preserve" text-anchor="start" x="2706.12" y="-585.2" font-family="Times,serif" font-size="14.00">6 = Uint(U8)</text>
</g>
<!-- X16286b19b0bca168_0 -->
<g id="node11" class="node">
<title>X16286b19b0bca168_0</title>
<polygon fill="none" stroke="black" points="3296.25,-693.25 3168.5,-693.25 3168.5,-602.75 3296.25,-602.75 3296.25,-693.25"/>
<text xml:space="preserve" text-anchor="start" x="3176.5" y="-675.95" font-family="Times,serif" font-size="14.00">Storage Live _2</text>
<text xml:space="preserve" text-anchor="start" x="3176.5" y="-659.45" font-family="Times,serif" font-size="14.00">Storage Live _3</text>
<text xml:space="preserve" text-anchor="start" x="3176.5" y="-642.95" font-family="Times,serif" font-size="14.00">Storage Live _4</text>
<text xml:space="preserve" text-anchor="start" x="3176.5" y="-626.45" font-family="Times,serif" font-size="14.00">4 &lt;&#45; Use(cp((*1).0))</text>
<text xml:space="preserve" text-anchor="start" x="3176.5" y="-609.95" font-family="Times,serif" font-size="14.00">Call</text>
</g>
<!-- X16286b19b0bca168_1 -->
<g id="node12" class="node">
<title>X16286b19b0bca168_1</title>
<polygon fill="none" stroke="black" points="3285.75,-437 3179,-437 3179,-396 3285.75,-396 3285.75,-437"/>
<text xml:space="preserve" text-anchor="start" x="3187" y="-419.7" font-family="Times,serif" font-size="14.00">Storage Dead _4</text>
<text xml:space="preserve" text-anchor="start" x="3187" y="-403.2" font-family="Times,serif" font-size="14.00">Call</text>
</g>
<!-- X16286b19b0bca168_0&#45;&gt;X16286b19b0bca168_1 -->
<g id="edge3" class="edge">
<title>X16286b19b0bca168_0&#45;&gt;X16286b19b0bca168_1</title>
<path fill="none" stroke="black" d="M3232.38,-602.48C3232.38,-557.23 3232.38,-488.32 3232.38,-448.63"/>
<polygon fill="black" stroke="black" points="3235.88,-448.82 3232.38,-438.82 3228.88,-448.82 3235.88,-448.82"/>
<text xml:space="preserve" text-anchor="middle" x="3235.75" y="-546.7" font-family="Times,serif" font-size="14.00">3</text>
</g>
<!-- X91a62c0c39a9383f_0 -->
<g id="node14" class="node">
<title>X91a62c0c39a9383f_0</title>
<polygon fill="none" stroke="black" points="3915.38,-434.5 3861.38,-434.5 3861.38,-398.5 3915.38,-398.5 3915.38,-434.5"/>
<text xml:space="preserve" text-anchor="start" x="3869.38" y="-411.45" font-family="Times,serif" font-size="14.00">Call</text>
</g>
<!-- X16286b19b0bca168_0&#45;&gt;X91a62c0c39a9383f_0 -->
<g id="edge5" class="edge">
<title>X16286b19b0bca168_0&#45;&gt;X91a62c0c39a9383f_0</title>
<path fill="none" stroke="black" d="M3296.47,-624.58C3431.61,-577.3 3742.2,-468.64 3850.38,-430.79"/>
<polygon fill="black" stroke="black" points="3851.38,-434.15 3859.66,-427.55 3849.07,-427.54 3851.38,-434.15"/>
<text xml:space="preserve" text-anchor="middle" x="3537.97" y="-546.7" font-family="Times,serif" font-size="14.00">mv(4)</text>
</g>
<!-- X16286b19b0bca168_2 -->
<g id="node13" class="node">
<title>X16286b19b0bca168_2</title>
<polygon fill="none" stroke="black" points="3296.38,-304.5 3142.38,-304.5 3142.38,-131.5 3296.38,-131.5 3296.38,-304.5"/>
<text xml:space="preserve" text-anchor="start" x="3150.38" y="-287.2" font-family="Times,serif" font-size="14.00">Storage Dead _3</text>
<text xml:space="preserve" text-anchor="start" x="3150.38" y="-270.7" font-family="Times,serif" font-size="14.00">Storage Live _5</text>
<text xml:space="preserve" text-anchor="start" x="3150.38" y="-254.2" font-family="Times,serif" font-size="14.00">5 &lt;&#45; &amp; 2.0</text>
<text xml:space="preserve" text-anchor="start" x="3150.38" y="-237.7" font-family="Times,serif" font-size="14.00">Storage Live _6</text>
<text xml:space="preserve" text-anchor="start" x="3150.38" y="-221.2" font-family="Times,serif" font-size="14.00">6 &lt;&#45; Use(cp(2.0.0))</text>
<text xml:space="preserve" text-anchor="start" x="3150.38" y="-204.7" font-family="Times,serif" font-size="14.00">0 &lt;&#45; Cast&#45;IntToInt mv(6)</text>
<text xml:space="preserve" text-anchor="start" x="3150.38" y="-188.2" font-family="Times,serif" font-size="14.00">Storage Dead _6</text>
<text xml:space="preserve" text-anchor="start" x="3150.38" y="-171.7" font-family="Times,serif" font-size="14.00">Storage Dead _5</text>
<text xml:space="preserve" text-anchor="start" x="3150.38" y="-155.2" font-family="Times,serif" font-size="14.00">Storage Dead _2</text>
<text xml:space="preserve" text-anchor="start" x="3150.38" y="-138.7" font-family="Times,serif" font-size="14.00">Return</text>
</g>
<!-- X16286b19b0bca168_1&#45;&gt;X16286b19b0bca168_2 -->
<g id="edge4" class="edge">
<title>X16286b19b0bca168_1&#45;&gt;X16286b19b0bca168_2</title>
<path fill="none" stroke="black" d="M3231.06,-395.58C3229.8,-376.54 3227.8,-346.38 3225.81,-316.33"/>
<polygon fill="black" stroke="black" points="3229.31,-316.1 3225.15,-306.35 3222.32,-316.56 3229.31,-316.1"/>
<text xml:space="preserve" text-anchor="middle" x="3231.91" y="-348.2" font-family="Times,serif" font-size="14.00">2</text>
</g>
<!-- X1a4588def512b4a8_0 -->
<g id="node15" class="node">
<title>X1a4588def512b4a8_0</title>
<polygon fill="none" stroke="black" points="3561.88,-238.5 3320.88,-238.5 3320.88,-197.5 3561.88,-197.5 3561.88,-238.5"/>
<text xml:space="preserve" text-anchor="start" x="3328.88" y="-221.2" font-family="Times,serif" font-size="14.00">0 &lt;&#45; Use(const 0_std::process::ExitCode)</text>
<text xml:space="preserve" text-anchor="start" x="3328.88" y="-204.7" font-family="Times,serif" font-size="14.00">Return</text>
</g>
<!-- X16286b19b0bca168_1&#45;&gt;X1a4588def512b4a8_0 -->
<g id="edge6" class="edge">
<title>X16286b19b0bca168_1&#45;&gt;X1a4588def512b4a8_0</title>
<path fill="none" stroke="black" d="M3253.57,-395.58C3291.04,-360.34 3369.08,-286.97 3411.82,-246.78"/>
<polygon fill="black" stroke="black" points="3414.14,-249.41 3419.03,-240.01 3409.34,-244.31 3414.14,-249.41"/>
<text xml:space="preserve" text-anchor="middle" x="3322.82" y="-348.2" font-family="Times,serif" font-size="14.00">mv(3)</text>
</g>
<!-- X91a62c0c39a9383f_1 -->
<g id="node17" class="node">
<title>X91a62c0c39a9383f_1</title>
<polygon fill="none" stroke="black" points="3995.38,-236 3941.38,-236 3941.38,-200 3995.38,-200 3995.38,-236"/>
<text xml:space="preserve" text-anchor="start" x="3949.38" y="-212.95" font-family="Times,serif" font-size="14.00">Call</text>
</g>
<!-- X91a62c0c39a9383f_0&#45;&gt;X91a62c0c39a9383f_1 -->
<g id="edge7" class="edge">
<title>X91a62c0c39a9383f_0&#45;&gt;X91a62c0c39a9383f_1</title>
<path fill="none" stroke="black" d="M3895.47,-398.06C3909.35,-363.98 3940.18,-288.26 3956.96,-247.05"/>
<polygon fill="black" stroke="black" points="3960.19,-248.38 3960.72,-237.8 3953.71,-245.74 3960.19,-248.38"/>
<text xml:space="preserve" text-anchor="middle" x="3919.91" y="-348.2" font-family="Times,serif" font-size="14.00">0</text>
</g>
<!-- X648e310af40884fc_0 -->
<g id="node19" class="node">
<title>X648e310af40884fc_0</title>
<polygon fill="none" stroke="black" points="4238.38,-236 4184.38,-236 4184.38,-200 4238.38,-200 4238.38,-236"/>
<text xml:space="preserve" text-anchor="start" x="4192.38" y="-212.95" font-family="Times,serif" font-size="14.00">Call</text>
</g>
<!-- X91a62c0c39a9383f_0&#45;&gt;X648e310af40884fc_0 -->
<g id="edge9" class="edge">
<title>X91a62c0c39a9383f_0&#45;&gt;X648e310af40884fc_0</title>
<path fill="none" stroke="black" d="M3902.25,-398.06C3908.38,-391.38 3916.08,-384.23 3924.38,-379.5 3990.14,-341.96 4023.3,-374 4089.38,-337 4131.23,-313.56 4169.19,-272.21 4191.28,-245.21"/>
<polygon fill="black" stroke="black" points="4193.95,-247.48 4197.47,-237.49 4188.48,-243.11 4193.95,-247.48"/>
<text xml:space="preserve" text-anchor="middle" x="4109.85" y="-348.2" font-family="Times,serif" font-size="14.00">mv(1),const ()</text>
</g>
<!-- node_7 -->
<g id="node16" class="node">
<title>node_7</title>
<polygon fill="#7ccd7c" stroke="#7ccd7c" points="4077.5,-453.5 3933.25,-453.5 3933.25,-379.5 4077.5,-379.5 4077.5,-453.5"/>
<text xml:space="preserve" text-anchor="start" x="3941.25" y="-436.2" font-family="Times,serif" font-size="14.00">LOCALS</text>
<text xml:space="preserve" text-anchor="start" x="3941.25" y="-419.7" font-family="Times,serif" font-size="14.00">0 = () (0 bytes, align 1)</text>
<text xml:space="preserve" text-anchor="start" x="3941.25" y="-403.2" font-family="Times,serif" font-size="14.00">1 = fn()</text>
<text xml:space="preserve" text-anchor="start" x="3941.25" y="-386.7" font-family="Times,serif" font-size="14.00">2 = () (0 bytes, align 1)</text>
</g>
<!-- X91a62c0c39a9383f_1&#45;&gt;X3c6542d96320ad67_0 -->
<g id="edge10" class="edge">
<title>X91a62c0c39a9383f_1&#45;&gt;X3c6542d96320ad67_0</title>
<path fill="none" stroke="black" d="M3986.22,-199.54C4014.07,-172.3 4068.11,-119.44 4101.24,-87.03"/>
<polygon fill="black" stroke="black" points="4103.4,-89.81 4108.1,-80.31 4098.5,-84.8 4103.4,-89.81"/>
<text xml:space="preserve" text-anchor="middle" x="4111.09" y="-100.2" font-family="Times,serif" font-size="14.00">const ()</text>
</g>
<!-- X91a62c0c39a9383f_2 -->
<g id="node18" class="node">
<title>X91a62c0c39a9383f_2</title>
<polygon fill="none" stroke="black" points="3995.38,-76.5 3941.38,-76.5 3941.38,-40.5 3995.38,-40.5 3995.38,-76.5"/>
<text xml:space="preserve" text-anchor="start" x="3949.38" y="-53.45" font-family="Times,serif" font-size="14.00">Return</text>
</g>
<!-- X91a62c0c39a9383f_1&#45;&gt;X91a62c0c39a9383f_2 -->
<g id="edge8" class="edge">
<title>X91a62c0c39a9383f_1&#45;&gt;X91a62c0c39a9383f_2</title>
<path fill="none" stroke="black" d="M3968.38,-199.54C3968.38,-172.56 3968.38,-120.44 3968.38,-87.95"/>
<polygon fill="black" stroke="black" points="3971.88,-88.07 3968.38,-78.07 3964.88,-88.07 3971.88,-88.07"/>
<text xml:space="preserve" text-anchor="middle" x="3971.75" y="-100.2" font-family="Times,serif" font-size="14.00">2</text>
</g>
<!-- X648e310af40884fc_0&#45;&gt;X648e310af40884fc_0 -->
<g id="edge14" class="edge">
<title>X648e310af40884fc_0&#45;&gt;X648e310af40884fc_0:1</title>
<path fill="none" stroke="black" d="M4228.93,-236.41C4242.52,-243.3 4256.38,-237.16 4256.38,-218 4256.38,-204.08 4249.06,-197.03 4239.85,-196.86"/>
<polygon fill="black" stroke="black" points="4239.25,-193.4 4230.4,-199.22 4240.95,-200.2 4239.25,-193.4"/>
</g>
<!-- X648e310af40884fc_1 -->
<g id="node25" class="node">
<title>X648e310af40884fc_1</title>
<polygon fill="none" stroke="black" points="4238.38,-76.5 4184.38,-76.5 4184.38,-40.5 4238.38,-40.5 4238.38,-76.5"/>
<text xml:space="preserve" text-anchor="start" x="4192.38" y="-53.45" font-family="Times,serif" font-size="14.00">Return</text>
</g>
<!-- X648e310af40884fc_0&#45;&gt;X648e310af40884fc_1 -->
<g id="edge13" class="edge">
<title>X648e310af40884fc_0&#45;&gt;X648e310af40884fc_1</title>
<path fill="none" stroke="black" d="M4211.38,-199.54C4211.38,-172.56 4211.38,-120.44 4211.38,-87.95"/>
<polygon fill="black" stroke="black" points="4214.88,-88.07 4211.38,-78.07 4207.88,-88.07 4214.88,-88.07"/>
<text xml:space="preserve" text-anchor="middle" x="4214.75" y="-100.2" font-family="Times,serif" font-size="14.00">0</text>
</g>
<!-- node_9 -->
<g id="node20" class="node">
<title>node_9</title>
<polygon fill="#7ccd7c" stroke="#7ccd7c" points="2045.38,-1181 1621.38,-1181 1621.38,-1107 2045.38,-1107 2045.38,-1181"/>
<text xml:space="preserve" text-anchor="start" x="1629.38" y="-1163.7" font-family="Times,serif" font-size="14.00">LOCALS</text>
<text xml:space="preserve" text-anchor="start" x="1629.38" y="-1147.2" font-family="Times,serif" font-size="14.00">0 = Int(I32)</text>
<text xml:space="preserve" text-anchor="start" x="1629.38" y="-1130.7" font-family="Times,serif" font-size="14.00">1 = *mut {closure@std::rt::lang_start&lt;()&gt;::{closure#0}} (8 bytes, align 8)</text>
<text xml:space="preserve" text-anchor="start" x="1629.38" y="-1114.2" font-family="Times,serif" font-size="14.00">2 = () (0 bytes, align 1)</text>
</g>
<!-- X67b1424f5f9e5bf2_0 -->
<g id="node21" class="node">
<title>X67b1424f5f9e5bf2_0</title>
<polygon fill="none" stroke="black" points="2117.38,-1162 2063.38,-1162 2063.38,-1126 2117.38,-1126 2117.38,-1162"/>
<text xml:space="preserve" text-anchor="start" x="2071.38" y="-1138.95" font-family="Times,serif" font-size="14.00">Call</text>
</g>
<!-- X67b1424f5f9e5bf2_1 -->
<g id="node22" class="node">
<title>X67b1424f5f9e5bf2_1</title>
<polygon fill="none" stroke="black" points="2117.38,-872.75 2063.38,-872.75 2063.38,-836.75 2117.38,-836.75 2117.38,-872.75"/>
<text xml:space="preserve" text-anchor="start" x="2071.38" y="-849.7" font-family="Times,serif" font-size="14.00">Return</text>
</g>
<!-- X67b1424f5f9e5bf2_0&#45;&gt;X67b1424f5f9e5bf2_1 -->
<g id="edge11" class="edge">
<title>X67b1424f5f9e5bf2_0&#45;&gt;X67b1424f5f9e5bf2_1</title>
<path fill="none" stroke="black" d="M2090.38,-1125.89C2090.38,-1078.31 2090.38,-944 2090.38,-884.61"/>
<polygon fill="black" stroke="black" points="2093.88,-884.65 2090.38,-874.65 2086.88,-884.65 2093.88,-884.65"/>
<text xml:space="preserve" text-anchor="middle" x="2093.75" y="-1009.7" font-family="Times,serif" font-size="14.00">0</text>
</g>
<!-- Xd7b8940de2214207_0 -->
<g id="node23" class="node">
<title>Xd7b8940de2214207_0</title>
<polygon fill="none" stroke="black" points="2227.62,-875.25 2141.12,-875.25 2141.12,-834.25 2227.62,-834.25 2227.62,-875.25"/>
<text xml:space="preserve" text-anchor="start" x="2149.12" y="-857.95" font-family="Times,serif" font-size="14.00">3 &lt;&#45; &amp;mut 1</text>
<text xml:space="preserve" text-anchor="start" x="2149.12" y="-841.45" font-family="Times,serif" font-size="14.00">Call</text>
</g>
<!-- X67b1424f5f9e5bf2_0&#45;&gt;Xd7b8940de2214207_0 -->
<g id="edge12" class="edge">
<title>X67b1424f5f9e5bf2_0&#45;&gt;Xd7b8940de2214207_0</title>
<path fill="none" stroke="black" d="M2095.97,-1125.89C2111.42,-1078.69 2154.79,-946.15 2174.46,-886.06"/>
<polygon fill="black" stroke="black" points="2177.7,-887.41 2177.48,-876.82 2171.04,-885.23 2177.7,-887.41"/>
<text xml:space="preserve" text-anchor="middle" x="2178.06" y="-1009.7" font-family="Times,serif" font-size="14.00">mv((*1)),mv(2)</text>
</g>
<!-- Xd7b8940de2214207_0&#45;&gt;X16286b19b0bca168_0 -->
<g id="edge19" class="edge">
<title>Xd7b8940de2214207_0&#45;&gt;X16286b19b0bca168_0</title>
<path fill="none" stroke="black" d="M2198.4,-833.88C2207.91,-822.15 2221.6,-808.32 2237.38,-801.5 2331.48,-760.84 3070.77,-818.57 3159.38,-767 3183.41,-753.01 3200.61,-727.65 3212.25,-704.02"/>
<polygon fill="black" stroke="black" points="3215.38,-705.6 3216.42,-695.05 3209.03,-702.64 3215.38,-705.6"/>
<text xml:space="preserve" text-anchor="middle" x="3172.3" y="-778.2" font-family="Times,serif" font-size="14.00">mv(3),mv(2)</text>
</g>
<!-- Xd7b8940de2214207_3 -->
<g id="node27" class="node">
<title>Xd7b8940de2214207_3</title>
<polygon fill="none" stroke="black" points="2205.5,-666 2151.25,-666 2151.25,-630 2205.5,-630 2205.5,-666"/>
<text xml:space="preserve" text-anchor="start" x="2159.25" y="-642.95" font-family="Times,serif" font-size="14.00">Drop 1</text>
</g>
<!-- Xd7b8940de2214207_0&#45;&gt;Xd7b8940de2214207_3 -->
<g id="edge15" class="edge">
<title>Xd7b8940de2214207_0&#45;&gt;Xd7b8940de2214207_3</title>
<path fill="none" stroke="black" d="M2183.71,-833.85C2183.31,-821.63 2182.8,-805.66 2182.38,-791.5 2181.18,-751.89 2179.92,-706.08 2179.14,-677.32"/>
<polygon fill="black" stroke="black" points="2182.64,-677.52 2178.87,-667.62 2175.65,-677.71 2182.64,-677.52"/>
<text xml:space="preserve" text-anchor="middle" x="2204.88" y="-778.2" font-family="Times,serif" font-size="14.00">Cleanup</text>
</g>
<!-- Xd7b8940de2214207_1 -->
<g id="node28" class="node">
<title>Xd7b8940de2214207_1</title>
<polygon fill="none" stroke="black" points="2278.5,-666 2224.25,-666 2224.25,-630 2278.5,-630 2278.5,-666"/>
<text xml:space="preserve" text-anchor="start" x="2232.25" y="-642.95" font-family="Times,serif" font-size="14.00">Drop 1</text>
</g>
<!-- Xd7b8940de2214207_0&#45;&gt;Xd7b8940de2214207_1 -->
<g id="edge16" class="edge">
<title>Xd7b8940de2214207_0&#45;&gt;Xd7b8940de2214207_1</title>
<path fill="none" stroke="black" d="M2201.56,-833.76C2210.64,-822.15 2221.15,-806.83 2227.38,-791.5 2242.64,-753.91 2248.19,-706.94 2250.22,-677.45"/>
<polygon fill="black" stroke="black" points="2253.69,-678.02 2250.78,-667.84 2246.7,-677.62 2253.69,-678.02"/>
<text xml:space="preserve" text-anchor="middle" x="2236.09" y="-778.2" font-family="Times,serif" font-size="14.00">0</text>
</g>
<!-- node_11 -->
<g id="node24" class="node">
<title>node_11</title>
<polygon fill="#7ccd7c" stroke="#7ccd7c" points="4418.5,-255 4274.25,-255 4274.25,-181 4418.5,-181 4418.5,-255"/>
<text xml:space="preserve" text-anchor="start" x="4282.25" y="-237.7" font-family="Times,serif" font-size="14.00">LOCALS</text>
<text xml:space="preserve" text-anchor="start" x="4282.25" y="-221.2" font-family="Times,serif" font-size="14.00">0 = () (0 bytes, align 1)</text>
<text xml:space="preserve" text-anchor="start" x="4282.25" y="-204.7" font-family="Times,serif" font-size="14.00">1 = fn()</text>
<text xml:space="preserve" text-anchor="start" x="4282.25" y="-188.2" font-family="Times,serif" font-size="14.00">2 = () (0 bytes, align 1)</text>
</g>
<!-- node_13 -->
<g id="node26" class="node">
<title>node_13</title>
<polygon fill="#7ccd7c" stroke="#7ccd7c" points="2674.62,-900 2246.12,-900 2246.12,-809.5 2674.62,-809.5 2674.62,-900"/>
<text xml:space="preserve" text-anchor="start" x="2254.12" y="-882.7" font-family="Times,serif" font-size="14.00">LOCALS</text>
<text xml:space="preserve" text-anchor="start" x="2254.12" y="-866.2" font-family="Times,serif" font-size="14.00">0 = Int(I32)</text>
<text xml:space="preserve" text-anchor="start" x="2254.12" y="-849.7" font-family="Times,serif" font-size="14.00">1 = {closure@std::rt::lang_start&lt;()&gt;::{closure#0}}</text>
<text xml:space="preserve" text-anchor="start" x="2254.12" y="-833.2" font-family="Times,serif" font-size="14.00">2 = () (0 bytes, align 1)</text>
<text xml:space="preserve" text-anchor="start" x="2254.12" y="-816.7" font-family="Times,serif" font-size="14.00">3 = &amp;mut {closure@std::rt::lang_start&lt;()&gt;::{closure#0}} (8 bytes, align 8)</text>
</g>
<!-- Xd7b8940de2214207_4 -->
<g id="node30" class="node">
<title>Xd7b8940de2214207_4</title>
<polygon fill="none" stroke="black" points="2207.5,-434.5 2147.25,-434.5 2147.25,-398.5 2207.5,-398.5 2207.5,-434.5"/>
<text xml:space="preserve" text-anchor="start" x="2155.25" y="-411.45" font-family="Times,serif" font-size="14.00">Resume</text>
</g>
<!-- Xd7b8940de2214207_3&#45;&gt;Xd7b8940de2214207_4 -->
<g id="edge18" class="edge">
<title>Xd7b8940de2214207_3&#45;&gt;Xd7b8940de2214207_4</title>
<path fill="none" stroke="black" d="M2178.3,-629.75C2178.13,-590.62 2177.71,-494.8 2177.5,-446.43"/>
<polygon fill="black" stroke="black" points="2181,-446.45 2177.46,-436.46 2174,-446.48 2181,-446.45"/>
</g>
<!-- Xd7b8940de2214207_2 -->
<g id="node29" class="node">
<title>Xd7b8940de2214207_2</title>
<polygon fill="none" stroke="black" points="2279.38,-434.5 2225.38,-434.5 2225.38,-398.5 2279.38,-398.5 2279.38,-434.5"/>
<text xml:space="preserve" text-anchor="start" x="2233.38" y="-411.45" font-family="Times,serif" font-size="14.00">Return</text>
</g>
<!-- Xd7b8940de2214207_1&#45;&gt;Xd7b8940de2214207_2 -->
<g id="edge17" class="edge">
<title>Xd7b8940de2214207_1&#45;&gt;Xd7b8940de2214207_2</title>
<path fill="none" stroke="black" d="M2251.45,-629.75C2251.62,-590.62 2252.04,-494.8 2252.25,-446.43"/>
<polygon fill="black" stroke="black" points="2255.75,-446.48 2252.29,-436.46 2248.75,-446.45 2255.75,-446.48"/>
</g>
<!-- node_15 -->
<g id="node31" class="node">
<title>node_15</title>
<polygon fill="#7ccd7c" stroke="#7ccd7c" points="4844.38,-1172.75 4420.38,-1172.75 4420.38,-1115.25 4844.38,-1115.25 4844.38,-1172.75"/>
<text xml:space="preserve" text-anchor="start" x="4428.38" y="-1155.45" font-family="Times,serif" font-size="14.00">LOCALS</text>
<text xml:space="preserve" text-anchor="start" x="4428.38" y="-1138.95" font-family="Times,serif" font-size="14.00">0 = () (0 bytes, align 1)</text>
<text xml:space="preserve" text-anchor="start" x="4428.38" y="-1122.45" font-family="Times,serif" font-size="14.00">1 = *mut {closure@std::rt::lang_start&lt;()&gt;::{closure#0}} (8 bytes, align 8)</text>
</g>
<!-- Xaa45fe081b88238f_0 -->
<g id="node32" class="node">
<title>Xaa45fe081b88238f_0</title>
<polygon fill="none" stroke="black" points="4916.38,-1162 4862.38,-1162 4862.38,-1126 4916.38,-1126 4916.38,-1162"/>
<text xml:space="preserve" text-anchor="start" x="4870.38" y="-1138.95" font-family="Times,serif" font-size="14.00">Return</text>
</g>
<!-- node_17 -->
<g id="node33" class="node">
<title>node_17</title>
<polygon fill="#7ccd7c" stroke="#7ccd7c" points="3837.12,-246.75 3579.62,-246.75 3579.62,-189.25 3837.12,-189.25 3837.12,-246.75"/>
<text xml:space="preserve" text-anchor="start" x="3587.62" y="-229.45" font-family="Times,serif" font-size="14.00">LOCALS</text>
<text xml:space="preserve" text-anchor="start" x="3587.62" y="-212.95" font-family="Times,serif" font-size="14.00">0 = std::process::ExitCode (1 bytes, align 1)</text>
<text xml:space="preserve" text-anchor="start" x="3587.62" y="-196.45" font-family="Times,serif" font-size="14.00">1 = () (0 bytes, align 1)</text>
</g>
<!-- node_19 -->
<g id="node34" class="node">
<title>node_19</title>
<polygon fill="#7ccd7c" stroke="#7ccd7c" points="4037.5,-1247 3893.25,-1247 3893.25,-1041 4037.5,-1041 4037.5,-1247"/>
<text xml:space="preserve" text-anchor="start" x="3901.25" y="-1229.7" font-family="Times,serif" font-size="14.00">LOCALS</text>
<text xml:space="preserve" text-anchor="start" x="3901.25" y="-1213.2" font-family="Times,serif" font-size="14.00">0 = () (0 bytes, align 1)</text>
<text xml:space="preserve" text-anchor="start" x="3901.25" y="-1196.7" font-family="Times,serif" font-size="14.00">1 = Bool</text>
<text xml:space="preserve" text-anchor="start" x="3901.25" y="-1180.2" font-family="Times,serif" font-size="14.00">2 = Float(F32)</text>
<text xml:space="preserve" text-anchor="start" x="3901.25" y="-1163.7" font-family="Times,serif" font-size="14.00">3 = Float(F32)</text>
<text xml:space="preserve" text-anchor="start" x="3901.25" y="-1147.2" font-family="Times,serif" font-size="14.00">4 = Float(F32)</text>
<text xml:space="preserve" text-anchor="start" x="3901.25" y="-1130.7" font-family="Times,serif" font-size="14.00">5 = ()</text>
<text xml:space="preserve" text-anchor="start" x="3901.25" y="-1114.2" font-family="Times,serif" font-size="14.00">6 = Bool</text>
<text xml:space="preserve" text-anchor="start" x="3901.25" y="-1097.7" font-family="Times,serif" font-size="14.00">7 = Float(F64)</text>
<text xml:space="preserve" text-anchor="start" x="3901.25" y="-1081.2" font-family="Times,serif" font-size="14.00">8 = Float(F64)</text>
<text xml:space="preserve" text-anchor="start" x="3901.25" y="-1064.7" font-family="Times,serif" font-size="14.00">9 = Float(F64)</text>
<text xml:space="preserve" text-anchor="start" x="3901.25" y="-1048.2" font-family="Times,serif" font-size="14.00">10 = ()</text>
</g>
<!-- X91b9066c7fbaad50_0 -->
<g id="node35" class="node">
<title>X91b9066c7fbaad50_0</title>
<polygon fill="none" stroke="black" points="4327.62,-1189.25 4055.12,-1189.25 4055.12,-1098.75 4327.62,-1098.75 4327.62,-1189.25"/>
<text xml:space="preserve" text-anchor="start" x="4063.12" y="-1171.95" font-family="Times,serif" font-size="14.00">3 &lt;&#45; Use(const 1080033280_Float(F32))</text>
<text xml:space="preserve" text-anchor="start" x="4063.12" y="-1155.45" font-family="Times,serif" font-size="14.00">4 &lt;&#45; Use(const 1067030938_Float(F32))</text>
<text xml:space="preserve" text-anchor="start" x="4063.12" y="-1138.95" font-family="Times,serif" font-size="14.00">2 &lt;&#45; Add(mv(3), mv(4))</text>
<text xml:space="preserve" text-anchor="start" x="4063.12" y="-1122.45" font-family="Times,serif" font-size="14.00">1 &lt;&#45; Eq(mv(2), const 1083598438_Float(F32))</text>
<text xml:space="preserve" text-anchor="start" x="4063.12" y="-1105.95" font-family="Times,serif" font-size="14.00">SwitchInt mv(1)</text>
</g>
<!-- X91b9066c7fbaad50_2 -->
<g id="node36" class="node">
<title>X91b9066c7fbaad50_2</title>
<polygon fill="none" stroke="black" points="4313.38,-872.75 4259.38,-872.75 4259.38,-836.75 4313.38,-836.75 4313.38,-872.75"/>
<text xml:space="preserve" text-anchor="start" x="4267.38" y="-849.7" font-family="Times,serif" font-size="14.00">Call</text>
</g>
<!-- X91b9066c7fbaad50_0&#45;&gt;X91b9066c7fbaad50_2 -->
<g id="edge20" class="edge">
<title>X91b9066c7fbaad50_0&#45;&gt;X91b9066c7fbaad50_2</title>
<path fill="none" stroke="black" d="M4211.5,-1098.37C4223.76,-1070.12 4239.17,-1032.61 4250.38,-998.5 4263.2,-959.44 4274.12,-913.12 4280.47,-884.07"/>
<polygon fill="black" stroke="black" points="4283.82,-885.1 4282.5,-874.59 4276.98,-883.63 4283.82,-885.1"/>
<text xml:space="preserve" text-anchor="middle" x="4249.7" y="-1009.7" font-family="Times,serif" font-size="14.00">0</text>
</g>
<!-- X91b9066c7fbaad50_1 -->
<g id="node37" class="node">
<title>X91b9066c7fbaad50_1</title>
<polygon fill="none" stroke="black" points="4241,-900 3907.75,-900 3907.75,-809.5 4241,-809.5 4241,-900"/>
<text xml:space="preserve" text-anchor="start" x="3915.75" y="-882.7" font-family="Times,serif" font-size="14.00">8 &lt;&#45; Use(const 4615063718147915776_Float(F64))</text>
<text xml:space="preserve" text-anchor="start" x="3915.75" y="-866.2" font-family="Times,serif" font-size="14.00">9 &lt;&#45; Use(const 4608083138725491507_Float(F64))</text>
<text xml:space="preserve" text-anchor="start" x="3915.75" y="-849.7" font-family="Times,serif" font-size="14.00">7 &lt;&#45; Add(mv(8), mv(9))</text>
<text xml:space="preserve" text-anchor="start" x="3915.75" y="-833.2" font-family="Times,serif" font-size="14.00">6 &lt;&#45; Eq(mv(7), const 4616977747989548237_Float(F64))</text>
<text xml:space="preserve" text-anchor="start" x="3915.75" y="-816.7" font-family="Times,serif" font-size="14.00">SwitchInt mv(6)</text>
</g>
<!-- X91b9066c7fbaad50_0&#45;&gt;X91b9066c7fbaad50_1 -->
<g id="edge21" class="edge">
<title>X91b9066c7fbaad50_0&#45;&gt;X91b9066c7fbaad50_1</title>
<path fill="none" stroke="black" d="M4173.22,-1098.43C4152.64,-1047.91 4119.07,-965.49 4096.86,-910.94"/>
<polygon fill="black" stroke="black" points="4100.16,-909.76 4093.14,-901.82 4093.67,-912.41 4100.16,-909.76"/>
<text xml:space="preserve" text-anchor="middle" x="4153.76" y="-1009.7" font-family="Times,serif" font-size="14.00">other</text>
</g>
<!-- X91b9066c7fbaad50_2&#45;&gt;X210a8e5fe9313c81_0 -->
<g id="edge24" class="edge">
<title>X91b9066c7fbaad50_2&#45;&gt;X210a8e5fe9313c81_0</title>
<path fill="none" stroke="black" d="M4282.23,-836.38C4266.47,-770.24 4210.05,-533.58 4189.73,-448.36"/>
<polygon fill="black" stroke="black" points="4193.19,-447.76 4187.46,-438.85 4186.38,-449.38 4193.19,-447.76"/>
<text xml:space="preserve" text-anchor="middle" x="4302.48" y="-642.95" font-family="Times,serif" font-size="14.00">const [alloc0]</text>
</g>
<!-- X91b9066c7fbaad50_4 -->
<g id="node38" class="node">
<title>X91b9066c7fbaad50_4</title>
<polygon fill="none" stroke="black" points="4101.38,-666 4047.38,-666 4047.38,-630 4101.38,-630 4101.38,-666"/>
<text xml:space="preserve" text-anchor="start" x="4055.38" y="-642.95" font-family="Times,serif" font-size="14.00">Call</text>
</g>
<!-- X91b9066c7fbaad50_1&#45;&gt;X91b9066c7fbaad50_4 -->
<g id="edge22" class="edge">
<title>X91b9066c7fbaad50_1&#45;&gt;X91b9066c7fbaad50_4</title>
<path fill="none" stroke="black" d="M4074.38,-809.07C4074.38,-769.04 4074.38,-711.53 4074.38,-677.45"/>
<polygon fill="black" stroke="black" points="4077.88,-677.54 4074.38,-667.54 4070.88,-677.54 4077.88,-677.54"/>
<text xml:space="preserve" text-anchor="middle" x="4077.75" y="-778.2" font-family="Times,serif" font-size="14.00">0</text>
</g>
<!-- X91b9066c7fbaad50_3 -->
<g id="node39" class="node">
<title>X91b9066c7fbaad50_3</title>
<polygon fill="none" stroke="black" points="4173.38,-666 4119.38,-666 4119.38,-630 4173.38,-630 4173.38,-666"/>
<text xml:space="preserve" text-anchor="start" x="4127.38" y="-642.95" font-family="Times,serif" font-size="14.00">Return</text>
</g>
<!-- X91b9066c7fbaad50_1&#45;&gt;X91b9066c7fbaad50_3 -->
<g id="edge23" class="edge">
<title>X91b9066c7fbaad50_1&#45;&gt;X91b9066c7fbaad50_3</title>
<path fill="none" stroke="black" d="M4093.9,-809.05C4099.49,-795.63 4105.42,-780.81 4110.38,-767 4121.26,-736.68 4131.78,-701.26 4138.61,-677.2"/>
<polygon fill="black" stroke="black" points="4141.91,-678.4 4141.24,-667.83 4135.17,-676.51 4141.91,-678.4"/>
<text xml:space="preserve" text-anchor="middle" x="4120.73" y="-778.2" font-family="Times,serif" font-size="14.00">other</text>
</g>
<!-- X91b9066c7fbaad50_4&#45;&gt;X210a8e5fe9313c81_0 -->
<g id="edge25" class="edge">
<title>X91b9066c7fbaad50_4&#45;&gt;X210a8e5fe9313c81_0</title>
<path fill="none" stroke="black" d="M4082.49,-629.75C4100.78,-590.89 4145.39,-496.09 4168.3,-447.42"/>
<polygon fill="black" stroke="black" points="4171.36,-449.12 4172.46,-438.58 4165.03,-446.14 4171.36,-449.12"/>
<text xml:space="preserve" text-anchor="middle" x="4159.03" y="-546.7" font-family="Times,serif" font-size="14.00">const [alloc1]</text>
</g>
</g>
</svg>
