<?xml version="1.0" encoding="UTF-8" standalone="no"?>
<!DOCTYPE svg PUBLIC "-//W3C//DTD SVG 1.1//EN"
 "http://www.w3.org/Graphics/SVG/1.1/DTD/svg11.dtd">
<!-- Generated by graphviz version 14.1.1 (20251213.1925)
 -->
<!-- Pages: 1 -->
<svg width="3591pt" height="1279pt"
 viewBox="0.00 0.00 3591.00 1279.00" xmlns="http://www.w3.org/2000/svg" xmlns:xlink="http://www.w3.org/1999/xlink">
<g id="graph0" class="graph" transform="scale(1 1) rotate(0) translate(4 1275)">
<polygon fill="white" stroke="none" points="-4,4 -4,-1275 3586.88,-1275 3586.88,4 -4,4"/>
<text xml:space="preserve" text-anchor="middle" x="1791.44" y="-7.2" font-family="Times,serif" font-size="14.00">option_construction</text>
<g id="clust1" class="cluster">
<title>cluster_1</title>
<polygon fill="palegreen" stroke="palegreen" points="2541.88,-828.75 2541.88,-1205.25 3054.88,-1205.25 3054.88,-828.75 2541.88,-828.75"/>
<text xml:space="preserve" text-anchor="middle" x="2798.38" y="-1187.95" font-family="Times,serif" font-size="14.00">main</text>
</g>
<g id="clust2" class="cluster">
<title>cluster_3</title>
<polygon fill="lightgray" stroke="lightgray" points="1460.88,-801.5 1460.88,-1246.5 2295.88,-1246.5 2295.88,-801.5 1460.88,-801.5"/>
<text xml:space="preserve" text-anchor="middle" x="1878.38" y="-1229.2" font-family="Times,serif" font-size="14.00">std::rt::lang_start::&lt;()&gt;</text>
</g>
<g id="clust3" class="cluster">
<title>cluster_5</title>
<polygon fill="lightgray" stroke="lightgray" points="1460.88,-123.5 1460.88,-767 2074.88,-767 2074.88,-123.5 1460.88,-123.5"/>
<text xml:space="preserve" text-anchor="middle" x="1767.88" y="-749.7" font-family="Times,serif" font-size="14.00">std::rt::lang_start::&lt;()&gt;</text>
<text xml:space="preserve" text-anchor="middle" x="1767.88" y="-733.2" font-family="Times,serif" font-size="14.00">::{closure#0}</text>
</g>
<g id="clust4" class="cluster">
<title>cluster_7</title>
<polygon fill="lightgray" stroke="lightgray" points="2623.88,-32.5 2623.88,-535.5 2855.88,-535.5 2855.88,-32.5 2623.88,-32.5"/>
<text xml:space="preserve" text-anchor="middle" x="2739.88" y="-518.2" font-family="Times,serif" font-size="14.00">std::sys::backtrace::__ru</text>
<text xml:space="preserve" text-anchor="middle" x="2739.88" y="-501.7" font-family="Times,serif" font-size="14.00">st_begin_short_backtrace:</text>
<text xml:space="preserve" text-anchor="middle" x="2739.88" y="-485.2" font-family="Times,serif" font-size="14.00">:&lt;fn(), </text>
<text xml:space="preserve" text-anchor="middle" x="2739.88" y="-468.7" font-family="Times,serif" font-size="14.00">()&gt;</text>
</g>
<g id="clust5" class="cluster">
<title>cluster_9</title>
<polygon fill="lightgray" stroke="lightgray" points="383.88,-828.75 383.88,-1263 895.88,-1263 895.88,-828.75 383.88,-828.75"/>
<text xml:space="preserve" text-anchor="middle" x="639.88" y="-1245.7" font-family="Times,serif" font-size="14.00">&lt;{closure@std::rt::lang_s</text>
<text xml:space="preserve" text-anchor="middle" x="639.88" y="-1229.2" font-family="Times,serif" font-size="14.00">tart&lt;()&gt;::{closure#0}} </text>
<text xml:space="preserve" text-anchor="middle" x="639.88" y="-1212.7" font-family="Times,serif" font-size="14.00">as </text>
<text xml:space="preserve" text-anchor="middle" x="639.88" y="-1196.2" font-family="Times,serif" font-size="14.00">std::ops::FnOnce&lt;()&gt;&gt;::ca</text>
<text xml:space="preserve" text-anchor="middle" x="639.88" y="-1179.7" font-family="Times,serif" font-size="14.00">ll_once</text>
</g>
<g id="clust6" class="cluster">
<title>cluster_11</title>
<polygon fill="lightgray" stroke="lightgray" points="2946.88,-32.5 2946.88,-337 3196.88,-337 3196.88,-32.5 2946.88,-32.5"/>
<text xml:space="preserve" text-anchor="middle" x="3071.88" y="-319.7" font-family="Times,serif" font-size="14.00">&lt;fn() </text>
<text xml:space="preserve" text-anchor="middle" x="3071.88" y="-303.2" font-family="Times,serif" font-size="14.00">as </text>
<text xml:space="preserve" text-anchor="middle" x="3071.88" y="-286.7" font-family="Times,serif" font-size="14.00">std::ops::FnOnce&lt;()&gt;&gt;::ca</text>
<text xml:space="preserve" text-anchor="middle" x="3071.88" y="-270.2" font-family="Times,serif" font-size="14.00">ll_once</text>
</g>
<g id="clust7" class="cluster">
<title>cluster_13</title>
<polygon fill="lightgray" stroke="lightgray" points="903.88,-390.5 903.88,-998.5 1452.88,-998.5 1452.88,-390.5 903.88,-390.5"/>
<text xml:space="preserve" text-anchor="middle" x="1178.38" y="-981.2" font-family="Times,serif" font-size="14.00">&lt;{closure@std::rt::lang_s</text>
<text xml:space="preserve" text-anchor="middle" x="1178.38" y="-964.7" font-family="Times,serif" font-size="14.00">tart&lt;()&gt;::{closure#0}} </text>
<text xml:space="preserve" text-anchor="middle" x="1178.38" y="-948.2" font-family="Times,serif" font-size="14.00">as </text>
<text xml:space="preserve" text-anchor="middle" x="1178.38" y="-931.7" font-family="Times,serif" font-size="14.00">std::ops::FnOnce&lt;()&gt;&gt;::ca</text>
<text xml:space="preserve" text-anchor="middle" x="1178.38" y="-915.2" font-family="Times,serif" font-size="14.00">ll_once</text>
</g>
<g id="clust8" class="cluster">
<title>cluster_15</title>
<polygon fill="lightgray" stroke="lightgray" points="3062.88,-1090.75 3062.88,-1221.75 3574.88,-1221.75 3574.88,-1090.75 3062.88,-1090.75"/>
<text xml:space="preserve" text-anchor="middle" x="3318.88" y="-1204.45" font-family="Times,serif" font-size="14.00">std::ptr::drop_in_place::</text>
<text xml:space="preserve" text-anchor="middle" x="3318.88" y="-1187.95" font-family="Times,serif" font-size="14.00">&lt;{closure@std::rt::lang_s</text>
<text xml:space="preserve" text-anchor="middle" x="3318.88" y="-1171.45" font-family="Times,serif" font-size="14.00">tart&lt;()&gt;::{closure#0}}&gt;</text>
</g>
<g id="clust9" class="cluster">
<title>cluster_17</title>
<polygon fill="lightgray" stroke="lightgray" points="3062.88,-619.5 3062.88,-949 3500.88,-949 3500.88,-619.5 3062.88,-619.5"/>
<text xml:space="preserve" text-anchor="middle" x="3281.88" y="-931.7" font-family="Times,serif" font-size="14.00">std::option::Option::&lt;u32</text>
<text xml:space="preserve" text-anchor="middle" x="3281.88" y="-915.2" font-family="Times,serif" font-size="14.00">&gt;::unwrap</text>
</g>
<g id="clust10" class="cluster">
<title>cluster_19</title>
<polygon fill="lightgray" stroke="lightgray" points="2082.88,-181.25 2082.88,-328.75 2615.88,-328.75 2615.88,-181.25 2082.88,-181.25"/>
<text xml:space="preserve" text-anchor="middle" x="2349.38" y="-311.45" font-family="Times,serif" font-size="14.00">&lt;() </text>
<text xml:space="preserve" text-anchor="middle" x="2349.38" y="-294.95" font-family="Times,serif" font-size="14.00">as </text>
<text xml:space="preserve" text-anchor="middle" x="2349.38" y="-278.45" font-family="Times,serif" font-size="14.00">std::process::Termination</text>
<text xml:space="preserve" text-anchor="middle" x="2349.38" y="-261.95" font-family="Times,serif" font-size="14.00">&gt;::report</text>
</g>
<!-- node_0 -->
<g id="node1" class="node">
<title>node_0</title>
<polygon fill="lavender" stroke="lavender" points="373.75,-1189.25 0,-1189.25 0,-1065.75 373.75,-1065.75 373.75,-1189.25"/>
<text xml:space="preserve" text-anchor="start" x="8" y="-1171.95" font-family="Times,serif" font-size="14.00">TYPES</text>
<text xml:space="preserve" text-anchor="start" x="8" y="-1155.45" font-family="Times,serif" font-size="14.00">() (0 bytes)</text>
<text xml:space="preserve" text-anchor="start" x="8" y="-1138.95" font-family="Times,serif" font-size="14.00">std::option::Option&lt;u32&gt; (8 bytes)</text>
<text xml:space="preserve" text-anchor="start" x="8" y="-1122.45" font-family="Times,serif" font-size="14.00">std::panic::Location&lt;&#39;_&gt; (24 bytes)</text>
<text xml:space="preserve" text-anchor="start" x="8" y="-1105.95" font-family="Times,serif" font-size="14.00">std::process::ExitCode (1 bytes)</text>
<text xml:space="preserve" text-anchor="start" x="8" y="-1089.45" font-family="Times,serif" font-size="14.00">std::result::Result&lt;isize, !&gt; (8 bytes)</text>
<text xml:space="preserve" text-anchor="start" x="8" y="-1072.95" font-family="Times,serif" font-size="14.00">std::sys::pal::unix::process::process_common::ExitCode (1 bytes)</text>
</g>
<!-- X3c6542d96320ad67_0 -->
<g id="node2" class="node">
<title>X3c6542d96320ad67_0</title>
<polygon fill="none" stroke="red" points="2936,-79 2863.75,-79 2863.75,-38 2936,-38 2936,-79"/>
<text xml:space="preserve" text-anchor="middle" x="2899.88" y="-61.7" font-family="Times,serif" font-size="14.00">Intr: </text>
<text xml:space="preserve" text-anchor="middle" x="2899.88" y="-45.2" font-family="Times,serif" font-size="14.00">black_box</text>
</g>
<!-- X5eb86185c1cf8f06_0 -->
<g id="node3" class="node">
<title>X5eb86185c1cf8f06_0</title>
<polygon fill="none" stroke="red" points="2471.62,-883.5 2304.12,-883.5 2304.12,-826 2471.62,-826 2471.62,-883.5"/>
<text xml:space="preserve" text-anchor="middle" x="2387.88" y="-866.2" font-family="Times,serif" font-size="14.00">_ZN3std2rt19lang_start_in</text>
<text xml:space="preserve" text-anchor="middle" x="2387.88" y="-849.7" font-family="Times,serif" font-size="14.00">ternal17h035df9ff6960926a</text>
<text xml:space="preserve" text-anchor="middle" x="2387.88" y="-833.2" font-family="Times,serif" font-size="14.00">E</text>
</g>
<!-- X8b0ac2e54b9a91_0 -->
<g id="node4" class="node">
<title>X8b0ac2e54b9a91_0</title>
<polygon fill="none" stroke="red" points="2447.12,-1145.5 2390.62,-1145.5 2390.62,-1109.5 2447.12,-1109.5 2447.12,-1145.5"/>
<text xml:space="preserve" text-anchor="middle" x="2418.88" y="-1122.45" font-family="Times,serif" font-size="14.00">NoOp: </text>
</g>
<!-- Xe8a26c2980749453_0 -->
<g id="node5" class="node">
<title>Xe8a26c2980749453_0</title>
<polygon fill="none" stroke="red" points="3186.5,-437 3009.25,-437 3009.25,-396 3186.5,-396 3186.5,-437"/>
<text xml:space="preserve" text-anchor="middle" x="3097.88" y="-419.7" font-family="Times,serif" font-size="14.00">_ZN4core6option13unwrap_f</text>
<text xml:space="preserve" text-anchor="middle" x="3097.88" y="-403.2" font-family="Times,serif" font-size="14.00">ailed17h70bb8fac4436ed8fE</text>
</g>
<!-- node_2 -->
<g id="node6" class="node">
<title>node_2</title>
<polygon fill="#7ccd7c" stroke="#7ccd7c" points="2824.25,-1172.75 2549.5,-1172.75 2549.5,-1082.25 2824.25,-1082.25 2824.25,-1172.75"/>
<text xml:space="preserve" text-anchor="start" x="2557.5" y="-1155.45" font-family="Times,serif" font-size="14.00">LOCALS</text>
<text xml:space="preserve" text-anchor="start" x="2557.5" y="-1138.95" font-family="Times,serif" font-size="14.00">0 = () (0 bytes, align 1)</text>
<text xml:space="preserve" text-anchor="start" x="2557.5" y="-1122.45" font-family="Times,serif" font-size="14.00">1 = std::option::Option&lt;u32&gt; (8 bytes, align 4)</text>
<text xml:space="preserve" text-anchor="start" x="2557.5" y="-1105.95" font-family="Times,serif" font-size="14.00">2 = std::option::Option&lt;u32&gt; (8 bytes, align 4)</text>
<text xml:space="preserve" text-anchor="start" x="2557.5" y="-1089.45" font-family="Times,serif" font-size="14.00">3 = Uint(U32)</text>
</g>
<!-- Xdae329d9da0edf2c_0 -->
<g id="node7" class="node">
<title>Xdae329d9da0edf2c_0</title>
<polygon fill="none" stroke="black" points="3047,-1156.25 2842.75,-1156.25 2842.75,-1098.75 3047,-1098.75 3047,-1156.25"/>
<text xml:space="preserve" text-anchor="start" x="2850.75" y="-1138.95" font-family="Times,serif" font-size="14.00">1 &lt;&#45; Adt{1} (const 42_Uint(U32))</text>
<text xml:space="preserve" text-anchor="start" x="2850.75" y="-1122.45" font-family="Times,serif" font-size="14.00">2 &lt;&#45; Adt{0} ()</text>
<text xml:space="preserve" text-anchor="start" x="2850.75" y="-1105.95" font-family="Times,serif" font-size="14.00">Call</text>
</g>
<!-- Xdae329d9da0edf2c_1 -->
<g id="node8" class="node">
<title>Xdae329d9da0edf2c_1</title>
<polygon fill="none" stroke="black" points="2971.88,-872.75 2917.88,-872.75 2917.88,-836.75 2971.88,-836.75 2971.88,-872.75"/>
<text xml:space="preserve" text-anchor="start" x="2925.88" y="-849.7" font-family="Times,serif" font-size="14.00">Return</text>
</g>
<!-- Xdae329d9da0edf2c_0&#45;&gt;Xdae329d9da0edf2c_1 -->
<g id="edge1" class="edge">
<title>Xdae329d9da0edf2c_0&#45;&gt;Xdae329d9da0edf2c_1</title>
<path fill="none" stroke="black" d="M2944.88,-1098.29C2944.88,-1046.51 2944.88,-936.81 2944.88,-884.57"/>
<polygon fill="black" stroke="black" points="2948.38,-884.69 2944.88,-874.69 2941.38,-884.69 2948.38,-884.69"/>
<text xml:space="preserve" text-anchor="middle" x="2948.25" y="-1009.7" font-family="Times,serif" font-size="14.00">3</text>
</g>
<!-- X5b398d6023fbe452_0 -->
<g id="node9" class="node">
<title>X5b398d6023fbe452_0</title>
<polygon fill="none" stroke="black" points="3200.88,-875.25 3070.88,-875.25 3070.88,-834.25 3200.88,-834.25 3200.88,-875.25"/>
<text xml:space="preserve" text-anchor="start" x="3078.88" y="-857.95" font-family="Times,serif" font-size="14.00">2 &lt;&#45; Discriminant(1)</text>
<text xml:space="preserve" text-anchor="start" x="3078.88" y="-841.45" font-family="Times,serif" font-size="14.00">SwitchInt mv(2)</text>
</g>
<!-- Xdae329d9da0edf2c_0&#45;&gt;X5b398d6023fbe452_0 -->
<g id="edge2" class="edge">
<title>Xdae329d9da0edf2c_0&#45;&gt;X5b398d6023fbe452_0</title>
<path fill="none" stroke="black" d="M2973.18,-1098.63C2997.6,-1073.72 3032.92,-1035.54 3058.88,-998.5 3084.63,-961.73 3108.17,-915.4 3122.27,-885.67"/>
<polygon fill="black" stroke="black" points="3125.31,-887.43 3126.38,-876.89 3118.97,-884.46 3125.31,-887.43"/>
<text xml:space="preserve" text-anchor="middle" x="3064.99" y="-1009.7" font-family="Times,serif" font-size="14.00">cp(1)</text>
</g>
<!-- X5b398d6023fbe452_2 -->
<g id="node37" class="node">
<title>X5b398d6023fbe452_2</title>
<polygon fill="none" stroke="black" points="3124.88,-666 3070.88,-666 3070.88,-630 3124.88,-630 3124.88,-666"/>
<text xml:space="preserve" text-anchor="start" x="3078.88" y="-642.95" font-family="Times,serif" font-size="14.00">Call</text>
</g>
<!-- X5b398d6023fbe452_0&#45;&gt;X5b398d6023fbe452_2 -->
<g id="edge22" class="edge">
<title>X5b398d6023fbe452_0&#45;&gt;X5b398d6023fbe452_2</title>
<path fill="none" stroke="black" d="M3132.23,-834.12C3125.47,-797.69 3110.96,-719.52 3103.14,-677.35"/>
<polygon fill="black" stroke="black" points="3106.62,-676.92 3101.35,-667.72 3099.73,-678.19 3106.62,-676.92"/>
<text xml:space="preserve" text-anchor="middle" x="3126.96" y="-778.2" font-family="Times,serif" font-size="14.00">0</text>
</g>
<!-- X5b398d6023fbe452_3 -->
<g id="node38" class="node">
<title>X5b398d6023fbe452_3</title>
<polygon fill="none" stroke="black" points="3336.38,-668.5 3143.38,-668.5 3143.38,-627.5 3336.38,-627.5 3336.38,-668.5"/>
<text xml:space="preserve" text-anchor="start" x="3151.38" y="-651.2" font-family="Times,serif" font-size="14.00">0 &lt;&#45; Use(mv((1 as variant 1).0))</text>
<text xml:space="preserve" text-anchor="start" x="3151.38" y="-634.7" font-family="Times,serif" font-size="14.00">Return</text>
</g>
<!-- X5b398d6023fbe452_0&#45;&gt;X5b398d6023fbe452_3 -->
<g id="edge23" class="edge">
<title>X5b398d6023fbe452_0&#45;&gt;X5b398d6023fbe452_3</title>
<path fill="none" stroke="black" d="M3145.85,-834.12C3164.13,-798.13 3203.1,-721.4 3224.69,-678.9"/>
<polygon fill="black" stroke="black" points="3227.69,-680.72 3229.09,-670.22 3221.45,-677.55 3227.69,-680.72"/>
<text xml:space="preserve" text-anchor="middle" x="3178.88" y="-778.2" font-family="Times,serif" font-size="14.00">1</text>
</g>
<!-- X5b398d6023fbe452_1 -->
<g id="node39" class="node">
<title>X5b398d6023fbe452_1</title>
<polygon fill="none" stroke="black" points="3439,-666 3354.75,-666 3354.75,-630 3439,-630 3439,-666"/>
<text xml:space="preserve" text-anchor="start" x="3362.75" y="-642.95" font-family="Times,serif" font-size="14.00">Unreachable</text>
</g>
<!-- X5b398d6023fbe452_0&#45;&gt;X5b398d6023fbe452_1 -->
<g id="edge24" class="edge">
<title>X5b398d6023fbe452_0&#45;&gt;X5b398d6023fbe452_1</title>
<path fill="none" stroke="black" d="M3159.16,-833.94C3173.09,-822.98 3191.59,-809.92 3209.88,-801.5 3266.52,-775.41 3298.41,-807.44 3345.88,-767 3372.81,-744.05 3385.94,-704.27 3392.04,-677.31"/>
<polygon fill="black" stroke="black" points="3395.42,-678.26 3394,-667.76 3388.56,-676.85 3395.42,-678.26"/>
<text xml:space="preserve" text-anchor="middle" x="3348.64" y="-778.2" font-family="Times,serif" font-size="14.00">other</text>
</g>
<!-- node_4 -->
<g id="node10" class="node">
<title>node_4</title>
<polygon fill="#7ccd7c" stroke="#7ccd7c" points="2031.25,-1214 1468.5,-1214 1468.5,-1041 2031.25,-1041 2031.25,-1214"/>
<text xml:space="preserve" text-anchor="start" x="1476.5" y="-1196.7" font-family="Times,serif" font-size="14.00">LOCALS</text>
<text xml:space="preserve" text-anchor="start" x="1476.5" y="-1180.2" font-family="Times,serif" font-size="14.00">0 = Int(Isize)</text>
<text xml:space="preserve" text-anchor="start" x="1476.5" y="-1163.7" font-family="Times,serif" font-size="14.00">1 = fn()</text>
<text xml:space="preserve" text-anchor="start" x="1476.5" y="-1147.2" font-family="Times,serif" font-size="14.00">2 = Int(Isize)</text>
<text xml:space="preserve" text-anchor="start" x="1476.5" y="-1130.7" font-family="Times,serif" font-size="14.00">3 = *const *const u8 (8 bytes, align 8)</text>
<text xml:space="preserve" text-anchor="start" x="1476.5" y="-1114.2" font-family="Times,serif" font-size="14.00">4 = Uint(U8)</text>
<text xml:space="preserve" text-anchor="start" x="1476.5" y="-1097.7" font-family="Times,serif" font-size="14.00">5 = std::result::Result&lt;isize, !&gt; (8 bytes, align 8)</text>
<text xml:space="preserve" text-anchor="start" x="1476.5" y="-1081.2" font-family="Times,serif" font-size="14.00">6 = &amp;dyn std::ops::Fn() &#45;&gt; i32 + std::marker::Sync + std::panic::RefUnwindSafe (16 bytes, align 8)</text>
<text xml:space="preserve" text-anchor="start" x="1476.5" y="-1064.7" font-family="Times,serif" font-size="14.00">7 = &amp;{closure@std::rt::lang_start&lt;()&gt;::{closure#0}} (8 bytes, align 8)</text>
<text xml:space="preserve" text-anchor="start" x="1476.5" y="-1048.2" font-family="Times,serif" font-size="14.00">8 = {closure@std::rt::lang_start&lt;()&gt;::{closure#0}}</text>
</g>
<!-- X1544b14f663670c6_0 -->
<g id="node11" class="node">
<title>X1544b14f663670c6_0</title>
<polygon fill="none" stroke="black" points="2288.25,-1189.25 2049.5,-1189.25 2049.5,-1065.75 2288.25,-1065.75 2288.25,-1189.25"/>
<text xml:space="preserve" text-anchor="start" x="2057.5" y="-1171.95" font-family="Times,serif" font-size="14.00">Storage Live _5</text>
<text xml:space="preserve" text-anchor="start" x="2057.5" y="-1155.45" font-family="Times,serif" font-size="14.00">Storage Live _6</text>
<text xml:space="preserve" text-anchor="start" x="2057.5" y="-1138.95" font-family="Times,serif" font-size="14.00">Storage Live _8</text>
<text xml:space="preserve" text-anchor="start" x="2057.5" y="-1122.45" font-family="Times,serif" font-size="14.00">8 &lt;&#45; Closure (cp(1))</text>
<text xml:space="preserve" text-anchor="start" x="2057.5" y="-1105.95" font-family="Times,serif" font-size="14.00">7 &lt;&#45; &amp; 8</text>
<text xml:space="preserve" text-anchor="start" x="2057.5" y="-1089.45" font-family="Times,serif" font-size="14.00">6 &lt;&#45; Cast&#45;PointerCoercion(Unsize) cp(7)</text>
<text xml:space="preserve" text-anchor="start" x="2057.5" y="-1072.95" font-family="Times,serif" font-size="14.00">Call</text>
</g>
<!-- X1544b14f663670c6_0&#45;&gt;X5eb86185c1cf8f06_0 -->
<g id="edge4" class="edge">
<title>X1544b14f663670c6_0&#45;&gt;X5eb86185c1cf8f06_0</title>
<path fill="none" stroke="black" d="M2237.77,-1065.31C2258.82,-1045.05 2281.3,-1021.72 2299.88,-998.5 2326.39,-965.35 2351.25,-923.65 2367.74,-893.9"/>
<polygon fill="black" stroke="black" points="2370.75,-895.69 2372.48,-885.24 2364.61,-892.33 2370.75,-895.69"/>
<text xml:space="preserve" text-anchor="middle" x="2363.55" y="-1009.7" font-family="Times,serif" font-size="14.00">mv(6),mv(2),mv(3),mv(4)</text>
</g>
<!-- X1544b14f663670c6_1 -->
<g id="node12" class="node">
<title>X1544b14f663670c6_1</title>
<polygon fill="none" stroke="black" points="2262.75,-900 2075,-900 2075,-809.5 2262.75,-809.5 2262.75,-900"/>
<text xml:space="preserve" text-anchor="start" x="2083" y="-882.7" font-family="Times,serif" font-size="14.00">Storage Dead _6</text>
<text xml:space="preserve" text-anchor="start" x="2083" y="-866.2" font-family="Times,serif" font-size="14.00">0 &lt;&#45; Use(cp((5 as variant 0).0))</text>
<text xml:space="preserve" text-anchor="start" x="2083" y="-849.7" font-family="Times,serif" font-size="14.00">Storage Dead _8</text>
<text xml:space="preserve" text-anchor="start" x="2083" y="-833.2" font-family="Times,serif" font-size="14.00">Storage Dead _5</text>
<text xml:space="preserve" text-anchor="start" x="2083" y="-816.7" font-family="Times,serif" font-size="14.00">Return</text>
</g>
<!-- X1544b14f663670c6_0&#45;&gt;X1544b14f663670c6_1 -->
<g id="edge3" class="edge">
<title>X1544b14f663670c6_0&#45;&gt;X1544b14f663670c6_1</title>
<path fill="none" stroke="black" d="M2168.88,-1065.4C2168.88,-1019.2 2168.88,-956.29 2168.88,-911.46"/>
<polygon fill="black" stroke="black" points="2172.38,-911.7 2168.88,-901.7 2165.38,-911.7 2172.38,-911.7"/>
<text xml:space="preserve" text-anchor="middle" x="2172.25" y="-1009.7" font-family="Times,serif" font-size="14.00">5</text>
</g>
<!-- node_6 -->
<g id="node13" class="node">
<title>node_6</title>
<polygon fill="#7ccd7c" stroke="#7ccd7c" points="1921.12,-718 1468.62,-718 1468.62,-578 1921.12,-578 1921.12,-718"/>
<text xml:space="preserve" text-anchor="start" x="1476.62" y="-700.7" font-family="Times,serif" font-size="14.00">LOCALS</text>
<text xml:space="preserve" text-anchor="start" x="1476.62" y="-684.2" font-family="Times,serif" font-size="14.00">0 = Int(I32)</text>
<text xml:space="preserve" text-anchor="start" x="1476.62" y="-667.7" font-family="Times,serif" font-size="14.00">1 = &amp;{closure@std::rt::lang_start&lt;()&gt;::{closure#0}} (8 bytes, align 8)</text>
<text xml:space="preserve" text-anchor="start" x="1476.62" y="-651.2" font-family="Times,serif" font-size="14.00">2 = std::process::ExitCode (1 bytes, align 1)</text>
<text xml:space="preserve" text-anchor="start" x="1476.62" y="-634.7" font-family="Times,serif" font-size="14.00">3 = () (0 bytes, align 1)</text>
<text xml:space="preserve" text-anchor="start" x="1476.62" y="-618.2" font-family="Times,serif" font-size="14.00">4 = fn()</text>
<text xml:space="preserve" text-anchor="start" x="1476.62" y="-601.7" font-family="Times,serif" font-size="14.00">5 = &amp;std::sys::pal::unix::process::process_common::ExitCode (8 bytes, align 8)</text>
<text xml:space="preserve" text-anchor="start" x="1476.62" y="-585.2" font-family="Times,serif" font-size="14.00">6 = Uint(U8)</text>
</g>
<!-- X65af0e3007b124b_0 -->
<g id="node14" class="node">
<title>X65af0e3007b124b_0</title>
<polygon fill="none" stroke="black" points="2066.75,-693.25 1939,-693.25 1939,-602.75 2066.75,-602.75 2066.75,-693.25"/>
<text xml:space="preserve" text-anchor="start" x="1947" y="-675.95" font-family="Times,serif" font-size="14.00">Storage Live _2</text>
<text xml:space="preserve" text-anchor="start" x="1947" y="-659.45" font-family="Times,serif" font-size="14.00">Storage Live _3</text>
<text xml:space="preserve" text-anchor="start" x="1947" y="-642.95" font-family="Times,serif" font-size="14.00">Storage Live _4</text>
<text xml:space="preserve" text-anchor="start" x="1947" y="-626.45" font-family="Times,serif" font-size="14.00">4 &lt;&#45; Use(cp((*1).0))</text>
<text xml:space="preserve" text-anchor="start" x="1947" y="-609.95" font-family="Times,serif" font-size="14.00">Call</text>
</g>
<!-- X65af0e3007b124b_1 -->
<g id="node15" class="node">
<title>X65af0e3007b124b_1</title>
<polygon fill="none" stroke="black" points="2056.25,-437 1949.5,-437 1949.5,-396 2056.25,-396 2056.25,-437"/>
<text xml:space="preserve" text-anchor="start" x="1957.5" y="-419.7" font-family="Times,serif" font-size="14.00">Storage Dead _4</text>
<text xml:space="preserve" text-anchor="start" x="1957.5" y="-403.2" font-family="Times,serif" font-size="14.00">Call</text>
</g>
<!-- X65af0e3007b124b_0&#45;&gt;X65af0e3007b124b_1 -->
<g id="edge5" class="edge">
<title>X65af0e3007b124b_0&#45;&gt;X65af0e3007b124b_1</title>
<path fill="none" stroke="black" d="M2002.88,-602.48C2002.88,-557.23 2002.88,-488.32 2002.88,-448.63"/>
<polygon fill="black" stroke="black" points="2006.38,-448.82 2002.88,-438.82 1999.38,-448.82 2006.38,-448.82"/>
<text xml:space="preserve" text-anchor="middle" x="2006.25" y="-546.7" font-family="Times,serif" font-size="14.00">3</text>
</g>
<!-- X6bd2407ef9d04c6e_0 -->
<g id="node17" class="node">
<title>X6bd2407ef9d04c6e_0</title>
<polygon fill="none" stroke="black" points="2685.88,-434.5 2631.88,-434.5 2631.88,-398.5 2685.88,-398.5 2685.88,-434.5"/>
<text xml:space="preserve" text-anchor="start" x="2639.88" y="-411.45" font-family="Times,serif" font-size="14.00">Call</text>
</g>
<!-- X65af0e3007b124b_0&#45;&gt;X6bd2407ef9d04c6e_0 -->
<g id="edge7" class="edge">
<title>X65af0e3007b124b_0&#45;&gt;X6bd2407ef9d04c6e_0</title>
<path fill="none" stroke="black" d="M2066.97,-624.58C2202.11,-577.3 2512.7,-468.64 2620.88,-430.79"/>
<polygon fill="black" stroke="black" points="2621.88,-434.15 2630.16,-427.55 2619.57,-427.54 2621.88,-434.15"/>
<text xml:space="preserve" text-anchor="middle" x="2308.47" y="-546.7" font-family="Times,serif" font-size="14.00">mv(4)</text>
</g>
<!-- X65af0e3007b124b_2 -->
<g id="node16" class="node">
<title>X65af0e3007b124b_2</title>
<polygon fill="none" stroke="black" points="2066.88,-304.5 1912.88,-304.5 1912.88,-131.5 2066.88,-131.5 2066.88,-304.5"/>
<text xml:space="preserve" text-anchor="start" x="1920.88" y="-287.2" font-family="Times,serif" font-size="14.00">Storage Dead _3</text>
<text xml:space="preserve" text-anchor="start" x="1920.88" y="-270.7" font-family="Times,serif" font-size="14.00">Storage Live _5</text>
<text xml:space="preserve" text-anchor="start" x="1920.88" y="-254.2" font-family="Times,serif" font-size="14.00">5 &lt;&#45; &amp; 2.0</text>
<text xml:space="preserve" text-anchor="start" x="1920.88" y="-237.7" font-family="Times,serif" font-size="14.00">Storage Live _6</text>
<text xml:space="preserve" text-anchor="start" x="1920.88" y="-221.2" font-family="Times,serif" font-size="14.00">6 &lt;&#45; Use(cp(2.0.0))</text>
<text xml:space="preserve" text-anchor="start" x="1920.88" y="-204.7" font-family="Times,serif" font-size="14.00">0 &lt;&#45; Cast&#45;IntToInt mv(6)</text>
<text xml:space="preserve" text-anchor="start" x="1920.88" y="-188.2" font-family="Times,serif" font-size="14.00">Storage Dead _6</text>
<text xml:space="preserve" text-anchor="start" x="1920.88" y="-171.7" font-family="Times,serif" font-size="14.00">Storage Dead _5</text>
<text xml:space="preserve" text-anchor="start" x="1920.88" y="-155.2" font-family="Times,serif" font-size="14.00">Storage Dead _2</text>
<text xml:space="preserve" text-anchor="start" x="1920.88" y="-138.7" font-family="Times,serif" font-size="14.00">Return</text>
</g>
<!-- X65af0e3007b124b_1&#45;&gt;X65af0e3007b124b_2 -->
<g id="edge6" class="edge">
<title>X65af0e3007b124b_1&#45;&gt;X65af0e3007b124b_2</title>
<path fill="none" stroke="black" d="M2001.56,-395.58C2000.3,-376.54 1998.3,-346.38 1996.31,-316.33"/>
<polygon fill="black" stroke="black" points="1999.81,-316.1 1995.65,-306.35 1992.82,-316.56 1999.81,-316.1"/>
<text xml:space="preserve" text-anchor="middle" x="2002.41" y="-348.2" font-family="Times,serif" font-size="14.00">2</text>
</g>
<!-- X93c3fae39955d8b3_0 -->
<g id="node18" class="node">
<title>X93c3fae39955d8b3_0</title>
<polygon fill="none" stroke="black" points="2332.38,-238.5 2091.38,-238.5 2091.38,-197.5 2332.38,-197.5 2332.38,-238.5"/>
<text xml:space="preserve" text-anchor="start" x="2099.38" y="-221.2" font-family="Times,serif" font-size="14.00">0 &lt;&#45; Use(const 0_std::process::ExitCode)</text>
<text xml:space="preserve" text-anchor="start" x="2099.38" y="-204.7" font-family="Times,serif" font-size="14.00">Return</text>
</g>
<!-- X65af0e3007b124b_1&#45;&gt;X93c3fae39955d8b3_0 -->
<g id="edge8" class="edge">
<title>X65af0e3007b124b_1&#45;&gt;X93c3fae39955d8b3_0</title>
<path fill="none" stroke="black" d="M2024.07,-395.58C2061.54,-360.34 2139.58,-286.97 2182.32,-246.78"/>
<polygon fill="black" stroke="black" points="2184.64,-249.41 2189.53,-240.01 2179.84,-244.31 2184.64,-249.41"/>
<text xml:space="preserve" text-anchor="middle" x="2093.32" y="-348.2" font-family="Times,serif" font-size="14.00">mv(3)</text>
</g>
<!-- X6bd2407ef9d04c6e_1 -->
<g id="node20" class="node">
<title>X6bd2407ef9d04c6e_1</title>
<polygon fill="none" stroke="black" points="2765.88,-236 2711.88,-236 2711.88,-200 2765.88,-200 2765.88,-236"/>
<text xml:space="preserve" text-anchor="start" x="2719.88" y="-212.95" font-family="Times,serif" font-size="14.00">Call</text>
</g>
<!-- X6bd2407ef9d04c6e_0&#45;&gt;X6bd2407ef9d04c6e_1 -->
<g id="edge9" class="edge">
<title>X6bd2407ef9d04c6e_0&#45;&gt;X6bd2407ef9d04c6e_1</title>
<path fill="none" stroke="black" d="M2665.97,-398.06C2679.85,-363.98 2710.68,-288.26 2727.46,-247.05"/>
<polygon fill="black" stroke="black" points="2730.69,-248.38 2731.22,-237.8 2724.21,-245.74 2730.69,-248.38"/>
<text xml:space="preserve" text-anchor="middle" x="2690.41" y="-348.2" font-family="Times,serif" font-size="14.00">0</text>
</g>
<!-- Xad0908701f4adff7_0 -->
<g id="node22" class="node">
<title>Xad0908701f4adff7_0</title>
<polygon fill="none" stroke="black" points="3008.88,-236 2954.88,-236 2954.88,-200 3008.88,-200 3008.88,-236"/>
<text xml:space="preserve" text-anchor="start" x="2962.88" y="-212.95" font-family="Times,serif" font-size="14.00">Call</text>
</g>
<!-- X6bd2407ef9d04c6e_0&#45;&gt;Xad0908701f4adff7_0 -->
<g id="edge11" class="edge">
<title>X6bd2407ef9d04c6e_0&#45;&gt;Xad0908701f4adff7_0</title>
<path fill="none" stroke="black" d="M2672.75,-398.06C2678.88,-391.38 2686.58,-384.23 2694.88,-379.5 2760.64,-341.96 2793.8,-374 2859.88,-337 2901.73,-313.56 2939.69,-272.21 2961.78,-245.21"/>
<polygon fill="black" stroke="black" points="2964.45,-247.48 2967.97,-237.49 2958.98,-243.11 2964.45,-247.48"/>
<text xml:space="preserve" text-anchor="middle" x="2880.35" y="-348.2" font-family="Times,serif" font-size="14.00">mv(1),const ()</text>
</g>
<!-- node_8 -->
<g id="node19" class="node">
<title>node_8</title>
<polygon fill="#7ccd7c" stroke="#7ccd7c" points="2848,-453.5 2703.75,-453.5 2703.75,-379.5 2848,-379.5 2848,-453.5"/>
<text xml:space="preserve" text-anchor="start" x="2711.75" y="-436.2" font-family="Times,serif" font-size="14.00">LOCALS</text>
<text xml:space="preserve" text-anchor="start" x="2711.75" y="-419.7" font-family="Times,serif" font-size="14.00">0 = () (0 bytes, align 1)</text>
<text xml:space="preserve" text-anchor="start" x="2711.75" y="-403.2" font-family="Times,serif" font-size="14.00">1 = fn()</text>
<text xml:space="preserve" text-anchor="start" x="2711.75" y="-386.7" font-family="Times,serif" font-size="14.00">2 = () (0 bytes, align 1)</text>
</g>
<!-- X6bd2407ef9d04c6e_1&#45;&gt;X3c6542d96320ad67_0 -->
<g id="edge12" class="edge">
<title>X6bd2407ef9d04c6e_1&#45;&gt;X3c6542d96320ad67_0</title>
<path fill="none" stroke="black" d="M2756.72,-199.54C2784.57,-172.3 2838.61,-119.44 2871.74,-87.03"/>
<polygon fill="black" stroke="black" points="2873.9,-89.81 2878.6,-80.31 2869,-84.8 2873.9,-89.81"/>
<text xml:space="preserve" text-anchor="middle" x="2881.59" y="-100.2" font-family="Times,serif" font-size="14.00">const ()</text>
</g>
<!-- X6bd2407ef9d04c6e_2 -->
<g id="node21" class="node">
<title>X6bd2407ef9d04c6e_2</title>
<polygon fill="none" stroke="black" points="2765.88,-76.5 2711.88,-76.5 2711.88,-40.5 2765.88,-40.5 2765.88,-76.5"/>
<text xml:space="preserve" text-anchor="start" x="2719.88" y="-53.45" font-family="Times,serif" font-size="14.00">Return</text>
</g>
<!-- X6bd2407ef9d04c6e_1&#45;&gt;X6bd2407ef9d04c6e_2 -->
<g id="edge10" class="edge">
<title>X6bd2407ef9d04c6e_1&#45;&gt;X6bd2407ef9d04c6e_2</title>
<path fill="none" stroke="black" d="M2738.88,-199.54C2738.88,-172.56 2738.88,-120.44 2738.88,-87.95"/>
<polygon fill="black" stroke="black" points="2742.38,-88.07 2738.88,-78.07 2735.38,-88.07 2742.38,-88.07"/>
<text xml:space="preserve" text-anchor="middle" x="2742.25" y="-100.2" font-family="Times,serif" font-size="14.00">2</text>
</g>
<!-- Xad0908701f4adff7_0&#45;&gt;Xad0908701f4adff7_0 -->
<g id="edge16" class="edge">
<title>Xad0908701f4adff7_0&#45;&gt;Xad0908701f4adff7_0:1</title>
<path fill="none" stroke="black" d="M2999.43,-236.41C3013.02,-243.3 3026.88,-237.16 3026.88,-218 3026.88,-204.08 3019.56,-197.03 3010.35,-196.86"/>
<polygon fill="black" stroke="black" points="3009.75,-193.4 3000.9,-199.22 3011.45,-200.2 3009.75,-193.4"/>
</g>
<!-- Xad0908701f4adff7_1 -->
<g id="node28" class="node">
<title>Xad0908701f4adff7_1</title>
<polygon fill="none" stroke="black" points="3008.88,-76.5 2954.88,-76.5 2954.88,-40.5 3008.88,-40.5 3008.88,-76.5"/>
<text xml:space="preserve" text-anchor="start" x="2962.88" y="-53.45" font-family="Times,serif" font-size="14.00">Return</text>
</g>
<!-- Xad0908701f4adff7_0&#45;&gt;Xad0908701f4adff7_1 -->
<g id="edge15" class="edge">
<title>Xad0908701f4adff7_0&#45;&gt;Xad0908701f4adff7_1</title>
<path fill="none" stroke="black" d="M2981.88,-199.54C2981.88,-172.56 2981.88,-120.44 2981.88,-87.95"/>
<polygon fill="black" stroke="black" points="2985.38,-88.07 2981.88,-78.07 2978.38,-88.07 2985.38,-88.07"/>
<text xml:space="preserve" text-anchor="middle" x="2985.25" y="-100.2" font-family="Times,serif" font-size="14.00">0</text>
</g>
<!-- node_10 -->
<g id="node23" class="node">
<title>node_10</title>
<polygon fill="#7ccd7c" stroke="#7ccd7c" points="815.88,-1164.5 391.88,-1164.5 391.88,-1090.5 815.88,-1090.5 815.88,-1164.5"/>
<text xml:space="preserve" text-anchor="start" x="399.88" y="-1147.2" font-family="Times,serif" font-size="14.00">LOCALS</text>
<text xml:space="preserve" text-anchor="start" x="399.88" y="-1130.7" font-family="Times,serif" font-size="14.00">0 = Int(I32)</text>
<text xml:space="preserve" text-anchor="start" x="399.88" y="-1114.2" font-family="Times,serif" font-size="14.00">1 = *mut {closure@std::rt::lang_start&lt;()&gt;::{closure#0}} (8 bytes, align 8)</text>
<text xml:space="preserve" text-anchor="start" x="399.88" y="-1097.7" font-family="Times,serif" font-size="14.00">2 = () (0 bytes, align 1)</text>
</g>
<!-- X338088a36ccccec9_0 -->
<g id="node24" class="node">
<title>X338088a36ccccec9_0</title>
<polygon fill="none" stroke="black" points="887.88,-1145.5 833.88,-1145.5 833.88,-1109.5 887.88,-1109.5 887.88,-1145.5"/>
<text xml:space="preserve" text-anchor="start" x="841.88" y="-1122.45" font-family="Times,serif" font-size="14.00">Call</text>
</g>
<!-- X338088a36ccccec9_1 -->
<g id="node25" class="node">
<title>X338088a36ccccec9_1</title>
<polygon fill="none" stroke="black" points="887.88,-872.75 833.88,-872.75 833.88,-836.75 887.88,-836.75 887.88,-872.75"/>
<text xml:space="preserve" text-anchor="start" x="841.88" y="-849.7" font-family="Times,serif" font-size="14.00">Return</text>
</g>
<!-- X338088a36ccccec9_0&#45;&gt;X338088a36ccccec9_1 -->
<g id="edge13" class="edge">
<title>X338088a36ccccec9_0&#45;&gt;X338088a36ccccec9_1</title>
<path fill="none" stroke="black" d="M860.88,-1109.15C860.88,-1063.59 860.88,-940.21 860.88,-884.15"/>
<polygon fill="black" stroke="black" points="864.38,-884.47 860.88,-874.47 857.38,-884.47 864.38,-884.47"/>
<text xml:space="preserve" text-anchor="middle" x="864.25" y="-1009.7" font-family="Times,serif" font-size="14.00">0</text>
</g>
<!-- Xc68d17dcc5a09212_0 -->
<g id="node26" class="node">
<title>Xc68d17dcc5a09212_0</title>
<polygon fill="none" stroke="black" points="998.12,-875.25 911.62,-875.25 911.62,-834.25 998.12,-834.25 998.12,-875.25"/>
<text xml:space="preserve" text-anchor="start" x="919.62" y="-857.95" font-family="Times,serif" font-size="14.00">3 &lt;&#45; &amp;mut 1</text>
<text xml:space="preserve" text-anchor="start" x="919.62" y="-841.45" font-family="Times,serif" font-size="14.00">Call</text>
</g>
<!-- X338088a36ccccec9_0&#45;&gt;Xc68d17dcc5a09212_0 -->
<g id="edge14" class="edge">
<title>X338088a36ccccec9_0&#45;&gt;Xc68d17dcc5a09212_0</title>
<path fill="none" stroke="black" d="M866.9,-1109.15C882.52,-1064.16 924.48,-943.3 944.27,-886.3"/>
<polygon fill="black" stroke="black" points="947.56,-887.5 947.53,-876.9 940.95,-885.2 947.56,-887.5"/>
<text xml:space="preserve" text-anchor="middle" x="945.75" y="-1009.7" font-family="Times,serif" font-size="14.00">mv((*1)),mv(2)</text>
</g>
<!-- Xc68d17dcc5a09212_0&#45;&gt;X65af0e3007b124b_0 -->
<g id="edge21" class="edge">
<title>Xc68d17dcc5a09212_0&#45;&gt;X65af0e3007b124b_0</title>
<path fill="none" stroke="black" d="M968.9,-833.88C978.41,-822.15 992.1,-808.32 1007.88,-801.5 1101.98,-760.84 1841.27,-818.57 1929.88,-767 1953.91,-753.01 1971.11,-727.65 1982.75,-704.02"/>
<polygon fill="black" stroke="black" points="1985.88,-705.6 1986.92,-695.05 1979.53,-702.64 1985.88,-705.6"/>
<text xml:space="preserve" text-anchor="middle" x="1942.8" y="-778.2" font-family="Times,serif" font-size="14.00">mv(3),mv(2)</text>
</g>
<!-- Xc68d17dcc5a09212_3 -->
<g id="node30" class="node">
<title>Xc68d17dcc5a09212_3</title>
<polygon fill="none" stroke="black" points="976,-666 921.75,-666 921.75,-630 976,-630 976,-666"/>
<text xml:space="preserve" text-anchor="start" x="929.75" y="-642.95" font-family="Times,serif" font-size="14.00">Drop 1</text>
</g>
<!-- Xc68d17dcc5a09212_0&#45;&gt;Xc68d17dcc5a09212_3 -->
<g id="edge17" class="edge">
<title>Xc68d17dcc5a09212_0&#45;&gt;Xc68d17dcc5a09212_3</title>
<path fill="none" stroke="black" d="M954.21,-833.85C953.81,-821.63 953.3,-805.66 952.88,-791.5 951.68,-751.89 950.42,-706.08 949.64,-677.32"/>
<polygon fill="black" stroke="black" points="953.14,-677.52 949.37,-667.62 946.15,-677.71 953.14,-677.52"/>
<text xml:space="preserve" text-anchor="middle" x="975.38" y="-778.2" font-family="Times,serif" font-size="14.00">Cleanup</text>
</g>
<!-- Xc68d17dcc5a09212_1 -->
<g id="node31" class="node">
<title>Xc68d17dcc5a09212_1</title>
<polygon fill="none" stroke="black" points="1049,-666 994.75,-666 994.75,-630 1049,-630 1049,-666"/>
<text xml:space="preserve" text-anchor="start" x="1002.75" y="-642.95" font-family="Times,serif" font-size="14.00">Drop 1</text>
</g>
<!-- Xc68d17dcc5a09212_0&#45;&gt;Xc68d17dcc5a09212_1 -->
<g id="edge18" class="edge">
<title>Xc68d17dcc5a09212_0&#45;&gt;Xc68d17dcc5a09212_1</title>
<path fill="none" stroke="black" d="M972.06,-833.76C981.14,-822.15 991.65,-806.83 997.88,-791.5 1013.14,-753.91 1018.69,-706.94 1020.72,-677.45"/>
<polygon fill="black" stroke="black" points="1024.19,-678.02 1021.28,-667.84 1017.2,-677.62 1024.19,-678.02"/>
<text xml:space="preserve" text-anchor="middle" x="1006.59" y="-778.2" font-family="Times,serif" font-size="14.00">0</text>
</g>
<!-- node_12 -->
<g id="node27" class="node">
<title>node_12</title>
<polygon fill="#7ccd7c" stroke="#7ccd7c" points="3189,-255 3044.75,-255 3044.75,-181 3189,-181 3189,-255"/>
<text xml:space="preserve" text-anchor="start" x="3052.75" y="-237.7" font-family="Times,serif" font-size="14.00">LOCALS</text>
<text xml:space="preserve" text-anchor="start" x="3052.75" y="-221.2" font-family="Times,serif" font-size="14.00">0 = () (0 bytes, align 1)</text>
<text xml:space="preserve" text-anchor="start" x="3052.75" y="-204.7" font-family="Times,serif" font-size="14.00">1 = fn()</text>
<text xml:space="preserve" text-anchor="start" x="3052.75" y="-188.2" font-family="Times,serif" font-size="14.00">2 = () (0 bytes, align 1)</text>
</g>
<!-- node_14 -->
<g id="node29" class="node">
<title>node_14</title>
<polygon fill="#7ccd7c" stroke="#7ccd7c" points="1445.12,-900 1016.62,-900 1016.62,-809.5 1445.12,-809.5 1445.12,-900"/>
<text xml:space="preserve" text-anchor="start" x="1024.62" y="-882.7" font-family="Times,serif" font-size="14.00">LOCALS</text>
<text xml:space="preserve" text-anchor="start" x="1024.62" y="-866.2" font-family="Times,serif" font-size="14.00">0 = Int(I32)</text>
<text xml:space="preserve" text-anchor="start" x="1024.62" y="-849.7" font-family="Times,serif" font-size="14.00">1 = {closure@std::rt::lang_start&lt;()&gt;::{closure#0}}</text>
<text xml:space="preserve" text-anchor="start" x="1024.62" y="-833.2" font-family="Times,serif" font-size="14.00">2 = () (0 bytes, align 1)</text>
<text xml:space="preserve" text-anchor="start" x="1024.62" y="-816.7" font-family="Times,serif" font-size="14.00">3 = &amp;mut {closure@std::rt::lang_start&lt;()&gt;::{closure#0}} (8 bytes, align 8)</text>
</g>
<!-- Xc68d17dcc5a09212_4 -->
<g id="node33" class="node">
<title>Xc68d17dcc5a09212_4</title>
<polygon fill="none" stroke="black" points="978,-434.5 917.75,-434.5 917.75,-398.5 978,-398.5 978,-434.5"/>
<text xml:space="preserve" text-anchor="start" x="925.75" y="-411.45" font-family="Times,serif" font-size="14.00">Resume</text>
</g>
<!-- Xc68d17dcc5a09212_3&#45;&gt;Xc68d17dcc5a09212_4 -->
<g id="edge20" class="edge">
<title>Xc68d17dcc5a09212_3&#45;&gt;Xc68d17dcc5a09212_4</title>
<path fill="none" stroke="black" d="M948.8,-629.75C948.63,-590.62 948.21,-494.8 948,-446.43"/>
<polygon fill="black" stroke="black" points="951.5,-446.45 947.96,-436.46 944.5,-446.48 951.5,-446.45"/>
</g>
<!-- Xc68d17dcc5a09212_2 -->
<g id="node32" class="node">
<title>Xc68d17dcc5a09212_2</title>
<polygon fill="none" stroke="black" points="1049.88,-434.5 995.88,-434.5 995.88,-398.5 1049.88,-398.5 1049.88,-434.5"/>
<text xml:space="preserve" text-anchor="start" x="1003.88" y="-411.45" font-family="Times,serif" font-size="14.00">Return</text>
</g>
<!-- Xc68d17dcc5a09212_1&#45;&gt;Xc68d17dcc5a09212_2 -->
<g id="edge19" class="edge">
<title>Xc68d17dcc5a09212_1&#45;&gt;Xc68d17dcc5a09212_2</title>
<path fill="none" stroke="black" d="M1021.95,-629.75C1022.12,-590.62 1022.54,-494.8 1022.75,-446.43"/>
<polygon fill="black" stroke="black" points="1026.25,-446.48 1022.79,-436.46 1019.25,-446.45 1026.25,-446.48"/>
</g>
<!-- node_16 -->
<g id="node34" class="node">
<title>node_16</title>
<polygon fill="#7ccd7c" stroke="#7ccd7c" points="3494.88,-1156.25 3070.88,-1156.25 3070.88,-1098.75 3494.88,-1098.75 3494.88,-1156.25"/>
<text xml:space="preserve" text-anchor="start" x="3078.88" y="-1138.95" font-family="Times,serif" font-size="14.00">LOCALS</text>
<text xml:space="preserve" text-anchor="start" x="3078.88" y="-1122.45" font-family="Times,serif" font-size="14.00">0 = () (0 bytes, align 1)</text>
<text xml:space="preserve" text-anchor="start" x="3078.88" y="-1105.95" font-family="Times,serif" font-size="14.00">1 = *mut {closure@std::rt::lang_start&lt;()&gt;::{closure#0}} (8 bytes, align 8)</text>
</g>
<!-- X3a5dbdd3459870c9_0 -->
<g id="node35" class="node">
<title>X3a5dbdd3459870c9_0</title>
<polygon fill="none" stroke="black" points="3566.88,-1145.5 3512.88,-1145.5 3512.88,-1109.5 3566.88,-1109.5 3566.88,-1145.5"/>
<text xml:space="preserve" text-anchor="start" x="3520.88" y="-1122.45" font-family="Times,serif" font-size="14.00">Return</text>
</g>
<!-- node_18 -->
<g id="node36" class="node">
<title>node_18</title>
<polygon fill="#7ccd7c" stroke="#7ccd7c" points="3493.25,-900 3218.5,-900 3218.5,-809.5 3493.25,-809.5 3493.25,-900"/>
<text xml:space="preserve" text-anchor="start" x="3226.5" y="-882.7" font-family="Times,serif" font-size="14.00">LOCALS</text>
<text xml:space="preserve" text-anchor="start" x="3226.5" y="-866.2" font-family="Times,serif" font-size="14.00">0 = Uint(U32)</text>
<text xml:space="preserve" text-anchor="start" x="3226.5" y="-849.7" font-family="Times,serif" font-size="14.00">1 = std::option::Option&lt;u32&gt; (8 bytes, align 4)</text>
<text xml:space="preserve" text-anchor="start" x="3226.5" y="-833.2" font-family="Times,serif" font-size="14.00">2 = Int(Isize)</text>
<text xml:space="preserve" text-anchor="start" x="3226.5" y="-816.7" font-family="Times,serif" font-size="14.00">3 = ()</text>
</g>
<!-- X5b398d6023fbe452_2&#45;&gt;Xe8a26c2980749453_0 -->
<g id="edge25" class="edge">
<title>X5b398d6023fbe452_2&#45;&gt;Xe8a26c2980749453_0</title>
<path fill="none" stroke="black" d="M3097.88,-629.75C3097.88,-591.21 3097.88,-497.68 3097.88,-448.65"/>
<polygon fill="black" stroke="black" points="3101.38,-448.72 3097.88,-438.72 3094.38,-448.72 3101.38,-448.72"/>
</g>
<!-- node_20 -->
<g id="node40" class="node">
<title>node_20</title>
<polygon fill="#7ccd7c" stroke="#7ccd7c" points="2607.62,-246.75 2350.12,-246.75 2350.12,-189.25 2607.62,-189.25 2607.62,-246.75"/>
<text xml:space="preserve" text-anchor="start" x="2358.12" y="-229.45" font-family="Times,serif" font-size="14.00">LOCALS</text>
<text xml:space="preserve" text-anchor="start" x="2358.12" y="-212.95" font-family="Times,serif" font-size="14.00">0 = std::process::ExitCode (1 bytes, align 1)</text>
<text xml:space="preserve" text-anchor="start" x="2358.12" y="-196.45" font-family="Times,serif" font-size="14.00">1 = () (0 bytes, align 1)</text>
</g>
</g>
</svg>
