<?xml version="1.0" encoding="UTF-8" standalone="no"?>
<!DOCTYPE svg PUBLIC "-//W3C//DTD SVG 1.1//EN"
 "http://www.w3.org/Graphics/SVG/1.1/DTD/svg11.dtd">
<!-- Generated by graphviz version 14.1.1 (20251213.1925)
 -->
<!-- Pages: 1 -->
<svg width="4051pt" height="1279pt"
 viewBox="0.00 0.00 4051.00 1279.00" xmlns="http://www.w3.org/2000/svg" xmlns:xlink="http://www.w3.org/1999/xlink">
<g id="graph0" class="graph" transform="scale(1 1) rotate(0) translate(4 1275)">
<polygon fill="white" stroke="none" points="-4,4 -4,-1275 4047.38,-1275 4047.38,4 -4,4"/>
<text xml:space="preserve" text-anchor="middle" x="2021.69" y="-7.2" font-family="Times,serif" font-size="14.00">primitive_type_bounds</text>
<g id="clust1" class="cluster">
<title>cluster_2</title>
<polygon fill="palegreen" stroke="palegreen" points="606.38,-622 606.38,-1221.75 1214.38,-1221.75 1214.38,-622 606.38,-622"/>
<text xml:space="preserve" text-anchor="middle" x="910.38" y="-1204.45" font-family="Times,serif" font-size="14.00">main</text>
</g>
<g id="clust2" class="cluster">
<title>cluster_4</title>
<polygon fill="lightgray" stroke="lightgray" points="2489.38,-801.5 2489.38,-1246.5 3324.38,-1246.5 3324.38,-801.5 2489.38,-801.5"/>
<text xml:space="preserve" text-anchor="middle" x="2906.88" y="-1229.2" font-family="Times,serif" font-size="14.00">std::rt::lang_start::&lt;()&gt;</text>
</g>
<g id="clust3" class="cluster">
<title>cluster_6</title>
<polygon fill="lightgray" stroke="lightgray" points="2299.38,-123.5 2299.38,-767 2913.38,-767 2913.38,-123.5 2299.38,-123.5"/>
<text xml:space="preserve" text-anchor="middle" x="2606.38" y="-749.7" font-family="Times,serif" font-size="14.00">std::rt::lang_start::&lt;()&gt;</text>
<text xml:space="preserve" text-anchor="middle" x="2606.38" y="-733.2" font-family="Times,serif" font-size="14.00">::{closure#0}</text>
</g>
<g id="clust4" class="cluster">
<title>cluster_8</title>
<polygon fill="lightgray" stroke="lightgray" points="3462.38,-32.5 3462.38,-535.5 3694.38,-535.5 3694.38,-32.5 3462.38,-32.5"/>
<text xml:space="preserve" text-anchor="middle" x="3578.38" y="-518.2" font-family="Times,serif" font-size="14.00">std::sys::backtrace::__ru</text>
<text xml:space="preserve" text-anchor="middle" x="3578.38" y="-501.7" font-family="Times,serif" font-size="14.00">st_begin_short_backtrace:</text>
<text xml:space="preserve" text-anchor="middle" x="3578.38" y="-485.2" font-family="Times,serif" font-size="14.00">:&lt;fn(), </text>
<text xml:space="preserve" text-anchor="middle" x="3578.38" y="-468.7" font-family="Times,serif" font-size="14.00">()&gt;</text>
</g>
<g id="clust5" class="cluster">
<title>cluster_10</title>
<polygon fill="lightgray" stroke="lightgray" points="1222.38,-828.75 1222.38,-1263 1734.38,-1263 1734.38,-828.75 1222.38,-828.75"/>
<text xml:space="preserve" text-anchor="middle" x="1478.38" y="-1245.7" font-family="Times,serif" font-size="14.00">&lt;{closure@std::rt::lang_s</text>
<text xml:space="preserve" text-anchor="middle" x="1478.38" y="-1229.2" font-family="Times,serif" font-size="14.00">tart&lt;()&gt;::{closure#0}} </text>
<text xml:space="preserve" text-anchor="middle" x="1478.38" y="-1212.7" font-family="Times,serif" font-size="14.00">as </text>
<text xml:space="preserve" text-anchor="middle" x="1478.38" y="-1196.2" font-family="Times,serif" font-size="14.00">std::ops::FnOnce&lt;()&gt;&gt;::ca</text>
<text xml:space="preserve" text-anchor="middle" x="1478.38" y="-1179.7" font-family="Times,serif" font-size="14.00">ll_once</text>
</g>
<g id="clust6" class="cluster">
<title>cluster_12</title>
<polygon fill="lightgray" stroke="lightgray" points="1742.38,-390.5 1742.38,-998.5 2291.38,-998.5 2291.38,-390.5 1742.38,-390.5"/>
<text xml:space="preserve" text-anchor="middle" x="2016.88" y="-981.2" font-family="Times,serif" font-size="14.00">&lt;{closure@std::rt::lang_s</text>
<text xml:space="preserve" text-anchor="middle" x="2016.88" y="-964.7" font-family="Times,serif" font-size="14.00">tart&lt;()&gt;::{closure#0}} </text>
<text xml:space="preserve" text-anchor="middle" x="2016.88" y="-948.2" font-family="Times,serif" font-size="14.00">as </text>
<text xml:space="preserve" text-anchor="middle" x="2016.88" y="-931.7" font-family="Times,serif" font-size="14.00">std::ops::FnOnce&lt;()&gt;&gt;::ca</text>
<text xml:space="preserve" text-anchor="middle" x="2016.88" y="-915.2" font-family="Times,serif" font-size="14.00">ll_once</text>
</g>
<g id="clust7" class="cluster">
<title>cluster_14</title>
<polygon fill="lightgray" stroke="lightgray" points="3785.38,-32.5 3785.38,-337 4035.38,-337 4035.38,-32.5 3785.38,-32.5"/>
<text xml:space="preserve" text-anchor="middle" x="3910.38" y="-319.7" font-family="Times,serif" font-size="14.00">&lt;fn() </text>
<text xml:space="preserve" text-anchor="middle" x="3910.38" y="-303.2" font-family="Times,serif" font-size="14.00">as </text>
<text xml:space="preserve" text-anchor="middle" x="3910.38" y="-286.7" font-family="Times,serif" font-size="14.00">std::ops::FnOnce&lt;()&gt;&gt;::ca</text>
<text xml:space="preserve" text-anchor="middle" x="3910.38" y="-270.2" font-family="Times,serif" font-size="14.00">ll_once</text>
</g>
<g id="clust8" class="cluster">
<title>cluster_16</title>
<polygon fill="lightgray" stroke="lightgray" points="3427.38,-1090.75 3427.38,-1221.75 3939.38,-1221.75 3939.38,-1090.75 3427.38,-1090.75"/>
<text xml:space="preserve" text-anchor="middle" x="3683.38" y="-1204.45" font-family="Times,serif" font-size="14.00">std::ptr::drop_in_place::</text>
<text xml:space="preserve" text-anchor="middle" x="3683.38" y="-1187.95" font-family="Times,serif" font-size="14.00">&lt;{closure@std::rt::lang_s</text>
<text xml:space="preserve" text-anchor="middle" x="3683.38" y="-1171.45" font-family="Times,serif" font-size="14.00">tart&lt;()&gt;::{closure#0}}&gt;</text>
</g>
<g id="clust9" class="cluster">
<title>cluster_18</title>
<polygon fill="lightgray" stroke="lightgray" points="2921.38,-181.25 2921.38,-328.75 3454.38,-328.75 3454.38,-181.25 2921.38,-181.25"/>
<text xml:space="preserve" text-anchor="middle" x="3187.88" y="-311.45" font-family="Times,serif" font-size="14.00">&lt;() </text>
<text xml:space="preserve" text-anchor="middle" x="3187.88" y="-294.95" font-family="Times,serif" font-size="14.00">as </text>
<text xml:space="preserve" text-anchor="middle" x="3187.88" y="-278.45" font-family="Times,serif" font-size="14.00">std::process::Termination</text>
<text xml:space="preserve" text-anchor="middle" x="3187.88" y="-261.95" font-family="Times,serif" font-size="14.00">&gt;::report</text>
</g>
<!-- node_0 -->
<g id="node1" class="node">
<title>node_0</title>
<polygon fill="lightyellow" stroke="lightyellow" points="130.75,-1148 0,-1148 0,-1107 130.75,-1107 130.75,-1148"/>
<text xml:space="preserve" text-anchor="start" x="8" y="-1130.7" font-family="Times,serif" font-size="14.00">ALLOCS</text>
<text xml:space="preserve" text-anchor="start" x="8" y="-1114.2" font-family="Times,serif" font-size="14.00">alloc1: Str (24 bytes)</text>
</g>
<!-- node_1 -->
<g id="node2" class="node">
<title>node_1</title>
<polygon fill="lavender" stroke="lavender" points="522.25,-1189.25 148.5,-1189.25 148.5,-1065.75 522.25,-1065.75 522.25,-1189.25"/>
<text xml:space="preserve" text-anchor="start" x="156.5" y="-1171.95" font-family="Times,serif" font-size="14.00">TYPES</text>
<text xml:space="preserve" text-anchor="start" x="156.5" y="-1155.45" font-family="Times,serif" font-size="14.00">() (0 bytes)</text>
<text xml:space="preserve" text-anchor="start" x="156.5" y="-1138.95" font-family="Times,serif" font-size="14.00">(u32, bool) (8 bytes)</text>
<text xml:space="preserve" text-anchor="start" x="156.5" y="-1122.45" font-family="Times,serif" font-size="14.00">std::panic::Location&lt;&#39;_&gt; (24 bytes)</text>
<text xml:space="preserve" text-anchor="start" x="156.5" y="-1105.95" font-family="Times,serif" font-size="14.00">std::process::ExitCode (1 bytes)</text>
<text xml:space="preserve" text-anchor="start" x="156.5" y="-1089.45" font-family="Times,serif" font-size="14.00">std::result::Result&lt;isize, !&gt; (8 bytes)</text>
<text xml:space="preserve" text-anchor="start" x="156.5" y="-1072.95" font-family="Times,serif" font-size="14.00">std::sys::pal::unix::process::process_common::ExitCode (1 bytes)</text>
</g>
<!-- X8b0ac2e54b9a91_0 -->
<g id="node3" class="node">
<title>X8b0ac2e54b9a91_0</title>
<polygon fill="none" stroke="red" points="596.62,-1145.5 540.12,-1145.5 540.12,-1109.5 596.62,-1109.5 596.62,-1145.5"/>
<text xml:space="preserve" text-anchor="middle" x="568.38" y="-1122.45" font-family="Times,serif" font-size="14.00">NoOp: </text>
</g>
<!-- X210a8e5fe9313c81_0 -->
<g id="node4" class="node">
<title>X210a8e5fe9313c81_0</title>
<polygon fill="none" stroke="red" points="1073.12,-437 899.62,-437 899.62,-396 1073.12,-396 1073.12,-437"/>
<text xml:space="preserve" text-anchor="middle" x="986.38" y="-419.7" font-family="Times,serif" font-size="14.00">_ZN4core9panicking5panic1</text>
<text xml:space="preserve" text-anchor="middle" x="986.38" y="-403.2" font-family="Times,serif" font-size="14.00">7h37379bf3ce79a0d7E</text>
</g>
<!-- X3c6542d96320ad67_0 -->
<g id="node5" class="node">
<title>X3c6542d96320ad67_0</title>
<polygon fill="none" stroke="red" points="3774.5,-79 3702.25,-79 3702.25,-38 3774.5,-38 3774.5,-79"/>
<text xml:space="preserve" text-anchor="middle" x="3738.38" y="-61.7" font-family="Times,serif" font-size="14.00">Intr: </text>
<text xml:space="preserve" text-anchor="middle" x="3738.38" y="-45.2" font-family="Times,serif" font-size="14.00">black_box</text>
</g>
<!-- X5eb86185c1cf8f06_0 -->
<g id="node6" class="node">
<title>X5eb86185c1cf8f06_0</title>
<polygon fill="none" stroke="red" points="3500.12,-883.5 3332.62,-883.5 3332.62,-826 3500.12,-826 3500.12,-883.5"/>
<text xml:space="preserve" text-anchor="middle" x="3416.38" y="-866.2" font-family="Times,serif" font-size="14.00">_ZN3std2rt19lang_start_in</text>
<text xml:space="preserve" text-anchor="middle" x="3416.38" y="-849.7" font-family="Times,serif" font-size="14.00">ternal17h035df9ff6960926a</text>
<text xml:space="preserve" text-anchor="middle" x="3416.38" y="-833.2" font-family="Times,serif" font-size="14.00">E</text>
</g>
<!-- node_3 -->
<g id="node7" class="node">
<title>node_3</title>
<polygon fill="#7ccd7c" stroke="#7ccd7c" points="810.38,-1189.25 614.38,-1189.25 614.38,-1065.75 810.38,-1065.75 810.38,-1189.25"/>
<text xml:space="preserve" text-anchor="start" x="622.38" y="-1171.95" font-family="Times,serif" font-size="14.00">LOCALS</text>
<text xml:space="preserve" text-anchor="start" x="622.38" y="-1155.45" font-family="Times,serif" font-size="14.00">0 = () (0 bytes, align 1)</text>
<text xml:space="preserve" text-anchor="start" x="622.38" y="-1138.95" font-family="Times,serif" font-size="14.00">1 = Uint(U32)</text>
<text xml:space="preserve" text-anchor="start" x="622.38" y="-1122.45" font-family="Times,serif" font-size="14.00">2 = (u32, bool) (8 bytes, align 4)</text>
<text xml:space="preserve" text-anchor="start" x="622.38" y="-1105.95" font-family="Times,serif" font-size="14.00">3 = Bool</text>
<text xml:space="preserve" text-anchor="start" x="622.38" y="-1089.45" font-family="Times,serif" font-size="14.00">4 = Uint(U32)</text>
<text xml:space="preserve" text-anchor="start" x="622.38" y="-1072.95" font-family="Times,serif" font-size="14.00">5 = ()</text>
</g>
<!-- X7b08c3c2aae84931_0 -->
<g id="node8" class="node">
<title>X7b08c3c2aae84931_0</title>
<polygon fill="none" stroke="black" points="1206.5,-1148 828.25,-1148 828.25,-1107 1206.5,-1107 1206.5,-1148"/>
<text xml:space="preserve" text-anchor="start" x="836.25" y="-1130.7" font-family="Times,serif" font-size="14.00">2 &lt;&#45; chkd&#45;Add(const 4294967294_Uint(U32), const 1_Uint(U32))</text>
<text xml:space="preserve" text-anchor="start" x="836.25" y="-1114.2" font-family="Times,serif" font-size="14.00">Assert mv(2.1) == false</text>
</g>
<!-- X7b08c3c2aae84931_1 -->
<g id="node9" class="node">
<title>X7b08c3c2aae84931_1</title>
<polygon fill="none" stroke="black" points="1135.25,-891.75 899.5,-891.75 899.5,-817.75 1135.25,-817.75 1135.25,-891.75"/>
<text xml:space="preserve" text-anchor="start" x="907.5" y="-874.45" font-family="Times,serif" font-size="14.00">1 &lt;&#45; Use(mv(2.0))</text>
<text xml:space="preserve" text-anchor="start" x="907.5" y="-857.95" font-family="Times,serif" font-size="14.00">4 &lt;&#45; Use(const 4294967295_Uint(U32))</text>
<text xml:space="preserve" text-anchor="start" x="907.5" y="-841.45" font-family="Times,serif" font-size="14.00">3 &lt;&#45; Eq(mv(4), cp(1))</text>
<text xml:space="preserve" text-anchor="start" x="907.5" y="-824.95" font-family="Times,serif" font-size="14.00">SwitchInt mv(3)</text>
</g>
<!-- X7b08c3c2aae84931_0&#45;&gt;X7b08c3c2aae84931_1 -->
<g id="edge1" class="edge">
<title>X7b08c3c2aae84931_0&#45;&gt;X7b08c3c2aae84931_1</title>
<path fill="none" stroke="black" d="M1017.38,-1106.59C1017.38,-1064.12 1017.38,-963.59 1017.38,-903.49"/>
<polygon fill="black" stroke="black" points="1020.88,-903.55 1017.38,-893.55 1013.88,-903.55 1020.88,-903.55"/>
</g>
<!-- X7b08c3c2aae84931_3 -->
<g id="node10" class="node">
<title>X7b08c3c2aae84931_3</title>
<polygon fill="none" stroke="black" points="1013.38,-666 959.38,-666 959.38,-630 1013.38,-630 1013.38,-666"/>
<text xml:space="preserve" text-anchor="start" x="967.38" y="-642.95" font-family="Times,serif" font-size="14.00">Call</text>
</g>
<!-- X7b08c3c2aae84931_1&#45;&gt;X7b08c3c2aae84931_3 -->
<g id="edge2" class="edge">
<title>X7b08c3c2aae84931_1&#45;&gt;X7b08c3c2aae84931_3</title>
<path fill="none" stroke="black" d="M1011.9,-817.62C1005.86,-777.7 996.25,-714.24 990.71,-677.62"/>
<polygon fill="black" stroke="black" points="994.18,-677.16 989.22,-667.8 987.26,-678.21 994.18,-677.16"/>
<text xml:space="preserve" text-anchor="middle" x="1010.72" y="-778.2" font-family="Times,serif" font-size="14.00">0</text>
</g>
<!-- X7b08c3c2aae84931_2 -->
<g id="node11" class="node">
<title>X7b08c3c2aae84931_2</title>
<polygon fill="none" stroke="black" points="1085.38,-666 1031.38,-666 1031.38,-630 1085.38,-630 1085.38,-666"/>
<text xml:space="preserve" text-anchor="start" x="1039.38" y="-642.95" font-family="Times,serif" font-size="14.00">Return</text>
</g>
<!-- X7b08c3c2aae84931_1&#45;&gt;X7b08c3c2aae84931_2 -->
<g id="edge3" class="edge">
<title>X7b08c3c2aae84931_1&#45;&gt;X7b08c3c2aae84931_2</title>
<path fill="none" stroke="black" d="M1024.61,-817.62C1032.64,-777.53 1045.42,-713.68 1052.74,-677.14"/>
<polygon fill="black" stroke="black" points="1056.08,-678.28 1054.61,-667.78 1049.22,-676.9 1056.08,-678.28"/>
<text xml:space="preserve" text-anchor="middle" x="1046.87" y="-778.2" font-family="Times,serif" font-size="14.00">other</text>
</g>
<!-- X7b08c3c2aae84931_3&#45;&gt;X210a8e5fe9313c81_0 -->
<g id="edge4" class="edge">
<title>X7b08c3c2aae84931_3&#45;&gt;X210a8e5fe9313c81_0</title>
<path fill="none" stroke="black" d="M986.38,-629.75C986.38,-591.21 986.38,-497.68 986.38,-448.65"/>
<polygon fill="black" stroke="black" points="989.88,-448.72 986.38,-438.72 982.88,-448.72 989.88,-448.72"/>
<text xml:space="preserve" text-anchor="middle" x="1023.5" y="-546.7" font-family="Times,serif" font-size="14.00">const [alloc0]</text>
</g>
<!-- node_5 -->
<g id="node12" class="node">
<title>node_5</title>
<polygon fill="#7ccd7c" stroke="#7ccd7c" points="3059.75,-1214 2497,-1214 2497,-1041 3059.75,-1041 3059.75,-1214"/>
<text xml:space="preserve" text-anchor="start" x="2505" y="-1196.7" font-family="Times,serif" font-size="14.00">LOCALS</text>
<text xml:space="preserve" text-anchor="start" x="2505" y="-1180.2" font-family="Times,serif" font-size="14.00">0 = Int(Isize)</text>
<text xml:space="preserve" text-anchor="start" x="2505" y="-1163.7" font-family="Times,serif" font-size="14.00">1 = fn()</text>
<text xml:space="preserve" text-anchor="start" x="2505" y="-1147.2" font-family="Times,serif" font-size="14.00">2 = Int(Isize)</text>
<text xml:space="preserve" text-anchor="start" x="2505" y="-1130.7" font-family="Times,serif" font-size="14.00">3 = *const *const u8 (8 bytes, align 8)</text>
<text xml:space="preserve" text-anchor="start" x="2505" y="-1114.2" font-family="Times,serif" font-size="14.00">4 = Uint(U8)</text>
<text xml:space="preserve" text-anchor="start" x="2505" y="-1097.7" font-family="Times,serif" font-size="14.00">5 = std::result::Result&lt;isize, !&gt; (8 bytes, align 8)</text>
<text xml:space="preserve" text-anchor="start" x="2505" y="-1081.2" font-family="Times,serif" font-size="14.00">6 = &amp;dyn std::ops::Fn() &#45;&gt; i32 + std::marker::Sync + std::panic::RefUnwindSafe (16 bytes, align 8)</text>
<text xml:space="preserve" text-anchor="start" x="2505" y="-1064.7" font-family="Times,serif" font-size="14.00">7 = &amp;{closure@std::rt::lang_start&lt;()&gt;::{closure#0}} (8 bytes, align 8)</text>
<text xml:space="preserve" text-anchor="start" x="2505" y="-1048.2" font-family="Times,serif" font-size="14.00">8 = {closure@std::rt::lang_start&lt;()&gt;::{closure#0}}</text>
</g>
<!-- Xc489419037d7edbb_0 -->
<g id="node13" class="node">
<title>Xc489419037d7edbb_0</title>
<polygon fill="none" stroke="black" points="3316.75,-1189.25 3078,-1189.25 3078,-1065.75 3316.75,-1065.75 3316.75,-1189.25"/>
<text xml:space="preserve" text-anchor="start" x="3086" y="-1171.95" font-family="Times,serif" font-size="14.00">Storage Live _5</text>
<text xml:space="preserve" text-anchor="start" x="3086" y="-1155.45" font-family="Times,serif" font-size="14.00">Storage Live _6</text>
<text xml:space="preserve" text-anchor="start" x="3086" y="-1138.95" font-family="Times,serif" font-size="14.00">Storage Live _8</text>
<text xml:space="preserve" text-anchor="start" x="3086" y="-1122.45" font-family="Times,serif" font-size="14.00">8 &lt;&#45; Closure (cp(1))</text>
<text xml:space="preserve" text-anchor="start" x="3086" y="-1105.95" font-family="Times,serif" font-size="14.00">7 &lt;&#45; &amp; 8</text>
<text xml:space="preserve" text-anchor="start" x="3086" y="-1089.45" font-family="Times,serif" font-size="14.00">6 &lt;&#45; Cast&#45;PointerCoercion(Unsize) cp(7)</text>
<text xml:space="preserve" text-anchor="start" x="3086" y="-1072.95" font-family="Times,serif" font-size="14.00">Call</text>
</g>
<!-- Xc489419037d7edbb_0&#45;&gt;X5eb86185c1cf8f06_0 -->
<g id="edge6" class="edge">
<title>Xc489419037d7edbb_0&#45;&gt;X5eb86185c1cf8f06_0</title>
<path fill="none" stroke="black" d="M3266.27,-1065.31C3287.32,-1045.05 3309.8,-1021.72 3328.38,-998.5 3354.89,-965.35 3379.75,-923.65 3396.24,-893.9"/>
<polygon fill="black" stroke="black" points="3399.25,-895.69 3400.98,-885.24 3393.11,-892.33 3399.25,-895.69"/>
<text xml:space="preserve" text-anchor="middle" x="3392.05" y="-1009.7" font-family="Times,serif" font-size="14.00">mv(6),mv(2),mv(3),mv(4)</text>
</g>
<!-- Xc489419037d7edbb_1 -->
<g id="node14" class="node">
<title>Xc489419037d7edbb_1</title>
<polygon fill="none" stroke="black" points="3291.25,-900 3103.5,-900 3103.5,-809.5 3291.25,-809.5 3291.25,-900"/>
<text xml:space="preserve" text-anchor="start" x="3111.5" y="-882.7" font-family="Times,serif" font-size="14.00">Storage Dead _6</text>
<text xml:space="preserve" text-anchor="start" x="3111.5" y="-866.2" font-family="Times,serif" font-size="14.00">0 &lt;&#45; Use(cp((5 as variant 0).0))</text>
<text xml:space="preserve" text-anchor="start" x="3111.5" y="-849.7" font-family="Times,serif" font-size="14.00">Storage Dead _8</text>
<text xml:space="preserve" text-anchor="start" x="3111.5" y="-833.2" font-family="Times,serif" font-size="14.00">Storage Dead _5</text>
<text xml:space="preserve" text-anchor="start" x="3111.5" y="-816.7" font-family="Times,serif" font-size="14.00">Return</text>
</g>
<!-- Xc489419037d7edbb_0&#45;&gt;Xc489419037d7edbb_1 -->
<g id="edge5" class="edge">
<title>Xc489419037d7edbb_0&#45;&gt;Xc489419037d7edbb_1</title>
<path fill="none" stroke="black" d="M3197.38,-1065.4C3197.38,-1019.2 3197.38,-956.29 3197.38,-911.46"/>
<polygon fill="black" stroke="black" points="3200.88,-911.7 3197.38,-901.7 3193.88,-911.7 3200.88,-911.7"/>
<text xml:space="preserve" text-anchor="middle" x="3200.75" y="-1009.7" font-family="Times,serif" font-size="14.00">5</text>
</g>
<!-- node_7 -->
<g id="node15" class="node">
<title>node_7</title>
<polygon fill="#7ccd7c" stroke="#7ccd7c" points="2759.62,-718 2307.12,-718 2307.12,-578 2759.62,-578 2759.62,-718"/>
<text xml:space="preserve" text-anchor="start" x="2315.12" y="-700.7" font-family="Times,serif" font-size="14.00">LOCALS</text>
<text xml:space="preserve" text-anchor="start" x="2315.12" y="-684.2" font-family="Times,serif" font-size="14.00">0 = Int(I32)</text>
<text xml:space="preserve" text-anchor="start" x="2315.12" y="-667.7" font-family="Times,serif" font-size="14.00">1 = &amp;{closure@std::rt::lang_start&lt;()&gt;::{closure#0}} (8 bytes, align 8)</text>
<text xml:space="preserve" text-anchor="start" x="2315.12" y="-651.2" font-family="Times,serif" font-size="14.00">2 = std::process::ExitCode (1 bytes, align 1)</text>
<text xml:space="preserve" text-anchor="start" x="2315.12" y="-634.7" font-family="Times,serif" font-size="14.00">3 = () (0 bytes, align 1)</text>
<text xml:space="preserve" text-anchor="start" x="2315.12" y="-618.2" font-family="Times,serif" font-size="14.00">4 = fn()</text>
<text xml:space="preserve" text-anchor="start" x="2315.12" y="-601.7" font-family="Times,serif" font-size="14.00">5 = &amp;std::sys::pal::unix::process::process_common::ExitCode (8 bytes, align 8)</text>
<text xml:space="preserve" text-anchor="start" x="2315.12" y="-585.2" font-family="Times,serif" font-size="14.00">6 = Uint(U8)</text>
</g>
<!-- Xef4a5b59d55bf8a_0 -->
<g id="node16" class="node">
<title>Xef4a5b59d55bf8a_0</title>
<polygon fill="none" stroke="black" points="2905.25,-693.25 2777.5,-693.25 2777.5,-602.75 2905.25,-602.75 2905.25,-693.25"/>
<text xml:space="preserve" text-anchor="start" x="2785.5" y="-675.95" font-family="Times,serif" font-size="14.00">Storage Live _2</text>
<text xml:space="preserve" text-anchor="start" x="2785.5" y="-659.45" font-family="Times,serif" font-size="14.00">Storage Live _3</text>
<text xml:space="preserve" text-anchor="start" x="2785.5" y="-642.95" font-family="Times,serif" font-size="14.00">Storage Live _4</text>
<text xml:space="preserve" text-anchor="start" x="2785.5" y="-626.45" font-family="Times,serif" font-size="14.00">4 &lt;&#45; Use(cp((*1).0))</text>
<text xml:space="preserve" text-anchor="start" x="2785.5" y="-609.95" font-family="Times,serif" font-size="14.00">Call</text>
</g>
<!-- Xef4a5b59d55bf8a_1 -->
<g id="node17" class="node">
<title>Xef4a5b59d55bf8a_1</title>
<polygon fill="none" stroke="black" points="2894.75,-437 2788,-437 2788,-396 2894.75,-396 2894.75,-437"/>
<text xml:space="preserve" text-anchor="start" x="2796" y="-419.7" font-family="Times,serif" font-size="14.00">Storage Dead _4</text>
<text xml:space="preserve" text-anchor="start" x="2796" y="-403.2" font-family="Times,serif" font-size="14.00">Call</text>
</g>
<!-- Xef4a5b59d55bf8a_0&#45;&gt;Xef4a5b59d55bf8a_1 -->
<g id="edge7" class="edge">
<title>Xef4a5b59d55bf8a_0&#45;&gt;Xef4a5b59d55bf8a_1</title>
<path fill="none" stroke="black" d="M2841.38,-602.48C2841.38,-557.23 2841.38,-488.32 2841.38,-448.63"/>
<polygon fill="black" stroke="black" points="2844.88,-448.82 2841.38,-438.82 2837.88,-448.82 2844.88,-448.82"/>
<text xml:space="preserve" text-anchor="middle" x="2844.75" y="-546.7" font-family="Times,serif" font-size="14.00">3</text>
</g>
<!-- X63a38ffc4e1b0e97_0 -->
<g id="node19" class="node">
<title>X63a38ffc4e1b0e97_0</title>
<polygon fill="none" stroke="black" points="3524.38,-434.5 3470.38,-434.5 3470.38,-398.5 3524.38,-398.5 3524.38,-434.5"/>
<text xml:space="preserve" text-anchor="start" x="3478.38" y="-411.45" font-family="Times,serif" font-size="14.00">Call</text>
</g>
<!-- Xef4a5b59d55bf8a_0&#45;&gt;X63a38ffc4e1b0e97_0 -->
<g id="edge9" class="edge">
<title>Xef4a5b59d55bf8a_0&#45;&gt;X63a38ffc4e1b0e97_0</title>
<path fill="none" stroke="black" d="M2905.47,-624.58C3040.61,-577.3 3351.2,-468.64 3459.38,-430.79"/>
<polygon fill="black" stroke="black" points="3460.38,-434.15 3468.66,-427.55 3458.07,-427.54 3460.38,-434.15"/>
<text xml:space="preserve" text-anchor="middle" x="3146.97" y="-546.7" font-family="Times,serif" font-size="14.00">mv(4)</text>
</g>
<!-- Xef4a5b59d55bf8a_2 -->
<g id="node18" class="node">
<title>Xef4a5b59d55bf8a_2</title>
<polygon fill="none" stroke="black" points="2905.38,-304.5 2751.38,-304.5 2751.38,-131.5 2905.38,-131.5 2905.38,-304.5"/>
<text xml:space="preserve" text-anchor="start" x="2759.38" y="-287.2" font-family="Times,serif" font-size="14.00">Storage Dead _3</text>
<text xml:space="preserve" text-anchor="start" x="2759.38" y="-270.7" font-family="Times,serif" font-size="14.00">Storage Live _5</text>
<text xml:space="preserve" text-anchor="start" x="2759.38" y="-254.2" font-family="Times,serif" font-size="14.00">5 &lt;&#45; &amp; 2.0</text>
<text xml:space="preserve" text-anchor="start" x="2759.38" y="-237.7" font-family="Times,serif" font-size="14.00">Storage Live _6</text>
<text xml:space="preserve" text-anchor="start" x="2759.38" y="-221.2" font-family="Times,serif" font-size="14.00">6 &lt;&#45; Use(cp(2.0.0))</text>
<text xml:space="preserve" text-anchor="start" x="2759.38" y="-204.7" font-family="Times,serif" font-size="14.00">0 &lt;&#45; Cast&#45;IntToInt mv(6)</text>
<text xml:space="preserve" text-anchor="start" x="2759.38" y="-188.2" font-family="Times,serif" font-size="14.00">Storage Dead _6</text>
<text xml:space="preserve" text-anchor="start" x="2759.38" y="-171.7" font-family="Times,serif" font-size="14.00">Storage Dead _5</text>
<text xml:space="preserve" text-anchor="start" x="2759.38" y="-155.2" font-family="Times,serif" font-size="14.00">Storage Dead _2</text>
<text xml:space="preserve" text-anchor="start" x="2759.38" y="-138.7" font-family="Times,serif" font-size="14.00">Return</text>
</g>
<!-- Xef4a5b59d55bf8a_1&#45;&gt;Xef4a5b59d55bf8a_2 -->
<g id="edge8" class="edge">
<title>Xef4a5b59d55bf8a_1&#45;&gt;Xef4a5b59d55bf8a_2</title>
<path fill="none" stroke="black" d="M2840.06,-395.58C2838.8,-376.54 2836.8,-346.38 2834.81,-316.33"/>
<polygon fill="black" stroke="black" points="2838.31,-316.1 2834.15,-306.35 2831.32,-316.56 2838.31,-316.1"/>
<text xml:space="preserve" text-anchor="middle" x="2840.91" y="-348.2" font-family="Times,serif" font-size="14.00">2</text>
</g>
<!-- X32374998d259ff8a_0 -->
<g id="node20" class="node">
<title>X32374998d259ff8a_0</title>
<polygon fill="none" stroke="black" points="3170.88,-238.5 2929.88,-238.5 2929.88,-197.5 3170.88,-197.5 3170.88,-238.5"/>
<text xml:space="preserve" text-anchor="start" x="2937.88" y="-221.2" font-family="Times,serif" font-size="14.00">0 &lt;&#45; Use(const 0_std::process::ExitCode)</text>
<text xml:space="preserve" text-anchor="start" x="2937.88" y="-204.7" font-family="Times,serif" font-size="14.00">Return</text>
</g>
<!-- Xef4a5b59d55bf8a_1&#45;&gt;X32374998d259ff8a_0 -->
<g id="edge10" class="edge">
<title>Xef4a5b59d55bf8a_1&#45;&gt;X32374998d259ff8a_0</title>
<path fill="none" stroke="black" d="M2862.57,-395.58C2900.04,-360.34 2978.08,-286.97 3020.82,-246.78"/>
<polygon fill="black" stroke="black" points="3023.14,-249.41 3028.03,-240.01 3018.34,-244.31 3023.14,-249.41"/>
<text xml:space="preserve" text-anchor="middle" x="2931.82" y="-348.2" font-family="Times,serif" font-size="14.00">mv(3)</text>
</g>
<!-- X63a38ffc4e1b0e97_1 -->
<g id="node22" class="node">
<title>X63a38ffc4e1b0e97_1</title>
<polygon fill="none" stroke="black" points="3604.38,-236 3550.38,-236 3550.38,-200 3604.38,-200 3604.38,-236"/>
<text xml:space="preserve" text-anchor="start" x="3558.38" y="-212.95" font-family="Times,serif" font-size="14.00">Call</text>
</g>
<!-- X63a38ffc4e1b0e97_0&#45;&gt;X63a38ffc4e1b0e97_1 -->
<g id="edge11" class="edge">
<title>X63a38ffc4e1b0e97_0&#45;&gt;X63a38ffc4e1b0e97_1</title>
<path fill="none" stroke="black" d="M3504.47,-398.06C3518.35,-363.98 3549.18,-288.26 3565.96,-247.05"/>
<polygon fill="black" stroke="black" points="3569.19,-248.38 3569.72,-237.8 3562.71,-245.74 3569.19,-248.38"/>
<text xml:space="preserve" text-anchor="middle" x="3528.91" y="-348.2" font-family="Times,serif" font-size="14.00">0</text>
</g>
<!-- X3ffb50b8f96e2e1a_0 -->
<g id="node24" class="node">
<title>X3ffb50b8f96e2e1a_0</title>
<polygon fill="none" stroke="black" points="3847.38,-236 3793.38,-236 3793.38,-200 3847.38,-200 3847.38,-236"/>
<text xml:space="preserve" text-anchor="start" x="3801.38" y="-212.95" font-family="Times,serif" font-size="14.00">Call</text>
</g>
<!-- X63a38ffc4e1b0e97_0&#45;&gt;X3ffb50b8f96e2e1a_0 -->
<g id="edge13" class="edge">
<title>X63a38ffc4e1b0e97_0&#45;&gt;X3ffb50b8f96e2e1a_0</title>
<path fill="none" stroke="black" d="M3511.25,-398.06C3517.38,-391.38 3525.08,-384.23 3533.38,-379.5 3599.14,-341.96 3632.3,-374 3698.38,-337 3740.23,-313.56 3778.19,-272.21 3800.28,-245.21"/>
<polygon fill="black" stroke="black" points="3802.95,-247.48 3806.47,-237.49 3797.48,-243.11 3802.95,-247.48"/>
<text xml:space="preserve" text-anchor="middle" x="3718.85" y="-348.2" font-family="Times,serif" font-size="14.00">mv(1),const ()</text>
</g>
<!-- node_9 -->
<g id="node21" class="node">
<title>node_9</title>
<polygon fill="#7ccd7c" stroke="#7ccd7c" points="3686.5,-453.5 3542.25,-453.5 3542.25,-379.5 3686.5,-379.5 3686.5,-453.5"/>
<text xml:space="preserve" text-anchor="start" x="3550.25" y="-436.2" font-family="Times,serif" font-size="14.00">LOCALS</text>
<text xml:space="preserve" text-anchor="start" x="3550.25" y="-419.7" font-family="Times,serif" font-size="14.00">0 = () (0 bytes, align 1)</text>
<text xml:space="preserve" text-anchor="start" x="3550.25" y="-403.2" font-family="Times,serif" font-size="14.00">1 = fn()</text>
<text xml:space="preserve" text-anchor="start" x="3550.25" y="-386.7" font-family="Times,serif" font-size="14.00">2 = () (0 bytes, align 1)</text>
</g>
<!-- X63a38ffc4e1b0e97_1&#45;&gt;X3c6542d96320ad67_0 -->
<g id="edge14" class="edge">
<title>X63a38ffc4e1b0e97_1&#45;&gt;X3c6542d96320ad67_0</title>
<path fill="none" stroke="black" d="M3595.22,-199.54C3623.07,-172.3 3677.11,-119.44 3710.24,-87.03"/>
<polygon fill="black" stroke="black" points="3712.4,-89.81 3717.1,-80.31 3707.5,-84.8 3712.4,-89.81"/>
<text xml:space="preserve" text-anchor="middle" x="3720.09" y="-100.2" font-family="Times,serif" font-size="14.00">const ()</text>
</g>
<!-- X63a38ffc4e1b0e97_2 -->
<g id="node23" class="node">
<title>X63a38ffc4e1b0e97_2</title>
<polygon fill="none" stroke="black" points="3604.38,-76.5 3550.38,-76.5 3550.38,-40.5 3604.38,-40.5 3604.38,-76.5"/>
<text xml:space="preserve" text-anchor="start" x="3558.38" y="-53.45" font-family="Times,serif" font-size="14.00">Return</text>
</g>
<!-- X63a38ffc4e1b0e97_1&#45;&gt;X63a38ffc4e1b0e97_2 -->
<g id="edge12" class="edge">
<title>X63a38ffc4e1b0e97_1&#45;&gt;X63a38ffc4e1b0e97_2</title>
<path fill="none" stroke="black" d="M3577.38,-199.54C3577.38,-172.56 3577.38,-120.44 3577.38,-87.95"/>
<polygon fill="black" stroke="black" points="3580.88,-88.07 3577.38,-78.07 3573.88,-88.07 3580.88,-88.07"/>
<text xml:space="preserve" text-anchor="middle" x="3580.75" y="-100.2" font-family="Times,serif" font-size="14.00">2</text>
</g>
<!-- X3ffb50b8f96e2e1a_0&#45;&gt;X3ffb50b8f96e2e1a_0 -->
<g id="edge23" class="edge">
<title>X3ffb50b8f96e2e1a_0&#45;&gt;X3ffb50b8f96e2e1a_0:1</title>
<path fill="none" stroke="black" d="M3837.93,-236.41C3851.52,-243.3 3865.38,-237.16 3865.38,-218 3865.38,-204.08 3858.06,-197.03 3848.85,-196.86"/>
<polygon fill="black" stroke="black" points="3848.25,-193.4 3839.4,-199.22 3849.95,-200.2 3848.25,-193.4"/>
</g>
<!-- X3ffb50b8f96e2e1a_1 -->
<g id="node35" class="node">
<title>X3ffb50b8f96e2e1a_1</title>
<polygon fill="none" stroke="black" points="3847.38,-76.5 3793.38,-76.5 3793.38,-40.5 3847.38,-40.5 3847.38,-76.5"/>
<text xml:space="preserve" text-anchor="start" x="3801.38" y="-53.45" font-family="Times,serif" font-size="14.00">Return</text>
</g>
<!-- X3ffb50b8f96e2e1a_0&#45;&gt;X3ffb50b8f96e2e1a_1 -->
<g id="edge22" class="edge">
<title>X3ffb50b8f96e2e1a_0&#45;&gt;X3ffb50b8f96e2e1a_1</title>
<path fill="none" stroke="black" d="M3820.38,-199.54C3820.38,-172.56 3820.38,-120.44 3820.38,-87.95"/>
<polygon fill="black" stroke="black" points="3823.88,-88.07 3820.38,-78.07 3816.88,-88.07 3823.88,-88.07"/>
<text xml:space="preserve" text-anchor="middle" x="3823.75" y="-100.2" font-family="Times,serif" font-size="14.00">0</text>
</g>
<!-- node_11 -->
<g id="node25" class="node">
<title>node_11</title>
<polygon fill="#7ccd7c" stroke="#7ccd7c" points="1654.38,-1164.5 1230.38,-1164.5 1230.38,-1090.5 1654.38,-1090.5 1654.38,-1164.5"/>
<text xml:space="preserve" text-anchor="start" x="1238.38" y="-1147.2" font-family="Times,serif" font-size="14.00">LOCALS</text>
<text xml:space="preserve" text-anchor="start" x="1238.38" y="-1130.7" font-family="Times,serif" font-size="14.00">0 = Int(I32)</text>
<text xml:space="preserve" text-anchor="start" x="1238.38" y="-1114.2" font-family="Times,serif" font-size="14.00">1 = *mut {closure@std::rt::lang_start&lt;()&gt;::{closure#0}} (8 bytes, align 8)</text>
<text xml:space="preserve" text-anchor="start" x="1238.38" y="-1097.7" font-family="Times,serif" font-size="14.00">2 = () (0 bytes, align 1)</text>
</g>
<!-- Xf955074b2f868d93_0 -->
<g id="node26" class="node">
<title>Xf955074b2f868d93_0</title>
<polygon fill="none" stroke="black" points="1726.38,-1145.5 1672.38,-1145.5 1672.38,-1109.5 1726.38,-1109.5 1726.38,-1145.5"/>
<text xml:space="preserve" text-anchor="start" x="1680.38" y="-1122.45" font-family="Times,serif" font-size="14.00">Call</text>
</g>
<!-- Xf955074b2f868d93_1 -->
<g id="node27" class="node">
<title>Xf955074b2f868d93_1</title>
<polygon fill="none" stroke="black" points="1726.38,-872.75 1672.38,-872.75 1672.38,-836.75 1726.38,-836.75 1726.38,-872.75"/>
<text xml:space="preserve" text-anchor="start" x="1680.38" y="-849.7" font-family="Times,serif" font-size="14.00">Return</text>
</g>
<!-- Xf955074b2f868d93_0&#45;&gt;Xf955074b2f868d93_1 -->
<g id="edge15" class="edge">
<title>Xf955074b2f868d93_0&#45;&gt;Xf955074b2f868d93_1</title>
<path fill="none" stroke="black" d="M1699.38,-1109.15C1699.38,-1063.59 1699.38,-940.21 1699.38,-884.15"/>
<polygon fill="black" stroke="black" points="1702.88,-884.47 1699.38,-874.47 1695.88,-884.47 1702.88,-884.47"/>
<text xml:space="preserve" text-anchor="middle" x="1702.75" y="-1009.7" font-family="Times,serif" font-size="14.00">0</text>
</g>
<!-- X3f73a36e445b51cf_0 -->
<g id="node28" class="node">
<title>X3f73a36e445b51cf_0</title>
<polygon fill="none" stroke="black" points="1836.62,-875.25 1750.12,-875.25 1750.12,-834.25 1836.62,-834.25 1836.62,-875.25"/>
<text xml:space="preserve" text-anchor="start" x="1758.12" y="-857.95" font-family="Times,serif" font-size="14.00">3 &lt;&#45; &amp;mut 1</text>
<text xml:space="preserve" text-anchor="start" x="1758.12" y="-841.45" font-family="Times,serif" font-size="14.00">Call</text>
</g>
<!-- Xf955074b2f868d93_0&#45;&gt;X3f73a36e445b51cf_0 -->
<g id="edge16" class="edge">
<title>Xf955074b2f868d93_0&#45;&gt;X3f73a36e445b51cf_0</title>
<path fill="none" stroke="black" d="M1705.4,-1109.15C1721.02,-1064.16 1762.98,-943.3 1782.77,-886.3"/>
<polygon fill="black" stroke="black" points="1786.06,-887.5 1786.03,-876.9 1779.45,-885.2 1786.06,-887.5"/>
<text xml:space="preserve" text-anchor="middle" x="1784.25" y="-1009.7" font-family="Times,serif" font-size="14.00">mv((*1)),mv(2)</text>
</g>
<!-- X3f73a36e445b51cf_0&#45;&gt;Xef4a5b59d55bf8a_0 -->
<g id="edge21" class="edge">
<title>X3f73a36e445b51cf_0&#45;&gt;Xef4a5b59d55bf8a_0</title>
<path fill="none" stroke="black" d="M1807.4,-833.88C1816.91,-822.15 1830.6,-808.32 1846.38,-801.5 1940.48,-760.84 2679.77,-818.57 2768.38,-767 2792.41,-753.01 2809.61,-727.65 2821.25,-704.02"/>
<polygon fill="black" stroke="black" points="2824.38,-705.6 2825.42,-695.05 2818.03,-702.64 2824.38,-705.6"/>
<text xml:space="preserve" text-anchor="middle" x="2781.3" y="-778.2" font-family="Times,serif" font-size="14.00">mv(3),mv(2)</text>
</g>
<!-- X3f73a36e445b51cf_3 -->
<g id="node30" class="node">
<title>X3f73a36e445b51cf_3</title>
<polygon fill="none" stroke="black" points="1814.5,-666 1760.25,-666 1760.25,-630 1814.5,-630 1814.5,-666"/>
<text xml:space="preserve" text-anchor="start" x="1768.25" y="-642.95" font-family="Times,serif" font-size="14.00">Drop 1</text>
</g>
<!-- X3f73a36e445b51cf_0&#45;&gt;X3f73a36e445b51cf_3 -->
<g id="edge17" class="edge">
<title>X3f73a36e445b51cf_0&#45;&gt;X3f73a36e445b51cf_3</title>
<path fill="none" stroke="black" d="M1792.71,-833.85C1792.31,-821.63 1791.8,-805.66 1791.38,-791.5 1790.18,-751.89 1788.92,-706.08 1788.14,-677.32"/>
<polygon fill="black" stroke="black" points="1791.64,-677.52 1787.87,-667.62 1784.65,-677.71 1791.64,-677.52"/>
<text xml:space="preserve" text-anchor="middle" x="1813.88" y="-778.2" font-family="Times,serif" font-size="14.00">Cleanup</text>
</g>
<!-- X3f73a36e445b51cf_1 -->
<g id="node31" class="node">
<title>X3f73a36e445b51cf_1</title>
<polygon fill="none" stroke="black" points="1887.5,-666 1833.25,-666 1833.25,-630 1887.5,-630 1887.5,-666"/>
<text xml:space="preserve" text-anchor="start" x="1841.25" y="-642.95" font-family="Times,serif" font-size="14.00">Drop 1</text>
</g>
<!-- X3f73a36e445b51cf_0&#45;&gt;X3f73a36e445b51cf_1 -->
<g id="edge18" class="edge">
<title>X3f73a36e445b51cf_0&#45;&gt;X3f73a36e445b51cf_1</title>
<path fill="none" stroke="black" d="M1810.56,-833.76C1819.64,-822.15 1830.15,-806.83 1836.38,-791.5 1851.64,-753.91 1857.19,-706.94 1859.22,-677.45"/>
<polygon fill="black" stroke="black" points="1862.69,-678.02 1859.78,-667.84 1855.7,-677.62 1862.69,-678.02"/>
<text xml:space="preserve" text-anchor="middle" x="1845.09" y="-778.2" font-family="Times,serif" font-size="14.00">0</text>
</g>
<!-- node_13 -->
<g id="node29" class="node">
<title>node_13</title>
<polygon fill="#7ccd7c" stroke="#7ccd7c" points="2283.62,-900 1855.12,-900 1855.12,-809.5 2283.62,-809.5 2283.62,-900"/>
<text xml:space="preserve" text-anchor="start" x="1863.12" y="-882.7" font-family="Times,serif" font-size="14.00">LOCALS</text>
<text xml:space="preserve" text-anchor="start" x="1863.12" y="-866.2" font-family="Times,serif" font-size="14.00">0 = Int(I32)</text>
<text xml:space="preserve" text-anchor="start" x="1863.12" y="-849.7" font-family="Times,serif" font-size="14.00">1 = {closure@std::rt::lang_start&lt;()&gt;::{closure#0}}</text>
<text xml:space="preserve" text-anchor="start" x="1863.12" y="-833.2" font-family="Times,serif" font-size="14.00">2 = () (0 bytes, align 1)</text>
<text xml:space="preserve" text-anchor="start" x="1863.12" y="-816.7" font-family="Times,serif" font-size="14.00">3 = &amp;mut {closure@std::rt::lang_start&lt;()&gt;::{closure#0}} (8 bytes, align 8)</text>
</g>
<!-- X3f73a36e445b51cf_4 -->
<g id="node33" class="node">
<title>X3f73a36e445b51cf_4</title>
<polygon fill="none" stroke="black" points="1816.5,-434.5 1756.25,-434.5 1756.25,-398.5 1816.5,-398.5 1816.5,-434.5"/>
<text xml:space="preserve" text-anchor="start" x="1764.25" y="-411.45" font-family="Times,serif" font-size="14.00">Resume</text>
</g>
<!-- X3f73a36e445b51cf_3&#45;&gt;X3f73a36e445b51cf_4 -->
<g id="edge20" class="edge">
<title>X3f73a36e445b51cf_3&#45;&gt;X3f73a36e445b51cf_4</title>
<path fill="none" stroke="black" d="M1787.3,-629.75C1787.13,-590.62 1786.71,-494.8 1786.5,-446.43"/>
<polygon fill="black" stroke="black" points="1790,-446.45 1786.46,-436.46 1783,-446.48 1790,-446.45"/>
</g>
<!-- X3f73a36e445b51cf_2 -->
<g id="node32" class="node">
<title>X3f73a36e445b51cf_2</title>
<polygon fill="none" stroke="black" points="1888.38,-434.5 1834.38,-434.5 1834.38,-398.5 1888.38,-398.5 1888.38,-434.5"/>
<text xml:space="preserve" text-anchor="start" x="1842.38" y="-411.45" font-family="Times,serif" font-size="14.00">Return</text>
</g>
<!-- X3f73a36e445b51cf_1&#45;&gt;X3f73a36e445b51cf_2 -->
<g id="edge19" class="edge">
<title>X3f73a36e445b51cf_1&#45;&gt;X3f73a36e445b51cf_2</title>
<path fill="none" stroke="black" d="M1860.45,-629.75C1860.62,-590.62 1861.04,-494.8 1861.25,-446.43"/>
<polygon fill="black" stroke="black" points="1864.75,-446.48 1861.29,-436.46 1857.75,-446.45 1864.75,-446.48"/>
</g>
<!-- node_15 -->
<g id="node34" class="node">
<title>node_15</title>
<polygon fill="#7ccd7c" stroke="#7ccd7c" points="4027.5,-255 3883.25,-255 3883.25,-181 4027.5,-181 4027.5,-255"/>
<text xml:space="preserve" text-anchor="start" x="3891.25" y="-237.7" font-family="Times,serif" font-size="14.00">LOCALS</text>
<text xml:space="preserve" text-anchor="start" x="3891.25" y="-221.2" font-family="Times,serif" font-size="14.00">0 = () (0 bytes, align 1)</text>
<text xml:space="preserve" text-anchor="start" x="3891.25" y="-204.7" font-family="Times,serif" font-size="14.00">1 = fn()</text>
<text xml:space="preserve" text-anchor="start" x="3891.25" y="-188.2" font-family="Times,serif" font-size="14.00">2 = () (0 bytes, align 1)</text>
</g>
<!-- node_17 -->
<g id="node36" class="node">
<title>node_17</title>
<polygon fill="#7ccd7c" stroke="#7ccd7c" points="3859.38,-1156.25 3435.38,-1156.25 3435.38,-1098.75 3859.38,-1098.75 3859.38,-1156.25"/>
<text xml:space="preserve" text-anchor="start" x="3443.38" y="-1138.95" font-family="Times,serif" font-size="14.00">LOCALS</text>
<text xml:space="preserve" text-anchor="start" x="3443.38" y="-1122.45" font-family="Times,serif" font-size="14.00">0 = () (0 bytes, align 1)</text>
<text xml:space="preserve" text-anchor="start" x="3443.38" y="-1105.95" font-family="Times,serif" font-size="14.00">1 = *mut {closure@std::rt::lang_start&lt;()&gt;::{closure#0}} (8 bytes, align 8)</text>
</g>
<!-- X9d583d60f7863a84_0 -->
<g id="node37" class="node">
<title>X9d583d60f7863a84_0</title>
<polygon fill="none" stroke="black" points="3931.38,-1145.5 3877.38,-1145.5 3877.38,-1109.5 3931.38,-1109.5 3931.38,-1145.5"/>
<text xml:space="preserve" text-anchor="start" x="3885.38" y="-1122.45" font-family="Times,serif" font-size="14.00">Return</text>
</g>
<!-- node_19 -->
<g id="node38" class="node">
<title>node_19</title>
<polygon fill="#7ccd7c" stroke="#7ccd7c" points="3446.12,-246.75 3188.62,-246.75 3188.62,-189.25 3446.12,-189.25 3446.12,-246.75"/>
<text xml:space="preserve" text-anchor="start" x="3196.62" y="-229.45" font-family="Times,serif" font-size="14.00">LOCALS</text>
<text xml:space="preserve" text-anchor="start" x="3196.62" y="-212.95" font-family="Times,serif" font-size="14.00">0 = std::process::ExitCode (1 bytes, align 1)</text>
<text xml:space="preserve" text-anchor="start" x="3196.62" y="-196.45" font-family="Times,serif" font-size="14.00">1 = () (0 bytes, align 1)</text>
</g>
</g>
</svg>
