<?xml version="1.0" encoding="UTF-8" standalone="no"?>
<!DOCTYPE svg PUBLIC "-//W3C//DTD SVG 1.1//EN"
 "http://www.w3.org/Graphics/SVG/1.1/DTD/svg11.dtd">
<!-- Generated by graphviz version 14.1.1 (20251213.1925)
 -->
<!-- Pages: 1 -->
<svg width="4442pt" height="1279pt"
 viewBox="0.00 0.00 4442.00 1279.00" xmlns="http://www.w3.org/2000/svg" xmlns:xlink="http://www.w3.org/1999/xlink">
<g id="graph0" class="graph" transform="scale(1 1) rotate(0) translate(4 1275)">
<polygon fill="white" stroke="none" points="-4,4 -4,-1275 4438.38,-1275 4438.38,4 -4,4"/>
<text xml:space="preserve" text-anchor="middle" x="2217.19" y="-7.2" font-family="Times,serif" font-size="14.00">ref_deref</text>
<g id="clust1" class="cluster">
<title>cluster_2</title>
<polygon fill="lightgray" stroke="lightgray" points="532.38,-801.5 532.38,-1246.5 1367.38,-1246.5 1367.38,-801.5 532.38,-801.5"/>
<text xml:space="preserve" text-anchor="middle" x="949.88" y="-1229.2" font-family="Times,serif" font-size="14.00">std::rt::lang_start::&lt;()&gt;</text>
</g>
<g id="clust2" class="cluster">
<title>cluster_4</title>
<polygon fill="lightgray" stroke="lightgray" points="2690.38,-123.5 2690.38,-767 3304.38,-767 3304.38,-123.5 2690.38,-123.5"/>
<text xml:space="preserve" text-anchor="middle" x="2997.38" y="-749.7" font-family="Times,serif" font-size="14.00">std::rt::lang_start::&lt;()&gt;</text>
<text xml:space="preserve" text-anchor="middle" x="2997.38" y="-733.2" font-family="Times,serif" font-size="14.00">::{closure#0}</text>
</g>
<g id="clust3" class="cluster">
<title>cluster_6</title>
<polygon fill="lightgray" stroke="lightgray" points="3853.38,-32.5 3853.38,-535.5 4085.38,-535.5 4085.38,-32.5 3853.38,-32.5"/>
<text xml:space="preserve" text-anchor="middle" x="3969.38" y="-518.2" font-family="Times,serif" font-size="14.00">std::sys::backtrace::__ru</text>
<text xml:space="preserve" text-anchor="middle" x="3969.38" y="-501.7" font-family="Times,serif" font-size="14.00">st_begin_short_backtrace:</text>
<text xml:space="preserve" text-anchor="middle" x="3969.38" y="-485.2" font-family="Times,serif" font-size="14.00">:&lt;fn(), </text>
<text xml:space="preserve" text-anchor="middle" x="3969.38" y="-468.7" font-family="Times,serif" font-size="14.00">()&gt;</text>
</g>
<g id="clust4" class="cluster">
<title>cluster_8</title>
<polygon fill="lightgray" stroke="lightgray" points="1613.38,-828.75 1613.38,-1263 2125.38,-1263 2125.38,-828.75 1613.38,-828.75"/>
<text xml:space="preserve" text-anchor="middle" x="1869.38" y="-1245.7" font-family="Times,serif" font-size="14.00">&lt;{closure@std::rt::lang_s</text>
<text xml:space="preserve" text-anchor="middle" x="1869.38" y="-1229.2" font-family="Times,serif" font-size="14.00">tart&lt;()&gt;::{closure#0}} </text>
<text xml:space="preserve" text-anchor="middle" x="1869.38" y="-1212.7" font-family="Times,serif" font-size="14.00">as </text>
<text xml:space="preserve" text-anchor="middle" x="1869.38" y="-1196.2" font-family="Times,serif" font-size="14.00">std::ops::FnOnce&lt;()&gt;&gt;::ca</text>
<text xml:space="preserve" text-anchor="middle" x="1869.38" y="-1179.7" font-family="Times,serif" font-size="14.00">ll_once</text>
</g>
<g id="clust5" class="cluster">
<title>cluster_10</title>
<polygon fill="lightgray" stroke="lightgray" points="4176.38,-32.5 4176.38,-337 4426.38,-337 4426.38,-32.5 4176.38,-32.5"/>
<text xml:space="preserve" text-anchor="middle" x="4301.38" y="-319.7" font-family="Times,serif" font-size="14.00">&lt;fn() </text>
<text xml:space="preserve" text-anchor="middle" x="4301.38" y="-303.2" font-family="Times,serif" font-size="14.00">as </text>
<text xml:space="preserve" text-anchor="middle" x="4301.38" y="-286.7" font-family="Times,serif" font-size="14.00">std::ops::FnOnce&lt;()&gt;&gt;::ca</text>
<text xml:space="preserve" text-anchor="middle" x="4301.38" y="-270.2" font-family="Times,serif" font-size="14.00">ll_once</text>
</g>
<g id="clust6" class="cluster">
<title>cluster_12</title>
<polygon fill="lightgray" stroke="lightgray" points="2133.38,-390.5 2133.38,-998.5 2682.38,-998.5 2682.38,-390.5 2133.38,-390.5"/>
<text xml:space="preserve" text-anchor="middle" x="2407.88" y="-981.2" font-family="Times,serif" font-size="14.00">&lt;{closure@std::rt::lang_s</text>
<text xml:space="preserve" text-anchor="middle" x="2407.88" y="-964.7" font-family="Times,serif" font-size="14.00">tart&lt;()&gt;::{closure#0}} </text>
<text xml:space="preserve" text-anchor="middle" x="2407.88" y="-948.2" font-family="Times,serif" font-size="14.00">as </text>
<text xml:space="preserve" text-anchor="middle" x="2407.88" y="-931.7" font-family="Times,serif" font-size="14.00">std::ops::FnOnce&lt;()&gt;&gt;::ca</text>
<text xml:space="preserve" text-anchor="middle" x="2407.88" y="-915.2" font-family="Times,serif" font-size="14.00">ll_once</text>
</g>
<g id="clust7" class="cluster">
<title>cluster_14</title>
<polygon fill="lightgray" stroke="lightgray" points="3794.38,-1090.75 3794.38,-1221.75 4306.38,-1221.75 4306.38,-1090.75 3794.38,-1090.75"/>
<text xml:space="preserve" text-anchor="middle" x="4050.38" y="-1204.45" font-family="Times,serif" font-size="14.00">std::ptr::drop_in_place::</text>
<text xml:space="preserve" text-anchor="middle" x="4050.38" y="-1187.95" font-family="Times,serif" font-size="14.00">&lt;{closure@std::rt::lang_s</text>
<text xml:space="preserve" text-anchor="middle" x="4050.38" y="-1171.45" font-family="Times,serif" font-size="14.00">tart&lt;()&gt;::{closure#0}}&gt;</text>
</g>
<g id="clust8" class="cluster">
<title>cluster_16</title>
<polygon fill="lightgray" stroke="lightgray" points="3312.38,-181.25 3312.38,-328.75 3845.38,-328.75 3845.38,-181.25 3312.38,-181.25"/>
<text xml:space="preserve" text-anchor="middle" x="3578.88" y="-311.45" font-family="Times,serif" font-size="14.00">&lt;() </text>
<text xml:space="preserve" text-anchor="middle" x="3578.88" y="-294.95" font-family="Times,serif" font-size="14.00">as </text>
<text xml:space="preserve" text-anchor="middle" x="3578.88" y="-278.45" font-family="Times,serif" font-size="14.00">std::process::Termination</text>
<text xml:space="preserve" text-anchor="middle" x="3578.88" y="-261.95" font-family="Times,serif" font-size="14.00">&gt;::report</text>
</g>
<g id="clust9" class="cluster">
<title>cluster_18</title>
<polygon fill="palegreen" stroke="palegreen" points="3197.38,-828.75 3197.38,-1213.5 3563.38,-1213.5 3563.38,-828.75 3197.38,-828.75"/>
<text xml:space="preserve" text-anchor="middle" x="3380.38" y="-1196.2" font-family="Times,serif" font-size="14.00">main</text>
</g>
<!-- node_0 -->
<g id="node1" class="node">
<title>node_0</title>
<polygon fill="lightyellow" stroke="lightyellow" points="130.75,-1148 0,-1148 0,-1107 130.75,-1107 130.75,-1148"/>
<text xml:space="preserve" text-anchor="start" x="8" y="-1130.7" font-family="Times,serif" font-size="14.00">ALLOCS</text>
<text xml:space="preserve" text-anchor="start" x="8" y="-1114.2" font-family="Times,serif" font-size="14.00">alloc1: Str (25 bytes)</text>
</g>
<!-- node_1 -->
<g id="node2" class="node">
<title>node_1</title>
<polygon fill="lavender" stroke="lavender" points="522.25,-1181 148.5,-1181 148.5,-1074 522.25,-1074 522.25,-1181"/>
<text xml:space="preserve" text-anchor="start" x="156.5" y="-1163.7" font-family="Times,serif" font-size="14.00">TYPES</text>
<text xml:space="preserve" text-anchor="start" x="156.5" y="-1147.2" font-family="Times,serif" font-size="14.00">() (0 bytes)</text>
<text xml:space="preserve" text-anchor="start" x="156.5" y="-1130.7" font-family="Times,serif" font-size="14.00">std::panic::Location&lt;&#39;_&gt; (24 bytes)</text>
<text xml:space="preserve" text-anchor="start" x="156.5" y="-1114.2" font-family="Times,serif" font-size="14.00">std::process::ExitCode (1 bytes)</text>
<text xml:space="preserve" text-anchor="start" x="156.5" y="-1097.7" font-family="Times,serif" font-size="14.00">std::result::Result&lt;isize, !&gt; (8 bytes)</text>
<text xml:space="preserve" text-anchor="start" x="156.5" y="-1081.2" font-family="Times,serif" font-size="14.00">std::sys::pal::unix::process::process_common::ExitCode (1 bytes)</text>
</g>
<!-- X5eb86185c1cf8f06_0 -->
<g id="node3" class="node">
<title>X5eb86185c1cf8f06_0</title>
<polygon fill="none" stroke="red" points="1543.12,-883.5 1375.62,-883.5 1375.62,-826 1543.12,-826 1543.12,-883.5"/>
<text xml:space="preserve" text-anchor="middle" x="1459.38" y="-866.2" font-family="Times,serif" font-size="14.00">_ZN3std2rt19lang_start_in</text>
<text xml:space="preserve" text-anchor="middle" x="1459.38" y="-849.7" font-family="Times,serif" font-size="14.00">ternal17h035df9ff6960926a</text>
<text xml:space="preserve" text-anchor="middle" x="1459.38" y="-833.2" font-family="Times,serif" font-size="14.00">E</text>
</g>
<!-- X3c6542d96320ad67_0 -->
<g id="node4" class="node">
<title>X3c6542d96320ad67_0</title>
<polygon fill="none" stroke="red" points="4165.5,-79 4093.25,-79 4093.25,-38 4165.5,-38 4165.5,-79"/>
<text xml:space="preserve" text-anchor="middle" x="4129.38" y="-61.7" font-family="Times,serif" font-size="14.00">Intr: </text>
<text xml:space="preserve" text-anchor="middle" x="4129.38" y="-45.2" font-family="Times,serif" font-size="14.00">black_box</text>
</g>
<!-- X8b0ac2e54b9a91_0 -->
<g id="node5" class="node">
<title>X8b0ac2e54b9a91_0</title>
<polygon fill="none" stroke="red" points="2636.62,-1145.5 2580.12,-1145.5 2580.12,-1109.5 2636.62,-1109.5 2636.62,-1145.5"/>
<text xml:space="preserve" text-anchor="middle" x="2608.38" y="-1122.45" font-family="Times,serif" font-size="14.00">NoOp: </text>
</g>
<!-- X210a8e5fe9313c81_0 -->
<g id="node6" class="node">
<title>X210a8e5fe9313c81_0</title>
<polygon fill="none" stroke="red" points="3591.12,-668.5 3417.62,-668.5 3417.62,-627.5 3591.12,-627.5 3591.12,-668.5"/>
<text xml:space="preserve" text-anchor="middle" x="3504.38" y="-651.2" font-family="Times,serif" font-size="14.00">_ZN4core9panicking5panic1</text>
<text xml:space="preserve" text-anchor="middle" x="3504.38" y="-634.7" font-family="Times,serif" font-size="14.00">7h37379bf3ce79a0d7E</text>
</g>
<!-- node_3 -->
<g id="node7" class="node">
<title>node_3</title>
<polygon fill="#7ccd7c" stroke="#7ccd7c" points="1102.75,-1214 540,-1214 540,-1041 1102.75,-1041 1102.75,-1214"/>
<text xml:space="preserve" text-anchor="start" x="548" y="-1196.7" font-family="Times,serif" font-size="14.00">LOCALS</text>
<text xml:space="preserve" text-anchor="start" x="548" y="-1180.2" font-family="Times,serif" font-size="14.00">0 = Int(Isize)</text>
<text xml:space="preserve" text-anchor="start" x="548" y="-1163.7" font-family="Times,serif" font-size="14.00">1 = fn()</text>
<text xml:space="preserve" text-anchor="start" x="548" y="-1147.2" font-family="Times,serif" font-size="14.00">2 = Int(Isize)</text>
<text xml:space="preserve" text-anchor="start" x="548" y="-1130.7" font-family="Times,serif" font-size="14.00">3 = *const *const u8 (8 bytes, align 8)</text>
<text xml:space="preserve" text-anchor="start" x="548" y="-1114.2" font-family="Times,serif" font-size="14.00">4 = Uint(U8)</text>
<text xml:space="preserve" text-anchor="start" x="548" y="-1097.7" font-family="Times,serif" font-size="14.00">5 = std::result::Result&lt;isize, !&gt; (8 bytes, align 8)</text>
<text xml:space="preserve" text-anchor="start" x="548" y="-1081.2" font-family="Times,serif" font-size="14.00">6 = &amp;dyn std::ops::Fn() &#45;&gt; i32 + std::marker::Sync + std::panic::RefUnwindSafe (16 bytes, align 8)</text>
<text xml:space="preserve" text-anchor="start" x="548" y="-1064.7" font-family="Times,serif" font-size="14.00">7 = &amp;{closure@std::rt::lang_start&lt;()&gt;::{closure#0}} (8 bytes, align 8)</text>
<text xml:space="preserve" text-anchor="start" x="548" y="-1048.2" font-family="Times,serif" font-size="14.00">8 = {closure@std::rt::lang_start&lt;()&gt;::{closure#0}}</text>
</g>
<!-- Xb56999611bc9c735_0 -->
<g id="node8" class="node">
<title>Xb56999611bc9c735_0</title>
<polygon fill="none" stroke="black" points="1359.75,-1189.25 1121,-1189.25 1121,-1065.75 1359.75,-1065.75 1359.75,-1189.25"/>
<text xml:space="preserve" text-anchor="start" x="1129" y="-1171.95" font-family="Times,serif" font-size="14.00">Storage Live _5</text>
<text xml:space="preserve" text-anchor="start" x="1129" y="-1155.45" font-family="Times,serif" font-size="14.00">Storage Live _6</text>
<text xml:space="preserve" text-anchor="start" x="1129" y="-1138.95" font-family="Times,serif" font-size="14.00">Storage Live _8</text>
<text xml:space="preserve" text-anchor="start" x="1129" y="-1122.45" font-family="Times,serif" font-size="14.00">8 &lt;&#45; Closure (cp(1))</text>
<text xml:space="preserve" text-anchor="start" x="1129" y="-1105.95" font-family="Times,serif" font-size="14.00">7 &lt;&#45; &amp; 8</text>
<text xml:space="preserve" text-anchor="start" x="1129" y="-1089.45" font-family="Times,serif" font-size="14.00">6 &lt;&#45; Cast&#45;PointerCoercion(Unsize) cp(7)</text>
<text xml:space="preserve" text-anchor="start" x="1129" y="-1072.95" font-family="Times,serif" font-size="14.00">Call</text>
</g>
<!-- Xb56999611bc9c735_0&#45;&gt;X5eb86185c1cf8f06_0 -->
<g id="edge2" class="edge">
<title>Xb56999611bc9c735_0&#45;&gt;X5eb86185c1cf8f06_0</title>
<path fill="none" stroke="black" d="M1309.27,-1065.31C1330.32,-1045.05 1352.8,-1021.72 1371.38,-998.5 1397.89,-965.35 1422.75,-923.65 1439.24,-893.9"/>
<polygon fill="black" stroke="black" points="1442.25,-895.69 1443.98,-885.24 1436.11,-892.33 1442.25,-895.69"/>
<text xml:space="preserve" text-anchor="middle" x="1435.05" y="-1009.7" font-family="Times,serif" font-size="14.00">mv(6),mv(2),mv(3),mv(4)</text>
</g>
<!-- Xb56999611bc9c735_1 -->
<g id="node9" class="node">
<title>Xb56999611bc9c735_1</title>
<polygon fill="none" stroke="black" points="1334.25,-900 1146.5,-900 1146.5,-809.5 1334.25,-809.5 1334.25,-900"/>
<text xml:space="preserve" text-anchor="start" x="1154.5" y="-882.7" font-family="Times,serif" font-size="14.00">Storage Dead _6</text>
<text xml:space="preserve" text-anchor="start" x="1154.5" y="-866.2" font-family="Times,serif" font-size="14.00">0 &lt;&#45; Use(cp((5 as variant 0).0))</text>
<text xml:space="preserve" text-anchor="start" x="1154.5" y="-849.7" font-family="Times,serif" font-size="14.00">Storage Dead _8</text>
<text xml:space="preserve" text-anchor="start" x="1154.5" y="-833.2" font-family="Times,serif" font-size="14.00">Storage Dead _5</text>
<text xml:space="preserve" text-anchor="start" x="1154.5" y="-816.7" font-family="Times,serif" font-size="14.00">Return</text>
</g>
<!-- Xb56999611bc9c735_0&#45;&gt;Xb56999611bc9c735_1 -->
<g id="edge1" class="edge">
<title>Xb56999611bc9c735_0&#45;&gt;Xb56999611bc9c735_1</title>
<path fill="none" stroke="black" d="M1240.38,-1065.4C1240.38,-1019.2 1240.38,-956.29 1240.38,-911.46"/>
<polygon fill="black" stroke="black" points="1243.88,-911.7 1240.38,-901.7 1236.88,-911.7 1243.88,-911.7"/>
<text xml:space="preserve" text-anchor="middle" x="1243.75" y="-1009.7" font-family="Times,serif" font-size="14.00">5</text>
</g>
<!-- node_5 -->
<g id="node10" class="node">
<title>node_5</title>
<polygon fill="#7ccd7c" stroke="#7ccd7c" points="3150.62,-718 2698.12,-718 2698.12,-578 3150.62,-578 3150.62,-718"/>
<text xml:space="preserve" text-anchor="start" x="2706.12" y="-700.7" font-family="Times,serif" font-size="14.00">LOCALS</text>
<text xml:space="preserve" text-anchor="start" x="2706.12" y="-684.2" font-family="Times,serif" font-size="14.00">0 = Int(I32)</text>
<text xml:space="preserve" text-anchor="start" x="2706.12" y="-667.7" font-family="Times,serif" font-size="14.00">1 = &amp;{closure@std::rt::lang_start&lt;()&gt;::{closure#0}} (8 bytes, align 8)</text>
<text xml:space="preserve" text-anchor="start" x="2706.12" y="-651.2" font-family="Times,serif" font-size="14.00">2 = std::process::ExitCode (1 bytes, align 1)</text>
<text xml:space="preserve" text-anchor="start" x="2706.12" y="-634.7" font-family="Times,serif" font-size="14.00">3 = () (0 bytes, align 1)</text>
<text xml:space="preserve" text-anchor="start" x="2706.12" y="-618.2" font-family="Times,serif" font-size="14.00">4 = fn()</text>
<text xml:space="preserve" text-anchor="start" x="2706.12" y="-601.7" font-family="Times,serif" font-size="14.00">5 = &amp;std::sys::pal::unix::process::process_common::ExitCode (8 bytes, align 8)</text>
<text xml:space="preserve" text-anchor="start" x="2706.12" y="-585.2" font-family="Times,serif" font-size="14.00">6 = Uint(U8)</text>
</g>
<!-- X8db66e063768c538_0 -->
<g id="node11" class="node">
<title>X8db66e063768c538_0</title>
<polygon fill="none" stroke="black" points="3296.25,-693.25 3168.5,-693.25 3168.5,-602.75 3296.25,-602.75 3296.25,-693.25"/>
<text xml:space="preserve" text-anchor="start" x="3176.5" y="-675.95" font-family="Times,serif" font-size="14.00">Storage Live _2</text>
<text xml:space="preserve" text-anchor="start" x="3176.5" y="-659.45" font-family="Times,serif" font-size="14.00">Storage Live _3</text>
<text xml:space="preserve" text-anchor="start" x="3176.5" y="-642.95" font-family="Times,serif" font-size="14.00">Storage Live _4</text>
<text xml:space="preserve" text-anchor="start" x="3176.5" y="-626.45" font-family="Times,serif" font-size="14.00">4 &lt;&#45; Use(cp((*1).0))</text>
<text xml:space="preserve" text-anchor="start" x="3176.5" y="-609.95" font-family="Times,serif" font-size="14.00">Call</text>
</g>
<!-- X8db66e063768c538_1 -->
<g id="node12" class="node">
<title>X8db66e063768c538_1</title>
<polygon fill="none" stroke="black" points="3285.75,-437 3179,-437 3179,-396 3285.75,-396 3285.75,-437"/>
<text xml:space="preserve" text-anchor="start" x="3187" y="-419.7" font-family="Times,serif" font-size="14.00">Storage Dead _4</text>
<text xml:space="preserve" text-anchor="start" x="3187" y="-403.2" font-family="Times,serif" font-size="14.00">Call</text>
</g>
<!-- X8db66e063768c538_0&#45;&gt;X8db66e063768c538_1 -->
<g id="edge3" class="edge">
<title>X8db66e063768c538_0&#45;&gt;X8db66e063768c538_1</title>
<path fill="none" stroke="black" d="M3232.38,-602.48C3232.38,-557.23 3232.38,-488.32 3232.38,-448.63"/>
<polygon fill="black" stroke="black" points="3235.88,-448.82 3232.38,-438.82 3228.88,-448.82 3235.88,-448.82"/>
<text xml:space="preserve" text-anchor="middle" x="3235.75" y="-546.7" font-family="Times,serif" font-size="14.00">3</text>
</g>
<!-- Xba3bd42b19861e6_0 -->
<g id="node14" class="node">
<title>Xba3bd42b19861e6_0</title>
<polygon fill="none" stroke="black" points="3915.38,-434.5 3861.38,-434.5 3861.38,-398.5 3915.38,-398.5 3915.38,-434.5"/>
<text xml:space="preserve" text-anchor="start" x="3869.38" y="-411.45" font-family="Times,serif" font-size="14.00">Call</text>
</g>
<!-- X8db66e063768c538_0&#45;&gt;Xba3bd42b19861e6_0 -->
<g id="edge5" class="edge">
<title>X8db66e063768c538_0&#45;&gt;Xba3bd42b19861e6_0</title>
<path fill="none" stroke="black" d="M3296.44,-620.98C3329.69,-607.7 3371.05,-591.55 3408.38,-578 3571.47,-518.8 3768.55,-455.44 3850.14,-429.55"/>
<polygon fill="black" stroke="black" points="3850.96,-432.97 3859.43,-426.61 3848.84,-426.29 3850.96,-432.97"/>
<text xml:space="preserve" text-anchor="middle" x="3516.52" y="-546.7" font-family="Times,serif" font-size="14.00">mv(4)</text>
</g>
<!-- X8db66e063768c538_2 -->
<g id="node13" class="node">
<title>X8db66e063768c538_2</title>
<polygon fill="none" stroke="black" points="3296.38,-304.5 3142.38,-304.5 3142.38,-131.5 3296.38,-131.5 3296.38,-304.5"/>
<text xml:space="preserve" text-anchor="start" x="3150.38" y="-287.2" font-family="Times,serif" font-size="14.00">Storage Dead _3</text>
<text xml:space="preserve" text-anchor="start" x="3150.38" y="-270.7" font-family="Times,serif" font-size="14.00">Storage Live _5</text>
<text xml:space="preserve" text-anchor="start" x="3150.38" y="-254.2" font-family="Times,serif" font-size="14.00">5 &lt;&#45; &amp; 2.0</text>
<text xml:space="preserve" text-anchor="start" x="3150.38" y="-237.7" font-family="Times,serif" font-size="14.00">Storage Live _6</text>
<text xml:space="preserve" text-anchor="start" x="3150.38" y="-221.2" font-family="Times,serif" font-size="14.00">6 &lt;&#45; Use(cp(2.0.0))</text>
<text xml:space="preserve" text-anchor="start" x="3150.38" y="-204.7" font-family="Times,serif" font-size="14.00">0 &lt;&#45; Cast&#45;IntToInt mv(6)</text>
<text xml:space="preserve" text-anchor="start" x="3150.38" y="-188.2" font-family="Times,serif" font-size="14.00">Storage Dead _6</text>
<text xml:space="preserve" text-anchor="start" x="3150.38" y="-171.7" font-family="Times,serif" font-size="14.00">Storage Dead _5</text>
<text xml:space="preserve" text-anchor="start" x="3150.38" y="-155.2" font-family="Times,serif" font-size="14.00">Storage Dead _2</text>
<text xml:space="preserve" text-anchor="start" x="3150.38" y="-138.7" font-family="Times,serif" font-size="14.00">Return</text>
</g>
<!-- X8db66e063768c538_1&#45;&gt;X8db66e063768c538_2 -->
<g id="edge4" class="edge">
<title>X8db66e063768c538_1&#45;&gt;X8db66e063768c538_2</title>
<path fill="none" stroke="black" d="M3231.06,-395.58C3229.8,-376.54 3227.8,-346.38 3225.81,-316.33"/>
<polygon fill="black" stroke="black" points="3229.31,-316.1 3225.15,-306.35 3222.32,-316.56 3229.31,-316.1"/>
<text xml:space="preserve" text-anchor="middle" x="3231.91" y="-348.2" font-family="Times,serif" font-size="14.00">2</text>
</g>
<!-- Xdf9339a5943ce000_0 -->
<g id="node15" class="node">
<title>Xdf9339a5943ce000_0</title>
<polygon fill="none" stroke="black" points="3561.88,-238.5 3320.88,-238.5 3320.88,-197.5 3561.88,-197.5 3561.88,-238.5"/>
<text xml:space="preserve" text-anchor="start" x="3328.88" y="-221.2" font-family="Times,serif" font-size="14.00">0 &lt;&#45; Use(const 0_std::process::ExitCode)</text>
<text xml:space="preserve" text-anchor="start" x="3328.88" y="-204.7" font-family="Times,serif" font-size="14.00">Return</text>
</g>
<!-- X8db66e063768c538_1&#45;&gt;Xdf9339a5943ce000_0 -->
<g id="edge6" class="edge">
<title>X8db66e063768c538_1&#45;&gt;Xdf9339a5943ce000_0</title>
<path fill="none" stroke="black" d="M3253.57,-395.58C3291.04,-360.34 3369.08,-286.97 3411.82,-246.78"/>
<polygon fill="black" stroke="black" points="3414.14,-249.41 3419.03,-240.01 3409.34,-244.31 3414.14,-249.41"/>
<text xml:space="preserve" text-anchor="middle" x="3322.82" y="-348.2" font-family="Times,serif" font-size="14.00">mv(3)</text>
</g>
<!-- Xba3bd42b19861e6_1 -->
<g id="node17" class="node">
<title>Xba3bd42b19861e6_1</title>
<polygon fill="none" stroke="black" points="3995.38,-236 3941.38,-236 3941.38,-200 3995.38,-200 3995.38,-236"/>
<text xml:space="preserve" text-anchor="start" x="3949.38" y="-212.95" font-family="Times,serif" font-size="14.00">Call</text>
</g>
<!-- Xba3bd42b19861e6_0&#45;&gt;Xba3bd42b19861e6_1 -->
<g id="edge7" class="edge">
<title>Xba3bd42b19861e6_0&#45;&gt;Xba3bd42b19861e6_1</title>
<path fill="none" stroke="black" d="M3895.47,-398.06C3909.35,-363.98 3940.18,-288.26 3956.96,-247.05"/>
<polygon fill="black" stroke="black" points="3960.19,-248.38 3960.72,-237.8 3953.71,-245.74 3960.19,-248.38"/>
<text xml:space="preserve" text-anchor="middle" x="3919.91" y="-348.2" font-family="Times,serif" font-size="14.00">0</text>
</g>
<!-- Xb0adec6ea4324518_0 -->
<g id="node19" class="node">
<title>Xb0adec6ea4324518_0</title>
<polygon fill="none" stroke="black" points="4238.38,-236 4184.38,-236 4184.38,-200 4238.38,-200 4238.38,-236"/>
<text xml:space="preserve" text-anchor="start" x="4192.38" y="-212.95" font-family="Times,serif" font-size="14.00">Call</text>
</g>
<!-- Xba3bd42b19861e6_0&#45;&gt;Xb0adec6ea4324518_0 -->
<g id="edge9" class="edge">
<title>Xba3bd42b19861e6_0&#45;&gt;Xb0adec6ea4324518_0</title>
<path fill="none" stroke="black" d="M3902.25,-398.06C3908.38,-391.38 3916.08,-384.23 3924.38,-379.5 3990.14,-341.96 4023.3,-374 4089.38,-337 4131.23,-313.56 4169.19,-272.21 4191.28,-245.21"/>
<polygon fill="black" stroke="black" points="4193.95,-247.48 4197.47,-237.49 4188.48,-243.11 4193.95,-247.48"/>
<text xml:space="preserve" text-anchor="middle" x="4109.85" y="-348.2" font-family="Times,serif" font-size="14.00">mv(1),const ()</text>
</g>
<!-- node_7 -->
<g id="node16" class="node">
<title>node_7</title>
<polygon fill="#7ccd7c" stroke="#7ccd7c" points="4077.5,-453.5 3933.25,-453.5 3933.25,-379.5 4077.5,-379.5 4077.5,-453.5"/>
<text xml:space="preserve" text-anchor="start" x="3941.25" y="-436.2" font-family="Times,serif" font-size="14.00">LOCALS</text>
<text xml:space="preserve" text-anchor="start" x="3941.25" y="-419.7" font-family="Times,serif" font-size="14.00">0 = () (0 bytes, align 1)</text>
<text xml:space="preserve" text-anchor="start" x="3941.25" y="-403.2" font-family="Times,serif" font-size="14.00">1 = fn()</text>
<text xml:space="preserve" text-anchor="start" x="3941.25" y="-386.7" font-family="Times,serif" font-size="14.00">2 = () (0 bytes, align 1)</text>
</g>
<!-- Xba3bd42b19861e6_1&#45;&gt;X3c6542d96320ad67_0 -->
<g id="edge10" class="edge">
<title>Xba3bd42b19861e6_1&#45;&gt;X3c6542d96320ad67_0</title>
<path fill="none" stroke="black" d="M3986.22,-199.54C4014.07,-172.3 4068.11,-119.44 4101.24,-87.03"/>
<polygon fill="black" stroke="black" points="4103.4,-89.81 4108.1,-80.31 4098.5,-84.8 4103.4,-89.81"/>
<text xml:space="preserve" text-anchor="middle" x="4111.09" y="-100.2" font-family="Times,serif" font-size="14.00">const ()</text>
</g>
<!-- Xba3bd42b19861e6_2 -->
<g id="node18" class="node">
<title>Xba3bd42b19861e6_2</title>
<polygon fill="none" stroke="black" points="3995.38,-76.5 3941.38,-76.5 3941.38,-40.5 3995.38,-40.5 3995.38,-76.5"/>
<text xml:space="preserve" text-anchor="start" x="3949.38" y="-53.45" font-family="Times,serif" font-size="14.00">Return</text>
</g>
<!-- Xba3bd42b19861e6_1&#45;&gt;Xba3bd42b19861e6_2 -->
<g id="edge8" class="edge">
<title>Xba3bd42b19861e6_1&#45;&gt;Xba3bd42b19861e6_2</title>
<path fill="none" stroke="black" d="M3968.38,-199.54C3968.38,-172.56 3968.38,-120.44 3968.38,-87.95"/>
<polygon fill="black" stroke="black" points="3971.88,-88.07 3968.38,-78.07 3964.88,-88.07 3971.88,-88.07"/>
<text xml:space="preserve" text-anchor="middle" x="3971.75" y="-100.2" font-family="Times,serif" font-size="14.00">2</text>
</g>
<!-- Xb0adec6ea4324518_0&#45;&gt;Xb0adec6ea4324518_0 -->
<g id="edge14" class="edge">
<title>Xb0adec6ea4324518_0&#45;&gt;Xb0adec6ea4324518_0:1</title>
<path fill="none" stroke="black" d="M4228.93,-236.41C4242.52,-243.3 4256.38,-237.16 4256.38,-218 4256.38,-204.08 4249.06,-197.03 4239.85,-196.86"/>
<polygon fill="black" stroke="black" points="4239.25,-193.4 4230.4,-199.22 4240.95,-200.2 4239.25,-193.4"/>
</g>
<!-- Xb0adec6ea4324518_1 -->
<g id="node25" class="node">
<title>Xb0adec6ea4324518_1</title>
<polygon fill="none" stroke="black" points="4238.38,-76.5 4184.38,-76.5 4184.38,-40.5 4238.38,-40.5 4238.38,-76.5"/>
<text xml:space="preserve" text-anchor="start" x="4192.38" y="-53.45" font-family="Times,serif" font-size="14.00">Return</text>
</g>
<!-- Xb0adec6ea4324518_0&#45;&gt;Xb0adec6ea4324518_1 -->
<g id="edge13" class="edge">
<title>Xb0adec6ea4324518_0&#45;&gt;Xb0adec6ea4324518_1</title>
<path fill="none" stroke="black" d="M4211.38,-199.54C4211.38,-172.56 4211.38,-120.44 4211.38,-87.95"/>
<polygon fill="black" stroke="black" points="4214.88,-88.07 4211.38,-78.07 4207.88,-88.07 4214.88,-88.07"/>
<text xml:space="preserve" text-anchor="middle" x="4214.75" y="-100.2" font-family="Times,serif" font-size="14.00">0</text>
</g>
<!-- node_9 -->
<g id="node20" class="node">
<title>node_9</title>
<polygon fill="#7ccd7c" stroke="#7ccd7c" points="2045.38,-1164.5 1621.38,-1164.5 1621.38,-1090.5 2045.38,-1090.5 2045.38,-1164.5"/>
<text xml:space="preserve" text-anchor="start" x="1629.38" y="-1147.2" font-family="Times,serif" font-size="14.00">LOCALS</text>
<text xml:space="preserve" text-anchor="start" x="1629.38" y="-1130.7" font-family="Times,serif" font-size="14.00">0 = Int(I32)</text>
<text xml:space="preserve" text-anchor="start" x="1629.38" y="-1114.2" font-family="Times,serif" font-size="14.00">1 = *mut {closure@std::rt::lang_start&lt;()&gt;::{closure#0}} (8 bytes, align 8)</text>
<text xml:space="preserve" text-anchor="start" x="1629.38" y="-1097.7" font-family="Times,serif" font-size="14.00">2 = () (0 bytes, align 1)</text>
</g>
<!-- Xb11808a2866193e2_0 -->
<g id="node21" class="node">
<title>Xb11808a2866193e2_0</title>
<polygon fill="none" stroke="black" points="2117.38,-1145.5 2063.38,-1145.5 2063.38,-1109.5 2117.38,-1109.5 2117.38,-1145.5"/>
<text xml:space="preserve" text-anchor="start" x="2071.38" y="-1122.45" font-family="Times,serif" font-size="14.00">Call</text>
</g>
<!-- Xb11808a2866193e2_1 -->
<g id="node22" class="node">
<title>Xb11808a2866193e2_1</title>
<polygon fill="none" stroke="black" points="2117.38,-872.75 2063.38,-872.75 2063.38,-836.75 2117.38,-836.75 2117.38,-872.75"/>
<text xml:space="preserve" text-anchor="start" x="2071.38" y="-849.7" font-family="Times,serif" font-size="14.00">Return</text>
</g>
<!-- Xb11808a2866193e2_0&#45;&gt;Xb11808a2866193e2_1 -->
<g id="edge11" class="edge">
<title>Xb11808a2866193e2_0&#45;&gt;Xb11808a2866193e2_1</title>
<path fill="none" stroke="black" d="M2090.38,-1109.15C2090.38,-1063.59 2090.38,-940.21 2090.38,-884.15"/>
<polygon fill="black" stroke="black" points="2093.88,-884.47 2090.38,-874.47 2086.88,-884.47 2093.88,-884.47"/>
<text xml:space="preserve" text-anchor="middle" x="2093.75" y="-1009.7" font-family="Times,serif" font-size="14.00">0</text>
</g>
<!-- Xc8056d3bcfe18bb8_0 -->
<g id="node23" class="node">
<title>Xc8056d3bcfe18bb8_0</title>
<polygon fill="none" stroke="black" points="2227.62,-875.25 2141.12,-875.25 2141.12,-834.25 2227.62,-834.25 2227.62,-875.25"/>
<text xml:space="preserve" text-anchor="start" x="2149.12" y="-857.95" font-family="Times,serif" font-size="14.00">3 &lt;&#45; &amp;mut 1</text>
<text xml:space="preserve" text-anchor="start" x="2149.12" y="-841.45" font-family="Times,serif" font-size="14.00">Call</text>
</g>
<!-- Xb11808a2866193e2_0&#45;&gt;Xc8056d3bcfe18bb8_0 -->
<g id="edge12" class="edge">
<title>Xb11808a2866193e2_0&#45;&gt;Xc8056d3bcfe18bb8_0</title>
<path fill="none" stroke="black" d="M2096.4,-1109.15C2112.02,-1064.16 2153.98,-943.3 2173.77,-886.3"/>
<polygon fill="black" stroke="black" points="2177.06,-887.5 2177.03,-876.9 2170.45,-885.2 2177.06,-887.5"/>
<text xml:space="preserve" text-anchor="middle" x="2175.25" y="-1009.7" font-family="Times,serif" font-size="14.00">mv((*1)),mv(2)</text>
</g>
<!-- Xc8056d3bcfe18bb8_0&#45;&gt;X8db66e063768c538_0 -->
<g id="edge19" class="edge">
<title>Xc8056d3bcfe18bb8_0&#45;&gt;X8db66e063768c538_0</title>
<path fill="none" stroke="black" d="M2198.4,-833.88C2207.91,-822.15 2221.6,-808.32 2237.38,-801.5 2331.48,-760.84 3070.77,-818.57 3159.38,-767 3183.41,-753.01 3200.61,-727.65 3212.25,-704.02"/>
<polygon fill="black" stroke="black" points="3215.38,-705.6 3216.42,-695.05 3209.03,-702.64 3215.38,-705.6"/>
<text xml:space="preserve" text-anchor="middle" x="3172.3" y="-778.2" font-family="Times,serif" font-size="14.00">mv(3),mv(2)</text>
</g>
<!-- Xc8056d3bcfe18bb8_3 -->
<g id="node27" class="node">
<title>Xc8056d3bcfe18bb8_3</title>
<polygon fill="none" stroke="black" points="2205.5,-666 2151.25,-666 2151.25,-630 2205.5,-630 2205.5,-666"/>
<text xml:space="preserve" text-anchor="start" x="2159.25" y="-642.95" font-family="Times,serif" font-size="14.00">Drop 1</text>
</g>
<!-- Xc8056d3bcfe18bb8_0&#45;&gt;Xc8056d3bcfe18bb8_3 -->
<g id="edge15" class="edge">
<title>Xc8056d3bcfe18bb8_0&#45;&gt;Xc8056d3bcfe18bb8_3</title>
<path fill="none" stroke="black" d="M2183.71,-833.85C2183.31,-821.63 2182.8,-805.66 2182.38,-791.5 2181.18,-751.89 2179.92,-706.08 2179.14,-677.32"/>
<polygon fill="black" stroke="black" points="2182.64,-677.52 2178.87,-667.62 2175.65,-677.71 2182.64,-677.52"/>
<text xml:space="preserve" text-anchor="middle" x="2204.88" y="-778.2" font-family="Times,serif" font-size="14.00">Cleanup</text>
</g>
<!-- Xc8056d3bcfe18bb8_1 -->
<g id="node28" class="node">
<title>Xc8056d3bcfe18bb8_1</title>
<polygon fill="none" stroke="black" points="2278.5,-666 2224.25,-666 2224.25,-630 2278.5,-630 2278.5,-666"/>
<text xml:space="preserve" text-anchor="start" x="2232.25" y="-642.95" font-family="Times,serif" font-size="14.00">Drop 1</text>
</g>
<!-- Xc8056d3bcfe18bb8_0&#45;&gt;Xc8056d3bcfe18bb8_1 -->
<g id="edge16" class="edge">
<title>Xc8056d3bcfe18bb8_0&#45;&gt;Xc8056d3bcfe18bb8_1</title>
<path fill="none" stroke="black" d="M2201.56,-833.76C2210.64,-822.15 2221.15,-806.83 2227.38,-791.5 2242.64,-753.91 2248.19,-706.94 2250.22,-677.45"/>
<polygon fill="black" stroke="black" points="2253.69,-678.02 2250.78,-667.84 2246.7,-677.62 2253.69,-678.02"/>
<text xml:space="preserve" text-anchor="middle" x="2236.09" y="-778.2" font-family="Times,serif" font-size="14.00">0</text>
</g>
<!-- node_11 -->
<g id="node24" class="node">
<title>node_11</title>
<polygon fill="#7ccd7c" stroke="#7ccd7c" points="4418.5,-255 4274.25,-255 4274.25,-181 4418.5,-181 4418.5,-255"/>
<text xml:space="preserve" text-anchor="start" x="4282.25" y="-237.7" font-family="Times,serif" font-size="14.00">LOCALS</text>
<text xml:space="preserve" text-anchor="start" x="4282.25" y="-221.2" font-family="Times,serif" font-size="14.00">0 = () (0 bytes, align 1)</text>
<text xml:space="preserve" text-anchor="start" x="4282.25" y="-204.7" font-family="Times,serif" font-size="14.00">1 = fn()</text>
<text xml:space="preserve" text-anchor="start" x="4282.25" y="-188.2" font-family="Times,serif" font-size="14.00">2 = () (0 bytes, align 1)</text>
</g>
<!-- node_13 -->
<g id="node26" class="node">
<title>node_13</title>
<polygon fill="#7ccd7c" stroke="#7ccd7c" points="2674.62,-900 2246.12,-900 2246.12,-809.5 2674.62,-809.5 2674.62,-900"/>
<text xml:space="preserve" text-anchor="start" x="2254.12" y="-882.7" font-family="Times,serif" font-size="14.00">LOCALS</text>
<text xml:space="preserve" text-anchor="start" x="2254.12" y="-866.2" font-family="Times,serif" font-size="14.00">0 = Int(I32)</text>
<text xml:space="preserve" text-anchor="start" x="2254.12" y="-849.7" font-family="Times,serif" font-size="14.00">1 = {closure@std::rt::lang_start&lt;()&gt;::{closure#0}}</text>
<text xml:space="preserve" text-anchor="start" x="2254.12" y="-833.2" font-family="Times,serif" font-size="14.00">2 = () (0 bytes, align 1)</text>
<text xml:space="preserve" text-anchor="start" x="2254.12" y="-816.7" font-family="Times,serif" font-size="14.00">3 = &amp;mut {closure@std::rt::lang_start&lt;()&gt;::{closure#0}} (8 bytes, align 8)</text>
</g>
<!-- Xc8056d3bcfe18bb8_4 -->
<g id="node30" class="node">
<title>Xc8056d3bcfe18bb8_4</title>
<polygon fill="none" stroke="black" points="2207.5,-434.5 2147.25,-434.5 2147.25,-398.5 2207.5,-398.5 2207.5,-434.5"/>
<text xml:space="preserve" text-anchor="start" x="2155.25" y="-411.45" font-family="Times,serif" font-size="14.00">Resume</text>
</g>
<!-- Xc8056d3bcfe18bb8_3&#45;&gt;Xc8056d3bcfe18bb8_4 -->
<g id="edge18" class="edge">
<title>Xc8056d3bcfe18bb8_3&#45;&gt;Xc8056d3bcfe18bb8_4</title>
<path fill="none" stroke="black" d="M2178.3,-629.75C2178.13,-590.62 2177.71,-494.8 2177.5,-446.43"/>
<polygon fill="black" stroke="black" points="2181,-446.45 2177.46,-436.46 2174,-446.48 2181,-446.45"/>
</g>
<!-- Xc8056d3bcfe18bb8_2 -->
<g id="node29" class="node">
<title>Xc8056d3bcfe18bb8_2</title>
<polygon fill="none" stroke="black" points="2279.38,-434.5 2225.38,-434.5 2225.38,-398.5 2279.38,-398.5 2279.38,-434.5"/>
<text xml:space="preserve" text-anchor="start" x="2233.38" y="-411.45" font-family="Times,serif" font-size="14.00">Return</text>
</g>
<!-- Xc8056d3bcfe18bb8_1&#45;&gt;Xc8056d3bcfe18bb8_2 -->
<g id="edge17" class="edge">
<title>Xc8056d3bcfe18bb8_1&#45;&gt;Xc8056d3bcfe18bb8_2</title>
<path fill="none" stroke="black" d="M2251.45,-629.75C2251.62,-590.62 2252.04,-494.8 2252.25,-446.43"/>
<polygon fill="black" stroke="black" points="2255.75,-446.48 2252.29,-436.46 2248.75,-446.45 2255.75,-446.48"/>
</g>
<!-- node_15 -->
<g id="node31" class="node">
<title>node_15</title>
<polygon fill="#7ccd7c" stroke="#7ccd7c" points="4226.38,-1156.25 3802.38,-1156.25 3802.38,-1098.75 4226.38,-1098.75 4226.38,-1156.25"/>
<text xml:space="preserve" text-anchor="start" x="3810.38" y="-1138.95" font-family="Times,serif" font-size="14.00">LOCALS</text>
<text xml:space="preserve" text-anchor="start" x="3810.38" y="-1122.45" font-family="Times,serif" font-size="14.00">0 = () (0 bytes, align 1)</text>
<text xml:space="preserve" text-anchor="start" x="3810.38" y="-1105.95" font-family="Times,serif" font-size="14.00">1 = *mut {closure@std::rt::lang_start&lt;()&gt;::{closure#0}} (8 bytes, align 8)</text>
</g>
<!-- X35ea9a4957c2c346_0 -->
<g id="node32" class="node">
<title>X35ea9a4957c2c346_0</title>
<polygon fill="none" stroke="black" points="4298.38,-1145.5 4244.38,-1145.5 4244.38,-1109.5 4298.38,-1109.5 4298.38,-1145.5"/>
<text xml:space="preserve" text-anchor="start" x="4252.38" y="-1122.45" font-family="Times,serif" font-size="14.00">Return</text>
</g>
<!-- node_17 -->
<g id="node33" class="node">
<title>node_17</title>
<polygon fill="#7ccd7c" stroke="#7ccd7c" points="3837.12,-246.75 3579.62,-246.75 3579.62,-189.25 3837.12,-189.25 3837.12,-246.75"/>
<text xml:space="preserve" text-anchor="start" x="3587.62" y="-229.45" font-family="Times,serif" font-size="14.00">LOCALS</text>
<text xml:space="preserve" text-anchor="start" x="3587.62" y="-212.95" font-family="Times,serif" font-size="14.00">0 = std::process::ExitCode (1 bytes, align 1)</text>
<text xml:space="preserve" text-anchor="start" x="3587.62" y="-196.45" font-family="Times,serif" font-size="14.00">1 = () (0 bytes, align 1)</text>
</g>
<!-- node_19 -->
<g id="node34" class="node">
<title>node_19</title>
<polygon fill="#7ccd7c" stroke="#7ccd7c" points="3369.25,-1181 3205.5,-1181 3205.5,-1074 3369.25,-1074 3369.25,-1181"/>
<text xml:space="preserve" text-anchor="start" x="3213.5" y="-1163.7" font-family="Times,serif" font-size="14.00">LOCALS</text>
<text xml:space="preserve" text-anchor="start" x="3213.5" y="-1147.2" font-family="Times,serif" font-size="14.00">0 = () (0 bytes, align 1)</text>
<text xml:space="preserve" text-anchor="start" x="3213.5" y="-1130.7" font-family="Times,serif" font-size="14.00">1 = Int(I32)</text>
<text xml:space="preserve" text-anchor="start" x="3213.5" y="-1114.2" font-family="Times,serif" font-size="14.00">2 = &amp;i32 (8 bytes, align 8)</text>
<text xml:space="preserve" text-anchor="start" x="3213.5" y="-1097.7" font-family="Times,serif" font-size="14.00">3 = Int(I32)</text>
<text xml:space="preserve" text-anchor="start" x="3213.5" y="-1081.2" font-family="Times,serif" font-size="14.00">4 = ()</text>
</g>
<!-- Xf081db69dcabb8e5_0 -->
<g id="node35" class="node">
<title>Xf081db69dcabb8e5_0</title>
<polygon fill="none" stroke="black" points="3555.12,-1164.5 3387.62,-1164.5 3387.62,-1090.5 3555.12,-1090.5 3555.12,-1164.5"/>
<text xml:space="preserve" text-anchor="start" x="3395.62" y="-1147.2" font-family="Times,serif" font-size="14.00">1 &lt;&#45; Use(const 42_Int(I32))</text>
<text xml:space="preserve" text-anchor="start" x="3395.62" y="-1130.7" font-family="Times,serif" font-size="14.00">2 &lt;&#45; &amp; 1</text>
<text xml:space="preserve" text-anchor="start" x="3395.62" y="-1114.2" font-family="Times,serif" font-size="14.00">3 &lt;&#45; Use(cp((*2)))</text>
<text xml:space="preserve" text-anchor="start" x="3395.62" y="-1097.7" font-family="Times,serif" font-size="14.00">SwitchInt cp(3)</text>
</g>
<!-- Xf081db69dcabb8e5_1 -->
<g id="node36" class="node">
<title>Xf081db69dcabb8e5_1</title>
<polygon fill="none" stroke="black" points="3459.38,-872.75 3405.38,-872.75 3405.38,-836.75 3459.38,-836.75 3459.38,-872.75"/>
<text xml:space="preserve" text-anchor="start" x="3413.38" y="-849.7" font-family="Times,serif" font-size="14.00">Return</text>
</g>
<!-- Xf081db69dcabb8e5_0&#45;&gt;Xf081db69dcabb8e5_1 -->
<g id="edge20" class="edge">
<title>Xf081db69dcabb8e5_0&#45;&gt;Xf081db69dcabb8e5_1</title>
<path fill="none" stroke="black" d="M3466.16,-1090.27C3458.31,-1035.82 3443.65,-934.01 3436.5,-884.4"/>
<polygon fill="black" stroke="black" points="3440,-884.15 3435.11,-874.75 3433.07,-885.14 3440,-884.15"/>
<text xml:space="preserve" text-anchor="middle" x="3462.12" y="-1009.7" font-family="Times,serif" font-size="14.00">42</text>
</g>
<!-- Xf081db69dcabb8e5_2 -->
<g id="node37" class="node">
<title>Xf081db69dcabb8e5_2</title>
<polygon fill="none" stroke="black" points="3531.38,-872.75 3477.38,-872.75 3477.38,-836.75 3531.38,-836.75 3531.38,-872.75"/>
<text xml:space="preserve" text-anchor="start" x="3485.38" y="-849.7" font-family="Times,serif" font-size="14.00">Call</text>
</g>
<!-- Xf081db69dcabb8e5_0&#45;&gt;Xf081db69dcabb8e5_2 -->
<g id="edge21" class="edge">
<title>Xf081db69dcabb8e5_0&#45;&gt;Xf081db69dcabb8e5_2</title>
<path fill="none" stroke="black" d="M3475.79,-1090.27C3482.43,-1035.82 3494.84,-934.01 3500.88,-884.4"/>
<polygon fill="black" stroke="black" points="3504.32,-885.1 3502.06,-874.75 3497.37,-884.25 3504.32,-885.1"/>
<text xml:space="preserve" text-anchor="middle" x="3499.77" y="-1009.7" font-family="Times,serif" font-size="14.00">other</text>
</g>
<!-- Xf081db69dcabb8e5_2&#45;&gt;X210a8e5fe9313c81_0 -->
<g id="edge22" class="edge">
<title>Xf081db69dcabb8e5_2&#45;&gt;X210a8e5fe9313c81_0</title>
<path fill="none" stroke="black" d="M3504.38,-836.29C3504.38,-801.64 3504.38,-723.76 3504.38,-680.13"/>
<polygon fill="black" stroke="black" points="3507.88,-680.31 3504.38,-670.31 3500.88,-680.31 3507.88,-680.31"/>
<text xml:space="preserve" text-anchor="middle" x="3541.5" y="-778.2" font-family="Times,serif" font-size="14.00">const [alloc0]</text>
</g>
</g>
</svg>
