<?xml version="1.0" encoding="UTF-8" standalone="no"?>
<!DOCTYPE svg PUBLIC "-//W3C//DTD SVG 1.1//EN"
 "http://www.w3.org/Graphics/SVG/1.1/DTD/svg11.dtd">
<!-- Generated by graphviz version 14.1.1 (20251213.1925)
 -->
<!-- Pages: 1 -->
<svg width="4895pt" height="1279pt"
 viewBox="0.00 0.00 4895.00 1279.00" xmlns="http://www.w3.org/2000/svg" xmlns:xlink="http://www.w3.org/1999/xlink">
<g id="graph0" class="graph" transform="scale(1 1) rotate(0) translate(4 1275)">
<polygon fill="white" stroke="none" points="-4,4 -4,-1275 4891.38,-1275 4891.38,4 -4,4"/>
<text xml:space="preserve" text-anchor="middle" x="2443.69" y="-7.2" font-family="Times,serif" font-size="14.00">strange_ref_deref</text>
<g id="clust1" class="cluster">
<title>cluster_2</title>
<polygon fill="palegreen" stroke="palegreen" points="531.38,-828.75 531.38,-1230 908.38,-1230 908.38,-828.75 531.38,-828.75"/>
<text xml:space="preserve" text-anchor="middle" x="719.88" y="-1212.7" font-family="Times,serif" font-size="14.00">main</text>
</g>
<g id="clust2" class="cluster">
<title>cluster_4</title>
<polygon fill="lightgray" stroke="lightgray" points="985.38,-801.5 985.38,-1246.5 1820.38,-1246.5 1820.38,-801.5 985.38,-801.5"/>
<text xml:space="preserve" text-anchor="middle" x="1402.88" y="-1229.2" font-family="Times,serif" font-size="14.00">std::rt::lang_start::&lt;()&gt;</text>
</g>
<g id="clust3" class="cluster">
<title>cluster_6</title>
<polygon fill="lightgray" stroke="lightgray" points="3143.38,-123.5 3143.38,-767 3757.38,-767 3757.38,-123.5 3143.38,-123.5"/>
<text xml:space="preserve" text-anchor="middle" x="3450.38" y="-749.7" font-family="Times,serif" font-size="14.00">std::rt::lang_start::&lt;()&gt;</text>
<text xml:space="preserve" text-anchor="middle" x="3450.38" y="-733.2" font-family="Times,serif" font-size="14.00">::{closure#0}</text>
</g>
<g id="clust4" class="cluster">
<title>cluster_8</title>
<polygon fill="lightgray" stroke="lightgray" points="4306.38,-32.5 4306.38,-535.5 4538.38,-535.5 4538.38,-32.5 4306.38,-32.5"/>
<text xml:space="preserve" text-anchor="middle" x="4422.38" y="-518.2" font-family="Times,serif" font-size="14.00">std::sys::backtrace::__ru</text>
<text xml:space="preserve" text-anchor="middle" x="4422.38" y="-501.7" font-family="Times,serif" font-size="14.00">st_begin_short_backtrace:</text>
<text xml:space="preserve" text-anchor="middle" x="4422.38" y="-485.2" font-family="Times,serif" font-size="14.00">:&lt;fn(), </text>
<text xml:space="preserve" text-anchor="middle" x="4422.38" y="-468.7" font-family="Times,serif" font-size="14.00">()&gt;</text>
</g>
<g id="clust5" class="cluster">
<title>cluster_10</title>
<polygon fill="lightgray" stroke="lightgray" points="2066.38,-828.75 2066.38,-1263 2578.38,-1263 2578.38,-828.75 2066.38,-828.75"/>
<text xml:space="preserve" text-anchor="middle" x="2322.38" y="-1245.7" font-family="Times,serif" font-size="14.00">&lt;{closure@std::rt::lang_s</text>
<text xml:space="preserve" text-anchor="middle" x="2322.38" y="-1229.2" font-family="Times,serif" font-size="14.00">tart&lt;()&gt;::{closure#0}} </text>
<text xml:space="preserve" text-anchor="middle" x="2322.38" y="-1212.7" font-family="Times,serif" font-size="14.00">as </text>
<text xml:space="preserve" text-anchor="middle" x="2322.38" y="-1196.2" font-family="Times,serif" font-size="14.00">std::ops::FnOnce&lt;()&gt;&gt;::ca</text>
<text xml:space="preserve" text-anchor="middle" x="2322.38" y="-1179.7" font-family="Times,serif" font-size="14.00">ll_once</text>
</g>
<g id="clust6" class="cluster">
<title>cluster_12</title>
<polygon fill="lightgray" stroke="lightgray" points="4629.38,-32.5 4629.38,-337 4879.38,-337 4879.38,-32.5 4629.38,-32.5"/>
<text xml:space="preserve" text-anchor="middle" x="4754.38" y="-319.7" font-family="Times,serif" font-size="14.00">&lt;fn() </text>
<text xml:space="preserve" text-anchor="middle" x="4754.38" y="-303.2" font-family="Times,serif" font-size="14.00">as </text>
<text xml:space="preserve" text-anchor="middle" x="4754.38" y="-286.7" font-family="Times,serif" font-size="14.00">std::ops::FnOnce&lt;()&gt;&gt;::ca</text>
<text xml:space="preserve" text-anchor="middle" x="4754.38" y="-270.2" font-family="Times,serif" font-size="14.00">ll_once</text>
</g>
<g id="clust7" class="cluster">
<title>cluster_14</title>
<polygon fill="lightgray" stroke="lightgray" points="2586.38,-390.5 2586.38,-998.5 3135.38,-998.5 3135.38,-390.5 2586.38,-390.5"/>
<text xml:space="preserve" text-anchor="middle" x="2860.88" y="-981.2" font-family="Times,serif" font-size="14.00">&lt;{closure@std::rt::lang_s</text>
<text xml:space="preserve" text-anchor="middle" x="2860.88" y="-964.7" font-family="Times,serif" font-size="14.00">tart&lt;()&gt;::{closure#0}} </text>
<text xml:space="preserve" text-anchor="middle" x="2860.88" y="-948.2" font-family="Times,serif" font-size="14.00">as </text>
<text xml:space="preserve" text-anchor="middle" x="2860.88" y="-931.7" font-family="Times,serif" font-size="14.00">std::ops::FnOnce&lt;()&gt;&gt;::ca</text>
<text xml:space="preserve" text-anchor="middle" x="2860.88" y="-915.2" font-family="Times,serif" font-size="14.00">ll_once</text>
</g>
<g id="clust8" class="cluster">
<title>cluster_16</title>
<polygon fill="lightgray" stroke="lightgray" points="3476.38,-1090.75 3476.38,-1221.75 3988.38,-1221.75 3988.38,-1090.75 3476.38,-1090.75"/>
<text xml:space="preserve" text-anchor="middle" x="3732.38" y="-1204.45" font-family="Times,serif" font-size="14.00">std::ptr::drop_in_place::</text>
<text xml:space="preserve" text-anchor="middle" x="3732.38" y="-1187.95" font-family="Times,serif" font-size="14.00">&lt;{closure@std::rt::lang_s</text>
<text xml:space="preserve" text-anchor="middle" x="3732.38" y="-1171.45" font-family="Times,serif" font-size="14.00">tart&lt;()&gt;::{closure#0}}&gt;</text>
</g>
<g id="clust9" class="cluster">
<title>cluster_18</title>
<polygon fill="lightgray" stroke="lightgray" points="3765.38,-181.25 3765.38,-328.75 4298.38,-328.75 4298.38,-181.25 3765.38,-181.25"/>
<text xml:space="preserve" text-anchor="middle" x="4031.88" y="-311.45" font-family="Times,serif" font-size="14.00">&lt;() </text>
<text xml:space="preserve" text-anchor="middle" x="4031.88" y="-294.95" font-family="Times,serif" font-size="14.00">as </text>
<text xml:space="preserve" text-anchor="middle" x="4031.88" y="-278.45" font-family="Times,serif" font-size="14.00">std::process::Termination</text>
<text xml:space="preserve" text-anchor="middle" x="4031.88" y="-261.95" font-family="Times,serif" font-size="14.00">&gt;::report</text>
</g>
<!-- node_0 -->
<g id="node1" class="node">
<title>node_0</title>
<polygon fill="lightyellow" stroke="lightyellow" points="130.75,-1148 0,-1148 0,-1107 130.75,-1107 130.75,-1148"/>
<text xml:space="preserve" text-anchor="start" x="8" y="-1130.7" font-family="Times,serif" font-size="14.00">ALLOCS</text>
<text xml:space="preserve" text-anchor="start" x="8" y="-1114.2" font-family="Times,serif" font-size="14.00">alloc1: Str (26 bytes)</text>
</g>
<!-- node_1 -->
<g id="node2" class="node">
<title>node_1</title>
<polygon fill="lavender" stroke="lavender" points="522.25,-1181 148.5,-1181 148.5,-1074 522.25,-1074 522.25,-1181"/>
<text xml:space="preserve" text-anchor="start" x="156.5" y="-1163.7" font-family="Times,serif" font-size="14.00">TYPES</text>
<text xml:space="preserve" text-anchor="start" x="156.5" y="-1147.2" font-family="Times,serif" font-size="14.00">() (0 bytes)</text>
<text xml:space="preserve" text-anchor="start" x="156.5" y="-1130.7" font-family="Times,serif" font-size="14.00">std::panic::Location&lt;&#39;_&gt; (24 bytes)</text>
<text xml:space="preserve" text-anchor="start" x="156.5" y="-1114.2" font-family="Times,serif" font-size="14.00">std::process::ExitCode (1 bytes)</text>
<text xml:space="preserve" text-anchor="start" x="156.5" y="-1097.7" font-family="Times,serif" font-size="14.00">std::result::Result&lt;isize, !&gt; (8 bytes)</text>
<text xml:space="preserve" text-anchor="start" x="156.5" y="-1081.2" font-family="Times,serif" font-size="14.00">std::sys::pal::unix::process::process_common::ExitCode (1 bytes)</text>
</g>
<!-- X210a8e5fe9313c81_0 -->
<g id="node3" class="node">
<title>X210a8e5fe9313c81_0</title>
<polygon fill="none" stroke="red" points="940.12,-668.5 766.62,-668.5 766.62,-627.5 940.12,-627.5 940.12,-668.5"/>
<text xml:space="preserve" text-anchor="middle" x="853.38" y="-651.2" font-family="Times,serif" font-size="14.00">_ZN4core9panicking5panic1</text>
<text xml:space="preserve" text-anchor="middle" x="853.38" y="-634.7" font-family="Times,serif" font-size="14.00">7h37379bf3ce79a0d7E</text>
</g>
<!-- X8b0ac2e54b9a91_0 -->
<g id="node4" class="node">
<title>X8b0ac2e54b9a91_0</title>
<polygon fill="none" stroke="red" points="974.62,-1145.5 918.12,-1145.5 918.12,-1109.5 974.62,-1109.5 974.62,-1145.5"/>
<text xml:space="preserve" text-anchor="middle" x="946.38" y="-1122.45" font-family="Times,serif" font-size="14.00">NoOp: </text>
</g>
<!-- X5eb86185c1cf8f06_0 -->
<g id="node5" class="node">
<title>X5eb86185c1cf8f06_0</title>
<polygon fill="none" stroke="red" points="1996.12,-883.5 1828.62,-883.5 1828.62,-826 1996.12,-826 1996.12,-883.5"/>
<text xml:space="preserve" text-anchor="middle" x="1912.38" y="-866.2" font-family="Times,serif" font-size="14.00">_ZN3std2rt19lang_start_in</text>
<text xml:space="preserve" text-anchor="middle" x="1912.38" y="-849.7" font-family="Times,serif" font-size="14.00">ternal17h035df9ff6960926a</text>
<text xml:space="preserve" text-anchor="middle" x="1912.38" y="-833.2" font-family="Times,serif" font-size="14.00">E</text>
</g>
<!-- X3c6542d96320ad67_0 -->
<g id="node6" class="node">
<title>X3c6542d96320ad67_0</title>
<polygon fill="none" stroke="red" points="4618.5,-79 4546.25,-79 4546.25,-38 4618.5,-38 4618.5,-79"/>
<text xml:space="preserve" text-anchor="middle" x="4582.38" y="-61.7" font-family="Times,serif" font-size="14.00">Intr: </text>
<text xml:space="preserve" text-anchor="middle" x="4582.38" y="-45.2" font-family="Times,serif" font-size="14.00">black_box</text>
</g>
<!-- node_3 -->
<g id="node7" class="node">
<title>node_3</title>
<polygon fill="#7ccd7c" stroke="#7ccd7c" points="714.88,-1197.5 539.88,-1197.5 539.88,-1057.5 714.88,-1057.5 714.88,-1197.5"/>
<text xml:space="preserve" text-anchor="start" x="547.88" y="-1180.2" font-family="Times,serif" font-size="14.00">LOCALS</text>
<text xml:space="preserve" text-anchor="start" x="547.88" y="-1163.7" font-family="Times,serif" font-size="14.00">0 = () (0 bytes, align 1)</text>
<text xml:space="preserve" text-anchor="start" x="547.88" y="-1147.2" font-family="Times,serif" font-size="14.00">1 = Int(I32)</text>
<text xml:space="preserve" text-anchor="start" x="547.88" y="-1130.7" font-family="Times,serif" font-size="14.00">2 = &amp;i32 (8 bytes, align 8)</text>
<text xml:space="preserve" text-anchor="start" x="547.88" y="-1114.2" font-family="Times,serif" font-size="14.00">3 = &amp;&amp;i32 (8 bytes, align 8)</text>
<text xml:space="preserve" text-anchor="start" x="547.88" y="-1097.7" font-family="Times,serif" font-size="14.00">4 = Int(I32)</text>
<text xml:space="preserve" text-anchor="start" x="547.88" y="-1081.2" font-family="Times,serif" font-size="14.00">5 = ()</text>
<text xml:space="preserve" text-anchor="start" x="547.88" y="-1064.7" font-family="Times,serif" font-size="14.00">6 = &amp;i32 (8 bytes, align 8)</text>
</g>
<!-- X6b343513019f1f29_0 -->
<g id="node8" class="node">
<title>X6b343513019f1f29_0</title>
<polygon fill="none" stroke="black" points="900.12,-1189.25 732.62,-1189.25 732.62,-1065.75 900.12,-1065.75 900.12,-1189.25"/>
<text xml:space="preserve" text-anchor="start" x="740.62" y="-1171.95" font-family="Times,serif" font-size="14.00">1 &lt;&#45; Use(const 42_Int(I32))</text>
<text xml:space="preserve" text-anchor="start" x="740.62" y="-1155.45" font-family="Times,serif" font-size="14.00">2 &lt;&#45; &amp; 1</text>
<text xml:space="preserve" text-anchor="start" x="740.62" y="-1138.95" font-family="Times,serif" font-size="14.00">3 &lt;&#45; &amp; 2</text>
<text xml:space="preserve" text-anchor="start" x="740.62" y="-1122.45" font-family="Times,serif" font-size="14.00">6 &lt;&#45; CopyForDeref((*3))</text>
<text xml:space="preserve" text-anchor="start" x="740.62" y="-1105.95" font-family="Times,serif" font-size="14.00">2 &lt;&#45; Use(cp(6))</text>
<text xml:space="preserve" text-anchor="start" x="740.62" y="-1089.45" font-family="Times,serif" font-size="14.00">4 &lt;&#45; Use(cp((*2)))</text>
<text xml:space="preserve" text-anchor="start" x="740.62" y="-1072.95" font-family="Times,serif" font-size="14.00">SwitchInt mv(4)</text>
</g>
<!-- X6b343513019f1f29_1 -->
<g id="node9" class="node">
<title>X6b343513019f1f29_1</title>
<polygon fill="none" stroke="black" points="808.38,-872.75 754.38,-872.75 754.38,-836.75 808.38,-836.75 808.38,-872.75"/>
<text xml:space="preserve" text-anchor="start" x="762.38" y="-849.7" font-family="Times,serif" font-size="14.00">Return</text>
</g>
<!-- X6b343513019f1f29_0&#45;&gt;X6b343513019f1f29_1 -->
<g id="edge1" class="edge">
<title>X6b343513019f1f29_0&#45;&gt;X6b343513019f1f29_1</title>
<path fill="none" stroke="black" d="M806.87,-1065.25C804.8,-1051.37 802.7,-1036.69 800.88,-1023 794.38,-974.22 788,-917.28 784.38,-884"/>
<polygon fill="black" stroke="black" points="787.9,-883.94 783.35,-874.37 780.94,-884.69 787.9,-883.94"/>
<text xml:space="preserve" text-anchor="middle" x="807.62" y="-1009.7" font-family="Times,serif" font-size="14.00">42</text>
</g>
<!-- X6b343513019f1f29_2 -->
<g id="node10" class="node">
<title>X6b343513019f1f29_2</title>
<polygon fill="none" stroke="black" points="880.38,-872.75 826.38,-872.75 826.38,-836.75 880.38,-836.75 880.38,-872.75"/>
<text xml:space="preserve" text-anchor="start" x="834.38" y="-849.7" font-family="Times,serif" font-size="14.00">Call</text>
</g>
<!-- X6b343513019f1f29_0&#45;&gt;X6b343513019f1f29_2 -->
<g id="edge2" class="edge">
<title>X6b343513019f1f29_0&#45;&gt;X6b343513019f1f29_2</title>
<path fill="none" stroke="black" d="M824.72,-1065.4C832.46,-1008.78 843.63,-927.06 849.47,-884.29"/>
<polygon fill="black" stroke="black" points="852.92,-884.95 850.8,-874.57 845.98,-884 852.92,-884.95"/>
<text xml:space="preserve" text-anchor="middle" x="846.53" y="-1009.7" font-family="Times,serif" font-size="14.00">other</text>
</g>
<!-- X6b343513019f1f29_2&#45;&gt;X210a8e5fe9313c81_0 -->
<g id="edge3" class="edge">
<title>X6b343513019f1f29_2&#45;&gt;X210a8e5fe9313c81_0</title>
<path fill="none" stroke="black" d="M853.38,-836.29C853.38,-801.64 853.38,-723.76 853.38,-680.13"/>
<polygon fill="black" stroke="black" points="856.88,-680.31 853.38,-670.31 849.88,-680.31 856.88,-680.31"/>
<text xml:space="preserve" text-anchor="middle" x="890.5" y="-778.2" font-family="Times,serif" font-size="14.00">const [alloc0]</text>
</g>
<!-- node_5 -->
<g id="node11" class="node">
<title>node_5</title>
<polygon fill="#7ccd7c" stroke="#7ccd7c" points="1555.75,-1214 993,-1214 993,-1041 1555.75,-1041 1555.75,-1214"/>
<text xml:space="preserve" text-anchor="start" x="1001" y="-1196.7" font-family="Times,serif" font-size="14.00">LOCALS</text>
<text xml:space="preserve" text-anchor="start" x="1001" y="-1180.2" font-family="Times,serif" font-size="14.00">0 = Int(Isize)</text>
<text xml:space="preserve" text-anchor="start" x="1001" y="-1163.7" font-family="Times,serif" font-size="14.00">1 = fn()</text>
<text xml:space="preserve" text-anchor="start" x="1001" y="-1147.2" font-family="Times,serif" font-size="14.00">2 = Int(Isize)</text>
<text xml:space="preserve" text-anchor="start" x="1001" y="-1130.7" font-family="Times,serif" font-size="14.00">3 = *const *const u8 (8 bytes, align 8)</text>
<text xml:space="preserve" text-anchor="start" x="1001" y="-1114.2" font-family="Times,serif" font-size="14.00">4 = Uint(U8)</text>
<text xml:space="preserve" text-anchor="start" x="1001" y="-1097.7" font-family="Times,serif" font-size="14.00">5 = std::result::Result&lt;isize, !&gt; (8 bytes, align 8)</text>
<text xml:space="preserve" text-anchor="start" x="1001" y="-1081.2" font-family="Times,serif" font-size="14.00">6 = &amp;dyn std::ops::Fn() &#45;&gt; i32 + std::marker::Sync + std::panic::RefUnwindSafe (16 bytes, align 8)</text>
<text xml:space="preserve" text-anchor="start" x="1001" y="-1064.7" font-family="Times,serif" font-size="14.00">7 = &amp;{closure@std::rt::lang_start&lt;()&gt;::{closure#0}} (8 bytes, align 8)</text>
<text xml:space="preserve" text-anchor="start" x="1001" y="-1048.2" font-family="Times,serif" font-size="14.00">8 = {closure@std::rt::lang_start&lt;()&gt;::{closure#0}}</text>
</g>
<!-- X4f9fda3fa7fc50dd_0 -->
<g id="node12" class="node">
<title>X4f9fda3fa7fc50dd_0</title>
<polygon fill="none" stroke="black" points="1812.75,-1189.25 1574,-1189.25 1574,-1065.75 1812.75,-1065.75 1812.75,-1189.25"/>
<text xml:space="preserve" text-anchor="start" x="1582" y="-1171.95" font-family="Times,serif" font-size="14.00">Storage Live _5</text>
<text xml:space="preserve" text-anchor="start" x="1582" y="-1155.45" font-family="Times,serif" font-size="14.00">Storage Live _6</text>
<text xml:space="preserve" text-anchor="start" x="1582" y="-1138.95" font-family="Times,serif" font-size="14.00">Storage Live _8</text>
<text xml:space="preserve" text-anchor="start" x="1582" y="-1122.45" font-family="Times,serif" font-size="14.00">8 &lt;&#45; Closure (cp(1))</text>
<text xml:space="preserve" text-anchor="start" x="1582" y="-1105.95" font-family="Times,serif" font-size="14.00">7 &lt;&#45; &amp; 8</text>
<text xml:space="preserve" text-anchor="start" x="1582" y="-1089.45" font-family="Times,serif" font-size="14.00">6 &lt;&#45; Cast&#45;PointerCoercion(Unsize) cp(7)</text>
<text xml:space="preserve" text-anchor="start" x="1582" y="-1072.95" font-family="Times,serif" font-size="14.00">Call</text>
</g>
<!-- X4f9fda3fa7fc50dd_0&#45;&gt;X5eb86185c1cf8f06_0 -->
<g id="edge5" class="edge">
<title>X4f9fda3fa7fc50dd_0&#45;&gt;X5eb86185c1cf8f06_0</title>
<path fill="none" stroke="black" d="M1762.27,-1065.31C1783.32,-1045.05 1805.8,-1021.72 1824.38,-998.5 1850.89,-965.35 1875.75,-923.65 1892.24,-893.9"/>
<polygon fill="black" stroke="black" points="1895.25,-895.69 1896.98,-885.24 1889.11,-892.33 1895.25,-895.69"/>
<text xml:space="preserve" text-anchor="middle" x="1888.05" y="-1009.7" font-family="Times,serif" font-size="14.00">mv(6),mv(2),mv(3),mv(4)</text>
</g>
<!-- X4f9fda3fa7fc50dd_1 -->
<g id="node13" class="node">
<title>X4f9fda3fa7fc50dd_1</title>
<polygon fill="none" stroke="black" points="1787.25,-900 1599.5,-900 1599.5,-809.5 1787.25,-809.5 1787.25,-900"/>
<text xml:space="preserve" text-anchor="start" x="1607.5" y="-882.7" font-family="Times,serif" font-size="14.00">Storage Dead _6</text>
<text xml:space="preserve" text-anchor="start" x="1607.5" y="-866.2" font-family="Times,serif" font-size="14.00">0 &lt;&#45; Use(cp((5 as variant 0).0))</text>
<text xml:space="preserve" text-anchor="start" x="1607.5" y="-849.7" font-family="Times,serif" font-size="14.00">Storage Dead _8</text>
<text xml:space="preserve" text-anchor="start" x="1607.5" y="-833.2" font-family="Times,serif" font-size="14.00">Storage Dead _5</text>
<text xml:space="preserve" text-anchor="start" x="1607.5" y="-816.7" font-family="Times,serif" font-size="14.00">Return</text>
</g>
<!-- X4f9fda3fa7fc50dd_0&#45;&gt;X4f9fda3fa7fc50dd_1 -->
<g id="edge4" class="edge">
<title>X4f9fda3fa7fc50dd_0&#45;&gt;X4f9fda3fa7fc50dd_1</title>
<path fill="none" stroke="black" d="M1693.38,-1065.4C1693.38,-1019.2 1693.38,-956.29 1693.38,-911.46"/>
<polygon fill="black" stroke="black" points="1696.88,-911.7 1693.38,-901.7 1689.88,-911.7 1696.88,-911.7"/>
<text xml:space="preserve" text-anchor="middle" x="1696.75" y="-1009.7" font-family="Times,serif" font-size="14.00">5</text>
</g>
<!-- node_7 -->
<g id="node14" class="node">
<title>node_7</title>
<polygon fill="#7ccd7c" stroke="#7ccd7c" points="3603.62,-718 3151.12,-718 3151.12,-578 3603.62,-578 3603.62,-718"/>
<text xml:space="preserve" text-anchor="start" x="3159.12" y="-700.7" font-family="Times,serif" font-size="14.00">LOCALS</text>
<text xml:space="preserve" text-anchor="start" x="3159.12" y="-684.2" font-family="Times,serif" font-size="14.00">0 = Int(I32)</text>
<text xml:space="preserve" text-anchor="start" x="3159.12" y="-667.7" font-family="Times,serif" font-size="14.00">1 = &amp;{closure@std::rt::lang_start&lt;()&gt;::{closure#0}} (8 bytes, align 8)</text>
<text xml:space="preserve" text-anchor="start" x="3159.12" y="-651.2" font-family="Times,serif" font-size="14.00">2 = std::process::ExitCode (1 bytes, align 1)</text>
<text xml:space="preserve" text-anchor="start" x="3159.12" y="-634.7" font-family="Times,serif" font-size="14.00">3 = () (0 bytes, align 1)</text>
<text xml:space="preserve" text-anchor="start" x="3159.12" y="-618.2" font-family="Times,serif" font-size="14.00">4 = fn()</text>
<text xml:space="preserve" text-anchor="start" x="3159.12" y="-601.7" font-family="Times,serif" font-size="14.00">5 = &amp;std::sys::pal::unix::process::process_common::ExitCode (8 bytes, align 8)</text>
<text xml:space="preserve" text-anchor="start" x="3159.12" y="-585.2" font-family="Times,serif" font-size="14.00">6 = Uint(U8)</text>
</g>
<!-- X20d29d8683f11f4f_0 -->
<g id="node15" class="node">
<title>X20d29d8683f11f4f_0</title>
<polygon fill="none" stroke="black" points="3749.25,-693.25 3621.5,-693.25 3621.5,-602.75 3749.25,-602.75 3749.25,-693.25"/>
<text xml:space="preserve" text-anchor="start" x="3629.5" y="-675.95" font-family="Times,serif" font-size="14.00">Storage Live _2</text>
<text xml:space="preserve" text-anchor="start" x="3629.5" y="-659.45" font-family="Times,serif" font-size="14.00">Storage Live _3</text>
<text xml:space="preserve" text-anchor="start" x="3629.5" y="-642.95" font-family="Times,serif" font-size="14.00">Storage Live _4</text>
<text xml:space="preserve" text-anchor="start" x="3629.5" y="-626.45" font-family="Times,serif" font-size="14.00">4 &lt;&#45; Use(cp((*1).0))</text>
<text xml:space="preserve" text-anchor="start" x="3629.5" y="-609.95" font-family="Times,serif" font-size="14.00">Call</text>
</g>
<!-- X20d29d8683f11f4f_1 -->
<g id="node16" class="node">
<title>X20d29d8683f11f4f_1</title>
<polygon fill="none" stroke="black" points="3738.75,-437 3632,-437 3632,-396 3738.75,-396 3738.75,-437"/>
<text xml:space="preserve" text-anchor="start" x="3640" y="-419.7" font-family="Times,serif" font-size="14.00">Storage Dead _4</text>
<text xml:space="preserve" text-anchor="start" x="3640" y="-403.2" font-family="Times,serif" font-size="14.00">Call</text>
</g>
<!-- X20d29d8683f11f4f_0&#45;&gt;X20d29d8683f11f4f_1 -->
<g id="edge6" class="edge">
<title>X20d29d8683f11f4f_0&#45;&gt;X20d29d8683f11f4f_1</title>
<path fill="none" stroke="black" d="M3685.38,-602.48C3685.38,-557.23 3685.38,-488.32 3685.38,-448.63"/>
<polygon fill="black" stroke="black" points="3688.88,-448.82 3685.38,-438.82 3681.88,-448.82 3688.88,-448.82"/>
<text xml:space="preserve" text-anchor="middle" x="3688.75" y="-546.7" font-family="Times,serif" font-size="14.00">3</text>
</g>
<!-- Xca536272657bdbf7_0 -->
<g id="node18" class="node">
<title>Xca536272657bdbf7_0</title>
<polygon fill="none" stroke="black" points="4368.38,-434.5 4314.38,-434.5 4314.38,-398.5 4368.38,-398.5 4368.38,-434.5"/>
<text xml:space="preserve" text-anchor="start" x="4322.38" y="-411.45" font-family="Times,serif" font-size="14.00">Call</text>
</g>
<!-- X20d29d8683f11f4f_0&#45;&gt;Xca536272657bdbf7_0 -->
<g id="edge8" class="edge">
<title>X20d29d8683f11f4f_0&#45;&gt;Xca536272657bdbf7_0</title>
<path fill="none" stroke="black" d="M3749.47,-624.58C3884.61,-577.3 4195.2,-468.64 4303.38,-430.79"/>
<polygon fill="black" stroke="black" points="4304.38,-434.15 4312.66,-427.55 4302.07,-427.54 4304.38,-434.15"/>
<text xml:space="preserve" text-anchor="middle" x="3990.97" y="-546.7" font-family="Times,serif" font-size="14.00">mv(4)</text>
</g>
<!-- X20d29d8683f11f4f_2 -->
<g id="node17" class="node">
<title>X20d29d8683f11f4f_2</title>
<polygon fill="none" stroke="black" points="3749.38,-304.5 3595.38,-304.5 3595.38,-131.5 3749.38,-131.5 3749.38,-304.5"/>
<text xml:space="preserve" text-anchor="start" x="3603.38" y="-287.2" font-family="Times,serif" font-size="14.00">Storage Dead _3</text>
<text xml:space="preserve" text-anchor="start" x="3603.38" y="-270.7" font-family="Times,serif" font-size="14.00">Storage Live _5</text>
<text xml:space="preserve" text-anchor="start" x="3603.38" y="-254.2" font-family="Times,serif" font-size="14.00">5 &lt;&#45; &amp; 2.0</text>
<text xml:space="preserve" text-anchor="start" x="3603.38" y="-237.7" font-family="Times,serif" font-size="14.00">Storage Live _6</text>
<text xml:space="preserve" text-anchor="start" x="3603.38" y="-221.2" font-family="Times,serif" font-size="14.00">6 &lt;&#45; Use(cp(2.0.0))</text>
<text xml:space="preserve" text-anchor="start" x="3603.38" y="-204.7" font-family="Times,serif" font-size="14.00">0 &lt;&#45; Cast&#45;IntToInt mv(6)</text>
<text xml:space="preserve" text-anchor="start" x="3603.38" y="-188.2" font-family="Times,serif" font-size="14.00">Storage Dead _6</text>
<text xml:space="preserve" text-anchor="start" x="3603.38" y="-171.7" font-family="Times,serif" font-size="14.00">Storage Dead _5</text>
<text xml:space="preserve" text-anchor="start" x="3603.38" y="-155.2" font-family="Times,serif" font-size="14.00">Storage Dead _2</text>
<text xml:space="preserve" text-anchor="start" x="3603.38" y="-138.7" font-family="Times,serif" font-size="14.00">Return</text>
</g>
<!-- X20d29d8683f11f4f_1&#45;&gt;X20d29d8683f11f4f_2 -->
<g id="edge7" class="edge">
<title>X20d29d8683f11f4f_1&#45;&gt;X20d29d8683f11f4f_2</title>
<path fill="none" stroke="black" d="M3684.06,-395.58C3682.8,-376.54 3680.8,-346.38 3678.81,-316.33"/>
<polygon fill="black" stroke="black" points="3682.31,-316.1 3678.15,-306.35 3675.32,-316.56 3682.31,-316.1"/>
<text xml:space="preserve" text-anchor="middle" x="3684.91" y="-348.2" font-family="Times,serif" font-size="14.00">2</text>
</g>
<!-- X2581f3f2d5dfd456_0 -->
<g id="node19" class="node">
<title>X2581f3f2d5dfd456_0</title>
<polygon fill="none" stroke="black" points="4014.88,-238.5 3773.88,-238.5 3773.88,-197.5 4014.88,-197.5 4014.88,-238.5"/>
<text xml:space="preserve" text-anchor="start" x="3781.88" y="-221.2" font-family="Times,serif" font-size="14.00">0 &lt;&#45; Use(const 0_std::process::ExitCode)</text>
<text xml:space="preserve" text-anchor="start" x="3781.88" y="-204.7" font-family="Times,serif" font-size="14.00">Return</text>
</g>
<!-- X20d29d8683f11f4f_1&#45;&gt;X2581f3f2d5dfd456_0 -->
<g id="edge9" class="edge">
<title>X20d29d8683f11f4f_1&#45;&gt;X2581f3f2d5dfd456_0</title>
<path fill="none" stroke="black" d="M3706.57,-395.58C3744.04,-360.34 3822.08,-286.97 3864.82,-246.78"/>
<polygon fill="black" stroke="black" points="3867.14,-249.41 3872.03,-240.01 3862.34,-244.31 3867.14,-249.41"/>
<text xml:space="preserve" text-anchor="middle" x="3775.82" y="-348.2" font-family="Times,serif" font-size="14.00">mv(3)</text>
</g>
<!-- Xca536272657bdbf7_1 -->
<g id="node21" class="node">
<title>Xca536272657bdbf7_1</title>
<polygon fill="none" stroke="black" points="4448.38,-236 4394.38,-236 4394.38,-200 4448.38,-200 4448.38,-236"/>
<text xml:space="preserve" text-anchor="start" x="4402.38" y="-212.95" font-family="Times,serif" font-size="14.00">Call</text>
</g>
<!-- Xca536272657bdbf7_0&#45;&gt;Xca536272657bdbf7_1 -->
<g id="edge10" class="edge">
<title>Xca536272657bdbf7_0&#45;&gt;Xca536272657bdbf7_1</title>
<path fill="none" stroke="black" d="M4348.47,-398.06C4362.35,-363.98 4393.18,-288.26 4409.96,-247.05"/>
<polygon fill="black" stroke="black" points="4413.19,-248.38 4413.72,-237.8 4406.71,-245.74 4413.19,-248.38"/>
<text xml:space="preserve" text-anchor="middle" x="4372.91" y="-348.2" font-family="Times,serif" font-size="14.00">0</text>
</g>
<!-- Xc6b1681eadf306a4_0 -->
<g id="node23" class="node">
<title>Xc6b1681eadf306a4_0</title>
<polygon fill="none" stroke="black" points="4691.38,-236 4637.38,-236 4637.38,-200 4691.38,-200 4691.38,-236"/>
<text xml:space="preserve" text-anchor="start" x="4645.38" y="-212.95" font-family="Times,serif" font-size="14.00">Call</text>
</g>
<!-- Xca536272657bdbf7_0&#45;&gt;Xc6b1681eadf306a4_0 -->
<g id="edge12" class="edge">
<title>Xca536272657bdbf7_0&#45;&gt;Xc6b1681eadf306a4_0</title>
<path fill="none" stroke="black" d="M4355.25,-398.06C4361.38,-391.38 4369.08,-384.23 4377.38,-379.5 4443.14,-341.96 4476.3,-374 4542.38,-337 4584.23,-313.56 4622.19,-272.21 4644.28,-245.21"/>
<polygon fill="black" stroke="black" points="4646.95,-247.48 4650.47,-237.49 4641.48,-243.11 4646.95,-247.48"/>
<text xml:space="preserve" text-anchor="middle" x="4562.85" y="-348.2" font-family="Times,serif" font-size="14.00">mv(1),const ()</text>
</g>
<!-- node_9 -->
<g id="node20" class="node">
<title>node_9</title>
<polygon fill="#7ccd7c" stroke="#7ccd7c" points="4530.5,-453.5 4386.25,-453.5 4386.25,-379.5 4530.5,-379.5 4530.5,-453.5"/>
<text xml:space="preserve" text-anchor="start" x="4394.25" y="-436.2" font-family="Times,serif" font-size="14.00">LOCALS</text>
<text xml:space="preserve" text-anchor="start" x="4394.25" y="-419.7" font-family="Times,serif" font-size="14.00">0 = () (0 bytes, align 1)</text>
<text xml:space="preserve" text-anchor="start" x="4394.25" y="-403.2" font-family="Times,serif" font-size="14.00">1 = fn()</text>
<text xml:space="preserve" text-anchor="start" x="4394.25" y="-386.7" font-family="Times,serif" font-size="14.00">2 = () (0 bytes, align 1)</text>
</g>
<!-- Xca536272657bdbf7_1&#45;&gt;X3c6542d96320ad67_0 -->
<g id="edge13" class="edge">
<title>Xca536272657bdbf7_1&#45;&gt;X3c6542d96320ad67_0</title>
<path fill="none" stroke="black" d="M4439.22,-199.54C4467.07,-172.3 4521.11,-119.44 4554.24,-87.03"/>
<polygon fill="black" stroke="black" points="4556.4,-89.81 4561.1,-80.31 4551.5,-84.8 4556.4,-89.81"/>
<text xml:space="preserve" text-anchor="middle" x="4564.09" y="-100.2" font-family="Times,serif" font-size="14.00">const ()</text>
</g>
<!-- Xca536272657bdbf7_2 -->
<g id="node22" class="node">
<title>Xca536272657bdbf7_2</title>
<polygon fill="none" stroke="black" points="4448.38,-76.5 4394.38,-76.5 4394.38,-40.5 4448.38,-40.5 4448.38,-76.5"/>
<text xml:space="preserve" text-anchor="start" x="4402.38" y="-53.45" font-family="Times,serif" font-size="14.00">Return</text>
</g>
<!-- Xca536272657bdbf7_1&#45;&gt;Xca536272657bdbf7_2 -->
<g id="edge11" class="edge">
<title>Xca536272657bdbf7_1&#45;&gt;Xca536272657bdbf7_2</title>
<path fill="none" stroke="black" d="M4421.38,-199.54C4421.38,-172.56 4421.38,-120.44 4421.38,-87.95"/>
<polygon fill="black" stroke="black" points="4424.88,-88.07 4421.38,-78.07 4417.88,-88.07 4424.88,-88.07"/>
<text xml:space="preserve" text-anchor="middle" x="4424.75" y="-100.2" font-family="Times,serif" font-size="14.00">2</text>
</g>
<!-- Xc6b1681eadf306a4_0&#45;&gt;Xc6b1681eadf306a4_0 -->
<g id="edge17" class="edge">
<title>Xc6b1681eadf306a4_0&#45;&gt;Xc6b1681eadf306a4_0:1</title>
<path fill="none" stroke="black" d="M4681.93,-236.41C4695.52,-243.3 4709.38,-237.16 4709.38,-218 4709.38,-204.08 4702.06,-197.03 4692.85,-196.86"/>
<polygon fill="black" stroke="black" points="4692.25,-193.4 4683.4,-199.22 4693.95,-200.2 4692.25,-193.4"/>
</g>
<!-- Xc6b1681eadf306a4_1 -->
<g id="node29" class="node">
<title>Xc6b1681eadf306a4_1</title>
<polygon fill="none" stroke="black" points="4691.38,-76.5 4637.38,-76.5 4637.38,-40.5 4691.38,-40.5 4691.38,-76.5"/>
<text xml:space="preserve" text-anchor="start" x="4645.38" y="-53.45" font-family="Times,serif" font-size="14.00">Return</text>
</g>
<!-- Xc6b1681eadf306a4_0&#45;&gt;Xc6b1681eadf306a4_1 -->
<g id="edge16" class="edge">
<title>Xc6b1681eadf306a4_0&#45;&gt;Xc6b1681eadf306a4_1</title>
<path fill="none" stroke="black" d="M4664.38,-199.54C4664.38,-172.56 4664.38,-120.44 4664.38,-87.95"/>
<polygon fill="black" stroke="black" points="4667.88,-88.07 4664.38,-78.07 4660.88,-88.07 4667.88,-88.07"/>
<text xml:space="preserve" text-anchor="middle" x="4667.75" y="-100.2" font-family="Times,serif" font-size="14.00">0</text>
</g>
<!-- node_11 -->
<g id="node24" class="node">
<title>node_11</title>
<polygon fill="#7ccd7c" stroke="#7ccd7c" points="2498.38,-1164.5 2074.38,-1164.5 2074.38,-1090.5 2498.38,-1090.5 2498.38,-1164.5"/>
<text xml:space="preserve" text-anchor="start" x="2082.38" y="-1147.2" font-family="Times,serif" font-size="14.00">LOCALS</text>
<text xml:space="preserve" text-anchor="start" x="2082.38" y="-1130.7" font-family="Times,serif" font-size="14.00">0 = Int(I32)</text>
<text xml:space="preserve" text-anchor="start" x="2082.38" y="-1114.2" font-family="Times,serif" font-size="14.00">1 = *mut {closure@std::rt::lang_start&lt;()&gt;::{closure#0}} (8 bytes, align 8)</text>
<text xml:space="preserve" text-anchor="start" x="2082.38" y="-1097.7" font-family="Times,serif" font-size="14.00">2 = () (0 bytes, align 1)</text>
</g>
<!-- X5fee6e649f9289f7_0 -->
<g id="node25" class="node">
<title>X5fee6e649f9289f7_0</title>
<polygon fill="none" stroke="black" points="2570.38,-1145.5 2516.38,-1145.5 2516.38,-1109.5 2570.38,-1109.5 2570.38,-1145.5"/>
<text xml:space="preserve" text-anchor="start" x="2524.38" y="-1122.45" font-family="Times,serif" font-size="14.00">Call</text>
</g>
<!-- X5fee6e649f9289f7_1 -->
<g id="node26" class="node">
<title>X5fee6e649f9289f7_1</title>
<polygon fill="none" stroke="black" points="2570.38,-872.75 2516.38,-872.75 2516.38,-836.75 2570.38,-836.75 2570.38,-872.75"/>
<text xml:space="preserve" text-anchor="start" x="2524.38" y="-849.7" font-family="Times,serif" font-size="14.00">Return</text>
</g>
<!-- X5fee6e649f9289f7_0&#45;&gt;X5fee6e649f9289f7_1 -->
<g id="edge14" class="edge">
<title>X5fee6e649f9289f7_0&#45;&gt;X5fee6e649f9289f7_1</title>
<path fill="none" stroke="black" d="M2543.38,-1109.15C2543.38,-1063.59 2543.38,-940.21 2543.38,-884.15"/>
<polygon fill="black" stroke="black" points="2546.88,-884.47 2543.38,-874.47 2539.88,-884.47 2546.88,-884.47"/>
<text xml:space="preserve" text-anchor="middle" x="2546.75" y="-1009.7" font-family="Times,serif" font-size="14.00">0</text>
</g>
<!-- Xb510e91eeebc33be_0 -->
<g id="node27" class="node">
<title>Xb510e91eeebc33be_0</title>
<polygon fill="none" stroke="black" points="2680.62,-875.25 2594.12,-875.25 2594.12,-834.25 2680.62,-834.25 2680.62,-875.25"/>
<text xml:space="preserve" text-anchor="start" x="2602.12" y="-857.95" font-family="Times,serif" font-size="14.00">3 &lt;&#45; &amp;mut 1</text>
<text xml:space="preserve" text-anchor="start" x="2602.12" y="-841.45" font-family="Times,serif" font-size="14.00">Call</text>
</g>
<!-- X5fee6e649f9289f7_0&#45;&gt;Xb510e91eeebc33be_0 -->
<g id="edge15" class="edge">
<title>X5fee6e649f9289f7_0&#45;&gt;Xb510e91eeebc33be_0</title>
<path fill="none" stroke="black" d="M2549.4,-1109.15C2565.02,-1064.16 2606.98,-943.3 2626.77,-886.3"/>
<polygon fill="black" stroke="black" points="2630.06,-887.5 2630.03,-876.9 2623.45,-885.2 2630.06,-887.5"/>
<text xml:space="preserve" text-anchor="middle" x="2628.25" y="-1009.7" font-family="Times,serif" font-size="14.00">mv((*1)),mv(2)</text>
</g>
<!-- Xb510e91eeebc33be_0&#45;&gt;X20d29d8683f11f4f_0 -->
<g id="edge22" class="edge">
<title>Xb510e91eeebc33be_0&#45;&gt;X20d29d8683f11f4f_0</title>
<path fill="none" stroke="black" d="M2651.4,-833.88C2660.91,-822.15 2674.6,-808.32 2690.38,-801.5 2784.48,-760.84 3523.77,-818.57 3612.38,-767 3636.41,-753.01 3653.61,-727.65 3665.25,-704.02"/>
<polygon fill="black" stroke="black" points="3668.38,-705.6 3669.42,-695.05 3662.03,-702.64 3668.38,-705.6"/>
<text xml:space="preserve" text-anchor="middle" x="3625.3" y="-778.2" font-family="Times,serif" font-size="14.00">mv(3),mv(2)</text>
</g>
<!-- Xb510e91eeebc33be_3 -->
<g id="node31" class="node">
<title>Xb510e91eeebc33be_3</title>
<polygon fill="none" stroke="black" points="2658.5,-666 2604.25,-666 2604.25,-630 2658.5,-630 2658.5,-666"/>
<text xml:space="preserve" text-anchor="start" x="2612.25" y="-642.95" font-family="Times,serif" font-size="14.00">Drop 1</text>
</g>
<!-- Xb510e91eeebc33be_0&#45;&gt;Xb510e91eeebc33be_3 -->
<g id="edge18" class="edge">
<title>Xb510e91eeebc33be_0&#45;&gt;Xb510e91eeebc33be_3</title>
<path fill="none" stroke="black" d="M2636.71,-833.85C2636.31,-821.63 2635.8,-805.66 2635.38,-791.5 2634.18,-751.89 2632.92,-706.08 2632.14,-677.32"/>
<polygon fill="black" stroke="black" points="2635.64,-677.52 2631.87,-667.62 2628.65,-677.71 2635.64,-677.52"/>
<text xml:space="preserve" text-anchor="middle" x="2657.88" y="-778.2" font-family="Times,serif" font-size="14.00">Cleanup</text>
</g>
<!-- Xb510e91eeebc33be_1 -->
<g id="node32" class="node">
<title>Xb510e91eeebc33be_1</title>
<polygon fill="none" stroke="black" points="2731.5,-666 2677.25,-666 2677.25,-630 2731.5,-630 2731.5,-666"/>
<text xml:space="preserve" text-anchor="start" x="2685.25" y="-642.95" font-family="Times,serif" font-size="14.00">Drop 1</text>
</g>
<!-- Xb510e91eeebc33be_0&#45;&gt;Xb510e91eeebc33be_1 -->
<g id="edge19" class="edge">
<title>Xb510e91eeebc33be_0&#45;&gt;Xb510e91eeebc33be_1</title>
<path fill="none" stroke="black" d="M2654.56,-833.76C2663.64,-822.15 2674.15,-806.83 2680.38,-791.5 2695.64,-753.91 2701.19,-706.94 2703.22,-677.45"/>
<polygon fill="black" stroke="black" points="2706.69,-678.02 2703.78,-667.84 2699.7,-677.62 2706.69,-678.02"/>
<text xml:space="preserve" text-anchor="middle" x="2689.09" y="-778.2" font-family="Times,serif" font-size="14.00">0</text>
</g>
<!-- node_13 -->
<g id="node28" class="node">
<title>node_13</title>
<polygon fill="#7ccd7c" stroke="#7ccd7c" points="4871.5,-255 4727.25,-255 4727.25,-181 4871.5,-181 4871.5,-255"/>
<text xml:space="preserve" text-anchor="start" x="4735.25" y="-237.7" font-family="Times,serif" font-size="14.00">LOCALS</text>
<text xml:space="preserve" text-anchor="start" x="4735.25" y="-221.2" font-family="Times,serif" font-size="14.00">0 = () (0 bytes, align 1)</text>
<text xml:space="preserve" text-anchor="start" x="4735.25" y="-204.7" font-family="Times,serif" font-size="14.00">1 = fn()</text>
<text xml:space="preserve" text-anchor="start" x="4735.25" y="-188.2" font-family="Times,serif" font-size="14.00">2 = () (0 bytes, align 1)</text>
</g>
<!-- node_15 -->
<g id="node30" class="node">
<title>node_15</title>
<polygon fill="#7ccd7c" stroke="#7ccd7c" points="3127.62,-900 2699.12,-900 2699.12,-809.5 3127.62,-809.5 3127.62,-900"/>
<text xml:space="preserve" text-anchor="start" x="2707.12" y="-882.7" font-family="Times,serif" font-size="14.00">LOCALS</text>
<text xml:space="preserve" text-anchor="start" x="2707.12" y="-866.2" font-family="Times,serif" font-size="14.00">0 = Int(I32)</text>
<text xml:space="preserve" text-anchor="start" x="2707.12" y="-849.7" font-family="Times,serif" font-size="14.00">1 = {closure@std::rt::lang_start&lt;()&gt;::{closure#0}}</text>
<text xml:space="preserve" text-anchor="start" x="2707.12" y="-833.2" font-family="Times,serif" font-size="14.00">2 = () (0 bytes, align 1)</text>
<text xml:space="preserve" text-anchor="start" x="2707.12" y="-816.7" font-family="Times,serif" font-size="14.00">3 = &amp;mut {closure@std::rt::lang_start&lt;()&gt;::{closure#0}} (8 bytes, align 8)</text>
</g>
<!-- Xb510e91eeebc33be_4 -->
<g id="node34" class="node">
<title>Xb510e91eeebc33be_4</title>
<polygon fill="none" stroke="black" points="2660.5,-434.5 2600.25,-434.5 2600.25,-398.5 2660.5,-398.5 2660.5,-434.5"/>
<text xml:space="preserve" text-anchor="start" x="2608.25" y="-411.45" font-family="Times,serif" font-size="14.00">Resume</text>
</g>
<!-- Xb510e91eeebc33be_3&#45;&gt;Xb510e91eeebc33be_4 -->
<g id="edge21" class="edge">
<title>Xb510e91eeebc33be_3&#45;&gt;Xb510e91eeebc33be_4</title>
<path fill="none" stroke="black" d="M2631.3,-629.75C2631.13,-590.62 2630.71,-494.8 2630.5,-446.43"/>
<polygon fill="black" stroke="black" points="2634,-446.45 2630.46,-436.46 2627,-446.48 2634,-446.45"/>
</g>
<!-- Xb510e91eeebc33be_2 -->
<g id="node33" class="node">
<title>Xb510e91eeebc33be_2</title>
<polygon fill="none" stroke="black" points="2732.38,-434.5 2678.38,-434.5 2678.38,-398.5 2732.38,-398.5 2732.38,-434.5"/>
<text xml:space="preserve" text-anchor="start" x="2686.38" y="-411.45" font-family="Times,serif" font-size="14.00">Return</text>
</g>
<!-- Xb510e91eeebc33be_1&#45;&gt;Xb510e91eeebc33be_2 -->
<g id="edge20" class="edge">
<title>Xb510e91eeebc33be_1&#45;&gt;Xb510e91eeebc33be_2</title>
<path fill="none" stroke="black" d="M2704.45,-629.75C2704.62,-590.62 2705.04,-494.8 2705.25,-446.43"/>
<polygon fill="black" stroke="black" points="2708.75,-446.48 2705.29,-436.46 2701.75,-446.45 2708.75,-446.48"/>
</g>
<!-- node_17 -->
<g id="node35" class="node">
<title>node_17</title>
<polygon fill="#7ccd7c" stroke="#7ccd7c" points="3908.38,-1156.25 3484.38,-1156.25 3484.38,-1098.75 3908.38,-1098.75 3908.38,-1156.25"/>
<text xml:space="preserve" text-anchor="start" x="3492.38" y="-1138.95" font-family="Times,serif" font-size="14.00">LOCALS</text>
<text xml:space="preserve" text-anchor="start" x="3492.38" y="-1122.45" font-family="Times,serif" font-size="14.00">0 = () (0 bytes, align 1)</text>
<text xml:space="preserve" text-anchor="start" x="3492.38" y="-1105.95" font-family="Times,serif" font-size="14.00">1 = *mut {closure@std::rt::lang_start&lt;()&gt;::{closure#0}} (8 bytes, align 8)</text>
</g>
<!-- X9899ae62f8603f40_0 -->
<g id="node36" class="node">
<title>X9899ae62f8603f40_0</title>
<polygon fill="none" stroke="black" points="3980.38,-1145.5 3926.38,-1145.5 3926.38,-1109.5 3980.38,-1109.5 3980.38,-1145.5"/>
<text xml:space="preserve" text-anchor="start" x="3934.38" y="-1122.45" font-family="Times,serif" font-size="14.00">Return</text>
</g>
<!-- node_19 -->
<g id="node37" class="node">
<title>node_19</title>
<polygon fill="#7ccd7c" stroke="#7ccd7c" points="4290.12,-246.75 4032.62,-246.75 4032.62,-189.25 4290.12,-189.25 4290.12,-246.75"/>
<text xml:space="preserve" text-anchor="start" x="4040.62" y="-229.45" font-family="Times,serif" font-size="14.00">LOCALS</text>
<text xml:space="preserve" text-anchor="start" x="4040.62" y="-212.95" font-family="Times,serif" font-size="14.00">0 = std::process::ExitCode (1 bytes, align 1)</text>
<text xml:space="preserve" text-anchor="start" x="4040.62" y="-196.45" font-family="Times,serif" font-size="14.00">1 = () (0 bytes, align 1)</text>
</g>
</g>
</svg>
