<?xml version="1.0" encoding="UTF-8" standalone="no"?>
<!DOCTYPE svg PUBLIC "-//W3C//DTD SVG 1.1//EN"
 "http://www.w3.org/Graphics/SVG/1.1/DTD/svg11.dtd">
<!-- Generated by graphviz version 14.1.1 (20251213.1925)
 -->
<!-- Pages: 1 -->
<svg width="4988pt" height="1279pt"
 viewBox="0.00 0.00 4988.00 1279.00" xmlns="http://www.w3.org/2000/svg" xmlns:xlink="http://www.w3.org/1999/xlink">
<g id="graph0" class="graph" transform="scale(1 1) rotate(0) translate(4 1275)">
<polygon fill="white" stroke="none" points="-4,4 -4,-1275 4984.38,-1275 4984.38,4 -4,4"/>
<text xml:space="preserve" text-anchor="middle" x="2490.19" y="-7.2" font-family="Times,serif" font-size="14.00">struct</text>
<g id="clust1" class="cluster">
<title>cluster_2</title>
<polygon fill="lightgray" stroke="lightgray" points="532.38,-801.5 532.38,-1246.5 1367.38,-1246.5 1367.38,-801.5 532.38,-801.5"/>
<text xml:space="preserve" text-anchor="middle" x="949.88" y="-1229.2" font-family="Times,serif" font-size="14.00">std::rt::lang_start::&lt;()&gt;</text>
</g>
<g id="clust2" class="cluster">
<title>cluster_4</title>
<polygon fill="lightgray" stroke="lightgray" points="3236.38,-123.5 3236.38,-767 3850.38,-767 3850.38,-123.5 3236.38,-123.5"/>
<text xml:space="preserve" text-anchor="middle" x="3543.38" y="-749.7" font-family="Times,serif" font-size="14.00">std::rt::lang_start::&lt;()&gt;</text>
<text xml:space="preserve" text-anchor="middle" x="3543.38" y="-733.2" font-family="Times,serif" font-size="14.00">::{closure#0}</text>
</g>
<g id="clust3" class="cluster">
<title>cluster_6</title>
<polygon fill="lightgray" stroke="lightgray" points="4399.38,-32.5 4399.38,-535.5 4631.38,-535.5 4631.38,-32.5 4399.38,-32.5"/>
<text xml:space="preserve" text-anchor="middle" x="4515.38" y="-518.2" font-family="Times,serif" font-size="14.00">std::sys::backtrace::__ru</text>
<text xml:space="preserve" text-anchor="middle" x="4515.38" y="-501.7" font-family="Times,serif" font-size="14.00">st_begin_short_backtrace:</text>
<text xml:space="preserve" text-anchor="middle" x="4515.38" y="-485.2" font-family="Times,serif" font-size="14.00">:&lt;fn(), </text>
<text xml:space="preserve" text-anchor="middle" x="4515.38" y="-468.7" font-family="Times,serif" font-size="14.00">()&gt;</text>
</g>
<g id="clust4" class="cluster">
<title>cluster_8</title>
<polygon fill="lightgray" stroke="lightgray" points="2159.38,-828.75 2159.38,-1263 2671.38,-1263 2671.38,-828.75 2159.38,-828.75"/>
<text xml:space="preserve" text-anchor="middle" x="2415.38" y="-1245.7" font-family="Times,serif" font-size="14.00">&lt;{closure@std::rt::lang_s</text>
<text xml:space="preserve" text-anchor="middle" x="2415.38" y="-1229.2" font-family="Times,serif" font-size="14.00">tart&lt;()&gt;::{closure#0}} </text>
<text xml:space="preserve" text-anchor="middle" x="2415.38" y="-1212.7" font-family="Times,serif" font-size="14.00">as </text>
<text xml:space="preserve" text-anchor="middle" x="2415.38" y="-1196.2" font-family="Times,serif" font-size="14.00">std::ops::FnOnce&lt;()&gt;&gt;::ca</text>
<text xml:space="preserve" text-anchor="middle" x="2415.38" y="-1179.7" font-family="Times,serif" font-size="14.00">ll_once</text>
</g>
<g id="clust5" class="cluster">
<title>cluster_10</title>
<polygon fill="lightgray" stroke="lightgray" points="2679.38,-390.5 2679.38,-998.5 3228.38,-998.5 3228.38,-390.5 2679.38,-390.5"/>
<text xml:space="preserve" text-anchor="middle" x="2953.88" y="-981.2" font-family="Times,serif" font-size="14.00">&lt;{closure@std::rt::lang_s</text>
<text xml:space="preserve" text-anchor="middle" x="2953.88" y="-964.7" font-family="Times,serif" font-size="14.00">tart&lt;()&gt;::{closure#0}} </text>
<text xml:space="preserve" text-anchor="middle" x="2953.88" y="-948.2" font-family="Times,serif" font-size="14.00">as </text>
<text xml:space="preserve" text-anchor="middle" x="2953.88" y="-931.7" font-family="Times,serif" font-size="14.00">std::ops::FnOnce&lt;()&gt;&gt;::ca</text>
<text xml:space="preserve" text-anchor="middle" x="2953.88" y="-915.2" font-family="Times,serif" font-size="14.00">ll_once</text>
</g>
<g id="clust6" class="cluster">
<title>cluster_12</title>
<polygon fill="lightgray" stroke="lightgray" points="4722.38,-32.5 4722.38,-337 4972.38,-337 4972.38,-32.5 4722.38,-32.5"/>
<text xml:space="preserve" text-anchor="middle" x="4847.38" y="-319.7" font-family="Times,serif" font-size="14.00">&lt;fn() </text>
<text xml:space="preserve" text-anchor="middle" x="4847.38" y="-303.2" font-family="Times,serif" font-size="14.00">as </text>
<text xml:space="preserve" text-anchor="middle" x="4847.38" y="-286.7" font-family="Times,serif" font-size="14.00">std::ops::FnOnce&lt;()&gt;&gt;::ca</text>
<text xml:space="preserve" text-anchor="middle" x="4847.38" y="-270.2" font-family="Times,serif" font-size="14.00">ll_once</text>
</g>
<g id="clust7" class="cluster">
<title>cluster_14</title>
<polygon fill="lightgray" stroke="lightgray" points="3569.38,-1090.75 3569.38,-1221.75 4081.38,-1221.75 4081.38,-1090.75 3569.38,-1090.75"/>
<text xml:space="preserve" text-anchor="middle" x="3825.38" y="-1204.45" font-family="Times,serif" font-size="14.00">std::ptr::drop_in_place::</text>
<text xml:space="preserve" text-anchor="middle" x="3825.38" y="-1187.95" font-family="Times,serif" font-size="14.00">&lt;{closure@std::rt::lang_s</text>
<text xml:space="preserve" text-anchor="middle" x="3825.38" y="-1171.45" font-family="Times,serif" font-size="14.00">tart&lt;()&gt;::{closure#0}}&gt;</text>
</g>
<g id="clust8" class="cluster">
<title>cluster_16</title>
<polygon fill="lightgray" stroke="lightgray" points="3858.38,-181.25 3858.38,-328.75 4391.38,-328.75 4391.38,-181.25 3858.38,-181.25"/>
<text xml:space="preserve" text-anchor="middle" x="4124.88" y="-311.45" font-family="Times,serif" font-size="14.00">&lt;() </text>
<text xml:space="preserve" text-anchor="middle" x="4124.88" y="-294.95" font-family="Times,serif" font-size="14.00">as </text>
<text xml:space="preserve" text-anchor="middle" x="4124.88" y="-278.45" font-family="Times,serif" font-size="14.00">std::process::Termination</text>
<text xml:space="preserve" text-anchor="middle" x="4124.88" y="-261.95" font-family="Times,serif" font-size="14.00">&gt;::report</text>
</g>
<g id="clust9" class="cluster">
<title>cluster_18</title>
<polygon fill="palegreen" stroke="palegreen" points="1613.38,-622 1613.38,-1238.25 2151.38,-1238.25 2151.38,-622 1613.38,-622"/>
<text xml:space="preserve" text-anchor="middle" x="1882.38" y="-1220.95" font-family="Times,serif" font-size="14.00">main</text>
</g>
<!-- node_0 -->
<g id="node1" class="node">
<title>node_0</title>
<polygon fill="lightyellow" stroke="lightyellow" points="130.75,-1148 0,-1148 0,-1107 130.75,-1107 130.75,-1148"/>
<text xml:space="preserve" text-anchor="start" x="8" y="-1130.7" font-family="Times,serif" font-size="14.00">ALLOCS</text>
<text xml:space="preserve" text-anchor="start" x="8" y="-1114.2" font-family="Times,serif" font-size="14.00">alloc1: Str (32 bytes)</text>
</g>
<!-- node_1 -->
<g id="node2" class="node">
<title>node_1</title>
<polygon fill="lavender" stroke="lavender" points="522.25,-1197.5 148.5,-1197.5 148.5,-1057.5 522.25,-1057.5 522.25,-1197.5"/>
<text xml:space="preserve" text-anchor="start" x="156.5" y="-1180.2" font-family="Times,serif" font-size="14.00">TYPES</text>
<text xml:space="preserve" text-anchor="start" x="156.5" y="-1163.7" font-family="Times,serif" font-size="14.00">() (0 bytes)</text>
<text xml:space="preserve" text-anchor="start" x="156.5" y="-1147.2" font-family="Times,serif" font-size="14.00">(u32, bool) (8 bytes)</text>
<text xml:space="preserve" text-anchor="start" x="156.5" y="-1130.7" font-family="Times,serif" font-size="14.00">St (8 bytes)</text>
<text xml:space="preserve" text-anchor="start" x="156.5" y="-1114.2" font-family="Times,serif" font-size="14.00">std::panic::Location&lt;&#39;_&gt; (24 bytes)</text>
<text xml:space="preserve" text-anchor="start" x="156.5" y="-1097.7" font-family="Times,serif" font-size="14.00">std::process::ExitCode (1 bytes)</text>
<text xml:space="preserve" text-anchor="start" x="156.5" y="-1081.2" font-family="Times,serif" font-size="14.00">std::result::Result&lt;isize, !&gt; (8 bytes)</text>
<text xml:space="preserve" text-anchor="start" x="156.5" y="-1064.7" font-family="Times,serif" font-size="14.00">std::sys::pal::unix::process::process_common::ExitCode (1 bytes)</text>
</g>
<!-- X5eb86185c1cf8f06_0 -->
<g id="node3" class="node">
<title>X5eb86185c1cf8f06_0</title>
<polygon fill="none" stroke="red" points="1543.12,-883.5 1375.62,-883.5 1375.62,-826 1543.12,-826 1543.12,-883.5"/>
<text xml:space="preserve" text-anchor="middle" x="1459.38" y="-866.2" font-family="Times,serif" font-size="14.00">_ZN3std2rt19lang_start_in</text>
<text xml:space="preserve" text-anchor="middle" x="1459.38" y="-849.7" font-family="Times,serif" font-size="14.00">ternal17h035df9ff6960926a</text>
<text xml:space="preserve" text-anchor="middle" x="1459.38" y="-833.2" font-family="Times,serif" font-size="14.00">E</text>
</g>
<!-- X8b0ac2e54b9a91_0 -->
<g id="node4" class="node">
<title>X8b0ac2e54b9a91_0</title>
<polygon fill="none" stroke="red" points="1518.62,-1145.5 1462.12,-1145.5 1462.12,-1109.5 1518.62,-1109.5 1518.62,-1145.5"/>
<text xml:space="preserve" text-anchor="middle" x="1490.38" y="-1122.45" font-family="Times,serif" font-size="14.00">NoOp: </text>
</g>
<!-- X210a8e5fe9313c81_0 -->
<g id="node5" class="node">
<title>X210a8e5fe9313c81_0</title>
<polygon fill="none" stroke="red" points="2045.12,-437 1871.62,-437 1871.62,-396 2045.12,-396 2045.12,-437"/>
<text xml:space="preserve" text-anchor="middle" x="1958.38" y="-419.7" font-family="Times,serif" font-size="14.00">_ZN4core9panicking5panic1</text>
<text xml:space="preserve" text-anchor="middle" x="1958.38" y="-403.2" font-family="Times,serif" font-size="14.00">7h37379bf3ce79a0d7E</text>
</g>
<!-- X3c6542d96320ad67_0 -->
<g id="node6" class="node">
<title>X3c6542d96320ad67_0</title>
<polygon fill="none" stroke="red" points="4711.5,-79 4639.25,-79 4639.25,-38 4711.5,-38 4711.5,-79"/>
<text xml:space="preserve" text-anchor="middle" x="4675.38" y="-61.7" font-family="Times,serif" font-size="14.00">Intr: </text>
<text xml:space="preserve" text-anchor="middle" x="4675.38" y="-45.2" font-family="Times,serif" font-size="14.00">black_box</text>
</g>
<!-- node_3 -->
<g id="node7" class="node">
<title>node_3</title>
<polygon fill="#7ccd7c" stroke="#7ccd7c" points="1102.75,-1214 540,-1214 540,-1041 1102.75,-1041 1102.75,-1214"/>
<text xml:space="preserve" text-anchor="start" x="548" y="-1196.7" font-family="Times,serif" font-size="14.00">LOCALS</text>
<text xml:space="preserve" text-anchor="start" x="548" y="-1180.2" font-family="Times,serif" font-size="14.00">0 = Int(Isize)</text>
<text xml:space="preserve" text-anchor="start" x="548" y="-1163.7" font-family="Times,serif" font-size="14.00">1 = fn()</text>
<text xml:space="preserve" text-anchor="start" x="548" y="-1147.2" font-family="Times,serif" font-size="14.00">2 = Int(Isize)</text>
<text xml:space="preserve" text-anchor="start" x="548" y="-1130.7" font-family="Times,serif" font-size="14.00">3 = *const *const u8 (8 bytes, align 8)</text>
<text xml:space="preserve" text-anchor="start" x="548" y="-1114.2" font-family="Times,serif" font-size="14.00">4 = Uint(U8)</text>
<text xml:space="preserve" text-anchor="start" x="548" y="-1097.7" font-family="Times,serif" font-size="14.00">5 = std::result::Result&lt;isize, !&gt; (8 bytes, align 8)</text>
<text xml:space="preserve" text-anchor="start" x="548" y="-1081.2" font-family="Times,serif" font-size="14.00">6 = &amp;dyn std::ops::Fn() &#45;&gt; i32 + std::marker::Sync + std::panic::RefUnwindSafe (16 bytes, align 8)</text>
<text xml:space="preserve" text-anchor="start" x="548" y="-1064.7" font-family="Times,serif" font-size="14.00">7 = &amp;{closure@std::rt::lang_start&lt;()&gt;::{closure#0}} (8 bytes, align 8)</text>
<text xml:space="preserve" text-anchor="start" x="548" y="-1048.2" font-family="Times,serif" font-size="14.00">8 = {closure@std::rt::lang_start&lt;()&gt;::{closure#0}}</text>
</g>
<!-- X5cf9b464237bba73_0 -->
<g id="node8" class="node">
<title>X5cf9b464237bba73_0</title>
<polygon fill="none" stroke="black" points="1359.75,-1189.25 1121,-1189.25 1121,-1065.75 1359.75,-1065.75 1359.75,-1189.25"/>
<text xml:space="preserve" text-anchor="start" x="1129" y="-1171.95" font-family="Times,serif" font-size="14.00">Storage Live _5</text>
<text xml:space="preserve" text-anchor="start" x="1129" y="-1155.45" font-family="Times,serif" font-size="14.00">Storage Live _6</text>
<text xml:space="preserve" text-anchor="start" x="1129" y="-1138.95" font-family="Times,serif" font-size="14.00">Storage Live _8</text>
<text xml:space="preserve" text-anchor="start" x="1129" y="-1122.45" font-family="Times,serif" font-size="14.00">8 &lt;&#45; Closure (cp(1))</text>
<text xml:space="preserve" text-anchor="start" x="1129" y="-1105.95" font-family="Times,serif" font-size="14.00">7 &lt;&#45; &amp; 8</text>
<text xml:space="preserve" text-anchor="start" x="1129" y="-1089.45" font-family="Times,serif" font-size="14.00">6 &lt;&#45; Cast&#45;PointerCoercion(Unsize) cp(7)</text>
<text xml:space="preserve" text-anchor="start" x="1129" y="-1072.95" font-family="Times,serif" font-size="14.00">Call</text>
</g>
<!-- X5cf9b464237bba73_0&#45;&gt;X5eb86185c1cf8f06_0 -->
<g id="edge2" class="edge">
<title>X5cf9b464237bba73_0&#45;&gt;X5eb86185c1cf8f06_0</title>
<path fill="none" stroke="black" d="M1309.27,-1065.31C1330.32,-1045.05 1352.8,-1021.72 1371.38,-998.5 1397.89,-965.35 1422.75,-923.65 1439.24,-893.9"/>
<polygon fill="black" stroke="black" points="1442.25,-895.69 1443.98,-885.24 1436.11,-892.33 1442.25,-895.69"/>
<text xml:space="preserve" text-anchor="middle" x="1435.05" y="-1009.7" font-family="Times,serif" font-size="14.00">mv(6),mv(2),mv(3),mv(4)</text>
</g>
<!-- X5cf9b464237bba73_1 -->
<g id="node9" class="node">
<title>X5cf9b464237bba73_1</title>
<polygon fill="none" stroke="black" points="1334.25,-900 1146.5,-900 1146.5,-809.5 1334.25,-809.5 1334.25,-900"/>
<text xml:space="preserve" text-anchor="start" x="1154.5" y="-882.7" font-family="Times,serif" font-size="14.00">Storage Dead _6</text>
<text xml:space="preserve" text-anchor="start" x="1154.5" y="-866.2" font-family="Times,serif" font-size="14.00">0 &lt;&#45; Use(cp((5 as variant 0).0))</text>
<text xml:space="preserve" text-anchor="start" x="1154.5" y="-849.7" font-family="Times,serif" font-size="14.00">Storage Dead _8</text>
<text xml:space="preserve" text-anchor="start" x="1154.5" y="-833.2" font-family="Times,serif" font-size="14.00">Storage Dead _5</text>
<text xml:space="preserve" text-anchor="start" x="1154.5" y="-816.7" font-family="Times,serif" font-size="14.00">Return</text>
</g>
<!-- X5cf9b464237bba73_0&#45;&gt;X5cf9b464237bba73_1 -->
<g id="edge1" class="edge">
<title>X5cf9b464237bba73_0&#45;&gt;X5cf9b464237bba73_1</title>
<path fill="none" stroke="black" d="M1240.38,-1065.4C1240.38,-1019.2 1240.38,-956.29 1240.38,-911.46"/>
<polygon fill="black" stroke="black" points="1243.88,-911.7 1240.38,-901.7 1236.88,-911.7 1243.88,-911.7"/>
<text xml:space="preserve" text-anchor="middle" x="1243.75" y="-1009.7" font-family="Times,serif" font-size="14.00">5</text>
</g>
<!-- node_5 -->
<g id="node10" class="node">
<title>node_5</title>
<polygon fill="#7ccd7c" stroke="#7ccd7c" points="3696.62,-718 3244.12,-718 3244.12,-578 3696.62,-578 3696.62,-718"/>
<text xml:space="preserve" text-anchor="start" x="3252.12" y="-700.7" font-family="Times,serif" font-size="14.00">LOCALS</text>
<text xml:space="preserve" text-anchor="start" x="3252.12" y="-684.2" font-family="Times,serif" font-size="14.00">0 = Int(I32)</text>
<text xml:space="preserve" text-anchor="start" x="3252.12" y="-667.7" font-family="Times,serif" font-size="14.00">1 = &amp;{closure@std::rt::lang_start&lt;()&gt;::{closure#0}} (8 bytes, align 8)</text>
<text xml:space="preserve" text-anchor="start" x="3252.12" y="-651.2" font-family="Times,serif" font-size="14.00">2 = std::process::ExitCode (1 bytes, align 1)</text>
<text xml:space="preserve" text-anchor="start" x="3252.12" y="-634.7" font-family="Times,serif" font-size="14.00">3 = () (0 bytes, align 1)</text>
<text xml:space="preserve" text-anchor="start" x="3252.12" y="-618.2" font-family="Times,serif" font-size="14.00">4 = fn()</text>
<text xml:space="preserve" text-anchor="start" x="3252.12" y="-601.7" font-family="Times,serif" font-size="14.00">5 = &amp;std::sys::pal::unix::process::process_common::ExitCode (8 bytes, align 8)</text>
<text xml:space="preserve" text-anchor="start" x="3252.12" y="-585.2" font-family="Times,serif" font-size="14.00">6 = Uint(U8)</text>
</g>
<!-- X75e0fcaf3a996b66_0 -->
<g id="node11" class="node">
<title>X75e0fcaf3a996b66_0</title>
<polygon fill="none" stroke="black" points="3842.25,-693.25 3714.5,-693.25 3714.5,-602.75 3842.25,-602.75 3842.25,-693.25"/>
<text xml:space="preserve" text-anchor="start" x="3722.5" y="-675.95" font-family="Times,serif" font-size="14.00">Storage Live _2</text>
<text xml:space="preserve" text-anchor="start" x="3722.5" y="-659.45" font-family="Times,serif" font-size="14.00">Storage Live _3</text>
<text xml:space="preserve" text-anchor="start" x="3722.5" y="-642.95" font-family="Times,serif" font-size="14.00">Storage Live _4</text>
<text xml:space="preserve" text-anchor="start" x="3722.5" y="-626.45" font-family="Times,serif" font-size="14.00">4 &lt;&#45; Use(cp((*1).0))</text>
<text xml:space="preserve" text-anchor="start" x="3722.5" y="-609.95" font-family="Times,serif" font-size="14.00">Call</text>
</g>
<!-- X75e0fcaf3a996b66_1 -->
<g id="node12" class="node">
<title>X75e0fcaf3a996b66_1</title>
<polygon fill="none" stroke="black" points="3831.75,-437 3725,-437 3725,-396 3831.75,-396 3831.75,-437"/>
<text xml:space="preserve" text-anchor="start" x="3733" y="-419.7" font-family="Times,serif" font-size="14.00">Storage Dead _4</text>
<text xml:space="preserve" text-anchor="start" x="3733" y="-403.2" font-family="Times,serif" font-size="14.00">Call</text>
</g>
<!-- X75e0fcaf3a996b66_0&#45;&gt;X75e0fcaf3a996b66_1 -->
<g id="edge3" class="edge">
<title>X75e0fcaf3a996b66_0&#45;&gt;X75e0fcaf3a996b66_1</title>
<path fill="none" stroke="black" d="M3778.38,-602.48C3778.38,-557.23 3778.38,-488.32 3778.38,-448.63"/>
<polygon fill="black" stroke="black" points="3781.88,-448.82 3778.38,-438.82 3774.88,-448.82 3781.88,-448.82"/>
<text xml:space="preserve" text-anchor="middle" x="3781.75" y="-546.7" font-family="Times,serif" font-size="14.00">3</text>
</g>
<!-- X81de2dab235680a6_0 -->
<g id="node14" class="node">
<title>X81de2dab235680a6_0</title>
<polygon fill="none" stroke="black" points="4461.38,-434.5 4407.38,-434.5 4407.38,-398.5 4461.38,-398.5 4461.38,-434.5"/>
<text xml:space="preserve" text-anchor="start" x="4415.38" y="-411.45" font-family="Times,serif" font-size="14.00">Call</text>
</g>
<!-- X75e0fcaf3a996b66_0&#45;&gt;X81de2dab235680a6_0 -->
<g id="edge5" class="edge">
<title>X75e0fcaf3a996b66_0&#45;&gt;X81de2dab235680a6_0</title>
<path fill="none" stroke="black" d="M3842.47,-624.58C3977.61,-577.3 4288.2,-468.64 4396.38,-430.79"/>
<polygon fill="black" stroke="black" points="4397.38,-434.15 4405.66,-427.55 4395.07,-427.54 4397.38,-434.15"/>
<text xml:space="preserve" text-anchor="middle" x="4083.97" y="-546.7" font-family="Times,serif" font-size="14.00">mv(4)</text>
</g>
<!-- X75e0fcaf3a996b66_2 -->
<g id="node13" class="node">
<title>X75e0fcaf3a996b66_2</title>
<polygon fill="none" stroke="black" points="3842.38,-304.5 3688.38,-304.5 3688.38,-131.5 3842.38,-131.5 3842.38,-304.5"/>
<text xml:space="preserve" text-anchor="start" x="3696.38" y="-287.2" font-family="Times,serif" font-size="14.00">Storage Dead _3</text>
<text xml:space="preserve" text-anchor="start" x="3696.38" y="-270.7" font-family="Times,serif" font-size="14.00">Storage Live _5</text>
<text xml:space="preserve" text-anchor="start" x="3696.38" y="-254.2" font-family="Times,serif" font-size="14.00">5 &lt;&#45; &amp; 2.0</text>
<text xml:space="preserve" text-anchor="start" x="3696.38" y="-237.7" font-family="Times,serif" font-size="14.00">Storage Live _6</text>
<text xml:space="preserve" text-anchor="start" x="3696.38" y="-221.2" font-family="Times,serif" font-size="14.00">6 &lt;&#45; Use(cp(2.0.0))</text>
<text xml:space="preserve" text-anchor="start" x="3696.38" y="-204.7" font-family="Times,serif" font-size="14.00">0 &lt;&#45; Cast&#45;IntToInt mv(6)</text>
<text xml:space="preserve" text-anchor="start" x="3696.38" y="-188.2" font-family="Times,serif" font-size="14.00">Storage Dead _6</text>
<text xml:space="preserve" text-anchor="start" x="3696.38" y="-171.7" font-family="Times,serif" font-size="14.00">Storage Dead _5</text>
<text xml:space="preserve" text-anchor="start" x="3696.38" y="-155.2" font-family="Times,serif" font-size="14.00">Storage Dead _2</text>
<text xml:space="preserve" text-anchor="start" x="3696.38" y="-138.7" font-family="Times,serif" font-size="14.00">Return</text>
</g>
<!-- X75e0fcaf3a996b66_1&#45;&gt;X75e0fcaf3a996b66_2 -->
<g id="edge4" class="edge">
<title>X75e0fcaf3a996b66_1&#45;&gt;X75e0fcaf3a996b66_2</title>
<path fill="none" stroke="black" d="M3777.06,-395.58C3775.8,-376.54 3773.8,-346.38 3771.81,-316.33"/>
<polygon fill="black" stroke="black" points="3775.31,-316.1 3771.15,-306.35 3768.32,-316.56 3775.31,-316.1"/>
<text xml:space="preserve" text-anchor="middle" x="3777.91" y="-348.2" font-family="Times,serif" font-size="14.00">2</text>
</g>
<!-- X25bf6690c3070c71_0 -->
<g id="node15" class="node">
<title>X25bf6690c3070c71_0</title>
<polygon fill="none" stroke="black" points="4107.88,-238.5 3866.88,-238.5 3866.88,-197.5 4107.88,-197.5 4107.88,-238.5"/>
<text xml:space="preserve" text-anchor="start" x="3874.88" y="-221.2" font-family="Times,serif" font-size="14.00">0 &lt;&#45; Use(const 0_std::process::ExitCode)</text>
<text xml:space="preserve" text-anchor="start" x="3874.88" y="-204.7" font-family="Times,serif" font-size="14.00">Return</text>
</g>
<!-- X75e0fcaf3a996b66_1&#45;&gt;X25bf6690c3070c71_0 -->
<g id="edge6" class="edge">
<title>X75e0fcaf3a996b66_1&#45;&gt;X25bf6690c3070c71_0</title>
<path fill="none" stroke="black" d="M3799.57,-395.58C3837.04,-360.34 3915.08,-286.97 3957.82,-246.78"/>
<polygon fill="black" stroke="black" points="3960.14,-249.41 3965.03,-240.01 3955.34,-244.31 3960.14,-249.41"/>
<text xml:space="preserve" text-anchor="middle" x="3868.82" y="-348.2" font-family="Times,serif" font-size="14.00">mv(3)</text>
</g>
<!-- X81de2dab235680a6_1 -->
<g id="node17" class="node">
<title>X81de2dab235680a6_1</title>
<polygon fill="none" stroke="black" points="4541.38,-236 4487.38,-236 4487.38,-200 4541.38,-200 4541.38,-236"/>
<text xml:space="preserve" text-anchor="start" x="4495.38" y="-212.95" font-family="Times,serif" font-size="14.00">Call</text>
</g>
<!-- X81de2dab235680a6_0&#45;&gt;X81de2dab235680a6_1 -->
<g id="edge7" class="edge">
<title>X81de2dab235680a6_0&#45;&gt;X81de2dab235680a6_1</title>
<path fill="none" stroke="black" d="M4441.47,-398.06C4455.35,-363.98 4486.18,-288.26 4502.96,-247.05"/>
<polygon fill="black" stroke="black" points="4506.19,-248.38 4506.72,-237.8 4499.71,-245.74 4506.19,-248.38"/>
<text xml:space="preserve" text-anchor="middle" x="4465.91" y="-348.2" font-family="Times,serif" font-size="14.00">0</text>
</g>
<!-- X332e5b3c869b234_0 -->
<g id="node19" class="node">
<title>X332e5b3c869b234_0</title>
<polygon fill="none" stroke="black" points="4784.38,-236 4730.38,-236 4730.38,-200 4784.38,-200 4784.38,-236"/>
<text xml:space="preserve" text-anchor="start" x="4738.38" y="-212.95" font-family="Times,serif" font-size="14.00">Call</text>
</g>
<!-- X81de2dab235680a6_0&#45;&gt;X332e5b3c869b234_0 -->
<g id="edge9" class="edge">
<title>X81de2dab235680a6_0&#45;&gt;X332e5b3c869b234_0</title>
<path fill="none" stroke="black" d="M4448.25,-398.06C4454.38,-391.38 4462.08,-384.23 4470.38,-379.5 4536.14,-341.96 4569.3,-374 4635.38,-337 4677.23,-313.56 4715.19,-272.21 4737.28,-245.21"/>
<polygon fill="black" stroke="black" points="4739.95,-247.48 4743.47,-237.49 4734.48,-243.11 4739.95,-247.48"/>
<text xml:space="preserve" text-anchor="middle" x="4655.85" y="-348.2" font-family="Times,serif" font-size="14.00">mv(1),const ()</text>
</g>
<!-- node_7 -->
<g id="node16" class="node">
<title>node_7</title>
<polygon fill="#7ccd7c" stroke="#7ccd7c" points="4623.5,-453.5 4479.25,-453.5 4479.25,-379.5 4623.5,-379.5 4623.5,-453.5"/>
<text xml:space="preserve" text-anchor="start" x="4487.25" y="-436.2" font-family="Times,serif" font-size="14.00">LOCALS</text>
<text xml:space="preserve" text-anchor="start" x="4487.25" y="-419.7" font-family="Times,serif" font-size="14.00">0 = () (0 bytes, align 1)</text>
<text xml:space="preserve" text-anchor="start" x="4487.25" y="-403.2" font-family="Times,serif" font-size="14.00">1 = fn()</text>
<text xml:space="preserve" text-anchor="start" x="4487.25" y="-386.7" font-family="Times,serif" font-size="14.00">2 = () (0 bytes, align 1)</text>
</g>
<!-- X81de2dab235680a6_1&#45;&gt;X3c6542d96320ad67_0 -->
<g id="edge10" class="edge">
<title>X81de2dab235680a6_1&#45;&gt;X3c6542d96320ad67_0</title>
<path fill="none" stroke="black" d="M4532.22,-199.54C4560.07,-172.3 4614.11,-119.44 4647.24,-87.03"/>
<polygon fill="black" stroke="black" points="4649.4,-89.81 4654.1,-80.31 4644.5,-84.8 4649.4,-89.81"/>
<text xml:space="preserve" text-anchor="middle" x="4657.09" y="-100.2" font-family="Times,serif" font-size="14.00">const ()</text>
</g>
<!-- X81de2dab235680a6_2 -->
<g id="node18" class="node">
<title>X81de2dab235680a6_2</title>
<polygon fill="none" stroke="black" points="4541.38,-76.5 4487.38,-76.5 4487.38,-40.5 4541.38,-40.5 4541.38,-76.5"/>
<text xml:space="preserve" text-anchor="start" x="4495.38" y="-53.45" font-family="Times,serif" font-size="14.00">Return</text>
</g>
<!-- X81de2dab235680a6_1&#45;&gt;X81de2dab235680a6_2 -->
<g id="edge8" class="edge">
<title>X81de2dab235680a6_1&#45;&gt;X81de2dab235680a6_2</title>
<path fill="none" stroke="black" d="M4514.38,-199.54C4514.38,-172.56 4514.38,-120.44 4514.38,-87.95"/>
<polygon fill="black" stroke="black" points="4517.88,-88.07 4514.38,-78.07 4510.88,-88.07 4517.88,-88.07"/>
<text xml:space="preserve" text-anchor="middle" x="4517.75" y="-100.2" font-family="Times,serif" font-size="14.00">2</text>
</g>
<!-- X332e5b3c869b234_0&#45;&gt;X332e5b3c869b234_0 -->
<g id="edge19" class="edge">
<title>X332e5b3c869b234_0&#45;&gt;X332e5b3c869b234_0:1</title>
<path fill="none" stroke="black" d="M4774.93,-236.41C4788.52,-243.3 4802.38,-237.16 4802.38,-218 4802.38,-204.08 4795.06,-197.03 4785.85,-196.86"/>
<polygon fill="black" stroke="black" points="4785.25,-193.4 4776.4,-199.22 4786.95,-200.2 4785.25,-193.4"/>
</g>
<!-- X332e5b3c869b234_1 -->
<g id="node30" class="node">
<title>X332e5b3c869b234_1</title>
<polygon fill="none" stroke="black" points="4784.38,-76.5 4730.38,-76.5 4730.38,-40.5 4784.38,-40.5 4784.38,-76.5"/>
<text xml:space="preserve" text-anchor="start" x="4738.38" y="-53.45" font-family="Times,serif" font-size="14.00">Return</text>
</g>
<!-- X332e5b3c869b234_0&#45;&gt;X332e5b3c869b234_1 -->
<g id="edge18" class="edge">
<title>X332e5b3c869b234_0&#45;&gt;X332e5b3c869b234_1</title>
<path fill="none" stroke="black" d="M4757.38,-199.54C4757.38,-172.56 4757.38,-120.44 4757.38,-87.95"/>
<polygon fill="black" stroke="black" points="4760.88,-88.07 4757.38,-78.07 4753.88,-88.07 4760.88,-88.07"/>
<text xml:space="preserve" text-anchor="middle" x="4760.75" y="-100.2" font-family="Times,serif" font-size="14.00">0</text>
</g>
<!-- node_9 -->
<g id="node20" class="node">
<title>node_9</title>
<polygon fill="#7ccd7c" stroke="#7ccd7c" points="2591.38,-1164.5 2167.38,-1164.5 2167.38,-1090.5 2591.38,-1090.5 2591.38,-1164.5"/>
<text xml:space="preserve" text-anchor="start" x="2175.38" y="-1147.2" font-family="Times,serif" font-size="14.00">LOCALS</text>
<text xml:space="preserve" text-anchor="start" x="2175.38" y="-1130.7" font-family="Times,serif" font-size="14.00">0 = Int(I32)</text>
<text xml:space="preserve" text-anchor="start" x="2175.38" y="-1114.2" font-family="Times,serif" font-size="14.00">1 = *mut {closure@std::rt::lang_start&lt;()&gt;::{closure#0}} (8 bytes, align 8)</text>
<text xml:space="preserve" text-anchor="start" x="2175.38" y="-1097.7" font-family="Times,serif" font-size="14.00">2 = () (0 bytes, align 1)</text>
</g>
<!-- X18af728047c7e53_0 -->
<g id="node21" class="node">
<title>X18af728047c7e53_0</title>
<polygon fill="none" stroke="black" points="2663.38,-1145.5 2609.38,-1145.5 2609.38,-1109.5 2663.38,-1109.5 2663.38,-1145.5"/>
<text xml:space="preserve" text-anchor="start" x="2617.38" y="-1122.45" font-family="Times,serif" font-size="14.00">Call</text>
</g>
<!-- X18af728047c7e53_1 -->
<g id="node22" class="node">
<title>X18af728047c7e53_1</title>
<polygon fill="none" stroke="black" points="2663.38,-872.75 2609.38,-872.75 2609.38,-836.75 2663.38,-836.75 2663.38,-872.75"/>
<text xml:space="preserve" text-anchor="start" x="2617.38" y="-849.7" font-family="Times,serif" font-size="14.00">Return</text>
</g>
<!-- X18af728047c7e53_0&#45;&gt;X18af728047c7e53_1 -->
<g id="edge11" class="edge">
<title>X18af728047c7e53_0&#45;&gt;X18af728047c7e53_1</title>
<path fill="none" stroke="black" d="M2636.38,-1109.15C2636.38,-1063.59 2636.38,-940.21 2636.38,-884.15"/>
<polygon fill="black" stroke="black" points="2639.88,-884.47 2636.38,-874.47 2632.88,-884.47 2639.88,-884.47"/>
<text xml:space="preserve" text-anchor="middle" x="2639.75" y="-1009.7" font-family="Times,serif" font-size="14.00">0</text>
</g>
<!-- X14f514951cbfe5f7_0 -->
<g id="node23" class="node">
<title>X14f514951cbfe5f7_0</title>
<polygon fill="none" stroke="black" points="2773.62,-875.25 2687.12,-875.25 2687.12,-834.25 2773.62,-834.25 2773.62,-875.25"/>
<text xml:space="preserve" text-anchor="start" x="2695.12" y="-857.95" font-family="Times,serif" font-size="14.00">3 &lt;&#45; &amp;mut 1</text>
<text xml:space="preserve" text-anchor="start" x="2695.12" y="-841.45" font-family="Times,serif" font-size="14.00">Call</text>
</g>
<!-- X18af728047c7e53_0&#45;&gt;X14f514951cbfe5f7_0 -->
<g id="edge12" class="edge">
<title>X18af728047c7e53_0&#45;&gt;X14f514951cbfe5f7_0</title>
<path fill="none" stroke="black" d="M2642.4,-1109.15C2658.02,-1064.16 2699.98,-943.3 2719.77,-886.3"/>
<polygon fill="black" stroke="black" points="2723.06,-887.5 2723.03,-876.9 2716.45,-885.2 2723.06,-887.5"/>
<text xml:space="preserve" text-anchor="middle" x="2721.25" y="-1009.7" font-family="Times,serif" font-size="14.00">mv((*1)),mv(2)</text>
</g>
<!-- X14f514951cbfe5f7_0&#45;&gt;X75e0fcaf3a996b66_0 -->
<g id="edge17" class="edge">
<title>X14f514951cbfe5f7_0&#45;&gt;X75e0fcaf3a996b66_0</title>
<path fill="none" stroke="black" d="M2744.4,-833.88C2753.91,-822.15 2767.6,-808.32 2783.38,-801.5 2877.48,-760.84 3616.77,-818.57 3705.38,-767 3729.41,-753.01 3746.61,-727.65 3758.25,-704.02"/>
<polygon fill="black" stroke="black" points="3761.38,-705.6 3762.42,-695.05 3755.03,-702.64 3761.38,-705.6"/>
<text xml:space="preserve" text-anchor="middle" x="3718.3" y="-778.2" font-family="Times,serif" font-size="14.00">mv(3),mv(2)</text>
</g>
<!-- X14f514951cbfe5f7_3 -->
<g id="node25" class="node">
<title>X14f514951cbfe5f7_3</title>
<polygon fill="none" stroke="black" points="2751.5,-666 2697.25,-666 2697.25,-630 2751.5,-630 2751.5,-666"/>
<text xml:space="preserve" text-anchor="start" x="2705.25" y="-642.95" font-family="Times,serif" font-size="14.00">Drop 1</text>
</g>
<!-- X14f514951cbfe5f7_0&#45;&gt;X14f514951cbfe5f7_3 -->
<g id="edge13" class="edge">
<title>X14f514951cbfe5f7_0&#45;&gt;X14f514951cbfe5f7_3</title>
<path fill="none" stroke="black" d="M2729.71,-833.85C2729.31,-821.63 2728.8,-805.66 2728.38,-791.5 2727.18,-751.89 2725.92,-706.08 2725.14,-677.32"/>
<polygon fill="black" stroke="black" points="2728.64,-677.52 2724.87,-667.62 2721.65,-677.71 2728.64,-677.52"/>
<text xml:space="preserve" text-anchor="middle" x="2750.88" y="-778.2" font-family="Times,serif" font-size="14.00">Cleanup</text>
</g>
<!-- X14f514951cbfe5f7_1 -->
<g id="node26" class="node">
<title>X14f514951cbfe5f7_1</title>
<polygon fill="none" stroke="black" points="2824.5,-666 2770.25,-666 2770.25,-630 2824.5,-630 2824.5,-666"/>
<text xml:space="preserve" text-anchor="start" x="2778.25" y="-642.95" font-family="Times,serif" font-size="14.00">Drop 1</text>
</g>
<!-- X14f514951cbfe5f7_0&#45;&gt;X14f514951cbfe5f7_1 -->
<g id="edge14" class="edge">
<title>X14f514951cbfe5f7_0&#45;&gt;X14f514951cbfe5f7_1</title>
<path fill="none" stroke="black" d="M2747.56,-833.76C2756.64,-822.15 2767.15,-806.83 2773.38,-791.5 2788.64,-753.91 2794.19,-706.94 2796.22,-677.45"/>
<polygon fill="black" stroke="black" points="2799.69,-678.02 2796.78,-667.84 2792.7,-677.62 2799.69,-678.02"/>
<text xml:space="preserve" text-anchor="middle" x="2782.09" y="-778.2" font-family="Times,serif" font-size="14.00">0</text>
</g>
<!-- node_11 -->
<g id="node24" class="node">
<title>node_11</title>
<polygon fill="#7ccd7c" stroke="#7ccd7c" points="3220.62,-900 2792.12,-900 2792.12,-809.5 3220.62,-809.5 3220.62,-900"/>
<text xml:space="preserve" text-anchor="start" x="2800.12" y="-882.7" font-family="Times,serif" font-size="14.00">LOCALS</text>
<text xml:space="preserve" text-anchor="start" x="2800.12" y="-866.2" font-family="Times,serif" font-size="14.00">0 = Int(I32)</text>
<text xml:space="preserve" text-anchor="start" x="2800.12" y="-849.7" font-family="Times,serif" font-size="14.00">1 = {closure@std::rt::lang_start&lt;()&gt;::{closure#0}}</text>
<text xml:space="preserve" text-anchor="start" x="2800.12" y="-833.2" font-family="Times,serif" font-size="14.00">2 = () (0 bytes, align 1)</text>
<text xml:space="preserve" text-anchor="start" x="2800.12" y="-816.7" font-family="Times,serif" font-size="14.00">3 = &amp;mut {closure@std::rt::lang_start&lt;()&gt;::{closure#0}} (8 bytes, align 8)</text>
</g>
<!-- X14f514951cbfe5f7_4 -->
<g id="node28" class="node">
<title>X14f514951cbfe5f7_4</title>
<polygon fill="none" stroke="black" points="2753.5,-434.5 2693.25,-434.5 2693.25,-398.5 2753.5,-398.5 2753.5,-434.5"/>
<text xml:space="preserve" text-anchor="start" x="2701.25" y="-411.45" font-family="Times,serif" font-size="14.00">Resume</text>
</g>
<!-- X14f514951cbfe5f7_3&#45;&gt;X14f514951cbfe5f7_4 -->
<g id="edge16" class="edge">
<title>X14f514951cbfe5f7_3&#45;&gt;X14f514951cbfe5f7_4</title>
<path fill="none" stroke="black" d="M2724.3,-629.75C2724.13,-590.62 2723.71,-494.8 2723.5,-446.43"/>
<polygon fill="black" stroke="black" points="2727,-446.45 2723.46,-436.46 2720,-446.48 2727,-446.45"/>
</g>
<!-- X14f514951cbfe5f7_2 -->
<g id="node27" class="node">
<title>X14f514951cbfe5f7_2</title>
<polygon fill="none" stroke="black" points="2825.38,-434.5 2771.38,-434.5 2771.38,-398.5 2825.38,-398.5 2825.38,-434.5"/>
<text xml:space="preserve" text-anchor="start" x="2779.38" y="-411.45" font-family="Times,serif" font-size="14.00">Return</text>
</g>
<!-- X14f514951cbfe5f7_1&#45;&gt;X14f514951cbfe5f7_2 -->
<g id="edge15" class="edge">
<title>X14f514951cbfe5f7_1&#45;&gt;X14f514951cbfe5f7_2</title>
<path fill="none" stroke="black" d="M2797.45,-629.75C2797.62,-590.62 2798.04,-494.8 2798.25,-446.43"/>
<polygon fill="black" stroke="black" points="2801.75,-446.48 2798.29,-436.46 2794.75,-446.45 2801.75,-446.48"/>
</g>
<!-- node_13 -->
<g id="node29" class="node">
<title>node_13</title>
<polygon fill="#7ccd7c" stroke="#7ccd7c" points="4964.5,-255 4820.25,-255 4820.25,-181 4964.5,-181 4964.5,-255"/>
<text xml:space="preserve" text-anchor="start" x="4828.25" y="-237.7" font-family="Times,serif" font-size="14.00">LOCALS</text>
<text xml:space="preserve" text-anchor="start" x="4828.25" y="-221.2" font-family="Times,serif" font-size="14.00">0 = () (0 bytes, align 1)</text>
<text xml:space="preserve" text-anchor="start" x="4828.25" y="-204.7" font-family="Times,serif" font-size="14.00">1 = fn()</text>
<text xml:space="preserve" text-anchor="start" x="4828.25" y="-188.2" font-family="Times,serif" font-size="14.00">2 = () (0 bytes, align 1)</text>
</g>
<!-- node_15 -->
<g id="node31" class="node">
<title>node_15</title>
<polygon fill="#7ccd7c" stroke="#7ccd7c" points="4001.38,-1156.25 3577.38,-1156.25 3577.38,-1098.75 4001.38,-1098.75 4001.38,-1156.25"/>
<text xml:space="preserve" text-anchor="start" x="3585.38" y="-1138.95" font-family="Times,serif" font-size="14.00">LOCALS</text>
<text xml:space="preserve" text-anchor="start" x="3585.38" y="-1122.45" font-family="Times,serif" font-size="14.00">0 = () (0 bytes, align 1)</text>
<text xml:space="preserve" text-anchor="start" x="3585.38" y="-1105.95" font-family="Times,serif" font-size="14.00">1 = *mut {closure@std::rt::lang_start&lt;()&gt;::{closure#0}} (8 bytes, align 8)</text>
</g>
<!-- X96be866a9c1e7e3d_0 -->
<g id="node32" class="node">
<title>X96be866a9c1e7e3d_0</title>
<polygon fill="none" stroke="black" points="4073.38,-1145.5 4019.38,-1145.5 4019.38,-1109.5 4073.38,-1109.5 4073.38,-1145.5"/>
<text xml:space="preserve" text-anchor="start" x="4027.38" y="-1122.45" font-family="Times,serif" font-size="14.00">Return</text>
</g>
<!-- node_17 -->
<g id="node33" class="node">
<title>node_17</title>
<polygon fill="#7ccd7c" stroke="#7ccd7c" points="4383.12,-246.75 4125.62,-246.75 4125.62,-189.25 4383.12,-189.25 4383.12,-246.75"/>
<text xml:space="preserve" text-anchor="start" x="4133.62" y="-229.45" font-family="Times,serif" font-size="14.00">LOCALS</text>
<text xml:space="preserve" text-anchor="start" x="4133.62" y="-212.95" font-family="Times,serif" font-size="14.00">0 = std::process::ExitCode (1 bytes, align 1)</text>
<text xml:space="preserve" text-anchor="start" x="4133.62" y="-196.45" font-family="Times,serif" font-size="14.00">1 = () (0 bytes, align 1)</text>
</g>
<!-- node_19 -->
<g id="node34" class="node">
<title>node_19</title>
<polygon fill="#7ccd7c" stroke="#7ccd7c" points="1817.38,-1205.75 1621.38,-1205.75 1621.38,-1049.25 1817.38,-1049.25 1817.38,-1205.75"/>
<text xml:space="preserve" text-anchor="start" x="1629.38" y="-1188.45" font-family="Times,serif" font-size="14.00">LOCALS</text>
<text xml:space="preserve" text-anchor="start" x="1629.38" y="-1171.95" font-family="Times,serif" font-size="14.00">0 = () (0 bytes, align 1)</text>
<text xml:space="preserve" text-anchor="start" x="1629.38" y="-1155.45" font-family="Times,serif" font-size="14.00">1 = St (8 bytes, align 4)</text>
<text xml:space="preserve" text-anchor="start" x="1629.38" y="-1138.95" font-family="Times,serif" font-size="14.00">2 = Bool</text>
<text xml:space="preserve" text-anchor="start" x="1629.38" y="-1122.45" font-family="Times,serif" font-size="14.00">3 = Uint(U32)</text>
<text xml:space="preserve" text-anchor="start" x="1629.38" y="-1105.95" font-family="Times,serif" font-size="14.00">4 = Uint(U32)</text>
<text xml:space="preserve" text-anchor="start" x="1629.38" y="-1089.45" font-family="Times,serif" font-size="14.00">5 = (u32, bool) (8 bytes, align 4)</text>
<text xml:space="preserve" text-anchor="start" x="1629.38" y="-1072.95" font-family="Times,serif" font-size="14.00">6 = Uint(U32)</text>
<text xml:space="preserve" text-anchor="start" x="1629.38" y="-1056.45" font-family="Times,serif" font-size="14.00">7 = ()</text>
</g>
<!-- Xbc5dc15028c6534e_0 -->
<g id="node35" class="node">
<title>Xbc5dc15028c6534e_0</title>
<polygon fill="none" stroke="black" points="2142.88,-1164.5 1835.88,-1164.5 1835.88,-1090.5 2142.88,-1090.5 2142.88,-1164.5"/>
<text xml:space="preserve" text-anchor="start" x="1843.88" y="-1147.2" font-family="Times,serif" font-size="14.00">1 &lt;&#45; Adt{0} (const 1_Uint(U32), const 2_Uint(U32))</text>
<text xml:space="preserve" text-anchor="start" x="1843.88" y="-1130.7" font-family="Times,serif" font-size="14.00">4 &lt;&#45; Use(cp(1.0))</text>
<text xml:space="preserve" text-anchor="start" x="1843.88" y="-1114.2" font-family="Times,serif" font-size="14.00">5 &lt;&#45; chkd&#45;Add(cp(4), const 1_Uint(U32))</text>
<text xml:space="preserve" text-anchor="start" x="1843.88" y="-1097.7" font-family="Times,serif" font-size="14.00">Assert mv(5.1) == false</text>
</g>
<!-- Xbc5dc15028c6534e_1 -->
<g id="node36" class="node">
<title>Xbc5dc15028c6534e_1</title>
<polygon fill="none" stroke="black" points="2060.38,-891.75 1918.38,-891.75 1918.38,-817.75 2060.38,-817.75 2060.38,-891.75"/>
<text xml:space="preserve" text-anchor="start" x="1926.38" y="-874.45" font-family="Times,serif" font-size="14.00">3 &lt;&#45; Use(mv(5.0))</text>
<text xml:space="preserve" text-anchor="start" x="1926.38" y="-857.95" font-family="Times,serif" font-size="14.00">6 &lt;&#45; Use(cp(1.1))</text>
<text xml:space="preserve" text-anchor="start" x="1926.38" y="-841.45" font-family="Times,serif" font-size="14.00">2 &lt;&#45; Eq(mv(3), mv(6))</text>
<text xml:space="preserve" text-anchor="start" x="1926.38" y="-824.95" font-family="Times,serif" font-size="14.00">SwitchInt mv(2)</text>
</g>
<!-- Xbc5dc15028c6534e_0&#45;&gt;Xbc5dc15028c6534e_1 -->
<g id="edge20" class="edge">
<title>Xbc5dc15028c6534e_0&#45;&gt;Xbc5dc15028c6534e_1</title>
<path fill="none" stroke="black" d="M1989.38,-1090.27C1989.38,-1042.07 1989.38,-956.77 1989.38,-903.41"/>
<polygon fill="black" stroke="black" points="1992.88,-903.71 1989.38,-893.71 1985.88,-903.71 1992.88,-903.71"/>
</g>
<!-- Xbc5dc15028c6534e_3 -->
<g id="node37" class="node">
<title>Xbc5dc15028c6534e_3</title>
<polygon fill="none" stroke="black" points="1985.38,-666 1931.38,-666 1931.38,-630 1985.38,-630 1985.38,-666"/>
<text xml:space="preserve" text-anchor="start" x="1939.38" y="-642.95" font-family="Times,serif" font-size="14.00">Call</text>
</g>
<!-- Xbc5dc15028c6534e_1&#45;&gt;Xbc5dc15028c6534e_3 -->
<g id="edge21" class="edge">
<title>Xbc5dc15028c6534e_1&#45;&gt;Xbc5dc15028c6534e_3</title>
<path fill="none" stroke="black" d="M1983.9,-817.62C1977.86,-777.7 1968.25,-714.24 1962.71,-677.62"/>
<polygon fill="black" stroke="black" points="1966.18,-677.16 1961.22,-667.8 1959.26,-678.21 1966.18,-677.16"/>
<text xml:space="preserve" text-anchor="middle" x="1982.72" y="-778.2" font-family="Times,serif" font-size="14.00">0</text>
</g>
<!-- Xbc5dc15028c6534e_2 -->
<g id="node38" class="node">
<title>Xbc5dc15028c6534e_2</title>
<polygon fill="none" stroke="black" points="2057.38,-666 2003.38,-666 2003.38,-630 2057.38,-630 2057.38,-666"/>
<text xml:space="preserve" text-anchor="start" x="2011.38" y="-642.95" font-family="Times,serif" font-size="14.00">Return</text>
</g>
<!-- Xbc5dc15028c6534e_1&#45;&gt;Xbc5dc15028c6534e_2 -->
<g id="edge22" class="edge">
<title>Xbc5dc15028c6534e_1&#45;&gt;Xbc5dc15028c6534e_2</title>
<path fill="none" stroke="black" d="M1996.61,-817.62C2004.64,-777.53 2017.42,-713.68 2024.74,-677.14"/>
<polygon fill="black" stroke="black" points="2028.08,-678.28 2026.61,-667.78 2021.22,-676.9 2028.08,-678.28"/>
<text xml:space="preserve" text-anchor="middle" x="2018.87" y="-778.2" font-family="Times,serif" font-size="14.00">other</text>
</g>
<!-- Xbc5dc15028c6534e_3&#45;&gt;X210a8e5fe9313c81_0 -->
<g id="edge23" class="edge">
<title>Xbc5dc15028c6534e_3&#45;&gt;X210a8e5fe9313c81_0</title>
<path fill="none" stroke="black" d="M1958.38,-629.75C1958.38,-591.21 1958.38,-497.68 1958.38,-448.65"/>
<polygon fill="black" stroke="black" points="1961.88,-448.72 1958.38,-438.72 1954.88,-448.72 1961.88,-448.72"/>
<text xml:space="preserve" text-anchor="middle" x="1995.5" y="-546.7" font-family="Times,serif" font-size="14.00">const [alloc0]</text>
</g>
</g>
</svg>
