<?xml version="1.0" encoding="UTF-8" standalone="no"?>
<!DOCTYPE svg PUBLIC "-//W3C//DTD SVG 1.1//EN"
 "http://www.w3.org/Graphics/SVG/1.1/DTD/svg11.dtd">
<!-- Generated by graphviz version 14.1.1 (20251213.1925)
 -->
<!-- Pages: 1 -->
<svg width="3804pt" height="1279pt"
 viewBox="0.00 0.00 3804.00 1279.00" xmlns="http://www.w3.org/2000/svg" xmlns:xlink="http://www.w3.org/1999/xlink">
<g id="graph0" class="graph" transform="scale(1 1) rotate(0) translate(4 1275)">
<polygon fill="white" stroke="none" points="-4,4 -4,-1275 3800.38,-1275 3800.38,4 -4,4"/>
<text xml:space="preserve" text-anchor="middle" x="1898.19" y="-7.2" font-family="Times,serif" font-size="14.00">tuples_simple</text>
<g id="clust1" class="cluster">
<title>cluster_2</title>
<polygon fill="palegreen" stroke="palegreen" points="2764.38,-828.75 2764.38,-1221.75 3268.38,-1221.75 3268.38,-828.75 2764.38,-828.75"/>
<text xml:space="preserve" text-anchor="middle" x="3016.38" y="-1204.45" font-family="Times,serif" font-size="14.00">main</text>
</g>
<g id="clust2" class="cluster">
<title>cluster_4</title>
<polygon fill="lightgray" stroke="lightgray" points="1683.38,-801.5 1683.38,-1246.5 2518.38,-1246.5 2518.38,-801.5 1683.38,-801.5"/>
<text xml:space="preserve" text-anchor="middle" x="2100.88" y="-1229.2" font-family="Times,serif" font-size="14.00">std::rt::lang_start::&lt;()&gt;</text>
</g>
<g id="clust3" class="cluster">
<title>cluster_6</title>
<polygon fill="lightgray" stroke="lightgray" points="1683.38,-123.5 1683.38,-767 2297.38,-767 2297.38,-123.5 1683.38,-123.5"/>
<text xml:space="preserve" text-anchor="middle" x="1990.38" y="-749.7" font-family="Times,serif" font-size="14.00">std::rt::lang_start::&lt;()&gt;</text>
<text xml:space="preserve" text-anchor="middle" x="1990.38" y="-733.2" font-family="Times,serif" font-size="14.00">::{closure#0}</text>
</g>
<g id="clust4" class="cluster">
<title>cluster_8</title>
<polygon fill="lightgray" stroke="lightgray" points="2846.38,-32.5 2846.38,-535.5 3078.38,-535.5 3078.38,-32.5 2846.38,-32.5"/>
<text xml:space="preserve" text-anchor="middle" x="2962.38" y="-518.2" font-family="Times,serif" font-size="14.00">std::sys::backtrace::__ru</text>
<text xml:space="preserve" text-anchor="middle" x="2962.38" y="-501.7" font-family="Times,serif" font-size="14.00">st_begin_short_backtrace:</text>
<text xml:space="preserve" text-anchor="middle" x="2962.38" y="-485.2" font-family="Times,serif" font-size="14.00">:&lt;fn(), </text>
<text xml:space="preserve" text-anchor="middle" x="2962.38" y="-468.7" font-family="Times,serif" font-size="14.00">()&gt;</text>
</g>
<g id="clust5" class="cluster">
<title>cluster_10</title>
<polygon fill="lightgray" stroke="lightgray" points="606.38,-828.75 606.38,-1263 1118.38,-1263 1118.38,-828.75 606.38,-828.75"/>
<text xml:space="preserve" text-anchor="middle" x="862.38" y="-1245.7" font-family="Times,serif" font-size="14.00">&lt;{closure@std::rt::lang_s</text>
<text xml:space="preserve" text-anchor="middle" x="862.38" y="-1229.2" font-family="Times,serif" font-size="14.00">tart&lt;()&gt;::{closure#0}} </text>
<text xml:space="preserve" text-anchor="middle" x="862.38" y="-1212.7" font-family="Times,serif" font-size="14.00">as </text>
<text xml:space="preserve" text-anchor="middle" x="862.38" y="-1196.2" font-family="Times,serif" font-size="14.00">std::ops::FnOnce&lt;()&gt;&gt;::ca</text>
<text xml:space="preserve" text-anchor="middle" x="862.38" y="-1179.7" font-family="Times,serif" font-size="14.00">ll_once</text>
</g>
<g id="clust6" class="cluster">
<title>cluster_12</title>
<polygon fill="lightgray" stroke="lightgray" points="1126.38,-390.5 1126.38,-998.5 1675.38,-998.5 1675.38,-390.5 1126.38,-390.5"/>
<text xml:space="preserve" text-anchor="middle" x="1400.88" y="-981.2" font-family="Times,serif" font-size="14.00">&lt;{closure@std::rt::lang_s</text>
<text xml:space="preserve" text-anchor="middle" x="1400.88" y="-964.7" font-family="Times,serif" font-size="14.00">tart&lt;()&gt;::{closure#0}} </text>
<text xml:space="preserve" text-anchor="middle" x="1400.88" y="-948.2" font-family="Times,serif" font-size="14.00">as </text>
<text xml:space="preserve" text-anchor="middle" x="1400.88" y="-931.7" font-family="Times,serif" font-size="14.00">std::ops::FnOnce&lt;()&gt;&gt;::ca</text>
<text xml:space="preserve" text-anchor="middle" x="1400.88" y="-915.2" font-family="Times,serif" font-size="14.00">ll_once</text>
</g>
<g id="clust7" class="cluster">
<title>cluster_14</title>
<polygon fill="lightgray" stroke="lightgray" points="3169.38,-32.5 3169.38,-337 3419.38,-337 3419.38,-32.5 3169.38,-32.5"/>
<text xml:space="preserve" text-anchor="middle" x="3294.38" y="-319.7" font-family="Times,serif" font-size="14.00">&lt;fn() </text>
<text xml:space="preserve" text-anchor="middle" x="3294.38" y="-303.2" font-family="Times,serif" font-size="14.00">as </text>
<text xml:space="preserve" text-anchor="middle" x="3294.38" y="-286.7" font-family="Times,serif" font-size="14.00">std::ops::FnOnce&lt;()&gt;&gt;::ca</text>
<text xml:space="preserve" text-anchor="middle" x="3294.38" y="-270.2" font-family="Times,serif" font-size="14.00">ll_once</text>
</g>
<g id="clust8" class="cluster">
<title>cluster_16</title>
<polygon fill="lightgray" stroke="lightgray" points="3276.38,-1090.75 3276.38,-1221.75 3788.38,-1221.75 3788.38,-1090.75 3276.38,-1090.75"/>
<text xml:space="preserve" text-anchor="middle" x="3532.38" y="-1204.45" font-family="Times,serif" font-size="14.00">std::ptr::drop_in_place::</text>
<text xml:space="preserve" text-anchor="middle" x="3532.38" y="-1187.95" font-family="Times,serif" font-size="14.00">&lt;{closure@std::rt::lang_s</text>
<text xml:space="preserve" text-anchor="middle" x="3532.38" y="-1171.45" font-family="Times,serif" font-size="14.00">tart&lt;()&gt;::{closure#0}}&gt;</text>
</g>
<g id="clust9" class="cluster">
<title>cluster_18</title>
<polygon fill="lightgray" stroke="lightgray" points="2305.38,-181.25 2305.38,-328.75 2838.38,-328.75 2838.38,-181.25 2305.38,-181.25"/>
<text xml:space="preserve" text-anchor="middle" x="2571.88" y="-311.45" font-family="Times,serif" font-size="14.00">&lt;() </text>
<text xml:space="preserve" text-anchor="middle" x="2571.88" y="-294.95" font-family="Times,serif" font-size="14.00">as </text>
<text xml:space="preserve" text-anchor="middle" x="2571.88" y="-278.45" font-family="Times,serif" font-size="14.00">std::process::Termination</text>
<text xml:space="preserve" text-anchor="middle" x="2571.88" y="-261.95" font-family="Times,serif" font-size="14.00">&gt;::report</text>
</g>
<!-- node_0 -->
<g id="node1" class="node">
<title>node_0</title>
<polygon fill="lightyellow" stroke="lightyellow" points="130.75,-1148 0,-1148 0,-1107 130.75,-1107 130.75,-1148"/>
<text xml:space="preserve" text-anchor="start" x="8" y="-1130.7" font-family="Times,serif" font-size="14.00">ALLOCS</text>
<text xml:space="preserve" text-anchor="start" x="8" y="-1114.2" font-family="Times,serif" font-size="14.00">alloc1: Str (32 bytes)</text>
</g>
<!-- node_1 -->
<g id="node2" class="node">
<title>node_1</title>
<polygon fill="lavender" stroke="lavender" points="522.25,-1189.25 148.5,-1189.25 148.5,-1065.75 522.25,-1065.75 522.25,-1189.25"/>
<text xml:space="preserve" text-anchor="start" x="156.5" y="-1171.95" font-family="Times,serif" font-size="14.00">TYPES</text>
<text xml:space="preserve" text-anchor="start" x="156.5" y="-1155.45" font-family="Times,serif" font-size="14.00">() (0 bytes)</text>
<text xml:space="preserve" text-anchor="start" x="156.5" y="-1138.95" font-family="Times,serif" font-size="14.00">(i32, i32) (8 bytes)</text>
<text xml:space="preserve" text-anchor="start" x="156.5" y="-1122.45" font-family="Times,serif" font-size="14.00">std::panic::Location&lt;&#39;_&gt; (24 bytes)</text>
<text xml:space="preserve" text-anchor="start" x="156.5" y="-1105.95" font-family="Times,serif" font-size="14.00">std::process::ExitCode (1 bytes)</text>
<text xml:space="preserve" text-anchor="start" x="156.5" y="-1089.45" font-family="Times,serif" font-size="14.00">std::result::Result&lt;isize, !&gt; (8 bytes)</text>
<text xml:space="preserve" text-anchor="start" x="156.5" y="-1072.95" font-family="Times,serif" font-size="14.00">std::sys::pal::unix::process::process_common::ExitCode (1 bytes)</text>
</g>
<!-- X8b0ac2e54b9a91_0 -->
<g id="node3" class="node">
<title>X8b0ac2e54b9a91_0</title>
<polygon fill="none" stroke="red" points="596.62,-1145.5 540.12,-1145.5 540.12,-1109.5 596.62,-1109.5 596.62,-1145.5"/>
<text xml:space="preserve" text-anchor="middle" x="568.38" y="-1122.45" font-family="Times,serif" font-size="14.00">NoOp: </text>
</g>
<!-- X3c6542d96320ad67_0 -->
<g id="node4" class="node">
<title>X3c6542d96320ad67_0</title>
<polygon fill="none" stroke="red" points="3158.5,-79 3086.25,-79 3086.25,-38 3158.5,-38 3158.5,-79"/>
<text xml:space="preserve" text-anchor="middle" x="3122.38" y="-61.7" font-family="Times,serif" font-size="14.00">Intr: </text>
<text xml:space="preserve" text-anchor="middle" x="3122.38" y="-45.2" font-family="Times,serif" font-size="14.00">black_box</text>
</g>
<!-- X5eb86185c1cf8f06_0 -->
<g id="node5" class="node">
<title>X5eb86185c1cf8f06_0</title>
<polygon fill="none" stroke="red" points="2694.12,-883.5 2526.62,-883.5 2526.62,-826 2694.12,-826 2694.12,-883.5"/>
<text xml:space="preserve" text-anchor="middle" x="2610.38" y="-866.2" font-family="Times,serif" font-size="14.00">_ZN3std2rt19lang_start_in</text>
<text xml:space="preserve" text-anchor="middle" x="2610.38" y="-849.7" font-family="Times,serif" font-size="14.00">ternal17h035df9ff6960926a</text>
<text xml:space="preserve" text-anchor="middle" x="2610.38" y="-833.2" font-family="Times,serif" font-size="14.00">E</text>
</g>
<!-- X210a8e5fe9313c81_0 -->
<g id="node6" class="node">
<title>X210a8e5fe9313c81_0</title>
<polygon fill="none" stroke="red" points="3174.12,-668.5 3000.62,-668.5 3000.62,-627.5 3174.12,-627.5 3174.12,-668.5"/>
<text xml:space="preserve" text-anchor="middle" x="3087.38" y="-651.2" font-family="Times,serif" font-size="14.00">_ZN4core9panicking5panic1</text>
<text xml:space="preserve" text-anchor="middle" x="3087.38" y="-634.7" font-family="Times,serif" font-size="14.00">7h37379bf3ce79a0d7E</text>
</g>
<!-- node_3 -->
<g id="node7" class="node">
<title>node_3</title>
<polygon fill="#7ccd7c" stroke="#7ccd7c" points="2958.5,-1189.25 2772.25,-1189.25 2772.25,-1065.75 2958.5,-1065.75 2958.5,-1189.25"/>
<text xml:space="preserve" text-anchor="start" x="2780.25" y="-1171.95" font-family="Times,serif" font-size="14.00">LOCALS</text>
<text xml:space="preserve" text-anchor="start" x="2780.25" y="-1155.45" font-family="Times,serif" font-size="14.00">0 = () (0 bytes, align 1)</text>
<text xml:space="preserve" text-anchor="start" x="2780.25" y="-1138.95" font-family="Times,serif" font-size="14.00">1 = (i32, i32) (8 bytes, align 4)</text>
<text xml:space="preserve" text-anchor="start" x="2780.25" y="-1122.45" font-family="Times,serif" font-size="14.00">2 = Bool</text>
<text xml:space="preserve" text-anchor="start" x="2780.25" y="-1105.95" font-family="Times,serif" font-size="14.00">3 = Int(I32)</text>
<text xml:space="preserve" text-anchor="start" x="2780.25" y="-1089.45" font-family="Times,serif" font-size="14.00">4 = Int(I32)</text>
<text xml:space="preserve" text-anchor="start" x="2780.25" y="-1072.95" font-family="Times,serif" font-size="14.00">5 = ()</text>
</g>
<!-- Xb108226d6e4c5cda_0 -->
<g id="node8" class="node">
<title>Xb108226d6e4c5cda_0</title>
<polygon fill="none" stroke="black" points="3259.88,-1172.75 2976.88,-1172.75 2976.88,-1082.25 3259.88,-1082.25 3259.88,-1172.75"/>
<text xml:space="preserve" text-anchor="start" x="2984.88" y="-1155.45" font-family="Times,serif" font-size="14.00">1 &lt;&#45; Tuple (const 42_Int(I32), const 99_Int(I32))</text>
<text xml:space="preserve" text-anchor="start" x="2984.88" y="-1138.95" font-family="Times,serif" font-size="14.00">3 &lt;&#45; Use(cp(1.0))</text>
<text xml:space="preserve" text-anchor="start" x="2984.88" y="-1122.45" font-family="Times,serif" font-size="14.00">4 &lt;&#45; Use(cp(1.1))</text>
<text xml:space="preserve" text-anchor="start" x="2984.88" y="-1105.95" font-family="Times,serif" font-size="14.00">2 &lt;&#45; Ne(mv(3), mv(4))</text>
<text xml:space="preserve" text-anchor="start" x="2984.88" y="-1089.45" font-family="Times,serif" font-size="14.00">SwitchInt mv(2)</text>
</g>
<!-- Xb108226d6e4c5cda_2 -->
<g id="node9" class="node">
<title>Xb108226d6e4c5cda_2</title>
<polygon fill="none" stroke="black" points="3114.38,-872.75 3060.38,-872.75 3060.38,-836.75 3114.38,-836.75 3114.38,-872.75"/>
<text xml:space="preserve" text-anchor="start" x="3068.38" y="-849.7" font-family="Times,serif" font-size="14.00">Call</text>
</g>
<!-- Xb108226d6e4c5cda_0&#45;&gt;Xb108226d6e4c5cda_2 -->
<g id="edge1" class="edge">
<title>Xb108226d6e4c5cda_0&#45;&gt;Xb108226d6e4c5cda_2</title>
<path fill="none" stroke="black" d="M3113.26,-1081.79C3106.83,-1025.69 3096.01,-931.16 3090.62,-884.11"/>
<polygon fill="black" stroke="black" points="3094.13,-884 3089.52,-874.47 3087.18,-884.8 3094.13,-884"/>
<text xml:space="preserve" text-anchor="middle" x="3109.03" y="-1009.7" font-family="Times,serif" font-size="14.00">0</text>
</g>
<!-- Xb108226d6e4c5cda_1 -->
<g id="node10" class="node">
<title>Xb108226d6e4c5cda_1</title>
<polygon fill="none" stroke="black" points="3186.38,-872.75 3132.38,-872.75 3132.38,-836.75 3186.38,-836.75 3186.38,-872.75"/>
<text xml:space="preserve" text-anchor="start" x="3140.38" y="-849.7" font-family="Times,serif" font-size="14.00">Return</text>
</g>
<!-- Xb108226d6e4c5cda_0&#45;&gt;Xb108226d6e4c5cda_1 -->
<g id="edge2" class="edge">
<title>Xb108226d6e4c5cda_0&#45;&gt;Xb108226d6e4c5cda_1</title>
<path fill="none" stroke="black" d="M3125.15,-1081.79C3133.64,-1025.69 3147.96,-931.16 3155.08,-884.11"/>
<polygon fill="black" stroke="black" points="3158.51,-884.87 3156.54,-874.46 3151.58,-883.82 3158.51,-884.87"/>
<text xml:space="preserve" text-anchor="middle" x="3150.3" y="-1009.7" font-family="Times,serif" font-size="14.00">other</text>
</g>
<!-- Xb108226d6e4c5cda_2&#45;&gt;X210a8e5fe9313c81_0 -->
<g id="edge3" class="edge">
<title>Xb108226d6e4c5cda_2&#45;&gt;X210a8e5fe9313c81_0</title>
<path fill="none" stroke="black" d="M3087.38,-836.29C3087.38,-801.64 3087.38,-723.76 3087.38,-680.13"/>
<polygon fill="black" stroke="black" points="3090.88,-680.31 3087.38,-670.31 3083.88,-680.31 3090.88,-680.31"/>
<text xml:space="preserve" text-anchor="middle" x="3124.5" y="-778.2" font-family="Times,serif" font-size="14.00">const [alloc0]</text>
</g>
<!-- node_5 -->
<g id="node11" class="node">
<title>node_5</title>
<polygon fill="#7ccd7c" stroke="#7ccd7c" points="2253.75,-1214 1691,-1214 1691,-1041 2253.75,-1041 2253.75,-1214"/>
<text xml:space="preserve" text-anchor="start" x="1699" y="-1196.7" font-family="Times,serif" font-size="14.00">LOCALS</text>
<text xml:space="preserve" text-anchor="start" x="1699" y="-1180.2" font-family="Times,serif" font-size="14.00">0 = Int(Isize)</text>
<text xml:space="preserve" text-anchor="start" x="1699" y="-1163.7" font-family="Times,serif" font-size="14.00">1 = fn()</text>
<text xml:space="preserve" text-anchor="start" x="1699" y="-1147.2" font-family="Times,serif" font-size="14.00">2 = Int(Isize)</text>
<text xml:space="preserve" text-anchor="start" x="1699" y="-1130.7" font-family="Times,serif" font-size="14.00">3 = *const *const u8 (8 bytes, align 8)</text>
<text xml:space="preserve" text-anchor="start" x="1699" y="-1114.2" font-family="Times,serif" font-size="14.00">4 = Uint(U8)</text>
<text xml:space="preserve" text-anchor="start" x="1699" y="-1097.7" font-family="Times,serif" font-size="14.00">5 = std::result::Result&lt;isize, !&gt; (8 bytes, align 8)</text>
<text xml:space="preserve" text-anchor="start" x="1699" y="-1081.2" font-family="Times,serif" font-size="14.00">6 = &amp;dyn std::ops::Fn() &#45;&gt; i32 + std::marker::Sync + std::panic::RefUnwindSafe (16 bytes, align 8)</text>
<text xml:space="preserve" text-anchor="start" x="1699" y="-1064.7" font-family="Times,serif" font-size="14.00">7 = &amp;{closure@std::rt::lang_start&lt;()&gt;::{closure#0}} (8 bytes, align 8)</text>
<text xml:space="preserve" text-anchor="start" x="1699" y="-1048.2" font-family="Times,serif" font-size="14.00">8 = {closure@std::rt::lang_start&lt;()&gt;::{closure#0}}</text>
</g>
<!-- X22600fc49dcacbdf_0 -->
<g id="node12" class="node">
<title>X22600fc49dcacbdf_0</title>
<polygon fill="none" stroke="black" points="2510.75,-1189.25 2272,-1189.25 2272,-1065.75 2510.75,-1065.75 2510.75,-1189.25"/>
<text xml:space="preserve" text-anchor="start" x="2280" y="-1171.95" font-family="Times,serif" font-size="14.00">Storage Live _5</text>
<text xml:space="preserve" text-anchor="start" x="2280" y="-1155.45" font-family="Times,serif" font-size="14.00">Storage Live _6</text>
<text xml:space="preserve" text-anchor="start" x="2280" y="-1138.95" font-family="Times,serif" font-size="14.00">Storage Live _8</text>
<text xml:space="preserve" text-anchor="start" x="2280" y="-1122.45" font-family="Times,serif" font-size="14.00">8 &lt;&#45; Closure (cp(1))</text>
<text xml:space="preserve" text-anchor="start" x="2280" y="-1105.95" font-family="Times,serif" font-size="14.00">7 &lt;&#45; &amp; 8</text>
<text xml:space="preserve" text-anchor="start" x="2280" y="-1089.45" font-family="Times,serif" font-size="14.00">6 &lt;&#45; Cast&#45;PointerCoercion(Unsize) cp(7)</text>
<text xml:space="preserve" text-anchor="start" x="2280" y="-1072.95" font-family="Times,serif" font-size="14.00">Call</text>
</g>
<!-- X22600fc49dcacbdf_0&#45;&gt;X5eb86185c1cf8f06_0 -->
<g id="edge5" class="edge">
<title>X22600fc49dcacbdf_0&#45;&gt;X5eb86185c1cf8f06_0</title>
<path fill="none" stroke="black" d="M2460.27,-1065.31C2481.32,-1045.05 2503.8,-1021.72 2522.38,-998.5 2548.89,-965.35 2573.75,-923.65 2590.24,-893.9"/>
<polygon fill="black" stroke="black" points="2593.25,-895.69 2594.98,-885.24 2587.11,-892.33 2593.25,-895.69"/>
<text xml:space="preserve" text-anchor="middle" x="2586.05" y="-1009.7" font-family="Times,serif" font-size="14.00">mv(6),mv(2),mv(3),mv(4)</text>
</g>
<!-- X22600fc49dcacbdf_1 -->
<g id="node13" class="node">
<title>X22600fc49dcacbdf_1</title>
<polygon fill="none" stroke="black" points="2485.25,-900 2297.5,-900 2297.5,-809.5 2485.25,-809.5 2485.25,-900"/>
<text xml:space="preserve" text-anchor="start" x="2305.5" y="-882.7" font-family="Times,serif" font-size="14.00">Storage Dead _6</text>
<text xml:space="preserve" text-anchor="start" x="2305.5" y="-866.2" font-family="Times,serif" font-size="14.00">0 &lt;&#45; Use(cp((5 as variant 0).0))</text>
<text xml:space="preserve" text-anchor="start" x="2305.5" y="-849.7" font-family="Times,serif" font-size="14.00">Storage Dead _8</text>
<text xml:space="preserve" text-anchor="start" x="2305.5" y="-833.2" font-family="Times,serif" font-size="14.00">Storage Dead _5</text>
<text xml:space="preserve" text-anchor="start" x="2305.5" y="-816.7" font-family="Times,serif" font-size="14.00">Return</text>
</g>
<!-- X22600fc49dcacbdf_0&#45;&gt;X22600fc49dcacbdf_1 -->
<g id="edge4" class="edge">
<title>X22600fc49dcacbdf_0&#45;&gt;X22600fc49dcacbdf_1</title>
<path fill="none" stroke="black" d="M2391.38,-1065.4C2391.38,-1019.2 2391.38,-956.29 2391.38,-911.46"/>
<polygon fill="black" stroke="black" points="2394.88,-911.7 2391.38,-901.7 2387.88,-911.7 2394.88,-911.7"/>
<text xml:space="preserve" text-anchor="middle" x="2394.75" y="-1009.7" font-family="Times,serif" font-size="14.00">5</text>
</g>
<!-- node_7 -->
<g id="node14" class="node">
<title>node_7</title>
<polygon fill="#7ccd7c" stroke="#7ccd7c" points="2143.62,-718 1691.12,-718 1691.12,-578 2143.62,-578 2143.62,-718"/>
<text xml:space="preserve" text-anchor="start" x="1699.12" y="-700.7" font-family="Times,serif" font-size="14.00">LOCALS</text>
<text xml:space="preserve" text-anchor="start" x="1699.12" y="-684.2" font-family="Times,serif" font-size="14.00">0 = Int(I32)</text>
<text xml:space="preserve" text-anchor="start" x="1699.12" y="-667.7" font-family="Times,serif" font-size="14.00">1 = &amp;{closure@std::rt::lang_start&lt;()&gt;::{closure#0}} (8 bytes, align 8)</text>
<text xml:space="preserve" text-anchor="start" x="1699.12" y="-651.2" font-family="Times,serif" font-size="14.00">2 = std::process::ExitCode (1 bytes, align 1)</text>
<text xml:space="preserve" text-anchor="start" x="1699.12" y="-634.7" font-family="Times,serif" font-size="14.00">3 = () (0 bytes, align 1)</text>
<text xml:space="preserve" text-anchor="start" x="1699.12" y="-618.2" font-family="Times,serif" font-size="14.00">4 = fn()</text>
<text xml:space="preserve" text-anchor="start" x="1699.12" y="-601.7" font-family="Times,serif" font-size="14.00">5 = &amp;std::sys::pal::unix::process::process_common::ExitCode (8 bytes, align 8)</text>
<text xml:space="preserve" text-anchor="start" x="1699.12" y="-585.2" font-family="Times,serif" font-size="14.00">6 = Uint(U8)</text>
</g>
<!-- X65549ba7c65e4abc_0 -->
<g id="node15" class="node">
<title>X65549ba7c65e4abc_0</title>
<polygon fill="none" stroke="black" points="2289.25,-693.25 2161.5,-693.25 2161.5,-602.75 2289.25,-602.75 2289.25,-693.25"/>
<text xml:space="preserve" text-anchor="start" x="2169.5" y="-675.95" font-family="Times,serif" font-size="14.00">Storage Live _2</text>
<text xml:space="preserve" text-anchor="start" x="2169.5" y="-659.45" font-family="Times,serif" font-size="14.00">Storage Live _3</text>
<text xml:space="preserve" text-anchor="start" x="2169.5" y="-642.95" font-family="Times,serif" font-size="14.00">Storage Live _4</text>
<text xml:space="preserve" text-anchor="start" x="2169.5" y="-626.45" font-family="Times,serif" font-size="14.00">4 &lt;&#45; Use(cp((*1).0))</text>
<text xml:space="preserve" text-anchor="start" x="2169.5" y="-609.95" font-family="Times,serif" font-size="14.00">Call</text>
</g>
<!-- X65549ba7c65e4abc_1 -->
<g id="node16" class="node">
<title>X65549ba7c65e4abc_1</title>
<polygon fill="none" stroke="black" points="2278.75,-437 2172,-437 2172,-396 2278.75,-396 2278.75,-437"/>
<text xml:space="preserve" text-anchor="start" x="2180" y="-419.7" font-family="Times,serif" font-size="14.00">Storage Dead _4</text>
<text xml:space="preserve" text-anchor="start" x="2180" y="-403.2" font-family="Times,serif" font-size="14.00">Call</text>
</g>
<!-- X65549ba7c65e4abc_0&#45;&gt;X65549ba7c65e4abc_1 -->
<g id="edge6" class="edge">
<title>X65549ba7c65e4abc_0&#45;&gt;X65549ba7c65e4abc_1</title>
<path fill="none" stroke="black" d="M2225.38,-602.48C2225.38,-557.23 2225.38,-488.32 2225.38,-448.63"/>
<polygon fill="black" stroke="black" points="2228.88,-448.82 2225.38,-438.82 2221.88,-448.82 2228.88,-448.82"/>
<text xml:space="preserve" text-anchor="middle" x="2228.75" y="-546.7" font-family="Times,serif" font-size="14.00">3</text>
</g>
<!-- X1e4cb1e6a7d828eb_0 -->
<g id="node18" class="node">
<title>X1e4cb1e6a7d828eb_0</title>
<polygon fill="none" stroke="black" points="2908.38,-434.5 2854.38,-434.5 2854.38,-398.5 2908.38,-398.5 2908.38,-434.5"/>
<text xml:space="preserve" text-anchor="start" x="2862.38" y="-411.45" font-family="Times,serif" font-size="14.00">Call</text>
</g>
<!-- X65549ba7c65e4abc_0&#45;&gt;X1e4cb1e6a7d828eb_0 -->
<g id="edge8" class="edge">
<title>X65549ba7c65e4abc_0&#45;&gt;X1e4cb1e6a7d828eb_0</title>
<path fill="none" stroke="black" d="M2289.47,-624.58C2424.61,-577.3 2735.2,-468.64 2843.38,-430.79"/>
<polygon fill="black" stroke="black" points="2844.38,-434.15 2852.66,-427.55 2842.07,-427.54 2844.38,-434.15"/>
<text xml:space="preserve" text-anchor="middle" x="2530.97" y="-546.7" font-family="Times,serif" font-size="14.00">mv(4)</text>
</g>
<!-- X65549ba7c65e4abc_2 -->
<g id="node17" class="node">
<title>X65549ba7c65e4abc_2</title>
<polygon fill="none" stroke="black" points="2289.38,-304.5 2135.38,-304.5 2135.38,-131.5 2289.38,-131.5 2289.38,-304.5"/>
<text xml:space="preserve" text-anchor="start" x="2143.38" y="-287.2" font-family="Times,serif" font-size="14.00">Storage Dead _3</text>
<text xml:space="preserve" text-anchor="start" x="2143.38" y="-270.7" font-family="Times,serif" font-size="14.00">Storage Live _5</text>
<text xml:space="preserve" text-anchor="start" x="2143.38" y="-254.2" font-family="Times,serif" font-size="14.00">5 &lt;&#45; &amp; 2.0</text>
<text xml:space="preserve" text-anchor="start" x="2143.38" y="-237.7" font-family="Times,serif" font-size="14.00">Storage Live _6</text>
<text xml:space="preserve" text-anchor="start" x="2143.38" y="-221.2" font-family="Times,serif" font-size="14.00">6 &lt;&#45; Use(cp(2.0.0))</text>
<text xml:space="preserve" text-anchor="start" x="2143.38" y="-204.7" font-family="Times,serif" font-size="14.00">0 &lt;&#45; Cast&#45;IntToInt mv(6)</text>
<text xml:space="preserve" text-anchor="start" x="2143.38" y="-188.2" font-family="Times,serif" font-size="14.00">Storage Dead _6</text>
<text xml:space="preserve" text-anchor="start" x="2143.38" y="-171.7" font-family="Times,serif" font-size="14.00">Storage Dead _5</text>
<text xml:space="preserve" text-anchor="start" x="2143.38" y="-155.2" font-family="Times,serif" font-size="14.00">Storage Dead _2</text>
<text xml:space="preserve" text-anchor="start" x="2143.38" y="-138.7" font-family="Times,serif" font-size="14.00">Return</text>
</g>
<!-- X65549ba7c65e4abc_1&#45;&gt;X65549ba7c65e4abc_2 -->
<g id="edge7" class="edge">
<title>X65549ba7c65e4abc_1&#45;&gt;X65549ba7c65e4abc_2</title>
<path fill="none" stroke="black" d="M2224.06,-395.58C2222.8,-376.54 2220.8,-346.38 2218.81,-316.33"/>
<polygon fill="black" stroke="black" points="2222.31,-316.1 2218.15,-306.35 2215.32,-316.56 2222.31,-316.1"/>
<text xml:space="preserve" text-anchor="middle" x="2224.91" y="-348.2" font-family="Times,serif" font-size="14.00">2</text>
</g>
<!-- X947a867270fbbd38_0 -->
<g id="node19" class="node">
<title>X947a867270fbbd38_0</title>
<polygon fill="none" stroke="black" points="2554.88,-238.5 2313.88,-238.5 2313.88,-197.5 2554.88,-197.5 2554.88,-238.5"/>
<text xml:space="preserve" text-anchor="start" x="2321.88" y="-221.2" font-family="Times,serif" font-size="14.00">0 &lt;&#45; Use(const 0_std::process::ExitCode)</text>
<text xml:space="preserve" text-anchor="start" x="2321.88" y="-204.7" font-family="Times,serif" font-size="14.00">Return</text>
</g>
<!-- X65549ba7c65e4abc_1&#45;&gt;X947a867270fbbd38_0 -->
<g id="edge9" class="edge">
<title>X65549ba7c65e4abc_1&#45;&gt;X947a867270fbbd38_0</title>
<path fill="none" stroke="black" d="M2246.57,-395.58C2284.04,-360.34 2362.08,-286.97 2404.82,-246.78"/>
<polygon fill="black" stroke="black" points="2407.14,-249.41 2412.03,-240.01 2402.34,-244.31 2407.14,-249.41"/>
<text xml:space="preserve" text-anchor="middle" x="2315.82" y="-348.2" font-family="Times,serif" font-size="14.00">mv(3)</text>
</g>
<!-- X1e4cb1e6a7d828eb_1 -->
<g id="node21" class="node">
<title>X1e4cb1e6a7d828eb_1</title>
<polygon fill="none" stroke="black" points="2988.38,-236 2934.38,-236 2934.38,-200 2988.38,-200 2988.38,-236"/>
<text xml:space="preserve" text-anchor="start" x="2942.38" y="-212.95" font-family="Times,serif" font-size="14.00">Call</text>
</g>
<!-- X1e4cb1e6a7d828eb_0&#45;&gt;X1e4cb1e6a7d828eb_1 -->
<g id="edge10" class="edge">
<title>X1e4cb1e6a7d828eb_0&#45;&gt;X1e4cb1e6a7d828eb_1</title>
<path fill="none" stroke="black" d="M2888.47,-398.06C2902.35,-363.98 2933.18,-288.26 2949.96,-247.05"/>
<polygon fill="black" stroke="black" points="2953.19,-248.38 2953.72,-237.8 2946.71,-245.74 2953.19,-248.38"/>
<text xml:space="preserve" text-anchor="middle" x="2912.91" y="-348.2" font-family="Times,serif" font-size="14.00">0</text>
</g>
<!-- X3c23390f4904cc0b_0 -->
<g id="node23" class="node">
<title>X3c23390f4904cc0b_0</title>
<polygon fill="none" stroke="black" points="3231.38,-236 3177.38,-236 3177.38,-200 3231.38,-200 3231.38,-236"/>
<text xml:space="preserve" text-anchor="start" x="3185.38" y="-212.95" font-family="Times,serif" font-size="14.00">Call</text>
</g>
<!-- X1e4cb1e6a7d828eb_0&#45;&gt;X3c23390f4904cc0b_0 -->
<g id="edge12" class="edge">
<title>X1e4cb1e6a7d828eb_0&#45;&gt;X3c23390f4904cc0b_0</title>
<path fill="none" stroke="black" d="M2895.25,-398.06C2901.38,-391.38 2909.08,-384.23 2917.38,-379.5 2983.14,-341.96 3016.3,-374 3082.38,-337 3124.23,-313.56 3162.19,-272.21 3184.28,-245.21"/>
<polygon fill="black" stroke="black" points="3186.95,-247.48 3190.47,-237.49 3181.48,-243.11 3186.95,-247.48"/>
<text xml:space="preserve" text-anchor="middle" x="3102.85" y="-348.2" font-family="Times,serif" font-size="14.00">mv(1),const ()</text>
</g>
<!-- node_9 -->
<g id="node20" class="node">
<title>node_9</title>
<polygon fill="#7ccd7c" stroke="#7ccd7c" points="3070.5,-453.5 2926.25,-453.5 2926.25,-379.5 3070.5,-379.5 3070.5,-453.5"/>
<text xml:space="preserve" text-anchor="start" x="2934.25" y="-436.2" font-family="Times,serif" font-size="14.00">LOCALS</text>
<text xml:space="preserve" text-anchor="start" x="2934.25" y="-419.7" font-family="Times,serif" font-size="14.00">0 = () (0 bytes, align 1)</text>
<text xml:space="preserve" text-anchor="start" x="2934.25" y="-403.2" font-family="Times,serif" font-size="14.00">1 = fn()</text>
<text xml:space="preserve" text-anchor="start" x="2934.25" y="-386.7" font-family="Times,serif" font-size="14.00">2 = () (0 bytes, align 1)</text>
</g>
<!-- X1e4cb1e6a7d828eb_1&#45;&gt;X3c6542d96320ad67_0 -->
<g id="edge13" class="edge">
<title>X1e4cb1e6a7d828eb_1&#45;&gt;X3c6542d96320ad67_0</title>
<path fill="none" stroke="black" d="M2979.22,-199.54C3007.07,-172.3 3061.11,-119.44 3094.24,-87.03"/>
<polygon fill="black" stroke="black" points="3096.4,-89.81 3101.1,-80.31 3091.5,-84.8 3096.4,-89.81"/>
<text xml:space="preserve" text-anchor="middle" x="3104.09" y="-100.2" font-family="Times,serif" font-size="14.00">const ()</text>
</g>
<!-- X1e4cb1e6a7d828eb_2 -->
<g id="node22" class="node">
<title>X1e4cb1e6a7d828eb_2</title>
<polygon fill="none" stroke="black" points="2988.38,-76.5 2934.38,-76.5 2934.38,-40.5 2988.38,-40.5 2988.38,-76.5"/>
<text xml:space="preserve" text-anchor="start" x="2942.38" y="-53.45" font-family="Times,serif" font-size="14.00">Return</text>
</g>
<!-- X1e4cb1e6a7d828eb_1&#45;&gt;X1e4cb1e6a7d828eb_2 -->
<g id="edge11" class="edge">
<title>X1e4cb1e6a7d828eb_1&#45;&gt;X1e4cb1e6a7d828eb_2</title>
<path fill="none" stroke="black" d="M2961.38,-199.54C2961.38,-172.56 2961.38,-120.44 2961.38,-87.95"/>
<polygon fill="black" stroke="black" points="2964.88,-88.07 2961.38,-78.07 2957.88,-88.07 2964.88,-88.07"/>
<text xml:space="preserve" text-anchor="middle" x="2964.75" y="-100.2" font-family="Times,serif" font-size="14.00">2</text>
</g>
<!-- X3c23390f4904cc0b_0&#45;&gt;X3c23390f4904cc0b_0 -->
<g id="edge22" class="edge">
<title>X3c23390f4904cc0b_0&#45;&gt;X3c23390f4904cc0b_0:1</title>
<path fill="none" stroke="black" d="M3221.93,-236.41C3235.52,-243.3 3249.38,-237.16 3249.38,-218 3249.38,-204.08 3242.06,-197.03 3232.85,-196.86"/>
<polygon fill="black" stroke="black" points="3232.25,-193.4 3223.4,-199.22 3233.95,-200.2 3232.25,-193.4"/>
</g>
<!-- X3c23390f4904cc0b_1 -->
<g id="node34" class="node">
<title>X3c23390f4904cc0b_1</title>
<polygon fill="none" stroke="black" points="3231.38,-76.5 3177.38,-76.5 3177.38,-40.5 3231.38,-40.5 3231.38,-76.5"/>
<text xml:space="preserve" text-anchor="start" x="3185.38" y="-53.45" font-family="Times,serif" font-size="14.00">Return</text>
</g>
<!-- X3c23390f4904cc0b_0&#45;&gt;X3c23390f4904cc0b_1 -->
<g id="edge21" class="edge">
<title>X3c23390f4904cc0b_0&#45;&gt;X3c23390f4904cc0b_1</title>
<path fill="none" stroke="black" d="M3204.38,-199.54C3204.38,-172.56 3204.38,-120.44 3204.38,-87.95"/>
<polygon fill="black" stroke="black" points="3207.88,-88.07 3204.38,-78.07 3200.88,-88.07 3207.88,-88.07"/>
<text xml:space="preserve" text-anchor="middle" x="3207.75" y="-100.2" font-family="Times,serif" font-size="14.00">0</text>
</g>
<!-- node_11 -->
<g id="node24" class="node">
<title>node_11</title>
<polygon fill="#7ccd7c" stroke="#7ccd7c" points="1038.38,-1164.5 614.38,-1164.5 614.38,-1090.5 1038.38,-1090.5 1038.38,-1164.5"/>
<text xml:space="preserve" text-anchor="start" x="622.38" y="-1147.2" font-family="Times,serif" font-size="14.00">LOCALS</text>
<text xml:space="preserve" text-anchor="start" x="622.38" y="-1130.7" font-family="Times,serif" font-size="14.00">0 = Int(I32)</text>
<text xml:space="preserve" text-anchor="start" x="622.38" y="-1114.2" font-family="Times,serif" font-size="14.00">1 = *mut {closure@std::rt::lang_start&lt;()&gt;::{closure#0}} (8 bytes, align 8)</text>
<text xml:space="preserve" text-anchor="start" x="622.38" y="-1097.7" font-family="Times,serif" font-size="14.00">2 = () (0 bytes, align 1)</text>
</g>
<!-- X7d0717dcb726bae7_0 -->
<g id="node25" class="node">
<title>X7d0717dcb726bae7_0</title>
<polygon fill="none" stroke="black" points="1110.38,-1145.5 1056.38,-1145.5 1056.38,-1109.5 1110.38,-1109.5 1110.38,-1145.5"/>
<text xml:space="preserve" text-anchor="start" x="1064.38" y="-1122.45" font-family="Times,serif" font-size="14.00">Call</text>
</g>
<!-- X7d0717dcb726bae7_1 -->
<g id="node26" class="node">
<title>X7d0717dcb726bae7_1</title>
<polygon fill="none" stroke="black" points="1110.38,-872.75 1056.38,-872.75 1056.38,-836.75 1110.38,-836.75 1110.38,-872.75"/>
<text xml:space="preserve" text-anchor="start" x="1064.38" y="-849.7" font-family="Times,serif" font-size="14.00">Return</text>
</g>
<!-- X7d0717dcb726bae7_0&#45;&gt;X7d0717dcb726bae7_1 -->
<g id="edge14" class="edge">
<title>X7d0717dcb726bae7_0&#45;&gt;X7d0717dcb726bae7_1</title>
<path fill="none" stroke="black" d="M1083.38,-1109.15C1083.38,-1063.59 1083.38,-940.21 1083.38,-884.15"/>
<polygon fill="black" stroke="black" points="1086.88,-884.47 1083.38,-874.47 1079.88,-884.47 1086.88,-884.47"/>
<text xml:space="preserve" text-anchor="middle" x="1086.75" y="-1009.7" font-family="Times,serif" font-size="14.00">0</text>
</g>
<!-- X10dc08fa9403900e_0 -->
<g id="node27" class="node">
<title>X10dc08fa9403900e_0</title>
<polygon fill="none" stroke="black" points="1220.62,-875.25 1134.12,-875.25 1134.12,-834.25 1220.62,-834.25 1220.62,-875.25"/>
<text xml:space="preserve" text-anchor="start" x="1142.12" y="-857.95" font-family="Times,serif" font-size="14.00">3 &lt;&#45; &amp;mut 1</text>
<text xml:space="preserve" text-anchor="start" x="1142.12" y="-841.45" font-family="Times,serif" font-size="14.00">Call</text>
</g>
<!-- X7d0717dcb726bae7_0&#45;&gt;X10dc08fa9403900e_0 -->
<g id="edge15" class="edge">
<title>X7d0717dcb726bae7_0&#45;&gt;X10dc08fa9403900e_0</title>
<path fill="none" stroke="black" d="M1089.4,-1109.15C1105.02,-1064.16 1146.98,-943.3 1166.77,-886.3"/>
<polygon fill="black" stroke="black" points="1170.06,-887.5 1170.03,-876.9 1163.45,-885.2 1170.06,-887.5"/>
<text xml:space="preserve" text-anchor="middle" x="1168.25" y="-1009.7" font-family="Times,serif" font-size="14.00">mv((*1)),mv(2)</text>
</g>
<!-- X10dc08fa9403900e_0&#45;&gt;X65549ba7c65e4abc_0 -->
<g id="edge20" class="edge">
<title>X10dc08fa9403900e_0&#45;&gt;X65549ba7c65e4abc_0</title>
<path fill="none" stroke="black" d="M1191.4,-833.88C1200.91,-822.15 1214.6,-808.32 1230.38,-801.5 1324.48,-760.84 2063.77,-818.57 2152.38,-767 2176.41,-753.01 2193.61,-727.65 2205.25,-704.02"/>
<polygon fill="black" stroke="black" points="2208.38,-705.6 2209.42,-695.05 2202.03,-702.64 2208.38,-705.6"/>
<text xml:space="preserve" text-anchor="middle" x="2165.3" y="-778.2" font-family="Times,serif" font-size="14.00">mv(3),mv(2)</text>
</g>
<!-- X10dc08fa9403900e_3 -->
<g id="node29" class="node">
<title>X10dc08fa9403900e_3</title>
<polygon fill="none" stroke="black" points="1198.5,-666 1144.25,-666 1144.25,-630 1198.5,-630 1198.5,-666"/>
<text xml:space="preserve" text-anchor="start" x="1152.25" y="-642.95" font-family="Times,serif" font-size="14.00">Drop 1</text>
</g>
<!-- X10dc08fa9403900e_0&#45;&gt;X10dc08fa9403900e_3 -->
<g id="edge16" class="edge">
<title>X10dc08fa9403900e_0&#45;&gt;X10dc08fa9403900e_3</title>
<path fill="none" stroke="black" d="M1176.71,-833.85C1176.31,-821.63 1175.8,-805.66 1175.38,-791.5 1174.18,-751.89 1172.92,-706.08 1172.14,-677.32"/>
<polygon fill="black" stroke="black" points="1175.64,-677.52 1171.87,-667.62 1168.65,-677.71 1175.64,-677.52"/>
<text xml:space="preserve" text-anchor="middle" x="1197.88" y="-778.2" font-family="Times,serif" font-size="14.00">Cleanup</text>
</g>
<!-- X10dc08fa9403900e_1 -->
<g id="node30" class="node">
<title>X10dc08fa9403900e_1</title>
<polygon fill="none" stroke="black" points="1271.5,-666 1217.25,-666 1217.25,-630 1271.5,-630 1271.5,-666"/>
<text xml:space="preserve" text-anchor="start" x="1225.25" y="-642.95" font-family="Times,serif" font-size="14.00">Drop 1</text>
</g>
<!-- X10dc08fa9403900e_0&#45;&gt;X10dc08fa9403900e_1 -->
<g id="edge17" class="edge">
<title>X10dc08fa9403900e_0&#45;&gt;X10dc08fa9403900e_1</title>
<path fill="none" stroke="black" d="M1194.56,-833.76C1203.64,-822.15 1214.15,-806.83 1220.38,-791.5 1235.64,-753.91 1241.19,-706.94 1243.22,-677.45"/>
<polygon fill="black" stroke="black" points="1246.69,-678.02 1243.78,-667.84 1239.7,-677.62 1246.69,-678.02"/>
<text xml:space="preserve" text-anchor="middle" x="1229.09" y="-778.2" font-family="Times,serif" font-size="14.00">0</text>
</g>
<!-- node_13 -->
<g id="node28" class="node">
<title>node_13</title>
<polygon fill="#7ccd7c" stroke="#7ccd7c" points="1667.62,-900 1239.12,-900 1239.12,-809.5 1667.62,-809.5 1667.62,-900"/>
<text xml:space="preserve" text-anchor="start" x="1247.12" y="-882.7" font-family="Times,serif" font-size="14.00">LOCALS</text>
<text xml:space="preserve" text-anchor="start" x="1247.12" y="-866.2" font-family="Times,serif" font-size="14.00">0 = Int(I32)</text>
<text xml:space="preserve" text-anchor="start" x="1247.12" y="-849.7" font-family="Times,serif" font-size="14.00">1 = {closure@std::rt::lang_start&lt;()&gt;::{closure#0}}</text>
<text xml:space="preserve" text-anchor="start" x="1247.12" y="-833.2" font-family="Times,serif" font-size="14.00">2 = () (0 bytes, align 1)</text>
<text xml:space="preserve" text-anchor="start" x="1247.12" y="-816.7" font-family="Times,serif" font-size="14.00">3 = &amp;mut {closure@std::rt::lang_start&lt;()&gt;::{closure#0}} (8 bytes, align 8)</text>
</g>
<!-- X10dc08fa9403900e_4 -->
<g id="node32" class="node">
<title>X10dc08fa9403900e_4</title>
<polygon fill="none" stroke="black" points="1200.5,-434.5 1140.25,-434.5 1140.25,-398.5 1200.5,-398.5 1200.5,-434.5"/>
<text xml:space="preserve" text-anchor="start" x="1148.25" y="-411.45" font-family="Times,serif" font-size="14.00">Resume</text>
</g>
<!-- X10dc08fa9403900e_3&#45;&gt;X10dc08fa9403900e_4 -->
<g id="edge19" class="edge">
<title>X10dc08fa9403900e_3&#45;&gt;X10dc08fa9403900e_4</title>
<path fill="none" stroke="black" d="M1171.3,-629.75C1171.13,-590.62 1170.71,-494.8 1170.5,-446.43"/>
<polygon fill="black" stroke="black" points="1174,-446.45 1170.46,-436.46 1167,-446.48 1174,-446.45"/>
</g>
<!-- X10dc08fa9403900e_2 -->
<g id="node31" class="node">
<title>X10dc08fa9403900e_2</title>
<polygon fill="none" stroke="black" points="1272.38,-434.5 1218.38,-434.5 1218.38,-398.5 1272.38,-398.5 1272.38,-434.5"/>
<text xml:space="preserve" text-anchor="start" x="1226.38" y="-411.45" font-family="Times,serif" font-size="14.00">Return</text>
</g>
<!-- X10dc08fa9403900e_1&#45;&gt;X10dc08fa9403900e_2 -->
<g id="edge18" class="edge">
<title>X10dc08fa9403900e_1&#45;&gt;X10dc08fa9403900e_2</title>
<path fill="none" stroke="black" d="M1244.45,-629.75C1244.62,-590.62 1245.04,-494.8 1245.25,-446.43"/>
<polygon fill="black" stroke="black" points="1248.75,-446.48 1245.29,-436.46 1241.75,-446.45 1248.75,-446.48"/>
</g>
<!-- node_15 -->
<g id="node33" class="node">
<title>node_15</title>
<polygon fill="#7ccd7c" stroke="#7ccd7c" points="3411.5,-255 3267.25,-255 3267.25,-181 3411.5,-181 3411.5,-255"/>
<text xml:space="preserve" text-anchor="start" x="3275.25" y="-237.7" font-family="Times,serif" font-size="14.00">LOCALS</text>
<text xml:space="preserve" text-anchor="start" x="3275.25" y="-221.2" font-family="Times,serif" font-size="14.00">0 = () (0 bytes, align 1)</text>
<text xml:space="preserve" text-anchor="start" x="3275.25" y="-204.7" font-family="Times,serif" font-size="14.00">1 = fn()</text>
<text xml:space="preserve" text-anchor="start" x="3275.25" y="-188.2" font-family="Times,serif" font-size="14.00">2 = () (0 bytes, align 1)</text>
</g>
<!-- node_17 -->
<g id="node35" class="node">
<title>node_17</title>
<polygon fill="#7ccd7c" stroke="#7ccd7c" points="3708.38,-1156.25 3284.38,-1156.25 3284.38,-1098.75 3708.38,-1098.75 3708.38,-1156.25"/>
<text xml:space="preserve" text-anchor="start" x="3292.38" y="-1138.95" font-family="Times,serif" font-size="14.00">LOCALS</text>
<text xml:space="preserve" text-anchor="start" x="3292.38" y="-1122.45" font-family="Times,serif" font-size="14.00">0 = () (0 bytes, align 1)</text>
<text xml:space="preserve" text-anchor="start" x="3292.38" y="-1105.95" font-family="Times,serif" font-size="14.00">1 = *mut {closure@std::rt::lang_start&lt;()&gt;::{closure#0}} (8 bytes, align 8)</text>
</g>
<!-- Xdd5ba90dedd6c6e1_0 -->
<g id="node36" class="node">
<title>Xdd5ba90dedd6c6e1_0</title>
<polygon fill="none" stroke="black" points="3780.38,-1145.5 3726.38,-1145.5 3726.38,-1109.5 3780.38,-1109.5 3780.38,-1145.5"/>
<text xml:space="preserve" text-anchor="start" x="3734.38" y="-1122.45" font-family="Times,serif" font-size="14.00">Return</text>
</g>
<!-- node_19 -->
<g id="node37" class="node">
<title>node_19</title>
<polygon fill="#7ccd7c" stroke="#7ccd7c" points="2830.12,-246.75 2572.62,-246.75 2572.62,-189.25 2830.12,-189.25 2830.12,-246.75"/>
<text xml:space="preserve" text-anchor="start" x="2580.62" y="-229.45" font-family="Times,serif" font-size="14.00">LOCALS</text>
<text xml:space="preserve" text-anchor="start" x="2580.62" y="-212.95" font-family="Times,serif" font-size="14.00">0 = std::process::ExitCode (1 bytes, align 1)</text>
<text xml:space="preserve" text-anchor="start" x="2580.62" y="-196.45" font-family="Times,serif" font-size="14.00">1 = () (0 bytes, align 1)</text>
</g>
</g>
</svg>
